<?xml version="1.0" encoding="utf-8"?>
<!-- Generator: Adobe Illustrator 22.1.0, SVG Export Plug-In . SVG Version: 6.00 Build 0)  -->
<svg version="1.1" id="Layer_1" xmlns="http://www.w3.org/2000/svg" xmlns:xlink="http://www.w3.org/1999/xlink" x="0px" y="0px"
	 viewBox="0 0 24 24" style="enable-background:new 0 0 24 24;" xml:space="preserve">
<title>accounting-document</title>
<g>
	<path d="M3.75,24c-1.241,0-2.25-1.009-2.25-2.25V2.25C1.5,1.009,2.509,0,3.75,0h10.629c0.601,0,1.165,0.234,1.59,0.658l5.872,5.872
		c0.425,0.425,0.659,0.99,0.659,1.59V21.75c0,1.241-1.009,2.25-2.25,2.25H3.75z M3.75,1.5C3.336,1.5,3,1.836,3,2.25v19.5
		c0,0.414,0.336,0.75,0.75,0.75h16.5c0.414,0,0.75-0.336,0.75-0.75V9h-5.25c-1.241,0-2.25-1.009-2.25-2.25V1.5H3.75z M15,6.75
		c0,0.414,0.336,0.75,0.75,0.75h4.939L15,1.811V6.75z"/>
	<path d="M8.062,14.25c-0.414,0-0.75-0.336-0.75-0.75v-0.353c-0.675-0.153-1.285-0.542-1.709-1.099
		c-0.121-0.159-0.173-0.356-0.146-0.555c0.027-0.198,0.129-0.375,0.289-0.496c0.131-0.1,0.289-0.153,0.454-0.153
		c0.236,0,0.454,0.108,0.597,0.296c0.277,0.364,0.716,0.581,1.175,0.581l0.057-0.001c0.774,0,1.342-0.421,1.342-0.797
		c0-0.376-0.56-0.796-1.309-0.796c-1.551,0-2.812-1.031-2.812-2.298c0-1.052,0.849-1.943,2.062-2.213V5.25
		c0-0.414,0.336-0.75,0.75-0.75s0.75,0.336,0.75,0.75v0.356c0.676,0.154,1.284,0.542,1.705,1.096
		c0.121,0.159,0.173,0.356,0.146,0.555c-0.027,0.199-0.13,0.375-0.289,0.496c-0.131,0.1-0.288,0.153-0.453,0.153
		c-0.233,0-0.457-0.111-0.597-0.296c-0.276-0.364-0.714-0.581-1.17-0.581c-0.02,0-0.04,0-0.06,0.001
		C7.318,7.031,6.75,7.452,6.75,7.828c0,0.377,0.561,0.798,1.312,0.798c1.549,0,2.809,1.03,2.809,2.296
		c0,1.05-0.848,1.941-2.059,2.212V13.5C8.812,13.914,8.476,14.25,8.062,14.25z"/>
	<path d="M12,15.75c-0.414,0-0.75-0.336-0.75-0.75s0.336-0.75,0.75-0.75h6c0.414,0,0.75,0.336,0.75,0.75s-0.336,0.75-0.75,0.75H12z"
		/>
	<path d="M6.75,20.25C6.336,20.25,6,19.914,6,19.5s0.336-0.75,0.75-0.75H18c0.414,0,0.75,0.336,0.75,0.75s-0.336,0.75-0.75,0.75
		H6.75z"/>
</g>
</svg>
