<?xml version="1.0" encoding="utf-8"?>
<!-- Generator: Adobe Illustrator 22.1.0, SVG Export Plug-In . SVG Version: 6.00 Build 0)  -->
<svg version="1.1" id="Light" xmlns="http://www.w3.org/2000/svg" xmlns:xlink="http://www.w3.org/1999/xlink" x="0px" y="0px"
	 viewBox="0 0 24 24" style="enable-background:new 0 0 24 24;" xml:space="preserve">
<g>
	<title>ambulance-call</title>
	<path d="M18.005,9.995c-0.552,0-1-0.449-1-1v-2h-2c-0.552,0-1-0.449-1-1v-2c0-0.551,0.448-1,1-1h2v-2c0-0.551,0.448-1,1-1h2
		c0.552,0,1,0.449,1,1v2h2c0.552,0,1,0.449,1,1v2c0,0.551-0.448,1-1,1h-2v2c0,0.551-0.448,1-1,1H18.005z M15.005,5.995h2.5
		c0.276,0,0.5,0.224,0.5,0.5v2.5h2v-2.5c0-0.276,0.224-0.5,0.5-0.5h2.5v-2h-2.5c-0.276,0-0.5-0.224-0.5-0.5v-2.5h-2v2.5
		c0,0.276-0.224,0.5-0.5,0.5h-2.5L15.005,5.995z"/>
	<path d="M15.656,23.99c-0.689,0-1.355-0.2-1.927-0.577C8.49,19.932,4.069,15.51,0.589,10.272c-0.912-1.38-0.727-3.23,0.439-4.401
		l1.165-1.165c0.471-0.471,1.099-0.731,1.768-0.731s1.296,0.26,1.767,0.731l2.123,2.121c0.975,0.975,0.975,2.562,0,3.536
		c-0.002,0.002-0.387,0.383-0.387,0.383c1.755,2.091,3.701,4.038,5.791,5.791l0.385-0.385c0.471-0.471,1.099-0.731,1.768-0.731
		c0.668,0,1.296,0.26,1.768,0.731l2.123,2.118c0.975,0.975,0.975,2.561,0,3.535l-1.165,1.164
		C17.474,23.628,16.594,23.99,15.656,23.99z M3.96,4.974c-0.401,0-0.778,0.156-1.06,0.438L1.736,6.577
		C0.903,7.413,0.771,8.735,1.422,9.719c3.406,5.127,7.732,9.453,12.86,12.859c0.407,0.269,0.882,0.411,1.374,0.411
		c0.671,0,1.3-0.259,1.77-0.728l1.165-1.164c0.584-0.585,0.584-1.536,0-2.121l-2.123-2.118c-0.283-0.283-0.66-0.439-1.061-0.439
		s-0.778,0.156-1.06,0.438l-0.707,0.707c-0.094,0.094-0.22,0.146-0.354,0.146c-0.116,0-0.229-0.041-0.318-0.114
		c-2.391-1.967-4.601-4.177-6.568-6.568c-0.165-0.201-0.15-0.49,0.035-0.673l0.711-0.703c0.583-0.584,0.583-1.535-0.001-2.12
		L5.021,5.413C4.738,5.13,4.362,4.974,3.96,4.974z"/>
</g>
</svg>
