<?xml version="1.0" encoding="utf-8"?>
<!-- Generator: Adobe Illustrator 22.1.0, SVG Export Plug-In . SVG Version: 6.00 Build 0)  -->
<svg version="1.1" id="Layer_1" xmlns="http://www.w3.org/2000/svg" xmlns:xlink="http://www.w3.org/1999/xlink" x="0px" y="0px"
	 viewBox="0 0 24 24" style="enable-background:new 0 0 24 24;" xml:space="preserve">
<title>analytics-bars-circle</title>
<g>
	<path d="M12,24C5.383,24,0,18.617,0,12C0,5.383,5.383,0,12,0c6.617,0,12,5.383,12,12C24,18.617,18.617,24,12,24z M12,1.5
		C6.21,1.5,1.5,6.21,1.5,12c0,5.79,4.71,10.5,10.5,10.5c5.79,0,10.5-4.71,10.5-10.5C22.5,6.21,17.79,1.5,12,1.5z"/>
	<path d="M6.75,18C6.336,18,6,17.664,6,17.25v-9C6,7.836,6.336,7.5,6.75,7.5S7.5,7.836,7.5,8.25v8.25H9V12
		c0-0.414,0.336-0.75,0.75-0.75S10.5,11.586,10.5,12v4.5H12V9.75C12,9.336,12.336,9,12.75,9s0.75,0.336,0.75,0.75v6.75H15v-5.25
		c0-0.414,0.336-0.75,0.75-0.75s0.75,0.336,0.75,0.75v5.25h0.75c0.414,0,0.75,0.336,0.75,0.75S17.664,18,17.25,18H6.75z"/>
</g>
</svg>
