<?xml version="1.0" encoding="utf-8"?>
<!-- Generator: Adobe Illustrator 22.1.0, SVG Export Plug-In . SVG Version: 6.00 Build 0)  -->
<svg version="1.1" id="Layer_1" xmlns="http://www.w3.org/2000/svg" xmlns:xlink="http://www.w3.org/1999/xlink" x="0px" y="0px"
	 viewBox="0 0 24 24" style="enable-background:new 0 0 24 24;" xml:space="preserve">
<title>analytics-board-graph-line</title>
<g>
	<path d="M2.25,21C1.009,21,0,19.991,0,18.75V5.25C0,4.009,1.009,3,2.25,3h19.5C22.991,3,24,4.009,24,5.25v13.5
		c0,1.241-1.009,2.25-2.25,2.25H2.25z M2.25,4.5C1.836,4.5,1.5,4.836,1.5,5.25v13.5c0,0.414,0.336,0.75,0.75,0.75h19.5
		c0.414,0,0.75-0.336,0.75-0.75V5.25c0-0.414-0.336-0.75-0.75-0.75H2.25z"/>
	<path d="M9.751,15.75c-0.037,0-0.074-0.003-0.111-0.008c-0.23-0.033-0.437-0.177-0.549-0.384l-2.224-4.096l-2.474,4.124
		C4.258,15.61,4.012,15.75,3.75,15.75c-0.136,0-0.27-0.037-0.386-0.107c-0.171-0.103-0.293-0.267-0.341-0.461
		s-0.019-0.396,0.084-0.568l3.15-5.25c0.135-0.225,0.376-0.365,0.63-0.365c0.008,0,0.037,0.001,0.045,0.001
		c0.252,0.005,0.499,0.155,0.627,0.391l2.371,4.367l2.29-2.29c0.142-0.142,0.33-0.22,0.53-0.22s0.389,0.078,0.53,0.22l2.353,2.353
		l3.993-5.989C19.766,7.625,19.999,7.5,20.25,7.5c0.148,0,0.292,0.044,0.416,0.126c0.167,0.111,0.281,0.281,0.32,0.477
		c0.039,0.196,0,0.396-0.112,0.563l-4.5,6.75c-0.125,0.187-0.325,0.308-0.55,0.33c-0.024,0.003-0.05,0.004-0.075,0.004
		c-0.197,0-0.39-0.08-0.53-0.22l-2.469-2.469l-2.47,2.47C10.138,15.672,9.95,15.75,9.751,15.75z"/>
</g>
</svg>
