<?xml version="1.0" encoding="utf-8"?>
<!-- Generator: Adobe Illustrator 22.1.0, SVG Export Plug-In . SVG Version: 6.00 Build 0)  -->
<svg version="1.1" id="Layer_1" xmlns="http://www.w3.org/2000/svg" xmlns:xlink="http://www.w3.org/1999/xlink" x="0px" y="0px"
	 viewBox="0 0 24 24" style="enable-background:new 0 0 24 24;" xml:space="preserve">
<title>analytics-pie-2</title>
<g>
	<path d="M13.5,10.5c-0.414,0-0.75-0.336-0.75-0.75v-9C12.75,0.336,13.087,0,13.5,0c5.376,0,9.75,4.374,9.75,9.75
		c0,0.414-0.336,0.75-0.75,0.75H13.5z M21.716,9c-0.359-3.929-3.537-7.107-7.466-7.466V9H21.716z"/>
	<path d="M10.501,24c-2.604,0-5.052-1.014-6.894-2.855c-1.842-1.841-2.856-4.29-2.856-6.894c0-2.604,1.014-5.053,2.855-6.894
		C5.447,5.515,7.896,4.5,10.5,4.5c0.197,0,0.391,0.08,0.53,0.22c0.142,0.142,0.22,0.33,0.22,0.53v8.741l5.401,6.873
		c0.124,0.157,0.179,0.354,0.155,0.553s-0.124,0.377-0.281,0.5C14.815,23.26,12.676,24,10.501,24L10.501,24z M9.75,6.034
		c-1.918,0.173-3.711,1.01-5.083,2.383c-1.558,1.558-2.416,3.63-2.416,5.834c0,2.204,0.858,4.275,2.417,5.833
		c1.558,1.558,3.63,2.416,5.833,2.416c1.58,0,3.157-0.469,4.486-1.327l-5.076-6.46c-0.103-0.132-0.16-0.296-0.16-0.463V6.034z"/>
	<path d="M19.061,20.577c-0.232,0-0.447-0.104-0.59-0.287l-5.561-7.077c-0.177-0.225-0.209-0.535-0.084-0.792
		C12.95,12.166,13.215,12,13.5,12h9c0.413,0,0.75,0.336,0.75,0.749c0.002,3.013-1.356,5.808-3.726,7.667
		C19.393,20.52,19.229,20.577,19.061,20.577z M19.167,18.748c1.479-1.388,2.373-3.227,2.551-5.248h-6.674L19.167,18.748z"/>
</g>
</svg>
