<?xml version="1.0" encoding="utf-8"?>
<!-- Generator: Adobe Illustrator 22.1.0, SVG Export Plug-In . SVG Version: 6.00 Build 0)  -->
<svg version="1.1" id="Regular" xmlns="http://www.w3.org/2000/svg" xmlns:xlink="http://www.w3.org/1999/xlink" x="0px" y="0px"
	 viewBox="0 0 24 24" style="enable-background:new 0 0 24 24;" xml:space="preserve">
<title>beach-sun-birds</title>
<g>
	<path d="M1.436,24.044c-0.259,0-0.521-0.016-0.778-0.048c-0.199-0.024-0.376-0.125-0.499-0.283s-0.177-0.354-0.153-0.553
		c0.047-0.375,0.366-0.658,0.744-0.658c0.03,0,0.061,0.002,0.092,0.006c0.197,0.024,0.396,0.037,0.593,0.037
		c1.233,0,2.403-0.473,3.295-1.333c0.14-0.135,0.323-0.21,0.515-0.21c0.006,0,0.032,0.001,0.038,0.001
		c0.195,0.007,0.389,0.097,0.524,0.247c0.68,0.752,1.612,1.196,2.624,1.247c0.072,0.004,0.141,0.006,0.211,0.006
		c0.93,0,1.828-0.348,2.527-0.979c0.096-0.086,0.188-0.178,0.274-0.274c0.142-0.157,0.345-0.247,0.557-0.247
		c0.212,0,0.415,0.09,0.557,0.248c0.717,0.794,1.745,1.25,2.82,1.25c0.942,0,1.845-0.347,2.543-0.977
		c0.095-0.086,0.188-0.178,0.274-0.274c0.135-0.15,0.329-0.24,0.531-0.247c0.004,0,0.029-0.001,0.033-0.001
		c0.188,0,0.375,0.077,0.513,0.211c0.892,0.859,2.062,1.332,3.296,1.332c0.197,0,0.396-0.012,0.592-0.036
		c0.031-0.004,0.062-0.006,0.092-0.006c0.378,0,0.698,0.283,0.744,0.657c0.025,0.198-0.029,0.395-0.153,0.553
		c-0.123,0.158-0.301,0.259-0.5,0.283c-0.257,0.032-0.519,0.048-0.777,0.048c-1.369,0-2.701-0.453-3.786-1.281
		c-0.951,0.798-2.152,1.236-3.401,1.236c-1.245,0-2.432-0.428-3.378-1.212c-0.949,0.785-2.14,1.214-3.379,1.214
		c-0.088,0-0.176-0.002-0.265-0.006c-1.157-0.059-2.258-0.494-3.135-1.231C4.135,23.591,2.804,24.044,1.436,24.044z"/>
	<path d="M1.436,19.543c-0.258,0-0.52-0.016-0.778-0.048c-0.199-0.024-0.376-0.125-0.499-0.283s-0.177-0.354-0.153-0.553
		c0.047-0.375,0.366-0.658,0.742-0.658c0.032,0,0.064,0.002,0.096,0.006c0.194,0.024,0.394,0.036,0.59,0.036
		c1.233,0,2.403-0.473,3.295-1.333c0.141-0.136,0.323-0.21,0.514-0.21c0.007,0,0.034,0.001,0.041,0.001
		c0.193,0.007,0.387,0.097,0.523,0.247c0.68,0.752,1.612,1.196,2.624,1.247C8.503,18,8.573,18.002,8.643,18.002
		c0.93,0,1.827-0.348,2.527-0.979c0.096-0.086,0.188-0.178,0.274-0.274c0.142-0.157,0.345-0.247,0.557-0.247
		c0.212,0,0.415,0.09,0.557,0.248c0.717,0.794,1.745,1.25,2.82,1.25c0.942,0,1.845-0.347,2.543-0.977
		c0.095-0.086,0.188-0.178,0.274-0.274c0.135-0.15,0.329-0.24,0.531-0.247c0.004,0,0.03-0.001,0.034-0.001
		c0.187,0,0.374,0.077,0.512,0.211c0.892,0.859,2.062,1.332,3.296,1.332c0.197,0,0.396-0.012,0.592-0.036
		c0.031-0.004,0.062-0.006,0.093-0.006c0.377,0,0.697,0.283,0.743,0.658c0.025,0.198-0.029,0.395-0.153,0.553
		c-0.123,0.158-0.301,0.259-0.5,0.283c-0.257,0.032-0.519,0.048-0.777,0.048c-1.369,0-2.701-0.453-3.786-1.281
		c-0.951,0.798-2.152,1.236-3.401,1.236c-1.245,0-2.432-0.428-3.378-1.212c-0.949,0.785-2.139,1.214-3.378,1.214
		c-0.088,0-0.177-0.002-0.266-0.007c-1.157-0.059-2.257-0.494-3.135-1.231C4.135,19.091,2.803,19.543,1.436,19.543z"/>
	<path d="M19.5,6.001c-0.2,0-0.389-0.078-0.53-0.22l-1.5-1.5c-0.142-0.141-0.22-0.33-0.22-0.53s0.078-0.389,0.22-0.53
		s0.33-0.22,0.53-0.22s0.389,0.078,0.53,0.22l0.97,0.97l0.97-0.97c0.142-0.142,0.33-0.22,0.53-0.22s0.389,0.078,0.53,0.22
		c0.142,0.141,0.22,0.33,0.22,0.53s-0.078,0.389-0.22,0.53l-1.5,1.5C19.889,5.923,19.7,6.001,19.5,6.001z"/>
	<path d="M21.75,11.251c-0.2,0-0.389-0.078-0.53-0.22l-1.5-1.5c-0.142-0.141-0.22-0.33-0.22-0.53s0.078-0.389,0.22-0.53
		s0.33-0.22,0.53-0.22s0.389,0.078,0.53,0.22l0.97,0.97l0.97-0.97c0.142-0.142,0.33-0.22,0.53-0.22s0.389,0.078,0.53,0.22
		C23.922,8.612,24,8.801,24,9.001s-0.078,0.389-0.22,0.53l-1.5,1.5C22.139,11.173,21.95,11.251,21.75,11.251z"/>
	<path d="M6.75,9.001c-1.654,0-3-1.346-3-3s1.346-3,3-3s3,1.346,3,3S8.404,9.001,6.75,9.001z M6.75,4.501
		c-0.827,0-1.5,0.673-1.5,1.5s0.673,1.5,1.5,1.5s1.5-0.673,1.5-1.5S7.577,4.501,6.75,4.501z"/>
	<path d="M11.25,6.751c-0.414,0-0.75-0.336-0.75-0.75s0.336-0.75,0.75-0.75h1.5c0.414,0,0.75,0.336,0.75,0.75s-0.336,0.75-0.75,0.75
		H11.25z"/>
	<path d="M0.75,6.751C0.336,6.751,0,6.415,0,6.001s0.336-0.75,0.75-0.75h1.5C2.663,5.251,3,5.587,3,6.001s-0.336,0.75-0.75,0.75
		H0.75z"/>
	<path d="M9,2.8c-0.131,0-0.261-0.035-0.375-0.101c-0.173-0.1-0.297-0.262-0.349-0.455C8.223,2.05,8.25,1.848,8.35,1.675L9.1,0.376
		c0.134-0.232,0.383-0.375,0.65-0.375c0.131,0,0.261,0.035,0.375,0.101c0.173,0.1,0.297,0.262,0.349,0.455
		c0.052,0.194,0.025,0.396-0.075,0.569l-0.75,1.299C9.516,2.656,9.267,2.8,9,2.8z"/>
	<path d="M3.75,12.001c-0.131,0-0.261-0.035-0.375-0.101c-0.173-0.1-0.297-0.262-0.349-0.455C2.973,11.252,3,11.049,3.1,10.876
		l0.75-1.299C3.984,9.346,4.233,9.202,4.5,9.202c0.131,0,0.26,0.035,0.374,0.1c0.174,0.1,0.298,0.262,0.35,0.455
		c0.052,0.194,0.025,0.396-0.075,0.569l-0.75,1.299C4.266,11.857,4.017,12.001,3.75,12.001z"/>
	<path d="M4.5,2.8c-0.267,0-0.516-0.144-0.65-0.375L3.1,1.126C3,0.953,2.973,0.751,3.025,0.557c0.052-0.193,0.176-0.355,0.349-0.455
		C3.489,0.036,3.618,0.001,3.75,0.001c0.267,0,0.516,0.144,0.65,0.375l0.75,1.299c0.1,0.173,0.127,0.375,0.075,0.569
		C5.172,2.438,5.048,2.599,4.875,2.7C4.761,2.765,4.631,2.8,4.5,2.8z"/>
	<path d="M9.75,12.001c-0.267,0-0.516-0.144-0.65-0.375l-0.75-1.299c-0.1-0.173-0.127-0.375-0.075-0.569
		c0.052-0.193,0.176-0.355,0.349-0.455c0.114-0.066,0.244-0.1,0.375-0.1c0.267,0,0.516,0.144,0.65,0.375l0.75,1.299
		c0.1,0.173,0.127,0.375,0.075,0.569c-0.052,0.193-0.176,0.355-0.349,0.455C10.011,11.966,9.881,12.001,9.75,12.001z"/>
</g>
</svg>
