<?xml version="1.0" encoding="utf-8"?>
<!-- Generator: Adobe Illustrator 22.1.0, SVG Export Plug-In . SVG Version: 6.00 Build 0)  -->
<svg version="1.1" id="Layer_1" xmlns="http://www.w3.org/2000/svg" xmlns:xlink="http://www.w3.org/1999/xlink" x="0px" y="0px"
	 viewBox="0 0 24 24" style="enable-background:new 0 0 24 24;" xml:space="preserve">
<title>construction-pipe</title>
<g>
	<path d="M20.25,9c-0.414,0-0.75-0.336-0.75-0.75V7.5H12c-0.414,0-0.75-0.336-0.75-0.75S11.586,6,12,6h7.5V3H12
		c-0.414,0-0.75-0.336-0.75-0.75S11.586,1.5,12,1.5h7.5V0.75C19.5,0.336,19.836,0,20.25,0S21,0.336,21,0.75v7.5
		C21,8.664,20.664,9,20.25,9z"/>
	<path d="M20.655,17.25c-0.329,0-0.616-0.21-0.715-0.524c-0.892-2.823-3.48-4.723-6.441-4.726H8.25c-1.654,0-3-1.346-3-3
		s1.346-3,3-3V3c-3.308,0-6,2.692-6,6c0,3.308,2.692,6,6,6h5.25c0.916,0,1.795,0.333,2.479,0.938
		c0.15,0.133,0.239,0.316,0.251,0.516s-0.054,0.393-0.187,0.543c-0.142,0.161-0.347,0.253-0.562,0.253
		c-0.183,0-0.36-0.067-0.497-0.189c-0.409-0.362-0.935-0.561-1.482-0.561H8.25c-4.135,0-7.5-3.365-7.5-7.5s3.365-7.5,7.5-7.5V0.75
		C8.25,0.336,8.586,0,9,0s0.75,0.336,0.75,0.75v7.5C9.75,8.664,9.414,9,9,9S8.25,8.664,8.25,8.25V7.5c-0.827,0-1.5,0.673-1.5,1.5
		s0.673,1.5,1.5,1.5h5.25c3.618,0.004,6.781,2.325,7.87,5.774c0.124,0.395-0.095,0.817-0.489,0.941
		C20.807,17.239,20.731,17.25,20.655,17.25z"/>
	<path d="M21,24c-0.414,0-0.75-0.336-0.75-0.75v-3h-3v3c0,0.414-0.336,0.75-0.75,0.75s-0.75-0.336-0.75-0.75v-3H15
		c-0.414,0-0.75-0.336-0.75-0.75s0.336-0.75,0.75-0.75h7.5c0.414,0,0.75,0.336,0.75,0.75s-0.336,0.75-0.75,0.75h-0.75v3
		C21.75,23.664,21.414,24,21,24z"/>
</g>
</svg>
