<?xml version="1.0" encoding="utf-8"?>
<!-- Generator: Adobe Illustrator 22.1.0, SVG Export Plug-In . SVG Version: 6.00 Build 0)  -->
<svg version="1.1" id="Layer_1" xmlns="http://www.w3.org/2000/svg" xmlns:xlink="http://www.w3.org/1999/xlink" x="0px" y="0px"
	 viewBox="0 0 24 24" style="enable-background:new 0 0 24 24;" xml:space="preserve">
<title>credit-card-1</title>
<g>
	<path d="M2.25,21C1.009,21,0,19.991,0,18.75V5.25C0,4.009,1.009,3,2.25,3h19.5C22.991,3,24,4.009,24,5.25v13.5
		c0,1.241-1.009,2.25-2.25,2.25H2.25z M1.5,18.75c0,0.414,0.336,0.75,0.75,0.75h19.5c0.414,0,0.75-0.336,0.75-0.75V9h-21V18.75z
		 M22.5,7.5V5.25c0-0.414-0.336-0.75-0.75-0.75H2.25C1.836,4.5,1.5,4.836,1.5,5.25V7.5H22.5z"/>
	<path d="M5.25,13.5c-0.414,0-0.75-0.336-0.75-0.75S4.836,12,5.25,12h8.25c0.414,0,0.75,0.336,0.75,0.75s-0.336,0.75-0.75,0.75H5.25
		z"/>
	<path d="M5.25,16.5c-0.414,0-0.75-0.336-0.75-0.75S4.836,15,5.25,15h5.25c0.414,0,0.75,0.336,0.75,0.75s-0.336,0.75-0.75,0.75H5.25
		z"/>
</g>
</svg>
