<?xml version="1.0" encoding="utf-8"?>
<!-- Generator: Adobe Illustrator 22.1.0, SVG Export Plug-In . SVG Version: 6.00 Build 0)  -->
<svg version="1.1" id="Layer_1" xmlns="http://www.w3.org/2000/svg" xmlns:xlink="http://www.w3.org/1999/xlink" x="0px" y="0px"
	 viewBox="0 0 24 24" style="enable-background:new 0 0 24 24;" xml:space="preserve">
<title>currency-euro-circle</title>
<g>
	<path d="M12,23.25C5.797,23.25,0.75,18.203,0.75,12C0.75,5.797,5.797,0.75,12,0.75c6.203,0,11.25,5.047,11.25,11.25
		C23.25,18.203,18.203,23.25,12,23.25z M12,2.25c-5.376,0-9.75,4.374-9.75,9.75s4.374,9.75,9.75,9.75s9.75-4.374,9.75-9.75
		S17.376,2.25,12,2.25z"/>
	<path d="M13.5,17.25c-2.438,0-4.158-1.062-4.876-3H7.5c-0.414,0-0.75-0.336-0.75-0.75s0.336-0.75,0.75-0.75h0.786
		C8.262,12.506,8.25,12.255,8.25,12c0-0.255,0.012-0.506,0.036-0.75H7.5c-0.414,0-0.75-0.336-0.75-0.75S7.086,9.75,7.5,9.75h1.124
		c0.717-1.938,2.438-3,4.876-3c0.414,0,0.75,0.336,0.75,0.75s-0.336,0.75-0.75,0.75c-1.564,0-2.649,0.504-3.233,1.5H13.5
		c0.414,0,0.75,0.336,0.75,0.75s-0.336,0.75-0.75,0.75H9.796C9.766,11.494,9.75,11.745,9.75,12s0.016,0.506,0.046,0.75H12
		c0.414,0,0.75,0.336,0.75,0.75s-0.336,0.75-0.75,0.75h-1.733c0.584,0.996,1.669,1.5,3.233,1.5c0.414,0,0.75,0.336,0.75,0.75
		S13.914,17.25,13.5,17.25z"/>
</g>
</svg>
