<?xml version="1.0" encoding="utf-8"?>
<!-- Generator: Adobe Illustrator 22.1.0, SVG Export Plug-In . SVG Version: 6.00 Build 0)  -->
<svg version="1.1" id="Layer_1" xmlns="http://www.w3.org/2000/svg" xmlns:xlink="http://www.w3.org/1999/xlink" x="0px" y="0px"
	 viewBox="0 0 24 24" style="enable-background:new 0 0 24 24;" xml:space="preserve">
<title>data-file-bars-info</title>
<g>
	<path d="M17.25,24c-3.722,0-6.75-3.028-6.75-6.75s3.028-6.75,6.75-6.75S24,13.528,24,17.25S20.972,24,17.25,24z M17.25,12
		C14.355,12,12,14.355,12,17.25s2.355,5.25,5.25,5.25s5.25-2.355,5.25-5.25S20.145,12,17.25,12z"/>
	<path d="M17.25,21c-0.414,0-0.75-0.336-0.75-0.75v-3c0-0.414,0.336-0.75,0.75-0.75S18,16.836,18,17.25v3
		C18,20.664,17.664,21,17.25,21z"/>
	<path d="M17.25,15.811c-0.62,0-1.125-0.505-1.125-1.125s0.505-1.125,1.125-1.125c0.304,0.001,0.586,0.118,0.798,0.331
		c0.212,0.213,0.328,0.495,0.327,0.796C18.375,15.307,17.87,15.811,17.25,15.811z"/>
	<path d="M3.75,15C3.336,15,3,14.664,3,14.25s0.336-0.75,0.75-0.75H4.5V9.75C4.5,9.336,4.836,9,5.25,9S6,9.336,6,9.75v3.75h1.5V6.75
		C7.5,6.336,7.836,6,8.25,6S9,6.336,9,6.75v7.5C9,14.664,3.75,15,3.75,15z"/>
	<path d="M11.25,10.5c-0.414,0-0.75-0.336-0.75-0.75v-1.5c0-0.414,0.336-0.75,0.75-0.75S12,7.836,12,8.25v1.5
		C12,10.164,11.664,10.5,11.25,10.5z"/>
	<path d="M2.25,21C1.009,21,0,19.991,0,18.75V2.25C0,1.009,1.009,0,2.25,0h10.629c0.601,0,1.165,0.234,1.59,0.658l2.872,2.872
		C17.766,3.955,18,4.52,18,5.121V7.5c0,0.414-0.336,0.75-0.75,0.75S16.5,7.914,16.5,7.5V5.121c0-0.197-0.08-0.39-0.219-0.53
		l-2.872-2.872c-0.142-0.141-0.33-0.219-0.53-0.219H2.25C1.836,1.5,1.5,1.836,1.5,2.25v16.5c0,0.414,0.336,0.75,0.75,0.75H7.5
		c0.414,0,0.75,0.336,0.75,0.75S7.914,21,7.5,21H2.25z"/>
</g>
</svg>
