<?xml version="1.0" encoding="utf-8"?>
<!-- Generator: Adobe Illustrator 22.1.0, SVG Export Plug-In . SVG Version: 6.00 Build 0)  -->
<svg version="1.1" id="Layer_1" xmlns="http://www.w3.org/2000/svg" xmlns:xlink="http://www.w3.org/1999/xlink" x="0px" y="0px"
	 viewBox="0 0 24 24" style="enable-background:new 0 0 24 24;" xml:space="preserve">
<title>maps</title>
<g>
	<path d="M8.25,22.751c-0.286,0-0.568-0.054-0.836-0.162l-6-2.4C0.555,19.845,0,19.025,0,18.1V3.727
		c-0.001-0.191,0.035-0.381,0.108-0.562C0.257,2.793,0.542,2.502,0.91,2.344C1.098,2.263,1.297,2.222,1.5,2.222
		c0.191,0,0.379,0.036,0.559,0.109l5.913,2.366C8.056,4.731,8.145,4.749,8.237,4.75c0.005,0,0.022,0,0.027,0
		c0.09-0.002,0.18-0.02,0.265-0.054l6.385-2.555c0.268-0.107,0.549-0.162,0.836-0.162c0.287,0,0.568,0.054,0.835,0.162l6,2.4
		C23.445,4.885,24,5.705,24,6.631V21c0.001,0.19-0.035,0.38-0.107,0.56c-0.15,0.374-0.435,0.665-0.803,0.823
		c-0.188,0.081-0.386,0.121-0.589,0.121l0,0c-0.191,0-0.379-0.036-0.559-0.108l-5.913-2.362c-0.086-0.034-0.176-0.052-0.267-0.054
		c-0.004,0-0.019,0-0.022,0c-0.091,0.001-0.181,0.019-0.267,0.054l-6.386,2.555C8.818,22.696,8.536,22.751,8.25,22.751z M1.5,18.1
		c0,0.309,0.185,0.582,0.472,0.697L7.5,21.008V6.121c-0.029-0.01-0.057-0.021-0.086-0.032L1.501,3.723L1.5,18.1z M9,21.008
		l5.914-2.366c0.028-0.011,0.057-0.022,0.086-0.032V3.723L9.086,6.089C9.057,6.101,9.029,6.111,9,6.121V21.008z M16.585,18.642
		l5.914,2.362L22.5,6.631c0-0.309-0.185-0.582-0.471-0.697L16.5,3.723V18.61C16.529,18.62,16.557,18.631,16.585,18.642z"/>
</g>
</svg>
