<?xml version="1.0" encoding="utf-8"?>
<!-- Generator: Adobe Illustrator 22.1.0, SVG Export Plug-In . SVG Version: 6.00 Build 0)  -->
<svg version="1.1" id="Regular" xmlns="http://www.w3.org/2000/svg" xmlns:xlink="http://www.w3.org/1999/xlink" x="0px" y="0px"
	 viewBox="0 0 24 24" style="enable-background:new 0 0 24 24;" xml:space="preserve">
<title>medical-specialty-nose</title>
<g>
	<path d="M18.754,23.995c-1.691,0-3.248-0.792-4.235-2.138c-0.572,0.329-1.36,0.641-2.522,0.641s-1.95-0.312-2.522-0.641
		c-0.541,0.734-1.26,1.313-2.097,1.684c-0.678,0.301-1.393,0.453-2.126,0.453c-0.645,0-1.281-0.119-1.891-0.354
		c-1.308-0.505-2.342-1.489-2.91-2.771c-0.568-1.28-0.602-2.706-0.097-4.016s1.488-2.344,2.768-2.911
		c1.33-0.589,2.365-1.715,2.839-3.089c0.995-3.021,1.51-6.171,1.529-9.36c0.007-0.259,0.007-0.5,0.007-0.746
		c0-0.414,0.336-0.75,0.75-0.75c0.414,0,0.75,0.336,0.75,0.75c0,0.26,0,0.514-0.007,0.771C8.97,4.85,8.429,8.154,7.382,11.332
		c-0.612,1.776-1.943,3.225-3.653,3.982c-0.915,0.406-1.618,1.144-1.978,2.078c-0.36,0.935-0.335,1.953,0.071,2.869
		c0.406,0.916,1.144,1.619,2.079,1.979c0.436,0.168,0.891,0.253,1.351,0.253c0.523,0,1.033-0.109,1.518-0.324
		c0.577-0.256,1.09-0.666,1.473-1.172c-0.582-0.42-1.172-0.75-2.246-0.75c-0.414,0-0.75-0.336-0.75-0.75s0.336-0.75,0.75-0.75
		c1.75,0,2.693,0.707,3.45,1.275c0.698,0.523,1.3,0.975,2.55,0.975c1.25,0,1.852-0.452,2.55-0.975c0.758-0.568,1.7-1.275,3.45-1.275
		c0.414,0,0.75,0.336,0.75,0.75s-0.336,0.75-0.75,0.75c-1.074,0-1.664,0.329-2.245,0.749c0.702,0.931,1.824,1.498,3.004,1.498
		c0.599,0,1.174-0.14,1.71-0.416c1.837-0.948,2.561-3.215,1.613-5.052c-0.391-0.757-1.035-1.364-1.814-1.709
		c-1.709-0.756-3.04-2.204-3.649-3.971c-1.05-3.186-1.592-6.495-1.611-9.84c0-0.123-0.002-0.243-0.003-0.363
		c-0.002-0.132-0.004-0.262-0.004-0.391c0-0.414,0.336-0.75,0.75-0.75s0.75,0.336,0.75,0.75c0,0.122,0.002,0.245,0.003,0.368
		c0.002,0.128,0.004,0.256,0.004,0.382c0.019,3.185,0.534,6.337,1.532,9.365c0.471,1.367,1.505,2.49,2.835,3.079
		c1.091,0.483,1.993,1.333,2.54,2.393c1.327,2.573,0.314,5.746-2.259,7.073C20.413,23.793,19.583,23.995,18.754,23.995z"/>
</g>
</svg>
