<?xml version="1.0" encoding="utf-8"?>
<!-- Generator: Adobe Illustrator 22.1.0, SVG Export Plug-In . SVG Version: 6.00 Build 0)  -->
<svg version="1.1" id="Regular" xmlns="http://www.w3.org/2000/svg" xmlns:xlink="http://www.w3.org/1999/xlink" x="0px" y="0px"
	 viewBox="0 0 24 24" style="enable-background:new 0 0 24 24;" xml:space="preserve">
<title>natural-disaster-water-level-rise</title>
<g>
	<path d="M15.75,9.729c-0.414,0-0.75-0.336-0.75-0.75V2.539l-0.97,0.97c-0.142,0.142-0.33,0.22-0.53,0.22s-0.389-0.078-0.53-0.22
		c-0.142-0.141-0.22-0.33-0.22-0.53s0.078-0.389,0.22-0.53l2.25-2.25c0.07-0.07,0.153-0.125,0.245-0.163
		c0.007-0.003,0.016-0.006,0.024-0.009c0.081-0.031,0.171-0.048,0.262-0.048c0.089,0,0.176,0.016,0.261,0.048
		c0.011,0.004,0.022,0.008,0.032,0.012c0.085,0.035,0.167,0.09,0.238,0.16l2.25,2.25c0.142,0.141,0.22,0.33,0.22,0.53
		s-0.078,0.389-0.22,0.53S18.2,3.729,18,3.729s-0.389-0.078-0.53-0.22l-0.97-0.97v6.439C16.5,9.392,16.164,9.729,15.75,9.729z"/>
	<path d="M8.25,9.729c-0.414,0-0.75-0.336-0.75-0.75V2.539l-0.97,0.97C6.389,3.651,6.2,3.729,6,3.729s-0.389-0.078-0.53-0.22
		c-0.142-0.141-0.22-0.33-0.22-0.53s0.078-0.389,0.22-0.53l2.249-2.249c0.07-0.07,0.152-0.125,0.245-0.163
		C7.972,0.032,7.981,0.029,7.99,0.026c0.086-0.032,0.172-0.047,0.26-0.047c0.089,0,0.177,0.016,0.261,0.048
		c0.007,0.002,0.014,0.005,0.021,0.007c0.097,0.04,0.179,0.095,0.249,0.166l2.249,2.249c0.142,0.141,0.22,0.33,0.22,0.53
		s-0.078,0.389-0.22,0.53c-0.141,0.142-0.33,0.22-0.53,0.22s-0.389-0.078-0.53-0.22L9,2.539v6.439C9,9.392,8.664,9.729,8.25,9.729z"
		/>
	<path d="M17.354,19.465c-2.496,0-4.898-0.977-6.828-1.761c-1.506-0.612-2.804-1.141-3.776-1.141c-2.045,0-3.998,0.732-5.503,2.062
		c-0.137,0.121-0.314,0.188-0.497,0.188c-0.215,0-0.42-0.093-0.562-0.254c-0.132-0.15-0.199-0.343-0.186-0.543
		c0.012-0.2,0.102-0.383,0.252-0.516c1.78-1.572,4.068-2.438,6.443-2.438l0.056,0c1.263,0,2.687,0.579,4.336,1.25
		c1.911,0.777,4.075,1.656,6.253,1.656c2.035,0,3.794-0.77,5.378-2.354c0.142-0.142,0.33-0.22,0.53-0.22s0.389,0.078,0.53,0.22
		c0.292,0.292,0.292,0.768,0,1.061C21.904,18.552,19.802,19.465,17.354,19.465z"/>
	<path d="M17.354,14.965c-2.496,0-4.898-0.977-6.828-1.761c-1.506-0.612-2.804-1.141-3.776-1.141l-0.067,0
		c-2,0-3.931,0.732-5.437,2.062c-0.138,0.121-0.314,0.188-0.497,0.188l0,0c-0.215,0-0.42-0.092-0.562-0.253
		c-0.133-0.15-0.199-0.343-0.186-0.543c0.012-0.2,0.102-0.383,0.252-0.516c1.78-1.572,4.068-2.438,6.443-2.438l0.058,0
		c1.26,0,2.685,0.579,4.334,1.25c1.911,0.777,4.075,1.657,6.253,1.657c2.035,0,3.794-0.77,5.378-2.354
		c0.142-0.142,0.33-0.22,0.53-0.22s0.389,0.078,0.53,0.22c0.142,0.141,0.22,0.33,0.22,0.53s-0.078,0.389-0.22,0.53
		C21.904,14.052,19.802,14.965,17.354,14.965z"/>
	<path d="M17.354,23.965c-2.496,0-4.898-0.977-6.828-1.761c-1.506-0.612-2.804-1.141-3.776-1.141c0,0-0.029,0-0.029,0
		c-2.033,0-3.969,0.732-5.474,2.062c-0.137,0.121-0.314,0.188-0.497,0.188c-0.215,0-0.42-0.093-0.562-0.254
		c-0.132-0.15-0.199-0.343-0.186-0.543c0.012-0.2,0.102-0.383,0.252-0.516c1.78-1.572,4.068-2.438,6.443-2.438l0.056,0
		c1.263,0,2.687,0.579,4.336,1.25c1.911,0.777,4.074,1.656,6.253,1.656c2.035,0,3.794-0.77,5.378-2.354
		c0.142-0.142,0.33-0.22,0.53-0.22s0.389,0.078,0.53,0.22c0.292,0.292,0.292,0.768,0,1.061
		C21.904,23.052,19.802,23.965,17.354,23.965z"/>
</g>
</svg>
