<?xml version="1.0" encoding="utf-8"?>
<!-- Generator: Adobe Illustrator 22.1.0, SVG Export Plug-In . SVG Version: 6.00 Build 0)  -->
<svg version="1.1" id="Regular" xmlns="http://www.w3.org/2000/svg" xmlns:xlink="http://www.w3.org/1999/xlink" x="0px" y="0px"
	 viewBox="0 0 24 24" style="enable-background:new 0 0 24 24;" xml:space="preserve">
<title>natural-disaster-water-level-fall</title>
<g>
	<path d="M8.249,13.479c-0.088,0-0.175-0.016-0.26-0.047c-0.008-0.003-0.015-0.005-0.022-0.008
		c-0.096-0.039-0.179-0.094-0.249-0.165l-2.249-2.249c-0.142-0.141-0.22-0.33-0.22-0.53s0.078-0.389,0.22-0.53
		c0.141-0.142,0.33-0.22,0.53-0.22s0.389,0.078,0.53,0.22l0.97,0.97V0.729c0-0.414,0.336-0.75,0.75-0.75
		c0.414,0,0.75,0.336,0.75,0.75v10.189l0.97-0.97c0.142-0.142,0.33-0.22,0.53-0.22s0.389,0.078,0.53,0.22
		c0.142,0.141,0.22,0.33,0.22,0.53s-0.078,0.389-0.22,0.53l-2.25,2.25c-0.07,0.07-0.153,0.125-0.246,0.164
		c-0.008,0.003-0.017,0.007-0.026,0.01C8.422,13.463,8.336,13.479,8.249,13.479z"/>
	<path d="M15.749,13.479c-0.087,0-0.174-0.016-0.258-0.046c-0.006-0.002-0.011-0.004-0.017-0.006
		c-0.104-0.042-0.186-0.097-0.256-0.167l-2.25-2.25c-0.142-0.141-0.22-0.33-0.22-0.53s0.078-0.389,0.22-0.53s0.33-0.22,0.53-0.22
		s0.389,0.078,0.53,0.22l0.97,0.97V0.729c0-0.414,0.336-0.75,0.75-0.75c0.414,0,0.75,0.336,0.75,0.75v10.189l0.97-0.97
		c0.142-0.142,0.33-0.22,0.53-0.22s0.389,0.078,0.53,0.22c0.142,0.141,0.22,0.33,0.22,0.53s-0.078,0.389-0.22,0.53l-2.25,2.25
		c-0.07,0.07-0.152,0.125-0.245,0.163c-0.008,0.003-0.017,0.007-0.026,0.01C15.927,13.462,15.839,13.479,15.749,13.479z"/>
	<path d="M17.353,19.465c-2.496,0-4.898-0.977-6.828-1.761c-1.506-0.612-2.804-1.141-3.776-1.141c-2.045,0-3.998,0.732-5.503,2.062
		c-0.137,0.121-0.314,0.188-0.497,0.188l0,0c-0.215,0-0.42-0.093-0.562-0.254c-0.132-0.15-0.199-0.343-0.186-0.543
		c0.012-0.2,0.102-0.383,0.252-0.516c1.78-1.572,4.068-2.438,6.443-2.438l0.056,0c1.263,0,2.687,0.579,4.336,1.25
		c1.911,0.777,4.075,1.656,6.253,1.656c2.035,0,3.794-0.77,5.378-2.354c0.142-0.142,0.33-0.22,0.53-0.22s0.389,0.078,0.53,0.22
		c0.292,0.292,0.292,0.768,0,1.061C21.903,18.552,19.801,19.465,17.353,19.465z"/>
	<path d="M17.353,23.965c-2.496,0-4.898-0.977-6.828-1.761c-1.506-0.612-2.804-1.141-3.776-1.141c0,0-0.029,0-0.029,0
		c-2.033,0-3.969,0.732-5.474,2.062c-0.137,0.121-0.314,0.188-0.497,0.188c-0.215,0-0.42-0.093-0.562-0.254
		c-0.132-0.15-0.199-0.343-0.186-0.543c0.012-0.2,0.102-0.383,0.252-0.516c1.78-1.572,4.068-2.438,6.443-2.438l0.056,0
		c1.263,0,2.687,0.579,4.336,1.25c1.911,0.777,4.074,1.656,6.253,1.656c2.035,0,3.794-0.77,5.378-2.354
		c0.142-0.142,0.33-0.22,0.53-0.22s0.389,0.078,0.53,0.22c0.292,0.292,0.292,0.768,0,1.061
		C21.903,23.052,19.801,23.965,17.353,23.965z"/>
</g>
</svg>
