<?xml version="1.0" encoding="utf-8"?>
<!-- Generator: Adobe Illustrator 22.1.0, SVG Export Plug-In . SVG Version: 6.00 Build 0)  -->
<svg version="1.1" id="Layer_1" xmlns="http://www.w3.org/2000/svg" xmlns:xlink="http://www.w3.org/1999/xlink" x="0px" y="0px"
	 viewBox="0 0 24 24" style="enable-background:new 0 0 24 24;" xml:space="preserve">
<title>office-file-pdf-1</title>
<g>
	<path d="M2.246,23.998c-1.241,0-2.25-1.009-2.25-2.25v-19.5c0-1.241,1.009-2.25,2.25-2.25h10.629c0.602,0,1.167,0.234,1.592,0.66
		l5.871,5.871c0.425,0.425,0.659,0.99,0.659,1.592v4.628c0,0.414-0.336,0.75-0.75,0.75s-0.75-0.336-0.75-0.75v-3.75h-5.25
		c-1.241,0-2.25-1.009-2.25-2.25v-5.25h-9.75c-0.414,0-0.75,0.336-0.75,0.75v19.5c0,0.414,0.336,0.75,0.75,0.75h3
		c0.414,0,0.75,0.336,0.75,0.75s-0.336,0.75-0.75,0.75H2.246z M13.496,6.748c0,0.414,0.336,0.75,0.75,0.75h4.939l-5.689-5.689V6.748
		z"/>
	<path d="M8.246,23.998c-0.414,0-0.75-0.336-0.75-0.75v-7.5c0-0.414,0.336-0.75,0.75-0.75H9c1.654,0,3,1.346,3,3s-1.346,3-3,3H8.996
		v2.25C8.996,23.662,8.66,23.998,8.246,23.998z M9,19.498c0.827,0,1.5-0.673,1.5-1.5s-0.673-1.5-1.5-1.5H8.996v3H9z"/>
	<path d="M14.246,23.998c-0.414,0-0.75-0.336-0.75-0.75v-7.5c0-0.414,0.336-0.75,0.75-0.75c2.068,0,3.75,1.682,3.75,3.75v1.5
		C17.996,22.316,16.314,23.998,14.246,23.998z M14.996,22.369c0.879-0.313,1.5-1.159,1.5-2.121v-1.5c0-0.962-0.621-1.808-1.5-2.121
		V22.369z"/>
	<path d="M20.246,23.998c-0.414,0-0.75-0.336-0.75-0.75v-6c0-1.241,1.009-2.25,2.25-2.25h1.5c0.414,0,0.75,0.336,0.75,0.75
		s-0.336,0.75-0.75,0.75h-1.5c-0.414,0-0.75,0.336-0.75,0.75v2.25h1.5c0.414,0,0.75,0.336,0.75,0.75s-0.336,0.75-0.75,0.75h-1.5
		v2.25C20.996,23.662,20.66,23.998,20.246,23.998z"/>
</g>
</svg>
