<?xml version="1.0" encoding="utf-8"?>
<!-- Generator: Adobe Illustrator 22.1.0, SVG Export Plug-In . SVG Version: 6.00 Build 0)  -->
<svg version="1.1" id="Layer_1" xmlns="http://www.w3.org/2000/svg" xmlns:xlink="http://www.w3.org/1999/xlink" x="0px" y="0px"
	 viewBox="0 0 24 24" style="enable-background:new 0 0 24 24;" xml:space="preserve">
<title>office-file-xls-1</title>
<g>
	<path d="M2.249,23.998c-1.241,0-2.25-1.009-2.25-2.25v-19.5c0-1.241,1.009-2.25,2.25-2.25h10.629c0.601,0,1.165,0.234,1.59,0.658
		l5.872,5.872c0.425,0.425,0.659,0.99,0.659,1.59v4.629c0,0.414-0.336,0.75-0.75,0.75s-0.75-0.336-0.75-0.75v-3.75h-5.25
		c-1.241,0-2.25-1.009-2.25-2.25v-5.25h-9.75c-0.414,0-0.75,0.336-0.75,0.75v19.5c0,0.414,0.336,0.75,0.75,0.75h3
		c0.414,0,0.75,0.336,0.75,0.75s-0.336,0.75-0.75,0.75H2.249z M13.499,6.748c0,0.414,0.336,0.75,0.75,0.75h4.939l-5.689-5.689V6.748
		z"/>
	<path d="M11.249,23.998c-0.309,0-0.582-0.185-0.697-0.472l-0.804-2.009l-0.804,2.009c-0.114,0.287-0.388,0.472-0.696,0.472
		c-0.096,0-0.19-0.018-0.279-0.054c-0.186-0.074-0.332-0.217-0.41-0.401c-0.079-0.184-0.081-0.388-0.007-0.574l1.389-3.471
		l-1.389-3.472c-0.074-0.186-0.072-0.39,0.007-0.574c0.079-0.184,0.225-0.326,0.411-0.401c0.089-0.036,0.183-0.054,0.278-0.054
		c0.309,0,0.582,0.185,0.697,0.472l0.804,2.009l0.804-2.009c0.115-0.287,0.388-0.472,0.696-0.472c0.096,0,0.19,0.018,0.279,0.054
		c0.186,0.074,0.331,0.217,0.41,0.401c0.079,0.184,0.081,0.388,0.007,0.574l-1.389,3.471l1.389,3.472
		c0.074,0.186,0.072,0.39-0.007,0.574c-0.079,0.184-0.225,0.326-0.411,0.401C11.439,23.98,11.345,23.998,11.249,23.998z"/>
	<path d="M15.749,23.998c-1.241,0-2.25-1.009-2.25-2.25v-6c0-0.414,0.336-0.75,0.75-0.75s0.75,0.336,0.75,0.75v6
		c0,0.414,0.336,0.75,0.75,0.75h1.5c0.414,0,0.75,0.336,0.75,0.75s-0.336,0.75-0.75,0.75H15.749z"/>
	<path d="M20.249,23.998c-0.414,0-0.75-0.336-0.75-0.75s0.336-0.75,0.75-0.75h1.5c0.414,0,0.75-0.336,0.75-0.75
		c0-0.715-0.434-1.075-1.2-1.65c-0.802-0.602-1.8-1.35-1.8-2.85c0-1.241,1.009-2.25,2.25-2.25h1.5c0.414,0,0.75,0.336,0.75,0.75
		s-0.336,0.75-0.75,0.75h-1.5c-0.414,0-0.75,0.336-0.75,0.75c0,0.715,0.434,1.075,1.2,1.65c0.802,0.602,1.8,1.35,1.8,2.85
		c0,1.241-1.009,2.25-2.25,2.25H20.249z"/>
</g>
</svg>
