<?xml version="1.0" encoding="utf-8"?>
<!-- Generator: Adobe Illustrator 22.1.0, SVG Export Plug-In . SVG Version: 6.00 Build 0)  -->
<svg version="1.1" id="Layer_1" xmlns="http://www.w3.org/2000/svg" xmlns:xlink="http://www.w3.org/1999/xlink" x="0px" y="0px"
	 viewBox="0 0 24 24" style="enable-background:new 0 0 24 24;" xml:space="preserve">
<title>people-woman-6</title>
<g>
	<path d="M21.778,15.003c-0.069,0-0.138-0.01-0.204-0.028c-1.73-0.49-3.362-1.254-4.856-2.272C15.582,14.148,13.845,15,12.001,15
		c-3.308,0-6-2.692-6-6c0-0.053,0.002-0.105,0.004-0.158l0.001-0.038C6.122,5.541,8.755,3,12.001,3c0.094,0,0.188,0.002,0.284,0.007
		c0.628-1.782,2.33-3.002,4.241-3.002c2.482,0,4.501,2.018,4.502,4.498c0.189,3.2,0.686,6.426,1.477,9.567
		c0.065,0.259-0.013,0.536-0.205,0.721C22.159,14.928,21.974,15.003,21.778,15.003z M7.616,9.999
		c0.461,2.005,2.283,3.501,4.385,3.501c2.102,0,3.924-1.496,4.385-3.5c-0.327,0.083-0.662,0.125-1.002,0.125
		c-0.007,0-0.021,0-0.028,0c-1.34-0.071-2.557-0.72-3.354-1.767c-0.795,1.046-2.005,1.695-3.335,1.766c-0.007,0-0.03,0-0.037,0
		C8.284,10.125,7.945,10.083,7.616,9.999z M17.491,11.416c1.015,0.7,2.104,1.271,3.246,1.704c-0.634-2.817-1.04-5.698-1.208-8.573
		c-0.002-1.687-1.348-3.042-3.002-3.042L16.527,1.13l0,0.375c-1.18,0-2.255,0.712-2.733,1.771c2.404,0.754,4.11,2.961,4.202,5.506
		c0,0.009,0.001,0.039,0,0.048l0.001,0.014C17.999,8.895,18.001,8.948,18.001,9C18.001,9.842,17.83,10.653,17.491,11.416z M12.001,6
		c0.331,0,0.618,0.212,0.716,0.527c0.37,1.189,1.455,2.032,2.699,2.099c0.348,0,0.706-0.08,1.04-0.233
		C16.157,6.191,14.246,4.5,12.001,4.5c-2.245,0-4.155,1.691-4.455,3.893c0.336,0.152,0.702,0.232,1.072,0.232
		c1.219-0.066,2.296-0.909,2.666-2.098C11.383,6.212,11.671,6,12.001,6z"/>
	<path d="M2.192,24.001c-0.092,0-0.182-0.017-0.268-0.05c-0.386-0.148-0.58-0.582-0.433-0.968c1.137-2.977,3.494-5.34,6.469-6.485
		c0.004-0.002,0.008-0.004,0.013-0.005c1.3-0.497,2.644-0.746,4.011-0.746c1.345,0,2.67,0.24,3.938,0.712
		c0.057,0.013,0.114,0.034,0.168,0.062c2.954,1.155,5.293,3.509,6.421,6.461c0.072,0.187,0.066,0.391-0.016,0.574
		s-0.23,0.323-0.417,0.395C21.992,23.984,21.902,24,21.81,24c-0.309,0-0.59-0.194-0.701-0.482c-0.861-2.254-2.49-4.072-4.622-5.173
		c-0.177,2.321-2.122,4.155-4.487,4.155c-2.366,0-4.312-1.836-4.487-4.159c-2.105,1.095-3.772,2.955-4.621,5.176
		C2.783,23.806,2.501,24.001,2.192,24.001z M9.001,18c0,1.654,1.346,3,3,3c1.654,0,3-1.346,3-3v-0.274
		c-0.975-0.317-1.986-0.478-3.009-0.478c-1.016,0-2.021,0.159-2.991,0.474V18z"/>
</g>
</svg>
