<?xml version="1.0" encoding="utf-8"?>
<!-- Generator: Adobe Illustrator 22.1.0, SVG Export Plug-In . SVG Version: 6.00 Build 0)  -->
<svg version="1.1" id="Layer_1" xmlns="http://www.w3.org/2000/svg" xmlns:xlink="http://www.w3.org/1999/xlink" x="0px" y="0px"
	 viewBox="0 0 24 24" style="enable-background:new 0 0 24 24;" xml:space="preserve">
<title>performance-increase-2</title>
<g>
	<path d="M0.75,24C0.336,24,0,23.664,0,23.25s0.336-0.75,0.75-0.75H1.5v-3.25C1.5,18.561,2.061,18,2.75,18H5.5
		c0.689,0,1.25,0.561,1.25,1.25v3.25H9V10.25C9,9.561,9.561,9,10.25,9H13c0.689,0,1.25,0.561,1.25,1.25V22.5h2.25v-7.75
		c0-0.689,0.561-1.25,1.25-1.25h2.75c0.689,0,1.25,0.561,1.25,1.25v7.75h0.75c0.414,0,0.75,0.336,0.75,0.75S22.914,24,22.5,24H0.75z
		 M20.25,22.5V15H18v7.5H20.25z M12.75,22.5v-12H10.5v12H12.75z M5.25,22.5v-3H3v3H5.25z"/>
	<path d="M0.75,12.003c-0.2,0-0.389-0.078-0.53-0.22C0.078,11.642,0,11.453,0,11.253s0.078-0.389,0.22-0.53l5.832-5.832
		C6.61,4.333,7.385,4.012,8.177,4.012c0.26,0,0.519,0.034,0.77,0.101l5.709,1.526c0.156,0.047,0.305,0.069,0.454,0.069
		c0.4,0,0.776-0.156,1.059-0.438l3.77-3.77H17.25c-0.414,0-0.75-0.336-0.75-0.75S16.836,0,17.25,0h4.5
		c0.089,0,0.176,0.016,0.261,0.048c0.011,0.004,0.022,0.008,0.032,0.012c0.176,0.072,0.325,0.221,0.4,0.404
		c0.003,0.008,0.007,0.017,0.01,0.026c0.031,0.081,0.047,0.17,0.047,0.26v4.5C22.5,5.664,22.164,6,21.75,6S21,5.664,21,5.25V2.561
		l-3.77,3.77c-0.566,0.567-1.319,0.879-2.119,0.879c-0.292,0-0.583-0.043-0.864-0.127L8.56,5.563
		c-0.125-0.033-0.254-0.05-0.384-0.05c-0.397,0-0.785,0.16-1.064,0.439L1.28,11.783C1.139,11.925,0.95,12.003,0.75,12.003z"/>
</g>
</svg>
