<?xml version="1.0" encoding="utf-8"?>
<!-- Generator: Adobe Illustrator 22.1.0, SVG Export Plug-In . SVG Version: 6.00 Build 0)  -->
<svg version="1.1" id="Layer_1" xmlns="http://www.w3.org/2000/svg" xmlns:xlink="http://www.w3.org/1999/xlink" x="0px" y="0px"
	 viewBox="0 0 24 24" style="enable-background:new 0 0 24 24;" xml:space="preserve">
<title>pin-location-1</title>
<g>
	<path d="M12,11.25c-2.068,0-3.75-1.682-3.75-3.75S9.932,3.75,12,3.75c2.068,0,3.75,1.682,3.75,3.75S14.068,11.25,12,11.25z
		 M12,5.25c-1.241,0-2.25,1.009-2.25,2.25S10.759,9.75,12,9.75c1.241,0,2.25-1.009,2.25-2.25S13.241,5.25,12,5.25z"/>
	<path d="M11.998,20.741c-0.24,0-0.47-0.076-0.665-0.219c-0.094-0.069-0.175-0.151-0.243-0.243C5.142,12.087,4.5,8.613,4.5,7.5
		C4.5,3.365,7.865,0,12,0s7.5,3.365,7.5,7.5c0,3.435-5.043,10.648-6.589,12.777c-0.179,0.245-0.442,0.405-0.74,0.45
		C12.114,20.737,12.056,20.741,11.998,20.741z M12,1.5c-3.308,0-6,2.692-6,6c0,2.291,3.164,7.514,6,11.475
		c2.835-3.961,6-9.184,6-11.475C18,4.192,15.308,1.5,12,1.5z"/>
	<path d="M12,24c-2.756,0-5.495-0.32-7.514-0.879C2.042,22.445,0.75,21.452,0.75,20.25c0-1.803,2.775-2.734,5.103-3.198
		c0.046-0.01,0.098-0.015,0.149-0.015c0.355,0,0.663,0.254,0.733,0.604c0.039,0.197,0,0.397-0.112,0.563
		c-0.111,0.167-0.281,0.28-0.477,0.319C3.231,19.104,2.25,19.952,2.25,20.25c0,0.176,0.465,0.81,2.531,1.4
		C6.699,22.198,9.262,22.5,12,22.5s5.301-0.302,7.219-0.85c2.066-0.59,2.531-1.224,2.531-1.4c0-0.299-0.986-1.15-3.917-1.73
		c-0.197-0.039-0.366-0.152-0.478-0.319s-0.151-0.366-0.113-0.563c0.069-0.35,0.379-0.604,0.736-0.604
		c0.048,0,0.097,0.005,0.146,0.015c2.338,0.463,5.125,1.394,5.125,3.202c0,1.202-1.292,2.195-3.736,2.871
		C17.495,23.68,14.756,24,12,24z"/>
</g>
</svg>
