<?xml version="1.0" encoding="utf-8"?>
<!-- Generator: Adobe Illustrator 22.1.0, SVG Export Plug-In . SVG Version: 6.00 Build 0)  -->
<svg version="1.1" id="Regular" xmlns="http://www.w3.org/2000/svg" xmlns:xlink="http://www.w3.org/1999/xlink" x="0px" y="0px"
	 viewBox="0 0 24 24" style="enable-background:new 0 0 24 24;" xml:space="preserve">
<title>pollution-faucet-water</title>
<g>
	<path d="M1.435,23.793c-0.258,0-0.52-0.016-0.777-0.048c-0.199-0.024-0.376-0.125-0.499-0.283s-0.177-0.354-0.153-0.553
		c0.047-0.375,0.366-0.658,0.744-0.658c0.03,0,0.061,0.002,0.092,0.006c0.197,0.024,0.396,0.037,0.593,0.037
		c1.233,0,2.403-0.473,3.295-1.333c0.14-0.135,0.323-0.21,0.514-0.21c0.007,0,0.033,0.001,0.04,0.001
		c0.194,0.007,0.388,0.097,0.523,0.247c0.68,0.752,1.612,1.196,2.624,1.247c0.071,0.004,0.14,0.006,0.209,0.006
		c0.931,0,1.829-0.348,2.529-0.979c0.096-0.086,0.188-0.178,0.274-0.274c0.142-0.157,0.345-0.247,0.557-0.247
		c0.212,0,0.415,0.09,0.557,0.248c0.717,0.794,1.745,1.25,2.82,1.25c0.942,0,1.845-0.347,2.543-0.977
		c0.095-0.086,0.188-0.178,0.274-0.274c0.135-0.15,0.329-0.24,0.531-0.247c0.004,0,0.03-0.001,0.034-0.001
		c0.187,0,0.373,0.077,0.512,0.211c0.892,0.859,2.063,1.332,3.296,1.332c0.197,0,0.396-0.012,0.592-0.036
		c0.031-0.004,0.062-0.006,0.092-0.006c0.378,0,0.698,0.283,0.744,0.657c0.025,0.198-0.029,0.395-0.153,0.553
		c-0.123,0.158-0.301,0.259-0.5,0.283c-0.257,0.032-0.519,0.048-0.777,0.048c-1.369,0-2.701-0.453-3.786-1.281
		c-0.951,0.798-2.152,1.236-3.401,1.236c-1.245,0-2.432-0.428-3.378-1.212c-0.949,0.785-2.14,1.214-3.38,1.214
		c-0.088,0-0.176-0.002-0.264-0.006c-1.157-0.059-2.258-0.494-3.135-1.231C4.135,23.341,2.803,23.793,1.435,23.793z"/>
	<path d="M8.5,15.501c-0.88,0-1.61-0.653-1.732-1.5H0.75c-0.414,0-0.75-0.336-0.75-0.75s0.336-0.75,0.75-0.75h6v-6h-6
		C0.336,6.501,0,6.165,0,5.751s0.336-0.75,0.75-0.75h6.018c0.122-0.847,0.852-1.5,1.732-1.5H11c0.965,0,1.75,0.785,1.75,1.75v7.286
		c0.942,0.077,1.856,0.299,2.723,0.662c0.185,0.077,0.328,0.222,0.405,0.407c0.076,0.185,0.075,0.389-0.002,0.574
		c-0.117,0.28-0.389,0.461-0.692,0.461c-0.1,0-0.197-0.02-0.289-0.058c-0.692-0.289-1.42-0.471-2.168-0.542
		c-0.138,0.828-0.86,1.461-1.726,1.461H8.5z M8.5,5.001c-0.138,0-0.25,0.112-0.25,0.25v8.5c0,0.138,0.112,0.25,0.25,0.25H11
		c0.138,0,0.25-0.112,0.25-0.25v-8.5c0-0.138-0.112-0.25-0.25-0.25H8.5z"/>
	<path d="M20.252,4.251c-0.071,0-0.143-0.005-0.215-0.015c-0.397-0.057-0.748-0.264-0.988-0.585l-1.65-2.2
		c-0.248-0.331-0.181-0.802,0.15-1.05c0.132-0.098,0.287-0.15,0.45-0.15c0.235,0,0.459,0.112,0.6,0.3l1.65,2.2l1.65-2.2
		c0.141-0.188,0.366-0.3,0.6-0.3c0.163,0,0.318,0.052,0.449,0.149c0.332,0.249,0.399,0.72,0.151,1.05l-1.65,2.2
		c-0.086,0.115-0.187,0.215-0.301,0.3C20.888,4.148,20.578,4.251,20.252,4.251z"/>
	<path d="M19.631,19.119c-0.305,0-0.578-0.182-0.694-0.465c-0.359-0.87-0.87-1.655-1.521-2.334
		c-0.286-0.299-0.276-0.774,0.022-1.061c0.14-0.134,0.324-0.208,0.519-0.208c0.203,0,0.4,0.084,0.541,0.23
		c0.781,0.816,1.395,1.758,1.825,2.802c0.076,0.185,0.076,0.389-0.001,0.574c-0.077,0.185-0.221,0.329-0.407,0.405
		C19.826,19.1,19.73,19.119,19.631,19.119z"/>
	<path d="M17.968,10.157c-0.115,0-0.231-0.027-0.335-0.079c-0.872-0.436-1.797-0.77-2.749-0.991
		c-0.195-0.045-0.361-0.164-0.467-0.334c-0.106-0.17-0.139-0.371-0.094-0.566c0.079-0.342,0.379-0.58,0.729-0.58
		c0.058,0,0.116,0.007,0.172,0.02c1.064,0.248,2.1,0.621,3.078,1.11c0.37,0.185,0.52,0.636,0.335,1.006
		C18.511,9.998,18.254,10.157,17.968,10.157z"/>
	<path d="M22.905,14.316c-0.24,0-0.468-0.116-0.608-0.311c-0.572-0.792-1.237-1.516-1.976-2.154
		c-0.152-0.131-0.243-0.313-0.258-0.513c-0.015-0.2,0.049-0.393,0.18-0.545c0.143-0.166,0.35-0.26,0.568-0.26
		c0.18,0,0.354,0.065,0.49,0.182c0.828,0.714,1.572,1.526,2.212,2.412c0.117,0.162,0.165,0.36,0.133,0.558
		c-0.032,0.198-0.139,0.371-0.302,0.489C23.216,14.267,23.064,14.316,22.905,14.316z"/>
</g>
</svg>
