<?xml version="1.0" encoding="utf-8"?>
<!-- Generator: Adobe Illustrator 22.1.0, SVG Export Plug-In . SVG Version: 6.00 Build 0)  -->
<svg version="1.1" id="Layer_1" xmlns="http://www.w3.org/2000/svg" xmlns:xlink="http://www.w3.org/1999/xlink" x="0px" y="0px"
	 viewBox="0 0 24 24" style="enable-background:new 0 0 24 24;" xml:space="preserve">
<title>products-briefcase</title>
<g>
	<path d="M2.5,23.999c-0.601,0-1.166-0.235-1.591-0.659c-0.425-0.425-0.659-0.99-0.658-1.592c0-0.112,0.009-0.227,0.026-0.34
		l1.105-7.194C0.594,14.054,0,13.356,0,12.521V6.455C0,4.963,1.214,3.75,2.706,3.75H6.75V3.561c0.067-2.004,1.677-3.563,3.667-3.563
		c0.035,0,0.07,0,0.105,0.001L13.5,0c0.028-0.001,0.069-0.002,0.11-0.002c1.942,0,3.575,1.588,3.64,3.539l0,0.213h4.043
		C22.785,3.75,24,4.963,24,6.455v6.066c0,0.834-0.594,1.532-1.381,1.693l1.106,7.193c0.189,1.226-0.655,2.377-1.881,2.566
		c-0.112,0.017-0.226,0.026-0.339,0.026H2.5z M1.759,21.635c-0.005,0.037-0.009,0.076-0.009,0.114c0,0.201,0.078,0.389,0.219,0.531
		c0.142,0.142,0.33,0.22,0.53,0.22h19c0.01,0,0.03,0.001,0.03,0.001c0.031,0,0.055-0.005,0.08-0.009
		c0.203-0.031,0.377-0.137,0.496-0.299s0.167-0.36,0.136-0.558l-1.136-7.386h-6.205c-0.338,1.303-1.532,2.25-2.902,2.25
		c-1.37,0-2.564-0.947-2.902-2.25H2.894L1.759,21.635z M10.5,13.499c0,0.827,0.673,1.5,1.5,1.5s1.5-0.673,1.5-1.5v-2.25h-3V13.499z
		 M22.272,12.749c0.126,0,0.228-0.102,0.228-0.228V6.455c0-0.665-0.542-1.206-1.207-1.206H2.706C2.041,5.25,1.5,5.791,1.5,6.455
		v6.066c0,0.126,0.102,0.228,0.228,0.228H9v-1.5c0-0.827,0.673-1.5,1.5-1.5h3c0.827,0,1.5,0.673,1.5,1.5v1.5H22.272z M15.75,3.75
		V3.561c-0.038-1.132-1.006-2.063-2.158-2.063l-0.069,0.001l-3.023,0l-0.084-0.001c-1.176,0-2.127,0.917-2.167,2.088l0,0.163H15.75z
		"/>
</g>
</svg>
