<?xml version="1.0" encoding="utf-8"?>
<!-- Generator: Adobe Illustrator 22.1.0, SVG Export Plug-In . SVG Version: 6.00 Build 0)  -->
<svg version="1.1" id="Layer_1" xmlns="http://www.w3.org/2000/svg" xmlns:xlink="http://www.w3.org/1999/xlink" x="0px" y="0px"
	 viewBox="0 0 24 24" style="enable-background:new 0 0 24 24;" xml:space="preserve">
<title>professions-man-construction-1</title>
<g>
	<path d="M21.7,24c-0.414,0-0.75-0.336-0.75-0.75c0-2.187-0.811-4.308-2.251-5.944v5.944c0,0.414-0.336,0.75-0.75,0.75
		s-0.75-0.336-0.75-0.75v-7.306c-0.248-0.178-0.505-0.344-0.771-0.497c-0.225,2.272-2.147,4.053-4.478,4.053
		s-4.253-1.781-4.478-4.053c-0.266,0.153-0.525,0.32-0.773,0.499v7.304c0,0.414-0.336,0.75-0.75,0.75s-0.75-0.336-0.75-0.75v-5.942
		C3.761,18.944,2.95,21.064,2.95,23.25C2.95,23.664,2.614,24,2.2,24s-0.75-0.336-0.75-0.75c0-3.207,1.443-6.197,3.961-8.206
		c0.047-0.049,0.101-0.091,0.16-0.125c0.719-0.552,1.5-1.007,2.324-1.353c0.011-0.005,0.035-0.015,0.061-0.024
		c1.257-0.523,2.608-0.792,3.995-0.792c1.384,0,2.731,0.268,4.005,0.795c0.022,0.008,0.043,0.017,0.065,0.027
		c0.812,0.341,1.596,0.798,2.317,1.352c0.052,0.032,0.101,0.07,0.144,0.113c2.523,2.01,3.969,5.002,3.969,8.213
		C22.45,23.664,22.114,24,21.7,24z M8.95,15c0,1.654,1.346,3,3,3c1.654,0,3-1.346,3-3v-0.233c-0.966-0.343-1.973-0.517-3-0.517
		s-2.035,0.174-3,0.517V15z"/>
	<path d="M11.949,12c-3.03,0-5.579-2.279-5.952-5.25H5.199c-0.414,0-0.75-0.336-0.75-0.75s0.336-0.75,0.75-0.75h0.798
		C6.25,3.239,7.515,1.474,9.361,0.588c0.013-0.008,0.038-0.019,0.064-0.03C10.221,0.188,11.07,0,11.949,0
		c0.879,0,1.728,0.188,2.523,0.558c0.028,0.011,0.055,0.024,0.081,0.038c1.832,0.879,3.095,2.644,3.348,4.654h0.798
		c0.414,0,0.75,0.336,0.75,0.75s-0.336,0.75-0.75,0.75h-0.798C17.529,9.721,14.979,12,11.949,12z M7.516,6.75
		c0.361,2.133,2.234,3.75,4.433,3.75s4.072-1.617,4.433-3.75H7.516z M16.381,5.25c-0.17-0.998-0.68-1.917-1.432-2.594V5.25H16.381z
		 M13.449,5.25V1.758c-0.482-0.171-0.985-0.258-1.5-0.258s-1.018,0.087-1.5,0.258V5.25H13.449z M8.949,5.25V2.656
		C8.197,3.333,7.687,4.252,7.517,5.25H8.949z"/>
</g>
</svg>
