<?xml version="1.0" encoding="utf-8"?>
<!-- Generator: Adobe Illustrator 22.1.0, SVG Export Plug-In . SVG Version: 6.00 Build 0)  -->
<svg version="1.1" id="Regular" xmlns="http://www.w3.org/2000/svg" xmlns:xlink="http://www.w3.org/1999/xlink" x="0px" y="0px"
	 viewBox="0 0 24 24" style="enable-background:new 0 0 24 24;" xml:space="preserve">
<title>recycling-refresh</title>
<g>
	<path d="M2.251,15.014c-0.088,0-0.175-0.016-0.26-0.047c-0.008-0.003-0.015-0.005-0.022-0.008
		c-0.096-0.039-0.179-0.094-0.249-0.165L0.22,13.294c-0.292-0.292-0.292-0.768,0-1.061c0.142-0.142,0.33-0.22,0.53-0.22
		s0.389,0.078,0.53,0.22l0.22,0.22v-0.439c0-2.33,0.79-4.624,2.224-6.46c2.002-2.564,5.022-4.035,8.287-4.035
		c2.36,0,4.591,0.768,6.45,2.22c0.158,0.123,0.259,0.301,0.283,0.499c0.025,0.199-0.03,0.395-0.153,0.553
		C18.448,4.975,18.233,5.08,18,5.08c-0.167,0-0.33-0.057-0.461-0.159c-1.594-1.244-3.505-1.902-5.528-1.902
		c-2.799,0-5.389,1.26-7.104,3.458c-1.229,1.574-1.906,3.541-1.906,5.537v0.439l0.22-0.22c0.142-0.142,0.33-0.22,0.53-0.22
		s0.389,0.078,0.53,0.22c0.142,0.142,0.22,0.33,0.22,0.53s-0.078,0.389-0.22,0.53l-1.5,1.5c-0.07,0.07-0.153,0.125-0.246,0.164
		c-0.008,0.003-0.017,0.007-0.027,0.01C2.423,14.998,2.337,15.014,2.251,15.014z"/>
	<path d="M11.988,22.509c-2.359,0-4.59-0.767-6.449-2.218c-0.326-0.255-0.384-0.727-0.13-1.053c0.143-0.183,0.359-0.289,0.592-0.289
		c0.166,0,0.33,0.056,0.461,0.158c1.594,1.244,3.505,1.902,5.527,1.902c0,0,0,0,0.001,0c2.8,0,5.391-1.261,7.106-3.46
		c1.228-1.574,1.905-3.54,1.905-5.536v-0.439l-0.22,0.22c-0.142,0.142-0.33,0.22-0.53,0.22s-0.389-0.078-0.53-0.22
		c-0.142-0.141-0.22-0.33-0.22-0.53s0.078-0.389,0.22-0.53l1.5-1.5c0.07-0.07,0.153-0.125,0.245-0.163
		c0.007-0.003,0.016-0.006,0.024-0.009c0.081-0.031,0.171-0.048,0.262-0.048c0.089,0,0.176,0.016,0.261,0.048
		c0.011,0.004,0.022,0.008,0.032,0.012c0.085,0.035,0.167,0.09,0.238,0.16l1.5,1.5c0.142,0.141,0.22,0.33,0.22,0.53
		s-0.078,0.389-0.22,0.53s-0.33,0.22-0.53,0.22s-0.389-0.078-0.53-0.22l-0.22-0.22v0.439c0,2.329-0.79,4.623-2.222,6.459
		C18.276,21.038,15.255,22.509,11.988,22.509z"/>
	<path d="M9.494,18.014c-0.42-0.007-0.75-0.35-0.743-0.763c0.008-0.46,0.04-0.91,0.095-1.344c-1.198-0.66-1.985-1.529-2.281-2.524
		c-0.311-1.043-0.08-2.18,0.668-3.286c1.859-2.56,4.842-4.083,7.985-4.084c0.226,0,0.438,0.1,0.581,0.275
		c0.143,0.175,0.2,0.403,0.155,0.624c-0.131,0.65,0.037,1.631,0.215,2.67c0.399,2.325,0.945,5.509-1.884,7.261
		c-0.512,0.316-1.089,0.477-1.714,0.477c-0.888,0-1.709-0.32-2.294-0.627c-0.013,0.192-0.022,0.387-0.025,0.584
		c-0.007,0.406-0.344,0.737-0.75,0.737H9.494z M10.522,15.096c0.323,0.213,1.184,0.72,2.05,0.72c0.345,0,0.656-0.084,0.923-0.249
		c1.969-1.219,1.593-3.411,1.195-5.731c-0.139-0.809-0.271-1.58-0.282-2.283C12.053,7.788,9.853,9.04,8.46,10.958
		c-0.483,0.715-0.639,1.39-0.458,1.997c0.15,0.503,0.55,0.979,1.166,1.392c0.621-2.083,1.72-2.864,1.852-2.951
		c0.124-0.082,0.267-0.125,0.415-0.125c0.252,0,0.486,0.125,0.625,0.336c0.227,0.342,0.135,0.807-0.206,1.037
		C11.852,12.643,10.977,13.297,10.522,15.096z"/>
</g>
</svg>
