<?xml version="1.0" encoding="utf-8"?>
<!-- Generator: Adobe Illustrator 22.1.0, SVG Export Plug-In . SVG Version: 6.00 Build 0)  -->
<svg version="1.1" id="Layer_1" xmlns="http://www.w3.org/2000/svg" xmlns:xlink="http://www.w3.org/1999/xlink" x="0px" y="0px"
	 viewBox="0 0 24 24" style="enable-background:new 0 0 24 24;" xml:space="preserve">
<title>resize-expand-corner-1</title>
<g>
	<path d="M11.25,19.5c-0.414,0-0.75-0.336-0.75-0.75v-1.5c0-0.414,0.336-0.75,0.75-0.75S12,16.836,12,17.25V18h9.75
		c0.414,0,0.75-0.336,0.75-0.75v-15c0-0.414-0.336-0.75-0.75-0.75h-15C6.336,1.5,6,1.836,6,2.25V12h0.75
		c0.414,0,0.75,0.336,0.75,0.75S7.164,13.5,6.75,13.5h-1.5c-0.414,0-0.75-0.336-0.75-0.75V2.25C4.5,1.009,5.509,0,6.75,0h15
		C22.991,0,24,1.009,24,2.25v15c0,1.241-1.009,2.25-2.25,2.25H11.25z"/>
	<path d="M0.75,19.5C0.336,19.5,0,19.164,0,18.75v-1.5c0-0.414,0.336-0.75,0.75-0.75s0.75,0.336,0.75,0.75v1.5
		C1.5,19.164,1.164,19.5,0.75,19.5z"/>
	<path d="M0.75,15C0.336,15,0,14.664,0,14.25C0,13.009,1.009,12,2.25,12C2.664,12,3,12.336,3,12.75S2.664,13.5,2.25,13.5
		S1.5,13.836,1.5,14.25S1.164,15,0.75,15z"/>
	<path d="M11.25,15c-0.414,0-0.75-0.336-0.75-0.75s-0.336-0.75-0.75-0.75S9,13.164,9,12.75S9.336,12,9.75,12
		c1.241,0,2.25,1.009,2.25,2.25C12,14.664,11.664,15,11.25,15z"/>
	<path d="M2.25,24C1.009,24,0,22.991,0,21.75C0,21.336,0.336,21,0.75,21s0.75,0.336,0.75,0.75s0.336,0.75,0.75,0.75
		S3,22.836,3,23.25S2.664,24,2.25,24z"/>
	<path d="M9.75,24C9.336,24,9,23.664,9,23.25s0.336-0.75,0.75-0.75s0.75-0.336,0.75-0.75S10.836,21,11.25,21S12,21.336,12,21.75
		C12,22.991,10.991,24,9.75,24z"/>
	<path d="M5.25,24c-0.414,0-0.75-0.336-0.75-0.75s0.336-0.75,0.75-0.75h1.5c0.414,0,0.75,0.336,0.75,0.75S7.164,24,6.75,24H5.25z"/>
	<path d="M13.5,11.25c-0.2,0-0.389-0.078-0.53-0.22c-0.142-0.142-0.22-0.33-0.22-0.53c0-0.2,0.078-0.389,0.22-0.53l5.47-5.47h-2.69
		C15.336,4.5,15,4.164,15,3.75S15.336,3,15.75,3h3.75c0.388,0,0.755,0.148,1.036,0.417c0.013,0.011,0.025,0.022,0.036,0.034
		c0.005,0.005,0.01,0.011,0.015,0.018C20.851,3.742,21,4.11,21,4.5v3.75C21,8.664,20.664,9,20.25,9S19.5,8.664,19.5,8.25V5.562
		l-5.47,5.469C13.889,11.172,13.7,11.25,13.5,11.25z"/>
</g>
</svg>
