<?xml version="1.0" encoding="utf-8"?>
<!-- Generator: Adobe Illustrator 22.1.0, SVG Export Plug-In . SVG Version: 6.00 Build 0)  -->
<svg version="1.1" id="Layer_1" xmlns="http://www.w3.org/2000/svg" xmlns:xlink="http://www.w3.org/1999/xlink" x="0px" y="0px"
	 viewBox="0 0 24 24" style="enable-background:new 0 0 24 24;" xml:space="preserve">
<title>saving-bank</title>
<g>
	<path d="M1.5,24c-0.414,0-0.75-0.336-0.75-0.75S1.086,22.5,1.5,22.5h21c0.414,0,0.75,0.336,0.75,0.75S22.914,24,22.5,24H1.5z"/>
	<path d="M1.5,9C1.163,9,0.866,8.773,0.777,8.449c-0.089-0.324,0.051-0.671,0.34-0.843l9.689-5.762
		C11.151,1.621,11.567,1.5,11.997,1.5c0.434,0,0.856,0.124,1.219,0.357l9.667,5.748c0.289,0.172,0.429,0.519,0.34,0.843
		C23.134,8.773,22.837,9,22.5,9H1.5z M19.771,7.5l-7.344-4.367c-0.138-0.088-0.283-0.131-0.431-0.131
		c-0.143,0-0.283,0.041-0.402,0.118L4.228,7.5H19.771z"/>
	<path d="M18,21c-0.414,0-0.75-0.336-0.75-0.75v-9c0-0.414,0.336-0.75,0.75-0.75s0.75,0.336,0.75,0.75v8.25h1.5v-8.25
		c0-0.414,0.336-0.75,0.75-0.75s0.75,0.336,0.75,0.75v9c0,0.414-0.336,0.75-0.75,0.75H18z"/>
	<path d="M10.5,21c-0.414,0-0.75-0.336-0.75-0.75v-9c0-0.414,0.336-0.75,0.75-0.75s0.75,0.336,0.75,0.75v8.25h1.5v-8.25
		c0-0.414,0.336-0.75,0.75-0.75s0.75,0.336,0.75,0.75v9c0,0.414-0.336,0.75-0.75,0.75H10.5z"/>
	<path d="M3,21c-0.414,0-0.75-0.336-0.75-0.75v-9c0-0.414,0.336-0.75,0.75-0.75s0.75,0.336,0.75,0.75v8.25h1.5v-8.25
		c0-0.414,0.336-0.75,0.75-0.75s0.75,0.336,0.75,0.75v9C6.75,20.664,6.414,21,6,21H3z"/>
</g>
</svg>
