<?xml version="1.0" encoding="utf-8"?>
<!-- Generator: Adobe Illustrator 22.1.0, SVG Export Plug-In . SVG Version: 6.00 Build 0)  -->
<svg version="1.1" id="Layer_1" xmlns="http://www.w3.org/2000/svg" xmlns:xlink="http://www.w3.org/1999/xlink" x="0px" y="0px"
	 viewBox="0 0 24 24" style="enable-background:new 0 0 24 24;" xml:space="preserve">
<title>smart-house-water</title>
<g>
	<path d="M14.251,16.5c-2.895,0-5.25-2.355-5.25-5.25c0-2.727,4.249-6.835,4.734-7.294c0.141-0.133,0.324-0.206,0.516-0.206
		s0.375,0.073,0.516,0.205c0.485,0.46,4.734,4.568,4.734,7.295C19.501,14.145,17.145,16.5,14.251,16.5z M14.251,5.553
		c-1.854,1.886-3.75,4.389-3.75,5.697c0,2.068,1.682,3.75,3.75,3.75c2.068,0,3.75-1.682,3.75-3.75
		C18.001,9.941,16.104,7.439,14.251,5.553z"/>
	<path d="M14.251,13.5c-1.241,0-2.25-1.009-2.25-2.25c0-0.414,0.336-0.75,0.75-0.75s0.75,0.336,0.75,0.75S13.837,12,14.251,12
		s0.75,0.336,0.75,0.75S14.664,13.5,14.251,13.5z"/>
	<path d="M12.314,21c-0.414,0-0.75-0.336-0.75-0.75s0.336-0.75,0.75-0.75h9.437c0.414,0,0.75-0.336,0.75-0.75V6.866
		c0.001-0.268-0.142-0.518-0.372-0.652l-7.878-4.596L6.372,6.21C6.142,6.344,6,6.593,6.001,6.86v5.89c0,0.414-0.336,0.75-0.75,0.75
		s-0.75-0.336-0.75-0.75V6.862C4.498,6.064,4.926,5.317,5.617,4.914l8.256-4.812C13.987,0.035,14.118,0,14.251,0
		c0.133,0,0.263,0.035,0.378,0.102l8.256,4.816c0.69,0.403,1.118,1.15,1.116,1.95V18.75c0,1.241-1.009,2.25-2.25,2.25H12.314z"/>
	<path d="M8.064,21.404c-0.2,0-0.389-0.078-0.53-0.22c-0.608-0.608-1.419-0.943-2.282-0.943s-1.674,0.335-2.282,0.943
		c-0.142,0.142-0.33,0.22-0.53,0.22c-0.2,0-0.389-0.078-0.53-0.22c-0.142-0.142-0.22-0.33-0.22-0.531s0.078-0.389,0.22-0.53
		c0.891-0.891,2.078-1.382,3.343-1.382s2.451,0.491,3.343,1.382c0.142,0.141,0.22,0.33,0.22,0.53s-0.078,0.389-0.219,0.531
		C8.452,21.326,8.264,21.404,8.064,21.404z"/>
	<path d="M9.751,18.739c-0.2,0-0.389-0.078-0.53-0.22c-1.061-1.06-2.47-1.644-3.97-1.644s-2.909,0.584-3.97,1.644
		c-0.142,0.142-0.33,0.22-0.53,0.22s-0.389-0.078-0.53-0.22c-0.292-0.292-0.292-0.768,0-1.061c1.343-1.344,3.13-2.084,5.03-2.084
		c1.9,0,3.687,0.74,5.03,2.084c0.292,0.292,0.292,0.768,0,1.061C10.139,18.661,9.951,18.739,9.751,18.739z"/>
	<circle cx="5.251" cy="22.875" r="1.125"/>
</g>
</svg>
