<?xml version="1.0" encoding="utf-8"?>
<!-- Generator: Adobe Illustrator 22.1.0, SVG Export Plug-In . SVG Version: 6.00 Build 0)  -->
<svg version="1.1" id="Layer_1" xmlns="http://www.w3.org/2000/svg" xmlns:xlink="http://www.w3.org/1999/xlink" x="0px" y="0px"
	 viewBox="0 0 24 24" style="enable-background:new 0 0 24 24;" xml:space="preserve">
<title>style-two-pin-question</title>
<g>
	<path d="M12.005,11.249c-0.206,0-0.374-0.166-0.375-0.373l-0.005-0.75c-0.001-0.1,0.038-0.196,0.109-0.266
		c0.07-0.071,0.166-0.111,0.266-0.111c0.303-0.001,0.586-0.118,0.798-0.331c0.212-0.213,0.328-0.495,0.328-0.796
		c0-0.3-0.118-0.583-0.331-0.795C12.581,7.616,12.3,7.499,12,7.499C11.697,7.5,11.415,7.617,11.203,7.83
		c-0.212,0.213-0.328,0.496-0.328,0.796c0.001,0.413-0.335,0.751-0.748,0.752c-0.414,0-0.751-0.336-0.752-0.748
		c-0.003-1.448,1.172-2.628,2.619-2.631c1.45,0,2.628,1.175,2.631,2.619C14.628,10.066,13.453,11.246,12.005,11.249
		C12.005,11.249,12.005,11.249,12.005,11.249z"/>
	<path d="M12,15.003c-0.044,0-0.088-0.004-0.13-0.011c-0.542-0.063-0.957-0.501-0.99-1.047c-0.002-0.006-0.005-0.032-0.005-0.06
		c0-0.002,0-0.007,0-0.007c0-0.014,0.002-0.043,0.004-0.062c0.028-0.548,0.458-1.002,1.007-1.058c0.001,0,0.002,0,0.004,0
		c0.028-0.005,0.055-0.008,0.083-0.009c0.003,0,0.022,0,0.027,0c0.024,0,0.048,0.002,0.071,0.006c0.012,0,0.031,0.002,0.05,0.005
		c0.573,0.062,1.004,0.54,1.004,1.115c0,0.001,0,0.003,0,0.004c0,0.572-0.427,1.047-0.995,1.114
		C12.088,14.999,12.044,15.003,12,15.003z"/>
	<path d="M11.999,23.901c-0.261,0-0.518-0.068-0.743-0.197c-0.875-0.5-3.126-1.911-5.142-4.209c-2.564-2.922-3.864-6.2-3.864-9.743
		c0-5.376,4.374-9.75,9.75-9.75s9.75,4.374,9.75,9.75c0,3.544-1.3,6.822-3.865,9.744c-2.017,2.299-4.268,3.708-5.142,4.208
		C12.518,23.833,12.26,23.901,11.999,23.901z M12,1.503c-4.549,0-8.25,3.701-8.25,8.25c0,1.861,0.595,8.272,8.25,12.649
		c7.655-4.372,8.25-10.787,8.25-12.649C20.25,5.204,16.549,1.503,12,1.503z"/>
</g>
</svg>
