<?xml version="1.0" encoding="utf-8"?>
<!-- Generator: Adobe Illustrator 22.1.0, SVG Export Plug-In . SVG Version: 6.00 Build 0)  -->
<svg version="1.1" id="Layer_1" xmlns="http://www.w3.org/2000/svg" xmlns:xlink="http://www.w3.org/1999/xlink" x="0px" y="0px"
	 viewBox="0 0 24 24" style="enable-background:new 0 0 24 24;" xml:space="preserve">
<title>task-list-text-1</title>
<g>
	<path d="M7.5,11.26c-0.414,0-0.75-0.336-0.75-0.75S7.086,9.76,7.5,9.76h9c0.414,0,0.75,0.336,0.75,0.75s-0.336,0.75-0.75,0.75H7.5z
		"/>
	<path d="M7.5,15.01c-0.414,0-0.75-0.336-0.75-0.75s0.336-0.75,0.75-0.75h9c0.414,0,0.75,0.336,0.75,0.75s-0.336,0.75-0.75,0.75H7.5
		z"/>
	<path d="M7.5,18.76c-0.414,0-0.75-0.336-0.75-0.75s0.336-0.75,0.75-0.75h9c0.414,0,0.75,0.336,0.75,0.75s-0.336,0.75-0.75,0.75H7.5
		z"/>
	<path d="M4.5,24.01c-1.241,0-2.25-1.009-2.25-2.25V6.01c0-1.241,1.009-2.25,2.25-2.25h3.063C7.924,1.631,9.81,0.01,12,0.01
		c2.19,0,4.076,1.621,4.437,3.75H19.5c1.241,0,2.25,1.009,2.25,2.25v15.75c0,1.241-1.009,2.25-2.25,2.25H4.5z M4.5,5.26
		c-0.414,0-0.75,0.336-0.75,0.75v15.75c0,0.414,0.336,0.75,0.75,0.75h15c0.414,0,0.75-0.336,0.75-0.75V6.01
		c0-0.414-0.336-0.75-0.75-0.75h-3.75C15.336,5.26,15,4.923,15,4.51c0-1.654-1.346-3-3-3c-1.654,0-3,1.346-3,3
		c0,0.414-0.336,0.75-0.75,0.75H4.5z"/>
	<circle cx="12" cy="4.135" r="1.125"/>
</g>
</svg>
