<?xml version="1.0" encoding="utf-8"?>
<!-- Generator: Adobe Illustrator 22.1.0, SVG Export Plug-In . SVG Version: 6.00 Build 0)  -->
<svg version="1.1" id="Regular" xmlns="http://www.w3.org/2000/svg" xmlns:xlink="http://www.w3.org/1999/xlink" x="0px" y="0px"
	 viewBox="0 0 24 24" style="enable-background:new 0 0 24 24;" xml:space="preserve">
<title>temperature-thermometer</title>
<g>
	<path d="M11.99,24.016c-1.495,0-2.922-0.637-3.916-1.748c-1.86-2.079-1.777-5.2,0.163-7.175V3.746c0-2.068,1.682-3.75,3.75-3.75
		c2.068,0,3.75,1.682,3.75,3.75v11.348c0.056,0.057,0.11,0.115,0.163,0.174c0.935,1.045,1.407,2.392,1.329,3.792
		c-0.078,1.4-0.697,2.686-1.742,3.621C14.526,23.542,13.284,24.016,11.99,24.016z M11.988,1.496c-1.241,0-2.25,1.009-2.25,2.25
		v11.668c0,0.213-0.091,0.417-0.25,0.559c-1.542,1.379-1.674,3.754-0.295,5.295c0.709,0.793,1.729,1.248,2.797,1.248
		c0.924,0,1.811-0.338,2.498-0.953c0.747-0.668,1.188-1.586,1.244-2.586c0.056-1-0.281-1.962-0.949-2.709
		c-0.093-0.104-0.192-0.203-0.295-0.295c-0.159-0.142-0.25-0.346-0.25-0.559V3.746C14.238,2.506,13.229,1.496,11.988,1.496z"/>
	<path d="M11.988,20.996c-1.241,0-2.25-1.009-2.25-2.25c0-0.96,0.615-1.808,1.5-2.121V5.246c0-0.414,0.336-0.75,0.75-0.75
		s0.75,0.336,0.75,0.75v11.379c0.885,0.314,1.5,1.162,1.5,2.121C14.238,19.987,13.229,20.996,11.988,20.996z M11.988,17.996
		c-0.414,0-0.75,0.336-0.75,0.75s0.336,0.75,0.75,0.75s0.75-0.336,0.75-0.75S12.402,17.996,11.988,17.996z"/>
</g>
</svg>
