<?xml version="1.0" encoding="utf-8"?>
<!-- Generator: Adobe Illustrator 22.1.0, SVG Export Plug-In . SVG Version: 6.00 Build 0)  -->
<svg version="1.1" id="Regular" xmlns="http://www.w3.org/2000/svg" xmlns:xlink="http://www.w3.org/1999/xlink" x="0px" y="0px"
	 viewBox="0 0 24 24" style="enable-background:new 0 0 24 24;" xml:space="preserve">
<title>temperature-snowflake</title>
<g>
	<path d="M12,24c-0.414,0-0.75-0.336-0.75-0.75v-2.939l-2.531,2.025C8.587,22.441,8.42,22.5,8.25,22.5
		c-0.229,0-0.443-0.103-0.586-0.281c-0.258-0.323-0.206-0.796,0.117-1.054l3.469-2.775v-2.207l-2.498-1.442l-1.911,1.103
		l-0.669,4.392c-0.056,0.369-0.368,0.637-0.741,0.637c-0.038,0-0.076-0.003-0.114-0.009c-0.197-0.03-0.372-0.135-0.491-0.297
		c-0.119-0.161-0.167-0.359-0.137-0.557l0.488-3.206l-2.546,1.47c-0.114,0.066-0.243,0.101-0.375,0.101
		c-0.267,0-0.516-0.144-0.65-0.375c-0.1-0.174-0.127-0.376-0.075-0.569c0.052-0.194,0.176-0.355,0.349-0.455l2.546-1.47l-3.02-1.18
		c-0.187-0.073-0.334-0.214-0.414-0.398c-0.08-0.184-0.084-0.387-0.011-0.574c0.113-0.289,0.387-0.477,0.699-0.477
		c0.093,0,0.184,0.017,0.271,0.051l4.139,1.617l1.911-1.103v-2.884L6.091,9.455l-4.137,1.617c-0.087,0.034-0.179,0.052-0.273,0.052
		c-0.311,0-0.585-0.187-0.699-0.477c-0.073-0.187-0.069-0.39,0.011-0.574c0.08-0.184,0.228-0.325,0.414-0.398l3.02-1.18l-2.546-1.47
		c-0.173-0.1-0.298-0.262-0.349-0.455C1.48,6.375,1.507,6.173,1.607,6c0.134-0.231,0.383-0.375,0.65-0.375
		c0.131,0,0.261,0.035,0.375,0.101l2.546,1.47L4.689,3.99c-0.03-0.198,0.019-0.396,0.137-0.557C4.945,3.271,5.12,3.166,5.318,3.135
		C5.355,3.13,5.393,3.127,5.431,3.127c0.367,0,0.686,0.274,0.741,0.637l0.669,4.392l1.911,1.103l2.498-1.442V5.61L7.781,2.836
		C7.625,2.711,7.526,2.532,7.504,2.333c-0.022-0.199,0.035-0.395,0.16-0.551C7.807,1.603,8.021,1.5,8.25,1.5
		c0.17,0,0.336,0.058,0.468,0.164l2.531,2.025V0.75C11.25,0.336,11.586,0,12,0s0.75,0.336,0.75,0.75v2.939l2.531-2.025
		C15.414,1.558,15.58,1.5,15.749,1.5c0.229,0,0.443,0.103,0.586,0.281c0.258,0.323,0.206,0.796-0.117,1.054L12.75,5.61v2.206
		l2.498,1.442l1.911-1.103l0.669-4.392c0.055-0.363,0.373-0.637,0.741-0.637c0.038,0,0.076,0.003,0.114,0.009
		c0.197,0.03,0.372,0.135,0.491,0.297c0.119,0.161,0.167,0.359,0.137,0.557l-0.488,3.205l2.546-1.47
		c0.114-0.066,0.243-0.101,0.375-0.101c0.268,0,0.517,0.144,0.65,0.376c0.1,0.173,0.126,0.375,0.074,0.568
		c-0.052,0.194-0.176,0.355-0.349,0.456l-2.546,1.47l3.02,1.18c0.385,0.15,0.576,0.586,0.426,0.971
		c-0.113,0.29-0.388,0.477-0.699,0.477c-0.094,0-0.186-0.017-0.273-0.052l-4.137-1.617l-1.911,1.103v2.884l1.911,1.103l4.137-1.617
		c0.089-0.034,0.18-0.051,0.273-0.051c0.311,0,0.586,0.187,0.699,0.477c0.15,0.385-0.041,0.821-0.426,0.971l-3.02,1.18l2.546,1.47
		c0.358,0.207,0.481,0.666,0.274,1.024c-0.133,0.231-0.382,0.375-0.65,0.375c-0.132,0-0.261-0.035-0.375-0.101l-2.545-1.47
		l0.488,3.206c0.03,0.198-0.018,0.396-0.137,0.557s-0.293,0.267-0.491,0.297c-0.037,0.006-0.075,0.009-0.113,0.009
		c-0.367,0-0.686-0.274-0.741-0.637l-0.669-4.391l-1.911-1.103l-2.498,1.442v2.207l3.469,2.775c0.323,0.258,0.375,0.731,0.117,1.054
		c-0.143,0.179-0.357,0.281-0.586,0.281c-0.169,0-0.336-0.058-0.468-0.164l-2.531-2.025v2.939C12.75,23.664,12.413,24,12,24z
		 M12,14.884l2.498-1.442v-2.884L12,9.116l-2.498,1.442v2.884L12,14.884z"/>
</g>
</svg>
