<?xml version="1.0" encoding="utf-8"?>
<!-- Generator: Adobe Illustrator 22.1.0, SVG Export Plug-In . SVG Version: 6.00 Build 0)  -->
<svg version="1.1" id="Regular" xmlns="http://www.w3.org/2000/svg" xmlns:xlink="http://www.w3.org/1999/xlink" x="0px" y="0px"
	 viewBox="0 0 24 24" style="enable-background:new 0 0 24 24;" xml:space="preserve">
<title>water-protection-faucet</title>
<g>
	<path d="M19.875,24c-1.602,0-2.906-1.304-2.906-2.906c0-1.295,1.52-4.344,2.906-4.344s2.906,3.049,2.906,4.344
		C22.781,22.696,21.477,24,19.875,24z M19.873,18.305c-0.401,0.369-1.404,1.891-1.404,2.789c0,0.775,0.631,1.406,1.406,1.406
		s1.406-0.631,1.406-1.406C21.281,20.192,20.275,18.672,19.873,18.305z"/>
	<path d="M0.75,18C0.336,18,0,17.664,0,17.25V0.75C0,0.336,0.336,0,0.75,0S1.5,0.336,1.5,0.75V6h3.948
		C5.975,5.246,6.677,4.649,7.5,4.258V1.5H5.25C4.836,1.5,4.5,1.164,4.5,0.75S4.836,0,5.25,0h9C14.663,0,15,0.336,15,0.75
		S14.663,1.5,14.25,1.5H12v2.758C12.823,4.649,13.525,5.246,14.051,6h3.196c2.895,0,5.25,2.355,5.25,5.25v3
		c0,0.414-0.336,0.75-0.75,0.75H18c-0.414,0-0.75-0.336-0.75-0.75v-1.5c0-0.414-0.336-0.75-0.75-0.75h-2.448
		c-0.986,1.413-2.579,2.25-4.301,2.25S6.435,13.413,5.448,12H1.5v5.25C1.5,17.664,1.164,18,0.75,18z M20.997,13.5v-2.25
		c0-2.068-1.682-3.75-3.75-3.75h-2.466C14.926,7.985,15,8.488,15,9s-0.073,1.015-0.219,1.5H16.5c1.241,0,2.25,1.009,2.25,2.25v0.75
		H20.997z M9.75,5.25C7.682,5.25,6,6.932,6,9s1.682,3.75,3.75,3.75S13.5,11.068,13.5,9S11.818,5.25,9.75,5.25z M4.719,10.5
		C4.573,10.015,4.5,9.512,4.5,9s0.073-1.015,0.219-1.5H1.5v3H4.719z M9,3.807C9.253,3.769,9.504,3.75,9.75,3.75
		s0.497,0.019,0.75,0.057V1.5H9V3.807z"/>
</g>
</svg>
