<?xml version="1.0" encoding="utf-8"?>
<!-- Generator: Adobe Illustrator 22.1.0, SVG Export Plug-In . SVG Version: 6.00 Build 0)  -->
<svg version="1.1" id="Layer_1" xmlns="http://www.w3.org/2000/svg" xmlns:xlink="http://www.w3.org/1999/xlink" x="0px" y="0px"
	 viewBox="0 0 24 24" style="enable-background:new 0 0 24 24;" xml:space="preserve">
<title>water-fountain-drop</title>
<g>
	<path d="M2.625,24c-0.414,0-0.75-0.336-0.75-0.75c0-2.042,1.169-3.877,3-4.744V8.25C4.88,3.706,8.581,0.005,13.124,0
		c4.545,0.005,8.246,3.706,8.251,8.249V9c0,1.241-1.009,2.25-2.25,2.25s-2.25-1.009-2.25-2.25V8.25c0-2.068-1.682-3.75-3.75-3.75
		c-2.068,0-3.75,1.682-3.75,3.75v8.25h2.25c0.414,0,0.75,0.336,0.75,0.75S12.039,18,11.625,18h-2.25v0.506
		c1.831,0.867,3,2.702,3,4.744c0,0.414-0.336,0.75-0.75,0.75H2.625z M10.799,22.5c-0.262-1.277-1.179-2.345-2.424-2.786
		c-0.299-0.106-0.5-0.39-0.5-0.707V8.25c0-2.895,2.355-5.25,5.25-5.25c2.895,0,5.25,2.355,5.25,5.25V9c0,0.414,0.336,0.75,0.75,0.75
		s0.75-0.336,0.75-0.75V8.25c-0.004-3.717-3.032-6.745-6.75-6.75C9.408,1.505,6.38,4.534,6.375,8.251v10.756
		c0,0.317-0.201,0.601-0.5,0.707c-1.245,0.44-2.162,1.509-2.424,2.786H10.799z"/>
	<path d="M19.125,21c-1.654,0-3-1.346-3-3c0-1.405,1.985-4.35,2.383-4.926c0.136-0.197,0.367-0.314,0.617-0.314
		s0.481,0.117,0.617,0.313c0.398,0.576,2.383,3.522,2.383,4.927C22.125,19.654,20.779,21,19.125,21z M19.125,14.868
		c-0.886,1.416-1.5,2.688-1.5,3.132c0,0.827,0.673,1.5,1.5,1.5s1.5-0.673,1.5-1.5C20.625,17.556,20.011,16.284,19.125,14.868z"/>
</g>
</svg>
