<?xml version="1.0" encoding="utf-8"?>
<!-- Generator: Adobe Illustrator 22.1.0, SVG Export Plug-In . SVG Version: 6.00 Build 0)  -->
<svg version="1.1" id="Regular" xmlns="http://www.w3.org/2000/svg" xmlns:xlink="http://www.w3.org/1999/xlink" x="0px" y="0px"
	 viewBox="0 0 24 24" style="enable-background:new 0 0 24 24;" xml:space="preserve">
<title>water-protection-tower</title>
<g>
	<path d="M19.5,24c-0.345,0-0.644-0.234-0.727-0.568L18.539,22.5H5.461l-0.233,0.932C5.144,23.766,4.845,24,4.5,24
		c-0.061,0-0.122-0.008-0.181-0.022c-0.402-0.101-0.647-0.509-0.546-0.91L6.539,12H4.5c-0.414,0-0.75-0.336-0.75-0.75v-1.5
		C3.75,9.336,4.086,9,4.5,9s0.75,0.336,0.75,0.75v0.75h1.5V6.75H6c-0.311,0-0.593-0.195-0.702-0.486
		C5.189,5.973,5.272,5.64,5.506,5.435l6-5.25C11.643,0.066,11.818,0,12,0s0.357,0.066,0.494,0.186l6,5.25
		c0.234,0.204,0.318,0.537,0.208,0.828C18.593,6.554,18.311,6.75,18,6.75h-0.75v3.75h1.5V9.75C18.75,9.336,19.086,9,19.5,9
		s0.75,0.336,0.75,0.75v1.5c0,0.414-0.336,0.75-0.75,0.75h-2.04l2.767,11.068c0.1,0.401-0.144,0.809-0.545,0.91
		C19.622,23.992,19.561,24,19.5,24z M17.175,21L12,16.325L6.824,21H17.175z M17.8,19.542l-1.725-6.898l-2.956,2.67L17.8,19.542z
		 M6.2,19.542l4.681-4.228l-2.956-2.67L6.2,19.542z M12,14.304L14.55,12H9.449L12,14.304z M15.75,10.5V6.75h-7.5v3.75H15.75z
		 M16.004,5.25L12,1.746L7.996,5.25H16.004z"/>
</g>
</svg>
