<?xml version="1.0" encoding="utf-8"?>
<!-- Generator: Adobe Illustrator 22.1.0, SVG Export Plug-In . SVG Version: 6.00 Build 0)  -->
<svg version="1.1" id="Regular" xmlns="http://www.w3.org/2000/svg" xmlns:xlink="http://www.w3.org/1999/xlink" x="0px" y="0px"
	 viewBox="0 0 24 24" style="enable-background:new 0 0 24 24;" xml:space="preserve">
<title>weather-cloud-wind-4</title>
<g>
	<path d="M18.199,16.037c-0.332,0-0.62-0.213-0.717-0.53c-0.059-0.191-0.039-0.394,0.054-0.571c0.094-0.177,0.251-0.307,0.442-0.366
		c2.683-0.824,4.499-3.262,4.52-6.068c-0.046-1.733-0.771-3.359-2.044-4.567c-1.226-1.163-2.831-1.804-4.521-1.804
		c-0.057,0-0.115,0.001-0.172,0.002c-3.032,0.079-5.597,2.202-6.243,5.164C9.518,7.311,9.516,7.322,9.514,7.332
		C9.38,7.98,9.356,8.644,9.443,9.303c0.054,0.41-0.236,0.787-0.646,0.841c-0.033,0.004-0.066,0.006-0.099,0.006
		c-0.375,0-0.694-0.28-0.743-0.652C7.912,9.171,7.891,8.838,7.89,8.509c0-0.019,0.001-0.038,0.002-0.057
		c0.003-0.263,0.02-0.529,0.052-0.793c-0.373-0.117-0.76-0.18-1.133-0.181l-0.05,0c-2.049,0-3.736,1.666-3.762,3.713
		c0,0.201,0.018,0.41,0.054,0.617c0.034,0.198-0.01,0.396-0.126,0.56c-0.115,0.164-0.288,0.273-0.485,0.307
		c-0.041,0.008-0.086,0.012-0.131,0.012c-0.364,0-0.674-0.261-0.737-0.622c-0.051-0.292-0.076-0.589-0.076-0.884
		c0.036-2.871,2.395-5.203,5.259-5.203l0.065,0c0.48,0.002,0.973,0.073,1.445,0.208c1.056-3.247,4.005-5.459,7.455-5.55
		c0.071-0.002,0.142-0.003,0.213-0.003c2.074,0,4.045,0.787,5.551,2.216c1.563,1.484,2.455,3.487,2.511,5.641
		c-0.026,3.484-2.268,6.499-5.579,7.515C18.348,16.026,18.273,16.037,18.199,16.037z"/>
	<path d="M11.999,22.037c-0.414,0-0.75-0.336-0.75-0.75s0.336-0.75,0.75-0.75h0.75c0.414,0,0.75-0.336,0.75-0.75
		s-0.336-0.75-0.75-0.75h-12c-0.414,0-0.75-0.336-0.75-0.75s0.336-0.75,0.75-0.75h12c1.241,0,2.25,1.009,2.25,2.25
		s-1.009,2.25-2.25,2.25H11.999z"/>
	<path d="M0.749,16.037c-0.414,0-0.75-0.336-0.75-0.75s0.336-0.75,0.75-0.75h8.25c0.414,0,0.75-0.336,0.75-0.75
		s-0.336-0.75-0.75-0.75h-0.75c-0.414,0-0.75-0.336-0.75-0.75s0.336-0.75,0.75-0.75h0.75c1.241,0,2.25,1.009,2.25,2.25
		s-1.009,2.25-2.25,2.25H0.749z"/>
</g>
</svg>
