<?xml version="1.0" encoding="utf-8"?>
<!-- Generator: Adobe Illustrator 22.1.0, SVG Export Plug-In . SVG Version: 6.00 Build 0)  -->
<svg version="1.1" id="Regular" xmlns="http://www.w3.org/2000/svg" xmlns:xlink="http://www.w3.org/1999/xlink" x="0px" y="0px"
	 viewBox="0 0 24 24" style="enable-background:new 0 0 24 24;" xml:space="preserve">
<title>weather-cloud-thunder-heavy</title>
<g>
	<path d="M7.907,23.934c-0.2,0-0.389-0.078-0.53-0.22c-0.292-0.292-0.292-0.768,0-1.061l1.72-1.72H6.407
		c-0.305,0-0.577-0.182-0.693-0.463c-0.117-0.281-0.053-0.602,0.163-0.817l3-3c0.142-0.142,0.33-0.22,0.53-0.22
		s0.389,0.078,0.53,0.22c0.292,0.292,0.292,0.768,0,1.061l-1.72,1.72h2.689c0.305,0,0.577,0.182,0.693,0.463
		c0.117,0.281,0.053,0.602-0.163,0.817l-3,3C8.296,23.856,8.107,23.934,7.907,23.934z"/>
	<path d="M15.407,23.934c-0.2,0-0.389-0.078-0.53-0.22c-0.292-0.292-0.292-0.768,0-1.061l1.72-1.72h-2.689
		c-0.304,0-0.576-0.182-0.693-0.463s-0.053-0.602,0.163-0.817l3-3c0.142-0.142,0.33-0.22,0.53-0.22s0.389,0.078,0.53,0.22
		c0.292,0.292,0.292,0.768,0,1.061l-1.72,1.72h2.689c0.304,0,0.576,0.182,0.693,0.463s0.053,0.602-0.163,0.817l-3,3
		C15.796,23.856,15.607,23.934,15.407,23.934z"/>
	<path d="M7.907,14.934c-0.675,0-1.347-0.153-1.949-0.442c-1.083-0.519-1.898-1.428-2.297-2.561
		c-0.399-1.133-0.332-2.353,0.187-3.435c0.743-1.55,2.337-2.552,4.059-2.552C8.277,5.944,8.643,5.99,9,6.08
		c0.902-2.754,3.486-4.646,6.414-4.646c1.811,0.002,3.505,0.706,4.779,1.983c1.273,1.276,1.973,2.972,1.971,4.775
		c-0.002,1.803-0.706,3.497-1.983,4.771c-1.274,1.271-2.967,1.971-4.767,1.971H7.907z M15.433,13.434
		c1.381,0,2.698-0.545,3.689-1.534c0.993-0.99,1.541-2.308,1.542-3.71c0.002-1.402-0.543-2.722-1.533-3.714
		c-0.99-0.993-2.308-1.54-3.711-1.542c-2.524,0-4.693,1.795-5.163,4.268c0,0-0.001,0.005-0.001,0.007
		c-0.064,0.32-0.097,0.649-0.099,0.977c0,0.214,0.014,0.432,0.04,0.647c0.005,0.04,0.007,0.071,0.007,0.101
		c0,0.377-0.282,0.697-0.656,0.744C9.515,9.682,9.484,9.684,9.453,9.684c-0.377,0-0.696-0.282-0.744-0.656
		C8.675,8.749,8.657,8.465,8.657,8.184C8.658,7.973,8.669,7.762,8.69,7.553C8.431,7.481,8.168,7.444,7.906,7.444
		c-1.149,0-2.211,0.667-2.706,1.7c-0.346,0.721-0.39,1.534-0.124,2.289c0.266,0.755,0.809,1.361,1.531,1.707
		c0.401,0.192,0.849,0.294,1.294,0.294c0,0,7.505,0,7.509,0C15.416,13.434,15.426,13.434,15.433,13.434z"/>
</g>
</svg>
