<?xml version="1.0" encoding="utf-8"?>
<!-- Generator: Adobe Illustrator 22.1.0, SVG Export Plug-In . SVG Version: 6.00 Build 0)  -->
<svg version="1.1" id="Regular" xmlns="http://www.w3.org/2000/svg" xmlns:xlink="http://www.w3.org/1999/xlink" x="0px" y="0px"
	 viewBox="0 0 24 24" style="enable-background:new 0 0 24 24;" xml:space="preserve">
<title>weather-cloud-1</title>
<g>
	<path d="M7.024,18.684c-0.675,0-1.347-0.153-1.949-0.442c-1.083-0.519-1.898-1.428-2.297-2.561
		c-0.399-1.133-0.332-2.353,0.187-3.435c0.519-1.083,1.429-1.899,2.561-2.297C6.01,9.778,6.513,9.692,7.021,9.692
		c0.37,0,0.738,0.046,1.096,0.137c0.902-2.754,3.486-4.645,6.414-4.645c1.811,0.002,3.505,0.706,4.779,1.983
		c1.273,1.276,1.973,2.972,1.971,4.775c-0.002,1.803-0.707,3.497-1.983,4.771c-1.274,1.271-2.967,1.971-4.767,1.971H7.024z
		 M7.02,11.192c-0.338,0-0.673,0.058-0.997,0.172c-0.755,0.266-1.361,0.809-1.706,1.531s-0.39,1.534-0.124,2.289
		c0.266,0.755,0.809,1.361,1.53,1.707c0.401,0.192,0.849,0.294,1.294,0.294h7.506c1.407,0,2.724-0.544,3.715-1.533
		c0.993-0.99,1.541-2.308,1.542-3.711c0.002-1.402-0.543-2.721-1.533-3.714c-0.99-0.993-2.308-1.54-3.711-1.542
		c-2.524,0-4.693,1.795-5.164,4.268c0,0.001-0.003,0.017-0.005,0.024c-0.06,0.304-0.093,0.633-0.094,0.961
		c0,0.213,0.013,0.43,0.04,0.645c0.005,0.04,0.007,0.071,0.007,0.102c0,0.377-0.282,0.697-0.656,0.744
		c-0.032,0.004-0.063,0.006-0.094,0.006c-0.377,0-0.696-0.282-0.744-0.656c-0.035-0.279-0.053-0.562-0.053-0.841
		c0.001-0.214,0.012-0.425,0.033-0.635C7.546,11.229,7.283,11.192,7.02,11.192z"/>
</g>
</svg>
