<?xml version="1.0" encoding="utf-8"?>
<!-- Generator: Adobe Illustrator 22.1.0, SVG Export Plug-In . SVG Version: 6.00 Build 0)  -->
<svg version="1.1" id="Regular" xmlns="http://www.w3.org/2000/svg" xmlns:xlink="http://www.w3.org/1999/xlink" x="0px" y="0px"
	 viewBox="0 0 24 24" style="enable-background:new 0 0 24 24;" xml:space="preserve">
<title>weather-cloud-heavy-rain</title>
<g>
	<path d="M6.026,22.434c-0.2,0-0.389-0.078-0.53-0.22c-0.292-0.292-0.292-0.768,0-1.061l3.75-3.75c0.142-0.142,0.33-0.22,0.53-0.22
		l0,0c0.2,0,0.389,0.078,0.53,0.22c0.292,0.292,0.292,0.768,0,1.061l-3.75,3.75C6.415,22.356,6.227,22.434,6.026,22.434z"/>
	<path d="M15.027,22.434c-0.2,0-0.389-0.078-0.53-0.22c-0.292-0.292-0.292-0.768,0-1.061l3.75-3.75c0.142-0.142,0.33-0.22,0.53-0.22
		l0,0c0.2,0,0.389,0.078,0.53,0.22c0.292,0.292,0.292,0.768,0,1.061l-3.75,3.75C15.415,22.356,15.227,22.434,15.027,22.434z"/>
	<path d="M12.026,20.934c-0.2,0-0.389-0.078-0.53-0.22c-0.292-0.292-0.292-0.768,0-1.061l2.25-2.25c0.142-0.142,0.33-0.22,0.53-0.22
		s0.389,0.078,0.53,0.22c0.292,0.292,0.292,0.768,0,1.061l-2.25,2.25C12.415,20.856,12.227,20.934,12.026,20.934z"/>
	<path d="M3.026,20.934c-0.2,0-0.389-0.078-0.53-0.22c-0.292-0.292-0.292-0.768,0-1.061l2.25-2.25c0.142-0.142,0.33-0.22,0.53-0.22
		s0.389,0.078,0.53,0.22c0.292,0.292,0.292,0.768,0,1.061l-2.25,2.25C3.415,20.856,3.227,20.934,3.026,20.934z"/>
	<path d="M7.526,15.684c-0.675,0-1.347-0.153-1.949-0.442c-1.083-0.519-1.898-1.428-2.297-2.561
		c-0.399-1.133-0.332-2.353,0.187-3.435c0.743-1.55,2.337-2.552,4.059-2.552c0.37,0,0.736,0.046,1.093,0.136
		c0.902-2.754,3.486-4.646,6.414-4.646c1.811,0.002,3.505,0.706,4.779,1.983c1.273,1.276,1.973,2.972,1.971,4.775
		c-0.002,1.803-0.706,3.497-1.983,4.77c-1.274,1.271-2.967,1.971-4.767,1.971H7.526z M15.054,14.184c1.38,0,2.697-0.545,3.688-1.533
		c0.993-0.991,1.54-2.309,1.542-3.711c0.002-1.402-0.543-2.722-1.533-3.714c-0.99-0.993-2.308-1.54-3.711-1.542
		c-2.524,0-4.693,1.795-5.163,4.268c-0.001,0.003-0.001,0.007-0.002,0.01C9.811,8.283,9.778,8.611,9.776,8.937
		c0,0.213,0.014,0.431,0.04,0.646c0.005,0.04,0.007,0.071,0.007,0.102c0,0.377-0.282,0.697-0.656,0.744
		c-0.032,0.004-0.063,0.006-0.094,0.006c-0.377,0-0.697-0.282-0.744-0.656c-0.035-0.28-0.053-0.563-0.053-0.844
		c0.001-0.212,0.012-0.422,0.033-0.631C8.05,8.231,7.788,8.194,7.526,8.194c-1.149,0-2.211,0.667-2.706,1.7
		c-0.346,0.721-0.39,1.534-0.124,2.289c0.266,0.755,0.809,1.361,1.531,1.707c0.401,0.192,0.849,0.294,1.294,0.294
		c0,0,7.505,0,7.509,0C15.036,14.184,15.046,14.184,15.054,14.184z"/>
</g>
</svg>
