<?xml version="1.0" standalone="no"?>
<!DOCTYPE svg PUBLIC "-//W3C//DTD SVG 1.1//EN" "http://www.w3.org/Graphics/SVG/1.1/DTD/svg11.dtd" >
<svg xmlns="http://www.w3.org/2000/svg">
<defs>
  <font id="sz-icons-bold" horiz-adv-x="1000">
    <font-face font-family="sz-icons-bold"
      units-per-em="1000" ascent="1000"
      descent="0" />
    <missing-glyph horiz-adv-x="0" />
    <glyph glyph-name="accounting-document"
      unicode="&#xF101;"
      horiz-adv-x="1000" d="M898.375 756.0833333333334L672.75 981.7083333333334A62.95833333333332 62.95833333333332 0 0 1 628.5833333333333 1000H145.8333333333333A62.5 62.5 0 0 1 83.3333333333333 937.5V62.5A62.5 62.5 0 0 1 145.8333333333333 0H895.8333333333333A20.833333333333332 20.833333333333332 0 0 1 916.6666666666666 20.8333333333334V711.9166666666667A62.08333333333333 62.08333333333333 0 0 1 898.375 756.0833333333334zM409.0416666666667 534.0416666666667L268.625 586.5416666666667A106.24999999999999 106.24999999999999 0 0 0 208.3333333333333 689.375A105.375 105.375 0 0 0 303.7083333333333 795A10.374999999999998 10.374999999999998 0 0 1 312.5 805.2916666666667V833.3333333333334A41.666666666666664 41.666666666666664 0 0 0 395.8333333333333 833.3333333333334V807.2916666666667A10.416666666666666 10.416666666666666 0 0 1 406.25 796.875H458.3333333333333A41.666666666666664 41.666666666666664 0 0 0 458.3333333333333 713.5416666666667H328.125C291.6666666666667 713.5416666666667 291.6666666666667 695.375 291.6666666666667 689.375A37.5 37.5 0 0 1 299.2916666666667 663.875L439.7083333333333 611.375A106.24999999999999 106.24999999999999 0 0 0 500 508.3333333333333A105.375 105.375 0 0 0 404.625 402.9166666666668A10.374999999999998 10.374999999999998 0 0 1 395.8333333333333 392.625V364.5833333333334A41.666666666666664 41.666666666666664 0 0 0 312.5 364.5833333333334V390.625A10.416666666666666 10.416666666666666 0 0 1 302.0833333333333 401.0416666666668H250A41.666666666666664 41.666666666666664 0 0 0 250 484.375H380.2083333333333C416.6666666666667 484.375 416.6666666666667 502.5416666666667 416.6666666666667 508.5416666666667A37.5 37.5 0 0 1 409.0416666666667 534.0416666666667zM770.8333333333333 385.4166666666668A31.25 31.25 0 0 0 770.8333333333333 322.9166666666668H562.5A31.25 31.25 0 0 0 562.5 385.4166666666668zM614.5833333333333 541.6666666666667A31.25 31.25 0 0 0 645.8333333333333 572.9166666666667H770.8333333333333A31.25 31.25 0 0 0 770.8333333333333 510.4166666666667H645.8333333333333A31.25 31.25 0 0 0 614.5833333333333 541.6666666666667zM770.8333333333333 197.9166666666668A31.25 31.25 0 0 0 770.8333333333333 135.4166666666668H354.1666666666667A31.25 31.25 0 0 0 354.1666666666667 197.9166666666668z" />
    <glyph glyph-name="accounting-document-1"
      unicode="&#x61;&#x63;&#x63;&#x6F;&#x75;&#x6E;&#x74;&#x69;&#x6E;&#x67;&#x2D;&#x64;&#x6F;&#x63;&#x75;&#x6D;&#x65;&#x6E;&#x74;"
      horiz-adv-x="1000" d="M898.375 756.0833333333334L672.75 981.7083333333334A62.95833333333332 62.95833333333332 0 0 1 628.5833333333333 1000H145.8333333333333A62.5 62.5 0 0 1 83.3333333333333 937.5V62.5A62.5 62.5 0 0 1 145.8333333333333 0H895.8333333333333A20.833333333333332 20.833333333333332 0 0 1 916.6666666666666 20.8333333333334V711.9166666666667A62.08333333333333 62.08333333333333 0 0 1 898.375 756.0833333333334zM409.0416666666667 534.0416666666667L268.625 586.5416666666667A106.24999999999999 106.24999999999999 0 0 0 208.3333333333333 689.375A105.375 105.375 0 0 0 303.7083333333333 795A10.374999999999998 10.374999999999998 0 0 1 312.5 805.2916666666667V833.3333333333334A41.666666666666664 41.666666666666664 0 0 0 395.8333333333333 833.3333333333334V807.2916666666667A10.416666666666666 10.416666666666666 0 0 1 406.25 796.875H458.3333333333333A41.666666666666664 41.666666666666664 0 0 0 458.3333333333333 713.5416666666667H328.125C291.6666666666667 713.5416666666667 291.6666666666667 695.375 291.6666666666667 689.375A37.5 37.5 0 0 1 299.2916666666667 663.875L439.7083333333333 611.375A106.24999999999999 106.24999999999999 0 0 0 500 508.3333333333333A105.375 105.375 0 0 0 404.625 402.9166666666668A10.374999999999998 10.374999999999998 0 0 1 395.8333333333333 392.625V364.5833333333335A41.666666666666664 41.666666666666664 0 0 0 312.5 364.5833333333335V390.625A10.416666666666666 10.416666666666666 0 0 1 302.0833333333333 401.0416666666668H250A41.666666666666664 41.666666666666664 0 0 0 250 484.375H380.2083333333333C416.6666666666667 484.375 416.6666666666667 502.5416666666667 416.6666666666667 508.5416666666667A37.5 37.5 0 0 1 409.0416666666667 534.0416666666667zM770.8333333333333 385.4166666666668A31.25 31.25 0 0 0 770.8333333333333 322.9166666666668H562.5A31.25 31.25 0 0 0 562.5 385.4166666666668zM614.5833333333333 541.6666666666667A31.25 31.25 0 0 0 645.8333333333333 572.9166666666667H770.8333333333333A31.25 31.25 0 0 0 770.8333333333333 510.4166666666667H645.8333333333333A31.25 31.25 0 0 0 614.5833333333333 541.6666666666667zM770.8333333333333 197.9166666666668A31.25 31.25 0 0 0 770.8333333333333 135.4166666666668H354.1666666666667A31.25 31.25 0 0 0 354.1666666666667 197.9166666666668z" />
    <glyph glyph-name="add-circle"
      unicode="&#xF102;"
      horiz-adv-x="1000" d="M500 20.8333333333334A479.16666666666663 479.16666666666663 0 1 1 20.8333333333333 500A479.7083333333333 479.7083333333333 0 0 1 500 20.8333333333334zM250 541.6666666666667H447.9166666666667A10.416666666666666 10.416666666666666 0 0 1 458.3333333333333 552.0833333333334V750A41.666666666666664 41.666666666666664 0 0 0 541.6666666666666 750V552.0833333333334A10.416666666666666 10.416666666666666 0 0 1 552.0833333333333 541.6666666666667H750A41.666666666666664 41.666666666666664 0 0 0 750 458.3333333333334H552.0833333333333A10.416666666666666 10.416666666666666 0 0 1 541.6666666666666 447.9166666666668V250A41.666666666666664 41.666666666666664 0 0 0 458.3333333333333 250V447.9166666666668A10.416666666666666 10.416666666666666 0 0 1 447.9166666666667 458.3333333333334H250A41.666666666666664 41.666666666666664 0 0 0 250 541.6666666666667z" />
    <glyph glyph-name="add-circle-1"
      unicode="&#x61;&#x64;&#x64;&#x2D;&#x63;&#x69;&#x72;&#x63;&#x6C;&#x65;"
      horiz-adv-x="1000" d="M500 20.8333333333334A479.16666666666663 479.16666666666663 0 1 1 20.8333333333333 500A479.7083333333333 479.7083333333333 0 0 1 500 20.8333333333334zM250 541.6666666666667H447.9166666666667A10.416666666666666 10.416666666666666 0 0 1 458.3333333333333 552.0833333333334V750A41.666666666666664 41.666666666666664 0 0 0 541.6666666666666 750V552.0833333333334A10.416666666666666 10.416666666666666 0 0 1 552.0833333333333 541.6666666666667H750A41.666666666666664 41.666666666666664 0 0 0 750 458.3333333333334H552.0833333333333A10.416666666666666 10.416666666666666 0 0 1 541.6666666666666 447.9166666666668V250A41.666666666666664 41.666666666666664 0 0 0 458.3333333333333 250V447.9166666666668A10.416666666666666 10.416666666666666 0 0 1 447.9166666666667 458.3333333333334H250A41.666666666666664 41.666666666666664 0 0 0 250 541.6666666666667z" />
    <glyph glyph-name="add-square"
      unicode="&#xF103;"
      horiz-adv-x="1000" d="M979.1666666666666 916.6666666666666A62.5 62.5 0 0 1 916.6666666666666 979.1666666666666H83.3333333333333A62.5 62.5 0 0 1 20.8333333333333 916.6666666666666V83.3333333333334A62.5 62.5 0 0 1 83.3333333333333 20.8333333333334H916.6666666666666A62.5 62.5 0 0 1 979.1666666666666 83.3333333333334zM250 458.3333333333334A41.666666666666664 41.666666666666664 0 0 0 250 541.6666666666667H447.9166666666667A10.416666666666666 10.416666666666666 0 0 1 458.3333333333333 552.0833333333334V750A41.666666666666664 41.666666666666664 0 0 0 541.6666666666666 750V552.0833333333334A10.416666666666666 10.416666666666666 0 0 1 552.0833333333333 541.6666666666667H750A41.666666666666664 41.666666666666664 0 0 0 750 458.3333333333334H552.0833333333333A10.416666666666666 10.416666666666666 0 0 1 541.6666666666666 447.9166666666668V250A41.666666666666664 41.666666666666664 0 0 0 458.3333333333333 250V447.9166666666668A10.416666666666666 10.416666666666666 0 0 1 447.9166666666667 458.3333333333334z" />
    <glyph glyph-name="add-square-1"
      unicode="&#x61;&#x64;&#x64;&#x2D;&#x73;&#x71;&#x75;&#x61;&#x72;&#x65;"
      horiz-adv-x="1000" d="M979.1666666666666 916.6666666666666A62.5 62.5 0 0 1 916.6666666666666 979.1666666666666H83.3333333333333A62.5 62.5 0 0 1 20.8333333333333 916.6666666666666V83.3333333333334A62.5 62.5 0 0 1 83.3333333333333 20.8333333333334H916.6666666666666A62.5 62.5 0 0 1 979.1666666666666 83.3333333333334zM250 458.3333333333334A41.666666666666664 41.666666666666664 0 0 0 250 541.6666666666667H447.9166666666667A10.416666666666666 10.416666666666666 0 0 1 458.3333333333333 552.0833333333334V750A41.666666666666664 41.666666666666664 0 0 0 541.6666666666666 750V552.0833333333334A10.416666666666666 10.416666666666666 0 0 1 552.0833333333333 541.6666666666667H750A41.666666666666664 41.666666666666664 0 0 0 750 458.3333333333334H552.0833333333333A10.416666666666666 10.416666666666666 0 0 1 541.6666666666666 447.9166666666668V250A41.666666666666664 41.666666666666664 0 0 0 458.3333333333333 250V447.9166666666668A10.416666666666666 10.416666666666666 0 0 1 447.9166666666667 458.3333333333334z" />
    <glyph glyph-name="agriculture-machine-tractor"
      unicode="&#xF104;"
      horiz-adv-x="1000" d="M739.5833333333333 427.0833333333334A166.66666666666666 166.66666666666666 0 1 1 906.25 260.4166666666668A166.66666666666666 166.66666666666666 0 0 1 739.5833333333333 427.0833333333334zM739.5833333333333 197.9166666666668A62.5 62.5 0 1 0 802.0833333333333 260.4166666666668A62.5 62.5 0 0 0 739.5833333333333 197.9166666666668zM993.2916666666666 424.3333333333334A302.0416666666666 302.0416666666666 0 0 1 868.9583333333333 533.3333333333334A20.833333333333332 20.833333333333332 0 0 0 857.5 547.7916666666667L808.3333333333333 777.7916666666667A20.833333333333332 20.833333333333332 0 0 0 812.9166666666665 795.7916666666667A41.25 41.25 0 0 1 822.9999999999999 822.9166666666667V843.75A62.5 62.5 0 0 1 760.4999999999999 906.25H385.5A62.5 62.5 0 0 1 323 843.75V822.9166666666667A41.33333333333332 41.33333333333332 0 0 1 332.4583333333333 796.5416666666667A20.833333333333332 20.833333333333332 0 0 0 336.625 778.2083333333334L288.9583333333333 588A20.833333333333332 20.833333333333332 0 0 0 272.2916666666667 572.5A681.7916666666665 681.7916666666665 0 0 1 59.7916666666667 502.4583333333334A114.66666666666664 114.66666666666664 0 0 1 0 401.9166666666668V218.5833333333335A72.95833333333331 72.95833333333331 0 0 1 41.1666666666667 152.9583333333335A10.458333333333334 10.458333333333334 0 0 1 55.875 164.7083333333335A143.95833333333331 143.95833333333331 0 0 0 52.0833333333333 197.7500000000001A145.83333333333334 145.83333333333334 0 0 0 343.75 197.7500000000001A144.08333333333331 144.08333333333331 0 0 0 341.1666666666667 170.4166666666669A20.833333333333332 20.833333333333332 0 0 1 361.6666666666667 145.6666666666669H447.9166666666667A73 73 0 0 1 520.8333333333333 218.5833333333335V260.2500000000001A218.75 218.75 0 0 0 923.375 379.1666666666668A41.666666666666664 41.666666666666664 0 1 1 993.2916666666669 424.4583333333334zM343.75 385.4166666666668H239.5833333333333A20.833333333333332 20.833333333333332 0 0 0 239.5833333333333 427.0833333333334H343.75A20.833333333333332 20.833333333333332 0 0 0 343.75 385.4166666666668zM759.5 570.125A20.833333333333332 20.833333333333332 0 0 0 743.125 562.5A305.37499999999994 305.37499999999994 0 0 1 690.5000000000001 558.3333333333334A10.416666666666666 10.416666666666666 0 0 0 678.5000000000001 570.0833333333334L687.2083333333334 630.8333333333334A31.291666666666664 31.291666666666664 0 1 1 625.2916666666667 639.6666666666667L611.625 543.8333333333333A20.833333333333332 20.833333333333332 0 0 0 600.6250000000001 528.2916666666667A304.16666666666663 304.16666666666663 0 0 1 463.7916666666668 383.2916666666668A14.541666666666664 14.541666666666664 0 0 0 450.5416666666668 374.7083333333334A17.70833333333333 17.70833333333333 0 0 0 432.9166666666668 390.625L419.6250000000001 523.4583333333334A20.833333333333332 20.833333333333332 0 0 0 428.9583333333335 542.9583333333334L468.1666666666668 568.625A20.833333333333332 20.833333333333332 0 0 0 492.4583333333335 567.625A32.041666666666664 32.041666666666664 0 0 1 527.7500000000001 567.625A31.20833333333333 31.20833333333333 0 0 1 536.4166666666669 610.9583333333334L494.7500000000002 673.4583333333334A31.25 31.25 0 0 1 439.6250000000001 644.75A20.833333333333332 20.833333333333332 0 0 0 431.7083333333335 619.75L395.4583333333336 596.0416666666667A10.291666666666666 10.291666666666666 0 0 0 383.75 596.25A10.416666666666666 10.416666666666666 0 0 0 379.5833333333334 607.25L419.125 765.5833333333334A20.833333333333332 20.833333333333332 0 0 0 439.3333333333333 781.375H705.4166666666666A20.833333333333332 20.833333333333332 0 0 0 725.7916666666666 764.7083333333334L763.7499999999999 587.5A20.833333333333332 20.833333333333332 0 0 0 759.5 570.125zM93.75 197.9166666666668A104.16666666666667 104.16666666666667 0 0 1 302.0833333333333 197.9166666666668A104.16666666666667 104.16666666666667 0 0 1 93.75 197.9166666666668" />
    <glyph glyph-name="agriculture-machine-tractor-1"
      unicode="&#x61;&#x67;&#x72;&#x69;&#x63;&#x75;&#x6C;&#x74;&#x75;&#x72;&#x65;&#x2D;&#x6D;&#x61;&#x63;&#x68;&#x69;&#x6E;&#x65;&#x2D;&#x74;&#x72;&#x61;&#x63;&#x74;&#x6F;&#x72;"
      horiz-adv-x="1000" d="M739.5833333333333 427.0833333333335A166.66666666666666 166.66666666666666 0 1 1 906.25 260.4166666666668A166.66666666666666 166.66666666666666 0 0 1 739.5833333333333 427.0833333333335zM739.5833333333333 197.9166666666668A62.5 62.5 0 1 0 802.0833333333333 260.4166666666668A62.5 62.5 0 0 0 739.5833333333333 197.9166666666668zM993.2916666666666 424.3333333333335A302.0416666666666 302.0416666666666 0 0 1 868.9583333333333 533.3333333333334A20.833333333333332 20.833333333333332 0 0 0 857.5 547.7916666666667L808.3333333333333 777.7916666666667A20.833333333333332 20.833333333333332 0 0 0 812.9166666666665 795.7916666666667A41.25 41.25 0 0 1 822.9999999999999 822.9166666666667V843.75A62.5 62.5 0 0 1 760.4999999999999 906.25H385.5A62.5 62.5 0 0 1 323 843.75V822.9166666666667A41.33333333333332 41.33333333333332 0 0 1 332.4583333333333 796.5416666666667A20.833333333333332 20.833333333333332 0 0 0 336.625 778.2083333333334L288.9583333333333 588A20.833333333333332 20.833333333333332 0 0 0 272.2916666666667 572.5A681.7916666666665 681.7916666666665 0 0 1 59.7916666666667 502.4583333333334A114.66666666666664 114.66666666666664 0 0 1 0 401.9166666666668V218.5833333333335A72.95833333333331 72.95833333333331 0 0 1 41.1666666666667 152.9583333333335A10.458333333333334 10.458333333333334 0 0 1 55.875 164.7083333333335A143.95833333333331 143.95833333333331 0 0 0 52.0833333333333 197.7500000000001A145.83333333333334 145.83333333333334 0 0 0 343.75 197.7500000000001A144.08333333333331 144.08333333333331 0 0 0 341.1666666666667 170.4166666666669A20.833333333333332 20.833333333333332 0 0 1 361.6666666666667 145.6666666666669H447.9166666666667A73 73 0 0 1 520.8333333333333 218.5833333333335V260.2500000000001A218.75 218.75 0 0 0 923.375 379.1666666666668A41.666666666666664 41.666666666666664 0 1 1 993.2916666666669 424.4583333333335zM343.75 385.4166666666668H239.5833333333333A20.833333333333332 20.833333333333332 0 0 0 239.5833333333333 427.0833333333335H343.75A20.833333333333332 20.833333333333332 0 0 0 343.75 385.4166666666668zM759.5 570.125A20.833333333333332 20.833333333333332 0 0 0 743.125 562.5A305.37499999999994 305.37499999999994 0 0 1 690.5000000000001 558.3333333333334A10.416666666666666 10.416666666666666 0 0 0 678.5000000000001 570.0833333333334L687.2083333333334 630.8333333333334A31.291666666666664 31.291666666666664 0 1 1 625.2916666666667 639.6666666666667L611.625 543.8333333333333A20.833333333333332 20.833333333333332 0 0 0 600.6250000000001 528.2916666666667A304.16666666666663 304.16666666666663 0 0 1 463.7916666666668 383.2916666666668A14.541666666666664 14.541666666666664 0 0 0 450.5416666666668 374.7083333333335A17.70833333333333 17.70833333333333 0 0 0 432.9166666666668 390.625L419.6250000000001 523.4583333333334A20.833333333333332 20.833333333333332 0 0 0 428.9583333333335 542.9583333333334L468.1666666666668 568.625A20.833333333333332 20.833333333333332 0 0 0 492.4583333333335 567.625A32.041666666666664 32.041666666666664 0 0 1 527.7500000000001 567.625A31.20833333333333 31.20833333333333 0 0 1 536.4166666666669 610.9583333333334L494.7500000000002 673.4583333333334A31.25 31.25 0 0 1 439.6250000000001 644.75A20.833333333333332 20.833333333333332 0 0 0 431.7083333333335 619.75L395.4583333333336 596.0416666666667A10.291666666666666 10.291666666666666 0 0 0 383.75 596.25A10.416666666666666 10.416666666666666 0 0 0 379.5833333333335 607.25L419.125 765.5833333333334A20.833333333333332 20.833333333333332 0 0 0 439.3333333333333 781.375H705.4166666666666A20.833333333333332 20.833333333333332 0 0 0 725.7916666666666 764.7083333333334L763.7499999999999 587.5A20.833333333333332 20.833333333333332 0 0 0 759.5 570.125zM93.75 197.9166666666668A104.16666666666667 104.16666666666667 0 0 1 302.0833333333333 197.9166666666668A104.16666666666667 104.16666666666667 0 0 1 93.75 197.9166666666668" />
    <glyph glyph-name="alarm-bell"
      unicode="&#xF105;"
      horiz-adv-x="1000" d="M875 270.8333333333334A62.5 62.5 0 0 0 812.5 333.3333333333334V535.9166666666667A331.54166666666663 331.54166666666663 0 0 1 541.6666666666666 871.9583333333334V958.3333333333334A41.666666666666664 41.666666666666664 0 0 1 458.3333333333333 958.3333333333334V871.9583333333334A331.54166666666663 331.54166666666663 0 0 1 187.5 535.9166666666667V333.3333333333334A62.5 62.5 0 0 0 125 270.8333333333334A41.666666666666664 41.666666666666664 0 0 1 125 187.5H875A41.666666666666664 41.666666666666664 0 0 1 875 270.8333333333334zM593.1666666666666 125H406.8333333333333A10.416666666666666 10.416666666666666 0 0 1 396.5 115.75A96.625 96.625 0 0 1 395.8333333333333 104.1666666666667A104.16666666666667 104.16666666666667 0 1 1 604.1666666666666 104.1666666666667A96.625 96.625 0 0 1 603.5 115.75A10.33333333333333 10.33333333333333 0 0 1 593.1666666666666 125z" />
    <glyph glyph-name="alarm-bell-1"
      unicode="&#x61;&#x6C;&#x61;&#x72;&#x6D;&#x2D;&#x62;&#x65;&#x6C;&#x6C;"
      horiz-adv-x="1000" d="M875 270.8333333333335A62.5 62.5 0 0 0 812.5 333.3333333333335V535.9166666666667A331.54166666666663 331.54166666666663 0 0 1 541.6666666666666 871.9583333333334V958.3333333333334A41.666666666666664 41.666666666666664 0 0 1 458.3333333333333 958.3333333333334V871.9583333333334A331.54166666666663 331.54166666666663 0 0 1 187.5 535.9166666666667V333.3333333333335A62.5 62.5 0 0 0 125 270.8333333333335A41.666666666666664 41.666666666666664 0 0 1 125 187.5H875A41.666666666666664 41.666666666666664 0 0 1 875 270.8333333333335zM593.1666666666666 125H406.8333333333333A10.416666666666666 10.416666666666666 0 0 1 396.5 115.75A96.625 96.625 0 0 1 395.8333333333333 104.1666666666667A104.16666666666667 104.16666666666667 0 1 1 604.1666666666666 104.1666666666667A96.625 96.625 0 0 1 603.5 115.75A10.33333333333333 10.33333333333333 0 0 1 593.1666666666666 125z" />
    <glyph glyph-name="alert-triangle"
      unicode="&#xF106;"
      horiz-adv-x="1000" d="M963.2916666666666 166.6666666666668L573.8333333333333 910.4166666666666H573.8333333333333A83.33333333333333 83.33333333333333 0 0 1 426.2083333333333 910.4166666666666L36.7083333333333 166.6666666666668A83.33333333333333 83.33333333333333 0 0 1 110.5416666666667 44.6666666666667H889.4583333333334A83.33333333333333 83.33333333333333 0 0 1 963.2916666666666 166.6666666666668zM458.3333333333333 649.0416666666667A41.666666666666664 41.666666666666664 0 0 0 541.6666666666666 649.0416666666667V399.0416666666668A41.666666666666664 41.666666666666664 0 1 0 458.3333333333333 399.0416666666668zM502.0833333333333 169.4583333333334H500.9166666666666A63.66666666666666 63.66666666666666 0 0 0 437.5 230.7083333333334A61.49999999999999 61.49999999999999 0 0 0 497.8333333333333 294.4583333333334H499A63.62499999999999 63.62499999999999 0 0 0 562.5 233.3333333333335A61.45833333333333 61.45833333333333 0 0 0 502.0833333333333 169.4583333333334z" />
    <glyph glyph-name="alert-triangle-1"
      unicode="&#x61;&#x6C;&#x65;&#x72;&#x74;&#x2D;&#x74;&#x72;&#x69;&#x61;&#x6E;&#x67;&#x6C;&#x65;"
      horiz-adv-x="1000" d="M963.2916666666666 166.6666666666668L573.8333333333333 910.4166666666666H573.8333333333333A83.33333333333333 83.33333333333333 0 0 1 426.2083333333333 910.4166666666666L36.7083333333333 166.6666666666668A83.33333333333333 83.33333333333333 0 0 1 110.5416666666667 44.6666666666667H889.4583333333334A83.33333333333333 83.33333333333333 0 0 1 963.2916666666666 166.6666666666668zM458.3333333333333 649.0416666666667A41.666666666666664 41.666666666666664 0 0 0 541.6666666666666 649.0416666666667V399.0416666666668A41.666666666666664 41.666666666666664 0 1 0 458.3333333333333 399.0416666666668zM502.0833333333333 169.4583333333334H500.9166666666666A63.66666666666666 63.66666666666666 0 0 0 437.5 230.7083333333334A61.49999999999999 61.49999999999999 0 0 0 497.8333333333333 294.4583333333335H499A63.62499999999999 63.62499999999999 0 0 0 562.5 233.3333333333335A61.45833333333333 61.45833333333333 0 0 0 502.0833333333333 169.4583333333334z" />
    <glyph glyph-name="analytics-bars"
      unicode="&#xF107;"
      horiz-adv-x="1000" d="M52.0833333333333 291.6666666666668H197.9166666666667A10.374999999999998 10.374999999999998 0 0 1 208.3333333333333 302.0833333333334V385.4166666666668A41.666666666666664 41.666666666666664 0 0 1 166.6666666666667 427.0833333333334H83.3333333333333A41.666666666666664 41.666666666666664 0 0 1 41.6666666666667 385.4166666666668V302.0833333333334A10.374999999999998 10.374999999999998 0 0 1 52.0833333333333 291.6666666666668zM333.3333333333333 635.4166666666667A41.666666666666664 41.666666666666664 0 0 1 291.6666666666667 593.75V302.0833333333334A10.374999999999998 10.374999999999998 0 0 1 302.0833333333333 291.6666666666668H447.9166666666667A10.374999999999998 10.374999999999998 0 0 1 458.3333333333333 302.0833333333334V593.75A41.666666666666664 41.666666666666664 0 0 1 416.6666666666667 635.4166666666667zM583.3333333333333 552.0833333333334A41.666666666666664 41.666666666666664 0 0 1 541.6666666666666 510.4166666666667V302.0833333333334A10.374999999999998 10.374999999999998 0 0 1 552.0833333333333 291.6666666666668H697.9166666666666A10.374999999999998 10.374999999999998 0 0 1 708.3333333333333 302.0833333333334V510.4166666666667A41.666666666666664 41.666666666666664 0 0 1 666.6666666666666 552.0833333333334zM802.0833333333333 291.6666666666668H947.9166666666666A10.374999999999998 10.374999999999998 0 0 1 958.3333333333331 302.0833333333334V802.0833333333334A41.666666666666664 41.666666666666664 0 0 1 916.6666666666666 843.75H833.3333333333333A41.666666666666664 41.666666666666664 0 0 1 791.6666666666666 802.0833333333334V302.0833333333334A10.374999999999998 10.374999999999998 0 0 1 802.0833333333333 291.6666666666668zM41.6666666666667 156.25H958.3333333333331A41.666666666666664 41.666666666666664 0 0 1 958.3333333333331 239.5833333333334H41.6666666666667A41.666666666666664 41.666666666666664 0 0 1 41.6666666666667 156.25z" />
    <glyph glyph-name="analytics-bars-1"
      unicode="&#x61;&#x6E;&#x61;&#x6C;&#x79;&#x74;&#x69;&#x63;&#x73;&#x2D;&#x62;&#x61;&#x72;&#x73;"
      horiz-adv-x="1000" d="M52.0833333333333 291.6666666666668H197.9166666666667A10.374999999999998 10.374999999999998 0 0 1 208.3333333333333 302.0833333333335V385.4166666666668A41.666666666666664 41.666666666666664 0 0 1 166.6666666666667 427.0833333333335H83.3333333333333A41.666666666666664 41.666666666666664 0 0 1 41.6666666666667 385.4166666666668V302.0833333333335A10.374999999999998 10.374999999999998 0 0 1 52.0833333333333 291.6666666666668zM333.3333333333333 635.4166666666667A41.666666666666664 41.666666666666664 0 0 1 291.6666666666667 593.75V302.0833333333335A10.374999999999998 10.374999999999998 0 0 1 302.0833333333333 291.6666666666668H447.9166666666667A10.374999999999998 10.374999999999998 0 0 1 458.3333333333333 302.0833333333335V593.75A41.666666666666664 41.666666666666664 0 0 1 416.6666666666667 635.4166666666667zM583.3333333333333 552.0833333333334A41.666666666666664 41.666666666666664 0 0 1 541.6666666666666 510.4166666666667V302.0833333333335A10.374999999999998 10.374999999999998 0 0 1 552.0833333333333 291.6666666666668H697.9166666666666A10.374999999999998 10.374999999999998 0 0 1 708.3333333333333 302.0833333333335V510.4166666666667A41.666666666666664 41.666666666666664 0 0 1 666.6666666666666 552.0833333333334zM802.0833333333333 291.6666666666668H947.9166666666666A10.374999999999998 10.374999999999998 0 0 1 958.3333333333331 302.0833333333335V802.0833333333334A41.666666666666664 41.666666666666664 0 0 1 916.6666666666666 843.75H833.3333333333333A41.666666666666664 41.666666666666664 0 0 1 791.6666666666666 802.0833333333334V302.0833333333335A10.374999999999998 10.374999999999998 0 0 1 802.0833333333333 291.6666666666668zM41.6666666666667 156.25H958.3333333333331A41.666666666666664 41.666666666666664 0 0 1 958.3333333333331 239.5833333333334H41.6666666666667A41.666666666666664 41.666666666666664 0 0 1 41.6666666666667 156.25z" />
    <glyph glyph-name="app-window-settings"
      unicode="&#xF108;"
      horiz-adv-x="1000" d="M677 291.625A62.5 62.5 0 0 1 802 291.625A62.5 62.5 0 0 1 677 291.625M849.9999999999999 458.3333333333334A18.958333333333332 18.958333333333332 0 0 0 827.7916666666665 471.2916666666667L810.2916666666666 529.1666666666667A73.91666666666666 73.91666666666666 0 0 1 668.625 529.1666666666667L650.9583333333334 471.2083333333334A19.041666666666664 19.041666666666664 0 0 0 628.75 458.25L570 472.0833333333334A74.29166666666667 74.29166666666667 0 0 1 499.1666666666666 349.0416666666668L540.375 304.6666666666668A19.25 19.25 0 0 0 540.375 278.6250000000001L499.25 234.2083333333335A74.29166666666667 74.29166666666667 0 0 1 570.0833333333334 111.1666666666669L628.875 124.7916666666669A18.999999999999996 18.999999999999996 0 0 0 651.0833333333333 111.8750000000003L668.75 53.8750000000003A73.91666666666666 73.91666666666666 0 0 1 810.4166666666666 53.8750000000003L828.0833333333333 111.8750000000003A18.874999999999996 18.874999999999996 0 0 0 850.2916666666666 124.7916666666669L909.1249999999998 111.1666666666669A74.29166666666667 74.29166666666667 0 0 1 979.9583333333331 234.2083333333335L938.7916666666666 278.6250000000001A19.25 19.25 0 0 0 938.7916666666666 304.6666666666668L979.8749999999998 349.0416666666668A74.25 74.25 0 0 1 909.0416666666666 472.0833333333334zM739.3333333333333 166.6666666666668A125 125 0 1 0 864.3333333333333 291.6666666666668A125 125 0 0 0 739.5 166.6666666666668zM875 998.6666666666666H125A125 125 0 0 1 0 873.6666666666666V269.5A125 125 0 0 1 125 144.5H354.1666666666667A41.666666666666664 41.666666666666664 0 0 1 395.8333333333333 186.1666666666668H395.8333333333333A41.666666666666664 41.666666666666664 0 0 1 354.1666666666667 227.8333333333334H125A41.666666666666664 41.666666666666664 0 0 0 83.3333333333333 269.5V779.9166666666667A10.416666666666666 10.416666666666666 0 0 0 93.75 790.3333333333334H906.25A10.416666666666666 10.416666666666666 0 0 0 916.6666666666666 779.9166666666667V602.8333333333334A41.666666666666664 41.666666666666664 0 0 1 958.3333333333331 561.1666666666667H958.3333333333331A41.666666666666664 41.666666666666664 0 0 1 1000 602.8333333333334V873.6666666666666A125 125 0 0 1 875 998.6666666666666zM181.0833333333333 873.6666666666666A40.24999999999999 40.24999999999999 0 0 0 110.5833333333333 873.6666666666666A40.37499999999999 40.37499999999999 0 0 0 104.1666666666667 894.5A40.79166666666666 40.79166666666666 0 0 0 108 911.5A41.666666666666664 41.666666666666664 0 0 0 145.8333333333333 936.1666666666666A41.04166666666666 41.04166666666666 0 0 0 181.0833333333333 915.3333333333334A40.37499999999999 40.37499999999999 0 0 0 187.5 894.5A40.37499999999999 40.37499999999999 0 0 0 181.0833333333333 873.6666666666666zM326.9166666666667 873.6666666666666A40.24999999999999 40.24999999999999 0 0 0 256.4166666666667 873.6666666666666A40.37499999999999 40.37499999999999 0 0 0 250 894.5A40.37499999999999 40.37499999999999 0 0 0 256.4166666666667 915.3333333333334A40.24999999999999 40.24999999999999 0 0 0 326.9166666666667 915.3333333333334A40.37499999999999 40.37499999999999 0 0 0 333.3333333333333 894.5A40.37499999999999 40.37499999999999 0 0 0 326.9166666666667 873.6666666666666zM472.75 873.6666666666666A40.24999999999999 40.24999999999999 0 0 0 402.25 873.6666666666666A40.37499999999999 40.37499999999999 0 0 0 395.8333333333333 894.5A40.37499999999999 40.37499999999999 0 0 0 402.25 915.3333333333334A40.24999999999999 40.24999999999999 0 0 0 472.75 915.3333333333334A40.37499999999999 40.37499999999999 0 0 0 479.1666666666666 894.5A40.37499999999999 40.37499999999999 0 0 0 472.75 873.6666666666666z" />
    <glyph glyph-name="app-window-settings-1"
      unicode="&#x61;&#x70;&#x70;&#x2D;&#x77;&#x69;&#x6E;&#x64;&#x6F;&#x77;&#x2D;&#x73;&#x65;&#x74;&#x74;&#x69;&#x6E;&#x67;&#x73;"
      horiz-adv-x="1000" d="M677 291.625A62.5 62.5 0 0 1 802 291.625A62.5 62.5 0 0 1 677 291.625M849.9999999999999 458.3333333333334A18.958333333333332 18.958333333333332 0 0 0 827.7916666666665 471.2916666666667L810.2916666666666 529.1666666666667A73.91666666666666 73.91666666666666 0 0 1 668.625 529.1666666666667L650.9583333333334 471.2083333333334A19.041666666666664 19.041666666666664 0 0 0 628.75 458.25L570 472.0833333333334A74.29166666666667 74.29166666666667 0 0 1 499.1666666666666 349.0416666666668L540.375 304.6666666666668A19.25 19.25 0 0 0 540.375 278.6250000000001L499.25 234.2083333333335A74.29166666666667 74.29166666666667 0 0 1 570.0833333333334 111.1666666666669L628.875 124.7916666666669A18.999999999999996 18.999999999999996 0 0 0 651.0833333333333 111.8750000000003L668.75 53.8750000000003A73.91666666666666 73.91666666666666 0 0 1 810.4166666666666 53.8750000000003L828.0833333333333 111.8750000000003A18.874999999999996 18.874999999999996 0 0 0 850.2916666666666 124.7916666666669L909.1249999999998 111.1666666666669A74.29166666666667 74.29166666666667 0 0 1 979.9583333333331 234.2083333333335L938.7916666666666 278.6250000000001A19.25 19.25 0 0 0 938.7916666666666 304.6666666666668L979.8749999999998 349.0416666666668A74.25 74.25 0 0 1 909.0416666666666 472.0833333333334zM739.3333333333333 166.6666666666668A125 125 0 1 0 864.3333333333333 291.6666666666668A125 125 0 0 0 739.5 166.6666666666668zM875 998.6666666666666H125A125 125 0 0 1 0 873.6666666666666V269.5A125 125 0 0 1 125 144.5H354.1666666666667A41.666666666666664 41.666666666666664 0 0 1 395.8333333333333 186.1666666666668H395.8333333333333A41.666666666666664 41.666666666666664 0 0 1 354.1666666666667 227.8333333333334H125A41.666666666666664 41.666666666666664 0 0 0 83.3333333333333 269.5V779.9166666666667A10.416666666666666 10.416666666666666 0 0 0 93.75 790.3333333333334H906.25A10.416666666666666 10.416666666666666 0 0 0 916.6666666666666 779.9166666666667V602.8333333333334A41.666666666666664 41.666666666666664 0 0 1 958.3333333333331 561.1666666666667H958.3333333333331A41.666666666666664 41.666666666666664 0 0 1 1000 602.8333333333334V873.6666666666666A125 125 0 0 1 875 998.6666666666666zM181.0833333333333 873.6666666666666A40.24999999999999 40.24999999999999 0 0 0 110.5833333333333 873.6666666666666A40.37499999999999 40.37499999999999 0 0 0 104.1666666666667 894.5A40.79166666666666 40.79166666666666 0 0 0 108 911.5A41.666666666666664 41.666666666666664 0 0 0 145.8333333333333 936.1666666666666A41.04166666666666 41.04166666666666 0 0 0 181.0833333333333 915.3333333333334A40.37499999999999 40.37499999999999 0 0 0 187.5 894.5A40.37499999999999 40.37499999999999 0 0 0 181.0833333333333 873.6666666666666zM326.9166666666667 873.6666666666666A40.24999999999999 40.24999999999999 0 0 0 256.4166666666667 873.6666666666666A40.37499999999999 40.37499999999999 0 0 0 250 894.5A40.37499999999999 40.37499999999999 0 0 0 256.4166666666667 915.3333333333334A40.24999999999999 40.24999999999999 0 0 0 326.9166666666667 915.3333333333334A40.37499999999999 40.37499999999999 0 0 0 333.3333333333333 894.5A40.37499999999999 40.37499999999999 0 0 0 326.9166666666667 873.6666666666666zM472.75 873.6666666666666A40.24999999999999 40.24999999999999 0 0 0 402.25 873.6666666666666A40.37499999999999 40.37499999999999 0 0 0 395.8333333333333 894.5A40.37499999999999 40.37499999999999 0 0 0 402.25 915.3333333333334A40.24999999999999 40.24999999999999 0 0 0 472.75 915.3333333333334A40.37499999999999 40.37499999999999 0 0 0 479.1666666666666 894.5A40.37499999999999 40.37499999999999 0 0 0 472.75 873.6666666666666z" />
    <glyph glyph-name="arrow-button-down-2"
      unicode="&#xF109;"
      horiz-adv-x="1000" d="M977.8333333333331 875.6666666666666A83.33333333333333 83.33333333333333 0 0 1 905.2499999999998 918.0833333333334H94.75A83.33333333333333 83.33333333333333 0 0 1 23.4583333333333 791.6666666666667L428.7083333333333 122.0833333333334A83.33333333333333 83.33333333333333 0 0 1 571.2916666666666 122.0833333333334L976.5416666666666 791.6666666666667A83.33333333333333 83.33333333333333 0 0 1 977.8333333333331 875.6666666666666z" />
    <glyph glyph-name="arrow-button-down-2-1"
      unicode="&#x61;&#x72;&#x72;&#x6F;&#x77;&#x2D;&#x62;&#x75;&#x74;&#x74;&#x6F;&#x6E;&#x2D;&#x64;&#x6F;&#x77;&#x6E;&#x2D;&#x32;"
      horiz-adv-x="1000" d="M977.8333333333331 875.6666666666666A83.33333333333333 83.33333333333333 0 0 1 905.2499999999998 918.0833333333334H94.75A83.33333333333333 83.33333333333333 0 0 1 23.4583333333333 791.6666666666667L428.7083333333333 122.0833333333334A83.33333333333333 83.33333333333333 0 0 1 571.2916666666666 122.0833333333334L976.5416666666666 791.6666666666667A83.33333333333333 83.33333333333333 0 0 1 977.8333333333331 875.6666666666666z" />
    <glyph glyph-name="arrow-button-right-2"
      unicode="&#xF10A;"
      horiz-adv-x="1000" d="M877.4166666666666 571.2916666666667L208.9166666666667 976.5A83.33333333333333 83.33333333333333 0 0 1 82.4166666666667 905.2083333333334V94.7916666666669A83.33333333333333 83.33333333333333 0 0 1 208.9583333333333 23.5000000000002L877.4166666666666 428.7083333333335A83.33333333333333 83.33333333333333 0 0 1 877.4166666666666 571.2916666666669z" />
    <glyph glyph-name="arrow-button-right-2-1"
      unicode="&#x61;&#x72;&#x72;&#x6F;&#x77;&#x2D;&#x62;&#x75;&#x74;&#x74;&#x6F;&#x6E;&#x2D;&#x72;&#x69;&#x67;&#x68;&#x74;&#x2D;&#x32;"
      horiz-adv-x="1000" d="M877.4166666666666 571.2916666666667L208.9166666666667 976.5A83.33333333333333 83.33333333333333 0 0 1 82.4166666666667 905.2083333333334V94.7916666666669A83.33333333333333 83.33333333333333 0 0 1 208.9583333333333 23.5000000000002L877.4166666666666 428.7083333333335A83.33333333333333 83.33333333333333 0 0 1 877.4166666666666 571.2916666666669z" />
    <glyph glyph-name="arrow-button-up-2"
      unicode="&#xF10B;"
      horiz-adv-x="1000" d="M976.5416666666666 208.3333333333334L571.2916666666666 877.9166666666666A83.33333333333333 83.33333333333333 0 0 1 428.7083333333333 877.9166666666666L23.4583333333333 208.3333333333334A83.33333333333333 83.33333333333333 0 0 1 94.75 81.875H905.2499999999998A83.33333333333333 83.33333333333333 0 0 1 976.5416666666666 208.3333333333334z" />
    <glyph glyph-name="arrow-button-up-2-1"
      unicode="&#x61;&#x72;&#x72;&#x6F;&#x77;&#x2D;&#x62;&#x75;&#x74;&#x74;&#x6F;&#x6E;&#x2D;&#x75;&#x70;&#x2D;&#x32;"
      horiz-adv-x="1000" d="M976.5416666666666 208.3333333333334L571.2916666666666 877.9166666666666A83.33333333333333 83.33333333333333 0 0 1 428.7083333333333 877.9166666666666L23.4583333333333 208.3333333333334A83.33333333333333 83.33333333333333 0 0 1 94.75 81.875H905.2499999999998A83.33333333333333 83.33333333333333 0 0 1 976.5416666666666 208.3333333333334z" />
    <glyph glyph-name="arrow-corner-left"
      unicode="&#xF10C;"
      horiz-adv-x="1000" d="M833.3333333333333 229.1666666666668H341.9583333333334A10.416666666666666 10.416666666666666 0 0 0 334.5833333333334 246.9583333333334L877.4999999999999 789.1666666666667A62.5 62.5 0 0 1 789.1666666666665 877.625L246.9583333333333 335.9583333333334A10.416666666666666 10.416666666666666 0 0 0 229.1666666666666 343.3333333333334V833.3333333333334A62.5 62.5 0 0 1 104.1666666666666 833.3333333333334V208.3333333333334A104.16666666666667 104.16666666666667 0 0 1 208.3333333333333 104.1666666666667H833.3333333333333A62.5 62.5 0 0 1 833.3333333333333 229.1666666666668z" />
    <glyph glyph-name="arrow-corner-left-1"
      unicode="&#x61;&#x72;&#x72;&#x6F;&#x77;&#x2D;&#x63;&#x6F;&#x72;&#x6E;&#x65;&#x72;&#x2D;&#x6C;&#x65;&#x66;&#x74;"
      horiz-adv-x="1000" d="M833.3333333333333 229.1666666666668H341.9583333333335A10.416666666666666 10.416666666666666 0 0 0 334.5833333333335 246.9583333333334L877.4999999999999 789.1666666666667A62.5 62.5 0 0 1 789.1666666666665 877.625L246.9583333333333 335.9583333333335A10.416666666666666 10.416666666666666 0 0 0 229.1666666666666 343.3333333333335V833.3333333333334A62.5 62.5 0 0 1 104.1666666666666 833.3333333333334V208.3333333333334A104.16666666666667 104.16666666666667 0 0 1 208.3333333333333 104.1666666666667H833.3333333333333A62.5 62.5 0 0 1 833.3333333333333 229.1666666666668z" />
    <glyph glyph-name="arrow-corner-right"
      unicode="&#xF10D;"
      horiz-adv-x="1000" d="M895.8333333333333 833.3333333333334A62.5 62.5 0 0 1 770.8333333333333 833.3333333333334V343.3333333333334A10.416666666666666 10.416666666666666 0 0 0 753.0416666666666 336L210.8333333333333 877.625A62.5 62.5 0 0 1 122.5 789.1666666666667L665.3749999999999 246.8750000000001A10.416666666666666 10.416666666666666 0 0 0 658 229.0833333333334H166.6666666666667A62.5 62.5 0 0 1 166.6666666666667 104.0833333333335H791.6666666666666A104.16666666666667 104.16666666666667 0 0 1 895.8333333333333 208.3333333333334z" />
    <glyph glyph-name="arrow-corner-right-1"
      unicode="&#x61;&#x72;&#x72;&#x6F;&#x77;&#x2D;&#x63;&#x6F;&#x72;&#x6E;&#x65;&#x72;&#x2D;&#x72;&#x69;&#x67;&#x68;&#x74;"
      horiz-adv-x="1000" d="M895.8333333333333 833.3333333333334A62.5 62.5 0 0 1 770.8333333333333 833.3333333333334V343.3333333333335A10.416666666666666 10.416666666666666 0 0 0 753.0416666666666 336L210.8333333333333 877.625A62.5 62.5 0 0 1 122.5 789.1666666666667L665.3749999999999 246.8750000000001A10.416666666666666 10.416666666666666 0 0 0 658 229.0833333333334H166.6666666666667A62.5 62.5 0 0 1 166.6666666666667 104.0833333333335H791.6666666666666A104.16666666666667 104.16666666666667 0 0 1 895.8333333333333 208.3333333333334z" />
    <glyph glyph-name="arrow-down-1"
      unicode="&#xF10E;"
      horiz-adv-x="1000" d="M500 187.5A95.83333333333331 95.83333333333331 0 0 0 427.9583333333333 220.0000000000001L19.1666666666667 684.6666666666667A76.95833333333333 76.95833333333333 0 0 0 134.7083333333334 786.2916666666667L492.1666666666667 379.9583333333334A10.416666666666666 10.416666666666666 0 0 1 507.8333333333333 379.9583333333334L865.2916666666667 786.2916666666667A76.95833333333333 76.95833333333333 0 1 0 980.8333333333331 684.6666666666667L572.1666666666666 220.1666666666666A96.24999999999999 96.24999999999999 0 0 0 500 187.5z" />
    <glyph glyph-name="arrow-down-1-1"
      unicode="&#x61;&#x72;&#x72;&#x6F;&#x77;&#x2D;&#x64;&#x6F;&#x77;&#x6E;&#x2D;&#x31;"
      horiz-adv-x="1000" d="M500 187.5A95.83333333333331 95.83333333333331 0 0 0 427.9583333333333 220.0000000000001L19.1666666666667 684.6666666666667A76.95833333333333 76.95833333333333 0 0 0 134.7083333333334 786.2916666666667L492.1666666666667 379.9583333333335A10.416666666666666 10.416666666666666 0 0 1 507.8333333333333 379.9583333333335L865.2916666666667 786.2916666666667A76.95833333333333 76.95833333333333 0 1 0 980.8333333333331 684.6666666666667L572.1666666666666 220.1666666666666A96.24999999999999 96.24999999999999 0 0 0 500 187.5z" />
    <glyph glyph-name="arrow-down"
      unicode="&#xF10F;"
      horiz-adv-x="1000" d="M970.5 573.3333333333334A58.87499999999999 58.87499999999999 0 0 1 887.4166666666667 568.0416666666666L577.0833333333333 215.3750000000001A10.458333333333334 10.458333333333334 0 0 0 558.8333333333333 222.2916666666668V941.125A58.83333333333332 58.83333333333332 0 1 1 441.1666666666667 941.125V222.2916666666668A10.458333333333334 10.458333333333334 0 0 0 422.9166666666666 215.3750000000001L112.5 568.0416666666666A58.87499999999999 58.87499999999999 0 1 1 24.2083333333333 490.2500000000001L426.375 33.3333333333334A97.99999999999999 97.99999999999999 0 0 1 573.625 33.3333333333334L975.7916666666666 490.2916666666667A58.83333333333332 58.83333333333332 0 0 1 970.5 573.3333333333334z" />
    <glyph glyph-name="arrow-down-1"
      unicode="&#x61;&#x72;&#x72;&#x6F;&#x77;&#x2D;&#x64;&#x6F;&#x77;&#x6E;"
      horiz-adv-x="1000" d="M970.5 573.3333333333334A58.87499999999999 58.87499999999999 0 0 1 887.4166666666667 568.0416666666666L577.0833333333333 215.3750000000001A10.458333333333334 10.458333333333334 0 0 0 558.8333333333333 222.2916666666668V941.125A58.83333333333332 58.83333333333332 0 1 1 441.1666666666667 941.125V222.2916666666668A10.458333333333334 10.458333333333334 0 0 0 422.9166666666666 215.3750000000001L112.5 568.0416666666666A58.87499999999999 58.87499999999999 0 1 1 24.2083333333333 490.2500000000001L426.375 33.3333333333334A97.99999999999999 97.99999999999999 0 0 1 573.625 33.3333333333334L975.7916666666666 490.2916666666667A58.83333333333332 58.83333333333332 0 0 1 970.5 573.3333333333334z" />
    <glyph glyph-name="arrow-left-1"
      unicode="&#xF110;"
      horiz-adv-x="1000" d="M187.5 500A95.83333333333331 95.83333333333331 0 0 0 220 572.0416666666667L684.6666666666665 980.8333333333334A76.95833333333333 76.95833333333333 0 0 0 786.2916666666665 865.2916666666666L379.9583333333333 507.8333333333334A10.416666666666666 10.416666666666666 0 0 1 379.9583333333333 492.1666666666667L786.2916666666667 134.7083333333334A76.95833333333333 76.95833333333333 0 1 0 684.6666666666667 19.1666666666667L220.1666666666667 427.8333333333334A96.24999999999999 96.24999999999999 0 0 0 187.5 500z" />
    <glyph glyph-name="arrow-left-1-1"
      unicode="&#x61;&#x72;&#x72;&#x6F;&#x77;&#x2D;&#x6C;&#x65;&#x66;&#x74;&#x2D;&#x31;"
      horiz-adv-x="1000" d="M187.5 500A95.83333333333331 95.83333333333331 0 0 0 220 572.0416666666667L684.6666666666665 980.8333333333334A76.95833333333333 76.95833333333333 0 0 0 786.2916666666665 865.2916666666666L379.9583333333333 507.8333333333334A10.416666666666666 10.416666666666666 0 0 1 379.9583333333333 492.1666666666667L786.2916666666667 134.7083333333334A76.95833333333333 76.95833333333333 0 1 0 684.6666666666667 19.1666666666667L220.1666666666667 427.8333333333335A96.24999999999999 96.24999999999999 0 0 0 187.5 500z" />
    <glyph glyph-name="arrow-left"
      unicode="&#xF111;"
      horiz-adv-x="1000" d="M939.4999999999998 559.9583333333334H226.5416666666667A10.458333333333334 10.458333333333334 0 0 0 219.6666666666667 578.2083333333334L579.5416666666666 894.875A59.999999999999986 59.999999999999986 0 0 1 500.375 984.9583333333334L34.5 575A99.99999999999999 99.99999999999999 0 0 1 34.5 425.0000000000001L500.2916666666666 15.125A59.999999999999986 59.999999999999986 0 0 1 579.4583333333333 105.1666666666667L219.5833333333333 421.8333333333334A10.458333333333334 10.458333333333334 0 0 0 226.4583333333333 440.0833333333334H939.4999999999998A59.999999999999986 59.999999999999986 0 0 1 939.4999999999998 560.0416666666667z" />
    <glyph glyph-name="arrow-left-1"
      unicode="&#x61;&#x72;&#x72;&#x6F;&#x77;&#x2D;&#x6C;&#x65;&#x66;&#x74;"
      horiz-adv-x="1000" d="M939.4999999999998 559.9583333333334H226.5416666666667A10.458333333333334 10.458333333333334 0 0 0 219.6666666666667 578.2083333333334L579.5416666666666 894.875A59.999999999999986 59.999999999999986 0 0 1 500.375 984.9583333333334L34.5 575A99.99999999999999 99.99999999999999 0 0 1 34.5 425.0000000000001L500.2916666666666 15.125A59.999999999999986 59.999999999999986 0 0 1 579.4583333333333 105.1666666666667L219.5833333333333 421.8333333333335A10.458333333333334 10.458333333333334 0 0 0 226.4583333333333 440.0833333333335H939.4999999999998A59.999999999999986 59.999999999999986 0 0 1 939.4999999999998 560.0416666666667z" />
    <glyph glyph-name="arrow-rectangle-down"
      unicode="&#xF112;"
      horiz-adv-x="1000" d="M937.5 1000H62.5A62.5 62.5 0 0 1 0 937.5V62.5A62.5 62.5 0 0 1 62.5 0H937.5A62.5 62.5 0 0 1 1000 62.5V937.5A62.5 62.5 0 0 1 937.5 1000zM786.8333333333333 567.2916666666667L551.5416666666666 332.0416666666668A73.04166666666666 73.04166666666666 0 0 0 448.5416666666667 332.0416666666668L213.1666666666666 567.2916666666667A52.083333333333336 52.083333333333336 0 0 0 286.8333333333333 640.9583333333333L492.625 435.1249999999999A10.5 10.5 0 0 1 507.3749999999999 435.1249999999999L713.1666666666666 640.9583333333333A52.083333333333336 52.083333333333336 0 0 0 786.8333333333333 567.2916666666666z" />
    <glyph glyph-name="arrow-rectangle-down-1"
      unicode="&#x61;&#x72;&#x72;&#x6F;&#x77;&#x2D;&#x72;&#x65;&#x63;&#x74;&#x61;&#x6E;&#x67;&#x6C;&#x65;&#x2D;&#x64;&#x6F;&#x77;&#x6E;"
      horiz-adv-x="1000" d="M937.5 1000H62.5A62.5 62.5 0 0 1 0 937.5V62.5A62.5 62.5 0 0 1 62.5 0H937.5A62.5 62.5 0 0 1 1000 62.5V937.5A62.5 62.5 0 0 1 937.5 1000zM786.8333333333333 567.2916666666667L551.5416666666666 332.0416666666668A73.04166666666666 73.04166666666666 0 0 0 448.5416666666667 332.0416666666668L213.1666666666666 567.2916666666667A52.083333333333336 52.083333333333336 0 0 0 286.8333333333333 640.9583333333333L492.625 435.1249999999999A10.5 10.5 0 0 1 507.3749999999999 435.1249999999999L713.1666666666666 640.9583333333333A52.083333333333336 52.083333333333336 0 0 0 786.8333333333333 567.2916666666666z" />
    <glyph glyph-name="arrow-rectangle-left"
      unicode="&#xF113;"
      horiz-adv-x="1000" d="M937.5 1000H62.5A62.5 62.5 0 0 1 0 937.5V62.5A62.5 62.5 0 0 1 62.5 0H937.5A62.5 62.5 0 0 1 1000 62.5V937.5A62.5 62.5 0 0 1 937.5 1000zM640.9583333333333 286.8333333333334A52.083333333333336 52.083333333333336 0 1 0 567.3333333333333 213.1666666666668L332.0416666666667 448.4583333333334A73 73 0 0 0 332.0416666666667 551.5416666666667L567.3333333333333 786.8333333333334A52.083333333333336 52.083333333333336 0 0 0 640.9583333333333 713.1666666666667L435.1666666666667 507.375A10.416666666666666 10.416666666666666 0 0 1 435.1666666666667 492.6250000000001z" />
    <glyph glyph-name="arrow-rectangle-left-1"
      unicode="&#x61;&#x72;&#x72;&#x6F;&#x77;&#x2D;&#x72;&#x65;&#x63;&#x74;&#x61;&#x6E;&#x67;&#x6C;&#x65;&#x2D;&#x6C;&#x65;&#x66;&#x74;"
      horiz-adv-x="1000" d="M937.5 1000H62.5A62.5 62.5 0 0 1 0 937.5V62.5A62.5 62.5 0 0 1 62.5 0H937.5A62.5 62.5 0 0 1 1000 62.5V937.5A62.5 62.5 0 0 1 937.5 1000zM640.9583333333333 286.8333333333335A52.083333333333336 52.083333333333336 0 1 0 567.3333333333333 213.1666666666668L332.0416666666667 448.4583333333335A73 73 0 0 0 332.0416666666667 551.5416666666667L567.3333333333333 786.8333333333334A52.083333333333336 52.083333333333336 0 0 0 640.9583333333333 713.1666666666667L435.1666666666667 507.375A10.416666666666666 10.416666666666666 0 0 1 435.1666666666667 492.6250000000001z" />
    <glyph glyph-name="arrow-rectangle-right"
      unicode="&#xF114;"
      horiz-adv-x="1000" d="M937.5 1000H62.5A62.5 62.5 0 0 1 0 937.5V62.5A62.5 62.5 0 0 1 62.5 0H937.5A62.5 62.5 0 0 1 1000 62.5V937.5A62.5 62.5 0 0 1 937.5 1000zM359.0416666666667 713.1666666666667A52.083333333333336 52.083333333333336 0 0 0 432.6666666666667 786.8333333333333L667.9583333333333 551.5416666666666A73 73 0 0 0 667.9583333333333 448.4583333333333L432.6666666666666 213.1666666666668A52.083333333333336 52.083333333333336 0 0 0 359.0416666666667 286.8333333333334L564.8333333333333 492.6250000000001A10.416666666666666 10.416666666666666 0 0 1 564.8333333333333 507.375z" />
    <glyph glyph-name="arrow-rectangle-right-1"
      unicode="&#x61;&#x72;&#x72;&#x6F;&#x77;&#x2D;&#x72;&#x65;&#x63;&#x74;&#x61;&#x6E;&#x67;&#x6C;&#x65;&#x2D;&#x72;&#x69;&#x67;&#x68;&#x74;"
      horiz-adv-x="1000" d="M937.5 1000H62.5A62.5 62.5 0 0 1 0 937.5V62.5A62.5 62.5 0 0 1 62.5 0H937.5A62.5 62.5 0 0 1 1000 62.5V937.5A62.5 62.5 0 0 1 937.5 1000zM359.0416666666667 713.1666666666667A52.083333333333336 52.083333333333336 0 0 0 432.6666666666667 786.8333333333333L667.9583333333333 551.5416666666666A73 73 0 0 0 667.9583333333333 448.4583333333333L432.6666666666666 213.1666666666668A52.083333333333336 52.083333333333336 0 0 0 359.0416666666667 286.8333333333335L564.8333333333333 492.6250000000001A10.416666666666666 10.416666666666666 0 0 1 564.8333333333333 507.375z" />
    <glyph glyph-name="arrow-rectangle-up"
      unicode="&#xF115;"
      horiz-adv-x="1000" d="M937.5 1000H62.5A62.5 62.5 0 0 1 0 937.5V62.5A62.5 62.5 0 0 1 62.5 0H937.5A62.5 62.5 0 0 1 1000 62.5V937.5A62.5 62.5 0 0 1 937.5 1000zM786.8333333333333 359A52.12499999999999 52.12499999999999 0 0 0 713.1666666666666 359L507.3749999999999 564.8333333333334A10.5 10.5 0 0 1 492.625 564.8333333333334L286.8333333333333 359A52.083333333333336 52.083333333333336 0 0 0 213.1666666666667 432.6666666666668L448.4583333333333 667.9166666666667A72.875 72.875 0 0 0 551.5833333333333 667.9166666666667L786.8333333333333 432.6666666666668A52.12499999999999 52.12499999999999 0 0 0 786.8333333333333 359z" />
    <glyph glyph-name="arrow-rectangle-up-1"
      unicode="&#x61;&#x72;&#x72;&#x6F;&#x77;&#x2D;&#x72;&#x65;&#x63;&#x74;&#x61;&#x6E;&#x67;&#x6C;&#x65;&#x2D;&#x75;&#x70;"
      horiz-adv-x="1000" d="M937.5 1000H62.5A62.5 62.5 0 0 1 0 937.5V62.5A62.5 62.5 0 0 1 62.5 0H937.5A62.5 62.5 0 0 1 1000 62.5V937.5A62.5 62.5 0 0 1 937.5 1000zM786.8333333333333 359A52.12499999999999 52.12499999999999 0 0 0 713.1666666666666 359L507.3749999999999 564.8333333333334A10.5 10.5 0 0 1 492.625 564.8333333333334L286.8333333333333 359A52.083333333333336 52.083333333333336 0 0 0 213.1666666666667 432.6666666666668L448.4583333333333 667.9166666666667A72.875 72.875 0 0 0 551.5833333333333 667.9166666666667L786.8333333333333 432.6666666666668A52.12499999999999 52.12499999999999 0 0 0 786.8333333333333 359z" />
    <glyph glyph-name="arrow-right-1"
      unicode="&#xF116;"
      horiz-adv-x="1000" d="M812.5 500A95.83333333333331 95.83333333333331 0 0 0 779.9999999999999 427.9583333333334L315.3333333333333 19.1666666666667A76.95833333333333 76.95833333333333 0 0 0 213.7083333333333 134.7083333333334L620.0416666666666 492.1666666666667A10.416666666666666 10.416666666666666 0 0 1 620.0416666666666 507.8333333333334L213.7083333333333 865.2916666666666A76.95833333333333 76.95833333333333 0 0 0 315.3333333333333 980.8333333333334L779.8333333333334 572.1666666666667A96.24999999999999 96.24999999999999 0 0 0 812.5 500z" />
    <glyph glyph-name="arrow-right-1-1"
      unicode="&#x61;&#x72;&#x72;&#x6F;&#x77;&#x2D;&#x72;&#x69;&#x67;&#x68;&#x74;&#x2D;&#x31;"
      horiz-adv-x="1000" d="M812.5 500A95.83333333333331 95.83333333333331 0 0 0 779.9999999999999 427.9583333333335L315.3333333333333 19.1666666666667A76.95833333333333 76.95833333333333 0 0 0 213.7083333333333 134.7083333333334L620.0416666666666 492.1666666666667A10.416666666666666 10.416666666666666 0 0 1 620.0416666666666 507.8333333333334L213.7083333333333 865.2916666666666A76.95833333333333 76.95833333333333 0 0 0 315.3333333333333 980.8333333333334L779.8333333333334 572.1666666666667A96.24999999999999 96.24999999999999 0 0 0 812.5 500z" />
    <glyph glyph-name="arrow-up-1"
      unicode="&#xF117;"
      horiz-adv-x="1000" d="M500 812.5A95.83333333333331 95.83333333333331 0 0 0 572.0416666666666 780L980.8333333333331 315.4166666666668A76.95833333333333 76.95833333333333 0 1 0 865.2916666666666 213.7916666666668L507.8333333333333 620.0416666666667A10.416666666666666 10.416666666666666 0 0 1 492.1666666666667 620.0416666666667L134.7083333333334 213.7083333333335A76.95833333333333 76.95833333333333 0 1 0 19.1666666666667 315.3333333333335L427.8333333333333 779.8333333333334A96.24999999999999 96.24999999999999 0 0 0 500 812.5z" />
    <glyph glyph-name="arrow-up-1-1"
      unicode="&#x61;&#x72;&#x72;&#x6F;&#x77;&#x2D;&#x75;&#x70;&#x2D;&#x31;"
      horiz-adv-x="1000" d="M500 812.5A95.83333333333331 95.83333333333331 0 0 0 572.0416666666666 780L980.8333333333331 315.4166666666668A76.95833333333333 76.95833333333333 0 1 0 865.2916666666666 213.7916666666668L507.8333333333333 620.0416666666667A10.416666666666666 10.416666666666666 0 0 1 492.1666666666667 620.0416666666667L134.7083333333334 213.7083333333335A76.95833333333333 76.95833333333333 0 1 0 19.1666666666667 315.3333333333335L427.8333333333333 779.8333333333334A96.24999999999999 96.24999999999999 0 0 0 500 812.5z" />
    <glyph glyph-name="arrow-up"
      unicode="&#xF118;"
      horiz-adv-x="1000" d="M975.8749999999998 509.7916666666667L573.6666666666666 966.6666666666666A110.04166666666666 110.04166666666666 0 0 1 500 1000A110.20833333333333 110.20833333333333 0 0 1 426.3333333333333 966.6666666666666L24.125 509.7916666666667A58.87499999999999 58.87499999999999 0 1 1 112.5 432L422.9166666666667 784.75A10.416666666666666 10.416666666666666 0 0 0 441.125 777.8333333333333V58.8750000000001A58.87499999999999 58.87499999999999 0 1 1 558.875 58.8750000000001V777.8333333333334A10.416666666666666 10.416666666666666 0 0 0 577.125 784.7083333333334L887.5 432A58.87499999999999 58.87499999999999 0 1 1 975.8749999999998 509.7916666666667z" />
    <glyph glyph-name="arrow-up-1"
      unicode="&#x61;&#x72;&#x72;&#x6F;&#x77;&#x2D;&#x75;&#x70;"
      horiz-adv-x="1000" d="M975.8749999999998 509.7916666666667L573.6666666666666 966.6666666666666A110.04166666666666 110.04166666666666 0 0 1 500 1000A110.20833333333333 110.20833333333333 0 0 1 426.3333333333333 966.6666666666666L24.125 509.7916666666667A58.87499999999999 58.87499999999999 0 1 1 112.5 432L422.9166666666667 784.75A10.416666666666666 10.416666666666666 0 0 0 441.125 777.8333333333333V58.8750000000001A58.87499999999999 58.87499999999999 0 1 1 558.875 58.8750000000001V777.8333333333334A10.416666666666666 10.416666666666666 0 0 0 577.125 784.7083333333334L887.5 432A58.87499999999999 58.87499999999999 0 1 1 975.8749999999998 509.7916666666667z" />
    <glyph glyph-name="attachment"
      unicode="&#xF119;"
      horiz-adv-x="1000" d="M910.125 856.0416666666667A290.04166666666663 290.04166666666663 0 0 1 499.8749999999999 856.0416666666667L67.4583333333333 423.6666666666667A213.66666666666663 213.66666666666663 0 0 1 369.625 121.5000000000001L720.8333333333334 472.7916666666666A137.20833333333334 137.20833333333334 0 1 1 526.9166666666666 666.6666666666667L310.7083333333333 450.6666666666667A41.666666666666664 41.666666666666664 0 1 1 369.625 391.6666666666668L585.8333333333334 607.9583333333333A53.916666666666664 53.916666666666664 0 0 0 662.0416666666666 531.7083333333333L310.7083333333333 180.4166666666666A130.33333333333331 130.33333333333331 0 0 0 126.375 364.75L558.7916666666666 797.125A206.74999999999997 206.74999999999997 0 1 0 851.2083333333333 504.7083333333333L526.9166666666666 180.4166666666666A41.666666666666664 41.666666666666664 0 1 1 585.8333333333334 121.4999999999999L910.125 445.8333333333334A290 290 0 0 1 910.125 856.0833333333333z" />
    <glyph glyph-name="attachment-1"
      unicode="&#x61;&#x74;&#x74;&#x61;&#x63;&#x68;&#x6D;&#x65;&#x6E;&#x74;"
      horiz-adv-x="1000" d="M910.125 856.0416666666667A290.04166666666663 290.04166666666663 0 0 1 499.8749999999999 856.0416666666667L67.4583333333333 423.6666666666667A213.66666666666663 213.66666666666663 0 0 1 369.625 121.5000000000001L720.8333333333334 472.7916666666666A137.20833333333334 137.20833333333334 0 1 1 526.9166666666666 666.6666666666667L310.7083333333333 450.6666666666667A41.666666666666664 41.666666666666664 0 1 1 369.625 391.6666666666668L585.8333333333334 607.9583333333333A53.916666666666664 53.916666666666664 0 0 0 662.0416666666666 531.7083333333333L310.7083333333333 180.4166666666666A130.33333333333331 130.33333333333331 0 0 0 126.375 364.75L558.7916666666666 797.125A206.74999999999997 206.74999999999997 0 1 0 851.2083333333333 504.7083333333333L526.9166666666666 180.4166666666666A41.666666666666664 41.666666666666664 0 1 1 585.8333333333334 121.4999999999999L910.125 445.8333333333335A290 290 0 0 1 910.125 856.0833333333333z" />
    <glyph glyph-name="beach-sun-birds"
      unicode="&#xF11A;"
      horiz-adv-x="1000" d="M312.5 842.5A41.666666666666664 41.666666666666664 0 0 1 354.1666666666667 884.1666666666667V933.3333333333334A41.666666666666664 41.666666666666664 0 0 1 270.8333333333333 933.3333333333334V884.1666666666667A41.666666666666664 41.666666666666664 0 0 1 312.5 842.5zM127.6666666666667 789.6666666666667A41.666666666666664 41.666666666666664 0 1 1 186.625 848.5833333333334L151.7916666666667 883.3333333333334A41.666666666666664 41.666666666666664 0 0 1 92.8333333333333 824.5416666666666zM41.6666666666667 620.8333333333334H90.9166666666667A41.666666666666664 41.666666666666664 0 1 1 90.9166666666667 704.1666666666667H41.6666666666667A41.666666666666664 41.666666666666664 0 0 1 41.6666666666667 620.8333333333334zM127.6666666666667 535.25L92.875 500.4166666666667A41.666666666666664 41.666666666666664 0 1 1 151.7916666666667 441.6666666666667L186.625 476.5A41.666666666666664 41.666666666666664 0 0 1 127.6666666666667 535.4166666666667zM270.8333333333333 441V391.6666666666668A41.666666666666664 41.666666666666664 0 0 1 354.1666666666667 391.6666666666668V441A41.666666666666664 41.666666666666664 0 0 1 270.8333333333333 441zM441.0416666666667 535.25A41.666666666666664 41.666666666666664 0 0 1 441.0416666666667 476.3333333333334L475.875 441.5A41.666666666666664 41.666666666666664 0 0 1 534.7916666666666 500.4166666666667L500 535.25A41.666666666666664 41.666666666666664 0 0 1 441.0416666666667 535.25zM492.4166666666666 662.5A41.666666666666664 41.666666666666664 0 0 1 534.0833333333333 620.8333333333334H583.3333333333333A41.666666666666664 41.666666666666664 0 0 1 583.3333333333333 704.1666666666667H534.0833333333333A41.666666666666664 41.666666666666664 0 0 1 492.4166666666666 662.5zM470.4999999999999 777.4583333333334A41.666666666666664 41.666666666666664 0 0 1 500 789.6666666666667L534.875 824.5416666666666A41.666666666666664 41.666666666666664 0 0 1 475.8749999999999 883.3333333333334L441 848.4583333333334A41.666666666666664 41.666666666666664 0 0 1 470.4999999999999 777.3333333333334zM312.5 519.6666666666667A142.04166666666666 142.04166666666666 0 1 1 170.4583333333334 661.6666666666667A142.16666666666666 142.16666666666666 0 0 1 312.5 519.6666666666667zM743 525A21.5 21.5 0 0 0 765.4166666666666 533.3333333333333A34.416666666666664 34.416666666666664 0 0 0 792.875 506.2916666666667A41.666666666666664 41.666666666666664 0 0 1 873.7499999999999 506.2916666666667A34.416666666666664 34.416666666666664 0 0 0 901.2499999999998 533.3333333333334A21.541666666666664 21.541666666666664 0 0 0 923.6666666666666 525.0000000000001A41.666666666666664 41.666666666666664 0 1 1 993 571.2083333333335A103.37499999999999 103.37499999999999 0 0 1 886.9166666666666 615.2916666666667A116.66666666666663 116.66666666666663 0 0 1 844.4583333333334 599A20.833333333333332 20.833333333333332 0 0 0 822.1666666666667 599A116.66666666666663 116.66666666666663 0 0 1 779.75 615.2916666666667A102.99999999999999 102.99999999999999 0 0 1 673.6666666666667 571.2083333333335A41.666666666666664 41.666666666666664 0 1 1 743 525zM952.7916666666666 110.7083333333334C884.9166666666666 101.625 838.7500000000001 173.2083333333334 838.375 173.7500000000001A43.666666666666664 43.666666666666664 0 0 1 766.9166666666667 172.7916666666668A136.79166666666666 136.79166666666666 0 0 0 655.3750000000001 109.6666666666667A113.54166666666666 113.54166666666666 0 0 0 558.0416666666667 169.6250000000001A43.541666666666664 43.541666666666664 0 0 1 486.6250000000001 176.2916666666668A175 175 0 0 0 360.5 109.6250000000001A144.20833333333331 144.20833333333331 0 0 0 248.6666666666667 173.7500000000001A43.5 43.5 0 0 1 180.5 177.6666666666669C179.9166666666666 176.8333333333335 117.625 99.5833333333336 47.1666666666667 109.0416666666669A41.666666666666664 41.666666666666664 0 0 1 36.1666666666667 26.4583333333336A171.375 171.375 0 0 1 59.0416666666667 24.9583333333336A228.58333333333331 228.58333333333331 0 0 1 197.5416666666666 78.916666666667A20.833333333333332 20.833333333333332 0 0 0 223.875 78.5000000000002A209.875 209.875 0 0 1 360.5 26.3333333333336A234.29166666666663 234.29166666666663 0 0 1 502.1666666666666 76.3333333333336A20.833333333333332 20.833333333333332 0 0 0 528.6666666666666 75.2083333333335A185.37499999999994 185.37499999999994 0 0 1 655.4999999999999 26.4583333333336A208.33333333333334 208.33333333333334 0 0 1 789.7916666666665 75.0000000000001A20.833333333333332 20.833333333333332 0 0 0 816.4583333333333 75.0000000000001A187.49999999999997 187.49999999999997 0 0 1 963.8749999999998 28.0833333333334A41.666666666666664 41.666666666666664 0 0 1 952.7916666666666 110.6666666666666z" />
    <glyph glyph-name="beach-sun-birds-1"
      unicode="&#x62;&#x65;&#x61;&#x63;&#x68;&#x2D;&#x73;&#x75;&#x6E;&#x2D;&#x62;&#x69;&#x72;&#x64;&#x73;"
      horiz-adv-x="1000" d="M312.5 842.5A41.666666666666664 41.666666666666664 0 0 1 354.1666666666667 884.1666666666667V933.3333333333334A41.666666666666664 41.666666666666664 0 0 1 270.8333333333333 933.3333333333334V884.1666666666667A41.666666666666664 41.666666666666664 0 0 1 312.5 842.5zM127.6666666666667 789.6666666666667A41.666666666666664 41.666666666666664 0 1 1 186.625 848.5833333333334L151.7916666666667 883.3333333333334A41.666666666666664 41.666666666666664 0 0 1 92.8333333333333 824.5416666666666zM41.6666666666667 620.8333333333334H90.9166666666667A41.666666666666664 41.666666666666664 0 1 1 90.9166666666667 704.1666666666667H41.6666666666667A41.666666666666664 41.666666666666664 0 0 1 41.6666666666667 620.8333333333334zM127.6666666666667 535.25L92.875 500.4166666666667A41.666666666666664 41.666666666666664 0 1 1 151.7916666666667 441.6666666666667L186.625 476.5A41.666666666666664 41.666666666666664 0 0 1 127.6666666666667 535.4166666666667zM270.8333333333333 441V391.6666666666668A41.666666666666664 41.666666666666664 0 0 1 354.1666666666667 391.6666666666668V441A41.666666666666664 41.666666666666664 0 0 1 270.8333333333333 441zM441.0416666666667 535.25A41.666666666666664 41.666666666666664 0 0 1 441.0416666666667 476.3333333333334L475.875 441.5A41.666666666666664 41.666666666666664 0 0 1 534.7916666666666 500.4166666666667L500 535.25A41.666666666666664 41.666666666666664 0 0 1 441.0416666666667 535.25zM492.4166666666666 662.5A41.666666666666664 41.666666666666664 0 0 1 534.0833333333333 620.8333333333334H583.3333333333333A41.666666666666664 41.666666666666664 0 0 1 583.3333333333333 704.1666666666667H534.0833333333333A41.666666666666664 41.666666666666664 0 0 1 492.4166666666666 662.5zM470.4999999999999 777.4583333333334A41.666666666666664 41.666666666666664 0 0 1 500 789.6666666666667L534.875 824.5416666666666A41.666666666666664 41.666666666666664 0 0 1 475.8749999999999 883.3333333333334L441 848.4583333333334A41.666666666666664 41.666666666666664 0 0 1 470.4999999999999 777.3333333333334zM312.5 519.6666666666667A142.04166666666666 142.04166666666666 0 1 1 170.4583333333334 661.6666666666667A142.16666666666666 142.16666666666666 0 0 1 312.5 519.6666666666667zM743 525A21.5 21.5 0 0 0 765.4166666666666 533.3333333333333A34.416666666666664 34.416666666666664 0 0 0 792.875 506.2916666666667A41.666666666666664 41.666666666666664 0 0 1 873.7499999999999 506.2916666666667A34.416666666666664 34.416666666666664 0 0 0 901.2499999999998 533.3333333333334A21.541666666666664 21.541666666666664 0 0 0 923.6666666666666 525.0000000000001A41.666666666666664 41.666666666666664 0 1 1 993 571.2083333333335A103.37499999999999 103.37499999999999 0 0 1 886.9166666666666 615.2916666666667A116.66666666666663 116.66666666666663 0 0 1 844.4583333333334 599A20.833333333333332 20.833333333333332 0 0 0 822.1666666666667 599A116.66666666666663 116.66666666666663 0 0 1 779.75 615.2916666666667A102.99999999999999 102.99999999999999 0 0 1 673.6666666666667 571.2083333333335A41.666666666666664 41.666666666666664 0 1 1 743 525zM952.7916666666666 110.7083333333334C884.9166666666666 101.625 838.7500000000001 173.2083333333334 838.375 173.7500000000001A43.666666666666664 43.666666666666664 0 0 1 766.9166666666667 172.7916666666668A136.79166666666666 136.79166666666666 0 0 0 655.3750000000001 109.6666666666667A113.54166666666666 113.54166666666666 0 0 0 558.0416666666667 169.6250000000001A43.541666666666664 43.541666666666664 0 0 1 486.6250000000001 176.2916666666668A175 175 0 0 0 360.5 109.6250000000001A144.20833333333331 144.20833333333331 0 0 0 248.6666666666667 173.7500000000001A43.5 43.5 0 0 1 180.5 177.6666666666669C179.9166666666666 176.8333333333335 117.625 99.5833333333336 47.1666666666667 109.0416666666669A41.666666666666664 41.666666666666664 0 0 1 36.1666666666667 26.4583333333336A171.375 171.375 0 0 1 59.0416666666667 24.9583333333336A228.58333333333331 228.58333333333331 0 0 1 197.5416666666666 78.916666666667A20.833333333333332 20.833333333333332 0 0 0 223.875 78.5000000000002A209.875 209.875 0 0 1 360.5 26.3333333333336A234.29166666666663 234.29166666666663 0 0 1 502.1666666666666 76.3333333333336A20.833333333333332 20.833333333333332 0 0 0 528.6666666666666 75.2083333333335A185.37499999999994 185.37499999999994 0 0 1 655.4999999999999 26.4583333333336A208.33333333333334 208.33333333333334 0 0 1 789.7916666666665 75.0000000000001A20.833333333333332 20.833333333333332 0 0 0 816.4583333333333 75.0000000000001A187.49999999999997 187.49999999999997 0 0 1 963.8749999999998 28.0833333333334A41.666666666666664 41.666666666666664 0 0 1 952.7916666666666 110.6666666666666z" />
    <glyph glyph-name="bin-1"
      unicode="&#xF11B;"
      horiz-adv-x="1000" d="M810.5 687.5H189.4583333333333A20.833333333333332 20.833333333333332 0 0 1 168.625 664.7916666666667L222.25 75.7916666666666A83.33333333333333 83.33333333333333 0 0 1 305.25 0H694.7083333333333A83.33333333333333 83.33333333333333 0 0 1 777.7083333333333 75.7916666666666L831.2499999999999 664.7916666666667A20.833333333333332 20.833333333333332 0 0 1 825.8749999999999 680.7083333333333A20.833333333333332 20.833333333333332 0 0 1 810.5 687.5zM427.1666666666668 145.8333333333334A31.25 31.25 0 0 0 364.6666666666668 145.8333333333334V520.8333333333334A31.25 31.25 0 0 0 427.1666666666668 520.8333333333334zM635.5000000000001 145.8333333333334A31.25 31.25 0 0 0 573.0000000000001 145.8333333333334V520.8333333333334A31.25 31.25 0 0 0 635.5000000000001 520.8333333333334zM916.6666666666666 833.3333333333334H718.75A10.416666666666666 10.416666666666666 0 0 0 708.3333333333333 843.75V895.8333333333334A104.16666666666667 104.16666666666667 0 0 1 604.1666666666666 1000H395.8333333333333A104.16666666666667 104.16666666666667 0 0 1 291.6666666666667 895.8333333333334V843.75A10.416666666666666 10.416666666666666 0 0 0 281.25 833.3333333333334H83.3333333333333A41.666666666666664 41.666666666666664 0 0 1 83.3333333333333 750H916.6666666666666A41.666666666666664 41.666666666666664 0 0 1 916.6666666666666 833.3333333333334zM375 843.75V895.8333333333334A20.833333333333332 20.833333333333332 0 0 0 395.8333333333333 916.6666666666666H604.1666666666666A20.833333333333332 20.833333333333332 0 0 0 625 895.8333333333334V843.75A10.416666666666666 10.416666666666666 0 0 0 614.5833333333333 833.3333333333334H385.4166666666667A10.416666666666666 10.416666666666666 0 0 0 375 843.75z" />
    <glyph glyph-name="bin-1-1"
      unicode="&#x62;&#x69;&#x6E;&#x2D;&#x31;"
      horiz-adv-x="1000" d="M810.5 687.5H189.4583333333333A20.833333333333332 20.833333333333332 0 0 1 168.625 664.7916666666667L222.25 75.7916666666666A83.33333333333333 83.33333333333333 0 0 1 305.25 0H694.7083333333333A83.33333333333333 83.33333333333333 0 0 1 777.7083333333333 75.7916666666666L831.2499999999999 664.7916666666667A20.833333333333332 20.833333333333332 0 0 1 825.8749999999999 680.7083333333333A20.833333333333332 20.833333333333332 0 0 1 810.5 687.5zM427.1666666666668 145.8333333333334A31.25 31.25 0 0 0 364.6666666666668 145.8333333333334V520.8333333333334A31.25 31.25 0 0 0 427.1666666666668 520.8333333333334zM635.5000000000001 145.8333333333334A31.25 31.25 0 0 0 573.0000000000001 145.8333333333334V520.8333333333334A31.25 31.25 0 0 0 635.5000000000001 520.8333333333334zM916.6666666666666 833.3333333333334H718.75A10.416666666666666 10.416666666666666 0 0 0 708.3333333333333 843.75V895.8333333333334A104.16666666666667 104.16666666666667 0 0 1 604.1666666666666 1000H395.8333333333333A104.16666666666667 104.16666666666667 0 0 1 291.6666666666667 895.8333333333334V843.75A10.416666666666666 10.416666666666666 0 0 0 281.25 833.3333333333334H83.3333333333333A41.666666666666664 41.666666666666664 0 0 1 83.3333333333333 750H916.6666666666666A41.666666666666664 41.666666666666664 0 0 1 916.6666666666666 833.3333333333334zM375 843.75V895.8333333333334A20.833333333333332 20.833333333333332 0 0 0 395.8333333333333 916.6666666666666H604.1666666666666A20.833333333333332 20.833333333333332 0 0 0 625 895.8333333333334V843.75A10.416666666666666 10.416666666666666 0 0 0 614.5833333333333 833.3333333333334H385.4166666666667A10.416666666666666 10.416666666666666 0 0 0 375 843.75z" />
    <glyph glyph-name="business-contract-handshake-sign"
      unicode="&#xF11C;"
      horiz-adv-x="1000" d="M146.25 954.4166666666666V475.25A41.666666666666664 41.666666666666664 0 0 1 229.5833333333333 475.25V891.9166666666667A20.833333333333332 20.833333333333332 0 0 0 250.4166666666667 912.75H641.2083333333333A20.833333333333332 20.833333333333332 0 0 0 655.9166666666666 906.6666666666669L765.1249999999999 797.4583333333334A20.833333333333332 20.833333333333332 0 0 0 771.2499999999999 782.7083333333334V475.2500000000001A41.666666666666664 41.666666666666664 0 0 1 854.5833333333333 475.2500000000001V808.5833333333335A41.666666666666664 41.666666666666664 0 0 1 842.3749999999999 838.0416666666667L696.5416666666666 983.8750000000002A41.666666666666664 41.666666666666664 0 0 1 667.0833333333334 996.0833333333334H187.9166666666667A41.666666666666664 41.666666666666664 0 0 1 146.25 954.4166666666666zM694.7499999999999 114.5000000000001A10.541666666666664 10.541666666666664 0 0 0 699.1666666666666 107.7500000000001A72.95833333333331 72.95833333333331 0 0 1 770.8333333333333 48.1666666666669H875A31.25 31.25 0 0 1 906.25 79.4166666666669V371.0833333333335A31.25 31.25 0 0 1 875 402.3333333333335H770.8333333333333A72.375 72.375 0 0 1 735.375 393.0833333333335A10.416666666666666 10.416666666666666 0 0 0 726.5416666666666 392.4583333333335L607.5416666666667 438.0000000000001A101.99999999999999 101.99999999999999 0 0 1 528.7083333333334 433.5416666666669L466.7500000000001 403.5416666666668A10.33333333333333 10.33333333333333 0 0 0 457.0833333333334 403.7916666666669A91.66666666666666 91.66666666666666 0 0 1 377.1250000000001 408.6666666666669L296.3333333333334 374.2083333333335A10.458333333333334 10.458333333333334 0 0 0 284.3333333333334 377.0000000000003A72.70833333333333 72.70833333333333 0 0 1 229.1666666666667 402.3333333333334H125A31.25 31.25 0 0 1 93.75 371.0833333333334V79.4166666666666A31.25 31.25 0 0 1 125 48.1666666666666H229.1666666666667A72.95833333333331 72.95833333333331 0 0 1 292.2916666666667 84.625A10.458333333333334 10.458333333333334 0 0 0 301.2916666666667 89.8333333333334H314.6666666666667A10.625 10.625 0 0 0 321.125 87.625L405.0833333333333 21.5833333333333A59.58333333333333 59.58333333333333 0 0 1 485.2916666666666 17.4166666666665L577.2499999999999 92.8333333333332A10.833333333333332 10.833333333333332 0 0 0 581.8333333333333 94.9999999999998L686.8749999999999 115.8333333333332A10.5 10.5 0 0 0 694.7499999999999 114.5000000000001zM580.8333333333333 176.4166666666668L449.5 65.5000000000001S445.3333333333333 69.2500000000001 348.4166666666667 145.6250000000002A31.124999999999996 31.124999999999996 0 0 1 329.0833333333333 152.3333333333336H312.5A10.416666666666666 10.416666666666666 0 0 0 302.0833333333333 162.7500000000004V301.8750000000001A10.374999999999998 10.374999999999998 0 0 0 308.4166666666667 311.4583333333335L400.9583333333334 350.8750000000001A5.916666666666666 5.916666666666666 0 0 0 407 349.8333333333334A5.833333333333333 5.833333333333333 0 0 0 408.7916666666667 343.9583333333334A81.45833333333333 81.45833333333333 0 0 1 518 248.1250000000001L520.3333333333333 249.1250000000001A10.5 10.5 0 0 0 531.9999999999999 246.4583333333335L581.9999999999999 191.5833333333335A10.666666666666666 10.666666666666666 0 0 0 584.6666666666665 183.8750000000002A10.5 10.5 0 0 0 580.8333333333333 176.4166666666668zM656.5833333333333 177.4583333333334A10.541666666666664 10.541666666666664 0 0 0 652.4166666666666 185.2083333333334A63.79166666666666 63.79166666666666 0 0 1 638.5416666666666 221.7083333333335L558.4583333333333 309.9166666666669A31.54166666666666 31.54166666666666 0 0 1 523.4166666666666 317.8750000000001L494.25 305.9166666666669A18.75 18.75 0 0 0 469.8333333333333 316.4166666666668C465.125 328.4583333333335 471.125 333.4583333333335 478.75 340.0000000000001L556.0833333333333 377.5000000000001A39.45833333333333 39.45833333333333 0 0 0 585.5 379.3750000000001L691.0833333333333 339.0000000000001A10.249999999999998 10.249999999999998 0 0 0 697.6666666666666 329.4166666666669V190.5416666666668A10.416666666666666 10.416666666666666 0 0 0 689.3333333333333 180.3333333333334L664.8333333333334 175.4583333333334A10.291666666666666 10.291666666666666 0 0 0 656.5833333333333 177.4583333333334zM479.1666666666666 735.6666666666667A31.25 31.25 0 0 1 479.1666666666666 798.1666666666666H354.1666666666667A31.25 31.25 0 0 1 354.1666666666667 735.6666666666667zM354.5833333333333 569H667.0833333333333A31.25 31.25 0 0 1 667.0833333333333 631.5H354.5833333333333A31.25 31.25 0 0 1 354.5833333333333 569z" />
    <glyph glyph-name="business-contract-handshake-sign-1"
      unicode="&#x62;&#x75;&#x73;&#x69;&#x6E;&#x65;&#x73;&#x73;&#x2D;&#x63;&#x6F;&#x6E;&#x74;&#x72;&#x61;&#x63;&#x74;&#x2D;&#x68;&#x61;&#x6E;&#x64;&#x73;&#x68;&#x61;&#x6B;&#x65;&#x2D;&#x73;&#x69;&#x67;&#x6E;"
      horiz-adv-x="1000" d="M146.25 954.4166666666666V475.25A41.666666666666664 41.666666666666664 0 0 1 229.5833333333333 475.25V891.9166666666667A20.833333333333332 20.833333333333332 0 0 0 250.4166666666667 912.75H641.2083333333333A20.833333333333332 20.833333333333332 0 0 0 655.9166666666666 906.6666666666669L765.1249999999999 797.4583333333334A20.833333333333332 20.833333333333332 0 0 0 771.2499999999999 782.7083333333334V475.2500000000001A41.666666666666664 41.666666666666664 0 0 1 854.5833333333333 475.2500000000001V808.5833333333335A41.666666666666664 41.666666666666664 0 0 1 842.3749999999999 838.0416666666667L696.5416666666666 983.8750000000002A41.666666666666664 41.666666666666664 0 0 1 667.0833333333334 996.0833333333334H187.9166666666667A41.666666666666664 41.666666666666664 0 0 1 146.25 954.4166666666666zM694.7499999999999 114.5000000000001A10.541666666666664 10.541666666666664 0 0 0 699.1666666666666 107.7500000000001A72.95833333333331 72.95833333333331 0 0 1 770.8333333333333 48.1666666666669H875A31.25 31.25 0 0 1 906.25 79.4166666666669V371.0833333333335A31.25 31.25 0 0 1 875 402.3333333333335H770.8333333333333A72.375 72.375 0 0 1 735.375 393.0833333333335A10.416666666666666 10.416666666666666 0 0 0 726.5416666666666 392.4583333333335L607.5416666666667 438.0000000000001A101.99999999999999 101.99999999999999 0 0 1 528.7083333333334 433.5416666666669L466.7500000000001 403.5416666666668A10.33333333333333 10.33333333333333 0 0 0 457.0833333333334 403.7916666666669A91.66666666666666 91.66666666666666 0 0 1 377.1250000000001 408.6666666666669L296.3333333333335 374.2083333333335A10.458333333333334 10.458333333333334 0 0 0 284.3333333333335 377.0000000000003A72.70833333333333 72.70833333333333 0 0 1 229.1666666666667 402.3333333333335H125A31.25 31.25 0 0 1 93.75 371.0833333333335V79.4166666666666A31.25 31.25 0 0 1 125 48.1666666666666H229.1666666666667A72.95833333333331 72.95833333333331 0 0 1 292.2916666666667 84.625A10.458333333333334 10.458333333333334 0 0 0 301.2916666666667 89.8333333333334H314.6666666666667A10.625 10.625 0 0 0 321.125 87.625L405.0833333333333 21.5833333333333A59.58333333333333 59.58333333333333 0 0 1 485.2916666666666 17.4166666666665L577.2499999999999 92.8333333333332A10.833333333333332 10.833333333333332 0 0 0 581.8333333333333 94.9999999999998L686.8749999999999 115.8333333333332A10.5 10.5 0 0 0 694.7499999999999 114.5000000000001zM580.8333333333333 176.4166666666668L449.5 65.5000000000001S445.3333333333333 69.2500000000001 348.4166666666667 145.6250000000002A31.124999999999996 31.124999999999996 0 0 1 329.0833333333333 152.3333333333336H312.5A10.416666666666666 10.416666666666666 0 0 0 302.0833333333333 162.7500000000004V301.8750000000001A10.374999999999998 10.374999999999998 0 0 0 308.4166666666667 311.4583333333335L400.9583333333335 350.8750000000001A5.916666666666666 5.916666666666666 0 0 0 407 349.8333333333335A5.833333333333333 5.833333333333333 0 0 0 408.7916666666667 343.9583333333335A81.45833333333333 81.45833333333333 0 0 1 518 248.1250000000001L520.3333333333333 249.1250000000001A10.5 10.5 0 0 0 531.9999999999999 246.4583333333335L581.9999999999999 191.5833333333335A10.666666666666666 10.666666666666666 0 0 0 584.6666666666665 183.8750000000002A10.5 10.5 0 0 0 580.8333333333333 176.4166666666668zM656.5833333333333 177.4583333333334A10.541666666666664 10.541666666666664 0 0 0 652.4166666666666 185.2083333333334A63.79166666666666 63.79166666666666 0 0 1 638.5416666666666 221.7083333333335L558.4583333333333 309.9166666666669A31.54166666666666 31.54166666666666 0 0 1 523.4166666666666 317.8750000000001L494.25 305.9166666666669A18.75 18.75 0 0 0 469.8333333333333 316.4166666666668C465.125 328.4583333333335 471.125 333.4583333333335 478.75 340.0000000000001L556.0833333333333 377.5000000000001A39.45833333333333 39.45833333333333 0 0 0 585.5 379.3750000000001L691.0833333333333 339.0000000000001A10.249999999999998 10.249999999999998 0 0 0 697.6666666666666 329.4166666666669V190.5416666666668A10.416666666666666 10.416666666666666 0 0 0 689.3333333333333 180.3333333333334L664.8333333333334 175.4583333333334A10.291666666666666 10.291666666666666 0 0 0 656.5833333333333 177.4583333333334zM479.1666666666666 735.6666666666667A31.25 31.25 0 0 1 479.1666666666666 798.1666666666666H354.1666666666667A31.25 31.25 0 0 1 354.1666666666667 735.6666666666667zM354.5833333333333 569H667.0833333333333A31.25 31.25 0 0 1 667.0833333333333 631.5H354.5833333333333A31.25 31.25 0 0 1 354.5833333333333 569z" />
    <glyph glyph-name="calendar-3"
      unicode="&#xF11D;"
      horiz-adv-x="1000" d="M312.5 562.5H270.8333333333333A41.666666666666664 41.666666666666664 0 1 1 270.8333333333333 479.1666666666667H312.5A41.666666666666664 41.666666666666664 0 0 1 312.5 562.5zM520.8333333333333 562.5H479.1666666666666A41.666666666666664 41.666666666666664 0 0 1 479.1666666666666 479.1666666666667H520.8333333333333A41.666666666666664 41.666666666666664 0 0 1 520.8333333333333 562.5zM729.1666666666666 562.5H687.5A41.666666666666664 41.666666666666664 0 0 1 687.5 479.1666666666667H729.1666666666666A41.666666666666664 41.666666666666664 0 0 1 729.1666666666666 562.5zM312.5 395.8333333333334H270.8333333333333A41.666666666666664 41.666666666666664 0 1 1 270.8333333333333 312.5H312.5A41.666666666666664 41.666666666666664 0 0 1 312.5 395.8333333333334zM520.8333333333333 395.8333333333334H479.1666666666666A41.666666666666664 41.666666666666664 0 1 1 479.1666666666666 312.5H520.8333333333333A41.666666666666664 41.666666666666664 0 0 1 520.8333333333333 395.8333333333334zM729.1666666666666 395.8333333333334H687.5A41.666666666666664 41.666666666666664 0 1 1 687.5 312.5H729.1666666666666A41.666666666666664 41.666666666666664 0 0 1 729.1666666666666 395.8333333333334zM312.5 229.1666666666668H270.8333333333333A41.666666666666664 41.666666666666664 0 0 1 270.8333333333333 145.8333333333334H312.5A41.666666666666664 41.666666666666664 0 0 1 312.5 229.1666666666668zM520.8333333333333 229.1666666666668H479.1666666666666A41.666666666666664 41.666666666666664 0 0 1 479.1666666666666 145.8333333333334H520.8333333333333A41.666666666666664 41.666666666666664 0 1 1 520.8333333333333 229.1666666666668zM729.1666666666666 229.1666666666668H687.5A41.666666666666664 41.666666666666664 0 0 1 687.5 145.8333333333334H729.1666666666666A41.666666666666664 41.666666666666664 0 0 1 729.1666666666666 229.1666666666668zM895.8333333333333 875H781.25A10.416666666666666 10.416666666666666 0 0 0 770.8333333333333 885.4166666666666V958.3333333333334A41.666666666666664 41.666666666666664 0 0 1 687.5 958.3333333333334V760.4166666666667A31.25 31.25 0 1 0 625 760.4166666666667V854.1666666666667A20.833333333333332 20.833333333333332 0 0 1 604.1666666666666 875H343.75A10.416666666666666 10.416666666666666 0 0 0 333.3333333333333 885.375V958.3333333333334A41.666666666666664 41.666666666666664 0 1 1 250 958.3333333333334V760.4166666666667A31.25 31.25 0 1 0 187.5 760.4166666666667V854.1666666666667A20.833333333333332 20.833333333333332 0 0 1 166.6666666666667 875H104.1666666666667A83.33333333333333 83.33333333333333 0 0 1 20.8333333333333 791.6666666666667V83.3333333333334A83.33333333333333 83.33333333333333 0 0 1 104.1666666666667 0H895.8333333333333A83.33333333333333 83.33333333333333 0 0 1 979.1666666666666 83.3333333333334V791.6666666666667A83.33333333333333 83.33333333333333 0 0 1 895.8333333333333 875zM895.8333333333333 104.1666666666667A20.833333333333332 20.833333333333332 0 0 0 875 83.3333333333334H125A20.833333333333332 20.833333333333332 0 0 0 104.1666666666667 104.1666666666667V604.1666666666667A20.833333333333332 20.833333333333332 0 0 0 125 625H875A20.833333333333332 20.833333333333332 0 0 0 895.8333333333333 604.1666666666667z" />
    <glyph glyph-name="calendar-3-1"
      unicode="&#x63;&#x61;&#x6C;&#x65;&#x6E;&#x64;&#x61;&#x72;&#x2D;&#x33;"
      horiz-adv-x="1000" d="M312.5 562.5H270.8333333333333A41.666666666666664 41.666666666666664 0 1 1 270.8333333333333 479.1666666666667H312.5A41.666666666666664 41.666666666666664 0 0 1 312.5 562.5zM520.8333333333333 562.5H479.1666666666666A41.666666666666664 41.666666666666664 0 0 1 479.1666666666666 479.1666666666667H520.8333333333333A41.666666666666664 41.666666666666664 0 0 1 520.8333333333333 562.5zM729.1666666666666 562.5H687.5A41.666666666666664 41.666666666666664 0 0 1 687.5 479.1666666666667H729.1666666666666A41.666666666666664 41.666666666666664 0 0 1 729.1666666666666 562.5zM312.5 395.8333333333335H270.8333333333333A41.666666666666664 41.666666666666664 0 1 1 270.8333333333333 312.5H312.5A41.666666666666664 41.666666666666664 0 0 1 312.5 395.8333333333335zM520.8333333333333 395.8333333333335H479.1666666666666A41.666666666666664 41.666666666666664 0 1 1 479.1666666666666 312.5H520.8333333333333A41.666666666666664 41.666666666666664 0 0 1 520.8333333333333 395.8333333333335zM729.1666666666666 395.8333333333335H687.5A41.666666666666664 41.666666666666664 0 1 1 687.5 312.5H729.1666666666666A41.666666666666664 41.666666666666664 0 0 1 729.1666666666666 395.8333333333335zM312.5 229.1666666666668H270.8333333333333A41.666666666666664 41.666666666666664 0 0 1 270.8333333333333 145.8333333333334H312.5A41.666666666666664 41.666666666666664 0 0 1 312.5 229.1666666666668zM520.8333333333333 229.1666666666668H479.1666666666666A41.666666666666664 41.666666666666664 0 0 1 479.1666666666666 145.8333333333334H520.8333333333333A41.666666666666664 41.666666666666664 0 1 1 520.8333333333333 229.1666666666668zM729.1666666666666 229.1666666666668H687.5A41.666666666666664 41.666666666666664 0 0 1 687.5 145.8333333333334H729.1666666666666A41.666666666666664 41.666666666666664 0 0 1 729.1666666666666 229.1666666666668zM895.8333333333333 875H781.25A10.416666666666666 10.416666666666666 0 0 0 770.8333333333333 885.4166666666666V958.3333333333334A41.666666666666664 41.666666666666664 0 0 1 687.5 958.3333333333334V760.4166666666667A31.25 31.25 0 1 0 625 760.4166666666667V854.1666666666667A20.833333333333332 20.833333333333332 0 0 1 604.1666666666666 875H343.75A10.416666666666666 10.416666666666666 0 0 0 333.3333333333333 885.375V958.3333333333334A41.666666666666664 41.666666666666664 0 1 1 250 958.3333333333334V760.4166666666667A31.25 31.25 0 1 0 187.5 760.4166666666667V854.1666666666667A20.833333333333332 20.833333333333332 0 0 1 166.6666666666667 875H104.1666666666667A83.33333333333333 83.33333333333333 0 0 1 20.8333333333333 791.6666666666667V83.3333333333334A83.33333333333333 83.33333333333333 0 0 1 104.1666666666667 0H895.8333333333333A83.33333333333333 83.33333333333333 0 0 1 979.1666666666666 83.3333333333334V791.6666666666667A83.33333333333333 83.33333333333333 0 0 1 895.8333333333333 875zM895.8333333333333 104.1666666666667A20.833333333333332 20.833333333333332 0 0 0 875 83.3333333333334H125A20.833333333333332 20.833333333333332 0 0 0 104.1666666666667 104.1666666666667V604.1666666666667A20.833333333333332 20.833333333333332 0 0 0 125 625H875A20.833333333333332 20.833333333333332 0 0 0 895.8333333333333 604.1666666666667z" />
    <glyph glyph-name="camera-1"
      unicode="&#xF11E;"
      horiz-adv-x="1000" d="M458.3333333333333 453.125A156.24999999999997 156.24999999999997 0 0 1 770.8333333333333 453.125A156.24999999999997 156.24999999999997 0 0 1 458.3333333333333 453.125M893.4999999999999 744.7916666666667H838.6666666666666A22.25 22.25 0 0 0 818.6249999999999 759.2083333333334C792.875 813.5416666666667 766.25 869.7916666666667 708.3333333333333 869.7916666666667H500C455.375 869.7916666666667 431.8333333333333 837.375 389.2083333333334 778.5C373.2083333333334 756.5416666666667 367.9583333333334 744.7916666666667 354.0416666666668 744.7916666666667H104.0416666666667C18.0833333333333 744.7916666666667 0 694.4166666666667 0 652.1666666666666V219.3333333333334A93.91666666666667 93.91666666666667 0 0 1 106.5 119.7916666666668H893.4999999999999A93.91666666666667 93.91666666666667 0 0 1 1000 219.3333333333334V652.1666666666666C1000 694.4166666666667 981.5416666666666 744.7916666666667 893.4999999999999 744.7916666666667zM854.1666666666666 453.125A239.58333333333331 239.58333333333331 0 1 0 614.5833333333333 692.7083333333334A239.83333333333331 239.83333333333331 0 0 0 854.1666666666666 453.125zM208.3333333333333 588.5416666666667A52.083333333333336 52.083333333333336 0 1 0 156.25 640.625A52.083333333333336 52.083333333333336 0 0 0 208.3333333333333 588.5416666666667zM104.1666666666667 787.125L229.1666666666667 786.4583333333334H229.1666666666667A20.833333333333332 20.833333333333332 0 0 1 250 807.2916666666667V817.7083333333334A62.5 62.5 0 0 1 187.5 880.2083333333334H145.8333333333333A62.5 62.5 0 0 1 83.3333333333333 817.7083333333334V807.9583333333334A20.833333333333332 20.833333333333332 0 0 1 104.1666666666667 787.125z" />
    <glyph glyph-name="camera-1-1"
      unicode="&#x63;&#x61;&#x6D;&#x65;&#x72;&#x61;&#x2D;&#x31;"
      horiz-adv-x="1000" d="M458.3333333333333 453.125A156.24999999999997 156.24999999999997 0 0 1 770.8333333333333 453.125A156.24999999999997 156.24999999999997 0 0 1 458.3333333333333 453.125M893.4999999999999 744.7916666666667H838.6666666666666A22.25 22.25 0 0 0 818.6249999999999 759.2083333333334C792.875 813.5416666666667 766.25 869.7916666666667 708.3333333333333 869.7916666666667H500C455.375 869.7916666666667 431.8333333333333 837.375 389.2083333333335 778.5C373.2083333333335 756.5416666666667 367.9583333333335 744.7916666666667 354.0416666666668 744.7916666666667H104.0416666666667C18.0833333333333 744.7916666666667 0 694.4166666666667 0 652.1666666666666V219.3333333333334A93.91666666666667 93.91666666666667 0 0 1 106.5 119.7916666666668H893.4999999999999A93.91666666666667 93.91666666666667 0 0 1 1000 219.3333333333334V652.1666666666666C1000 694.4166666666667 981.5416666666666 744.7916666666667 893.4999999999999 744.7916666666667zM854.1666666666666 453.125A239.58333333333331 239.58333333333331 0 1 0 614.5833333333333 692.7083333333334A239.83333333333331 239.83333333333331 0 0 0 854.1666666666666 453.125zM208.3333333333333 588.5416666666667A52.083333333333336 52.083333333333336 0 1 0 156.25 640.625A52.083333333333336 52.083333333333336 0 0 0 208.3333333333333 588.5416666666667zM104.1666666666667 787.125L229.1666666666667 786.4583333333334H229.1666666666667A20.833333333333332 20.833333333333332 0 0 1 250 807.2916666666667V817.7083333333334A62.5 62.5 0 0 1 187.5 880.2083333333334H145.8333333333333A62.5 62.5 0 0 1 83.3333333333333 817.7083333333334V807.9583333333334A20.833333333333332 20.833333333333332 0 0 1 104.1666666666667 787.125z" />
    <glyph glyph-name="cat-fish-toy"
      unicode="&#xF11F;"
      horiz-adv-x="1000" d="M943.4166666666666 252.5833333333334A16.875 16.875 0 0 1 955.9166666666666 281.4166666666668C890.9166666666666 346.4166666666668 805.625 369.4583333333334 735.0833333333333 326.1250000000001C734.3333333333333 327.0833333333335 719.2083333333333 342.7916666666668 710.0833333333333 352.4166666666668A10.416666666666666 10.416666666666666 0 0 0 710.0833333333333 367.0000000000001L732.9583333333331 389.8750000000001A41.666666666666664 41.666666666666664 0 0 1 673.9999999999999 448.7916666666668L651.2916666666665 426.0833333333334A10.374999999999998 10.374999999999998 0 0 0 636.5833333333333 426.0833333333334L621.7916666666665 440.8750000000001A10.374999999999998 10.374999999999998 0 0 0 621.7916666666665 455.5833333333334L688.0833333333333 521.9166666666667A41.666666666666664 41.666666666666664 0 1 1 629.1666666666666 580.8333333333333L562.875 514.5A10.541666666666664 10.541666666666664 0 0 0 555.5 511.4583333333333A10.374999999999998 10.374999999999998 0 0 0 548.1666666666666 514.5416666666666L533.4583333333334 529.25A10.374999999999998 10.374999999999998 0 0 0 533.4583333333334 543.9583333333333L556.125 566.6666666666666A41.666666666666664 41.666666666666664 0 0 1 497.2083333333334 625.5833333333333L474.5416666666667 602.9166666666665A10.416666666666666 10.416666666666666 0 0 0 459.7916666666667 602.9166666666665L437.2916666666667 625.4166666666666H437.2916666666667C500.3333333333333 695.9583333333333 533.5416666666667 787.9166666666666 478.6250000000001 842.7083333333333L150 956.5833333333334A9.791666666666666 9.791666666666666 0 0 1 137.5 944.4583333333334L181.1666666666667 799.5833333333334A20.833333333333332 20.833333333333332 0 0 0 141.2916666666667 787.5416666666667L100.9166666666667 921.5416666666666A10.374999999999998 10.374999999999998 0 0 1 83.3333333333333 925.7083333333334C37.9583333333333 877.75 -23.2916666666667 768.5416666666667 190.7083333333333 554.5833333333334C237.5833333333333 507.6666666666667 311.5416666666667 525.1666666666667 375.875 570.5C376.5833333333333 569.625 391.9583333333333 553.8333333333334 401.2916666666667 543.9583333333334A10.374999999999998 10.374999999999998 0 0 0 401.2916666666667 529.375L364.9583333333333 493.0000000000001A41.666666666666664 41.666666666666664 0 0 1 423.875 434.0833333333334L460.0833333333333 470.3333333333334A10.458333333333334 10.458333333333334 0 0 0 474.8333333333333 470.3333333333334L489.5416666666666 455.5833333333334A10.374999999999998 10.374999999999998 0 0 0 489.5416666666666 440.8750000000001L423.125 374.5833333333334A41.666666666666664 41.666666666666664 0 1 1 482.0416666666666 315.625L548.3333333333333 381.9166666666667A10.416666666666666 10.416666666666666 0 0 0 563.0416666666665 381.9166666666667L577.7916666666665 367.1666666666667A10.374999999999998 10.374999999999998 0 0 0 577.7916666666665 352.4166666666668L541.6666666666666 316.25A41.666666666666664 41.666666666666664 0 1 1 600.5833333333333 257.3333333333333L636.875 293.6249999999999A10.458333333333334 10.458333333333334 0 0 0 651.4999999999999 293.6249999999999C661.0833333333333 284.3333333333333 676.8333333333333 269.1666666666667 677.7916666666666 268.6249999999999C634.5416666666666 198.1249999999999 657.5416666666666 112.8333333333332 722.5833333333333 47.7916666666665A16.666666666666664 16.666666666666664 0 0 1 751.3749999999999 60.2916666666665A184.41666666666666 184.41666666666666 0 0 0 943.4166666666666 252.5833333333334zM347.375 736.25A39.37499999999999 39.37499999999999 0 1 0 319.5 803.4583333333333H319.5A39.416666666666664 39.416666666666664 0 0 0 347.375 736.25z" />
    <glyph glyph-name="cat-fish-toy-1"
      unicode="&#x63;&#x61;&#x74;&#x2D;&#x66;&#x69;&#x73;&#x68;&#x2D;&#x74;&#x6F;&#x79;"
      horiz-adv-x="1000" d="M943.4166666666666 252.5833333333334A16.875 16.875 0 0 1 955.9166666666666 281.4166666666668C890.9166666666666 346.4166666666668 805.625 369.4583333333335 735.0833333333333 326.1250000000001C734.3333333333333 327.0833333333335 719.2083333333333 342.7916666666668 710.0833333333333 352.4166666666668A10.416666666666666 10.416666666666666 0 0 0 710.0833333333333 367.0000000000001L732.9583333333331 389.8750000000001A41.666666666666664 41.666666666666664 0 0 1 673.9999999999999 448.7916666666668L651.2916666666665 426.0833333333335A10.374999999999998 10.374999999999998 0 0 0 636.5833333333333 426.0833333333335L621.7916666666665 440.8750000000001A10.374999999999998 10.374999999999998 0 0 0 621.7916666666665 455.5833333333334L688.0833333333333 521.9166666666667A41.666666666666664 41.666666666666664 0 1 1 629.1666666666666 580.8333333333333L562.875 514.5A10.541666666666664 10.541666666666664 0 0 0 555.5 511.4583333333333A10.374999999999998 10.374999999999998 0 0 0 548.1666666666666 514.5416666666666L533.4583333333334 529.25A10.374999999999998 10.374999999999998 0 0 0 533.4583333333334 543.9583333333333L556.125 566.6666666666666A41.666666666666664 41.666666666666664 0 0 1 497.2083333333334 625.5833333333333L474.5416666666667 602.9166666666665A10.416666666666666 10.416666666666666 0 0 0 459.7916666666667 602.9166666666665L437.2916666666667 625.4166666666666H437.2916666666667C500.3333333333333 695.9583333333333 533.5416666666667 787.9166666666666 478.6250000000001 842.7083333333333L150 956.5833333333334A9.791666666666666 9.791666666666666 0 0 1 137.5 944.4583333333334L181.1666666666667 799.5833333333334A20.833333333333332 20.833333333333332 0 0 0 141.2916666666667 787.5416666666667L100.9166666666667 921.5416666666666A10.374999999999998 10.374999999999998 0 0 1 83.3333333333333 925.7083333333334C37.9583333333333 877.75 -23.2916666666667 768.5416666666667 190.7083333333333 554.5833333333334C237.5833333333333 507.6666666666667 311.5416666666667 525.1666666666667 375.875 570.5C376.5833333333333 569.625 391.9583333333333 553.8333333333334 401.2916666666667 543.9583333333334A10.374999999999998 10.374999999999998 0 0 0 401.2916666666667 529.375L364.9583333333333 493.0000000000001A41.666666666666664 41.666666666666664 0 0 1 423.875 434.0833333333335L460.0833333333333 470.3333333333334A10.458333333333334 10.458333333333334 0 0 0 474.8333333333333 470.3333333333334L489.5416666666666 455.5833333333334A10.374999999999998 10.374999999999998 0 0 0 489.5416666666666 440.8750000000001L423.125 374.5833333333335A41.666666666666664 41.666666666666664 0 1 1 482.0416666666666 315.625L548.3333333333333 381.9166666666667A10.416666666666666 10.416666666666666 0 0 0 563.0416666666665 381.9166666666667L577.7916666666665 367.1666666666667A10.374999999999998 10.374999999999998 0 0 0 577.7916666666665 352.4166666666668L541.6666666666666 316.25A41.666666666666664 41.666666666666664 0 1 1 600.5833333333333 257.3333333333333L636.875 293.6249999999999A10.458333333333334 10.458333333333334 0 0 0 651.4999999999999 293.6249999999999C661.0833333333333 284.3333333333333 676.8333333333333 269.1666666666667 677.7916666666666 268.6249999999999C634.5416666666666 198.1249999999999 657.5416666666666 112.8333333333332 722.5833333333333 47.7916666666665A16.666666666666664 16.666666666666664 0 0 1 751.3749999999999 60.2916666666665A184.41666666666666 184.41666666666666 0 0 0 943.4166666666666 252.5833333333334zM347.375 736.25A39.37499999999999 39.37499999999999 0 1 0 319.5 803.4583333333333H319.5A39.416666666666664 39.416666666666664 0 0 0 347.375 736.25z" />
    <glyph glyph-name="check-circle-1"
      unicode="&#xF120;"
      horiz-adv-x="1000" d="M500 1000A500 500 0 1 1 1000 500A500.5833333333333 500.5833333333333 0 0 1 500 1000zM788.6249999999999 658.3333333333334L503.4166666666667 271.2916666666669A42.12499999999999 42.12499999999999 0 0 0 443.8333333333334 263.4583333333335L240.1666666666667 426.2916666666668A41.666666666666664 41.666666666666664 0 1 0 292.25 491.375L462.0833333333333 355.5L721.5416666666666 707.625A41.666666666666664 41.666666666666664 0 1 0 788.6249999999999 658.3333333333334z" />
    <glyph glyph-name="check-circle-1-1"
      unicode="&#x63;&#x68;&#x65;&#x63;&#x6B;&#x2D;&#x63;&#x69;&#x72;&#x63;&#x6C;&#x65;&#x2D;&#x31;"
      horiz-adv-x="1000" d="M500 1000A500 500 0 1 1 1000 500A500.5833333333333 500.5833333333333 0 0 1 500 1000zM788.6249999999999 658.3333333333334L503.4166666666667 271.2916666666669A42.12499999999999 42.12499999999999 0 0 0 443.8333333333335 263.4583333333335L240.1666666666667 426.2916666666668A41.666666666666664 41.666666666666664 0 1 0 292.25 491.375L462.0833333333333 355.5L721.5416666666666 707.625A41.666666666666664 41.666666666666664 0 1 0 788.6249999999999 658.3333333333334z" />
    <glyph glyph-name="check"
      unicode="&#xF121;"
      horiz-adv-x="1000" d="M964.4166666666666 775L848.0833333333333 891.6666666666666A20.833333333333332 20.833333333333332 0 0 1 818.5833333333334 891.6666666666666L327.25 400A20.833333333333332 20.833333333333332 0 0 0 297.75 400L181.4166666666667 516.6666666666667A20.833333333333332 20.833333333333332 0 0 1 151.9166666666667 516.6666666666667L35.5833333333333 400A20.833333333333332 20.833333333333332 0 0 1 35.5833333333333 370.5416666666667L297.75 108.3333333333335A20.833333333333332 20.833333333333332 0 0 1 327.25 108.3333333333335L964.4166666666666 745.8333333333334A20.833333333333332 20.833333333333332 0 0 1 964.4166666666666 775z" />
    <glyph glyph-name="check-1"
      unicode="&#x63;&#x68;&#x65;&#x63;&#x6B;"
      horiz-adv-x="1000" d="M964.4166666666666 775L848.0833333333333 891.6666666666666A20.833333333333332 20.833333333333332 0 0 1 818.5833333333334 891.6666666666666L327.25 400A20.833333333333332 20.833333333333332 0 0 0 297.75 400L181.4166666666667 516.6666666666667A20.833333333333332 20.833333333333332 0 0 1 151.9166666666667 516.6666666666667L35.5833333333333 400A20.833333333333332 20.833333333333332 0 0 1 35.5833333333333 370.5416666666667L297.75 108.3333333333335A20.833333333333332 20.833333333333332 0 0 1 327.25 108.3333333333335L964.4166666666666 745.8333333333334A20.833333333333332 20.833333333333332 0 0 1 964.4166666666666 775z" />
    <glyph glyph-name="close"
      unicode="&#xF122;"
      horiz-adv-x="1000" d="M595.8333333333334 492.5416666666667A10.416666666666666 10.416666666666666 0 0 0 595.8333333333334 507.2916666666666L981.7916666666669 893.2083333333333A62.5 62.5 0 0 1 893.2916666666666 981.5833333333334L507.3749999999999 595.8333333333334A10.416666666666666 10.416666666666666 0 0 0 492.625 595.8333333333334L106.7083333333333 981.5833333333334A62.5 62.5 0 0 1 18.2916666666667 893.2083333333334L404.1666666666667 507.2916666666667A10.416666666666666 10.416666666666666 0 0 0 404.1666666666667 492.5416666666667L18.2916666666667 106.5833333333334A62.5 62.5 0 0 1 106.7083333333333 18.2083333333335L492.625 404.1666666666667A10.416666666666666 10.416666666666666 0 0 0 507.3749999999999 404.1666666666667L893.2916666666666 18.2083333333333A62.5 62.5 0 0 1 981.7083333333331 106.5833333333333z" />
    </font>
</defs>
</svg>
