<?xml version="1.0" standalone="no"?>
<!DOCTYPE svg PUBLIC "-//W3C//DTD SVG 1.1//EN" "http://www.w3.org/Graphics/SVG/1.1/DTD/svg11.dtd" >
<svg xmlns="http://www.w3.org/2000/svg">
<defs>
  <font id="SzIcon-Bold" horiz-adv-x="1000">
    <font-face font-family="SzIcon-Bold"
      units-per-em="1000" ascent="860"
      descent="140" />
    <missing-glyph horiz-adv-x="0" />
    <glyph glyph-name="accounting-document"
      unicode="&#xF101;"
      horiz-adv-x="1000" d="M898.375 616.0833333333334L672.75 841.7083333333334A62.9583333333333 62.9583333333333 0 0 1 628.5833333333333 860H145.8333333333333A62.5 62.5 0 0 1 83.3333333333333 797.5V-77.5A62.5 62.5 0 0 1 145.8333333333333 -140H895.8333333333333A20.8333333333333 20.8333333333333 0 0 1 916.6666666666666 -119.1666666666666V571.9166666666667A62.0833333333333 62.0833333333333 0 0 1 898.375 616.0833333333334zM409.0416666666667 394.0416666666667L268.625 446.5416666666667A106.25 106.25 0 0 0 208.3333333333333 549.375A105.375 105.375 0 0 0 303.7083333333333 655A10.375 10.375 0 0 1 312.5 665.2916666666667V693.3333333333334A41.6666666666667 41.6666666666667 0 0 0 395.8333333333333 693.3333333333334V667.2916666666667A10.4166666666667 10.4166666666667 0 0 1 406.25 656.875H458.3333333333333A41.6666666666667 41.6666666666667 0 0 0 458.3333333333333 573.5416666666667H328.125C291.6666666666667 573.5416666666667 291.6666666666667 555.375 291.6666666666667 549.375A37.5 37.5 0 0 1 299.2916666666667 523.875L439.7083333333333 471.375A106.25 106.25 0 0 0 500 368.3333333333333A105.375 105.375 0 0 0 404.625 262.9166666666668A10.375 10.375 0 0 1 395.8333333333333 252.625V224.5833333333334A41.6666666666667 41.6666666666667 0 0 0 312.5 224.5833333333334V250.625A10.4166666666667 10.4166666666667 0 0 1 302.0833333333333 261.0416666666668H250A41.6666666666667 41.6666666666667 0 0 0 250 344.375H380.2083333333333C416.6666666666667 344.375 416.6666666666667 362.5416666666667 416.6666666666667 368.5416666666667A37.5 37.5 0 0 1 409.0416666666667 394.0416666666667zM770.8333333333333 245.4166666666668A31.25 31.25 0 0 0 770.8333333333333 182.9166666666668H562.5A31.25 31.25 0 0 0 562.5 245.4166666666668zM614.5833333333333 401.6666666666667A31.25 31.25 0 0 0 645.8333333333333 432.9166666666667H770.8333333333333A31.25 31.25 0 0 0 770.8333333333333 370.4166666666667H645.8333333333333A31.25 31.25 0 0 0 614.5833333333333 401.6666666666667zM770.8333333333333 57.9166666666667A31.25 31.25 0 0 0 770.8333333333333 -4.5833333333333H354.1666666666667A31.25 31.25 0 0 0 354.1666666666667 57.9166666666667z" />
    <glyph glyph-name="accounting-document-1"
      unicode="&#x61;&#x63;&#x63;&#x6F;&#x75;&#x6E;&#x74;&#x69;&#x6E;&#x67;&#x2D;&#x64;&#x6F;&#x63;&#x75;&#x6D;&#x65;&#x6E;&#x74;"
      horiz-adv-x="1000" d="M898.375 616.0833333333334L672.75 841.7083333333334A62.9583333333333 62.9583333333333 0 0 1 628.5833333333333 860H145.8333333333333A62.5 62.5 0 0 1 83.3333333333333 797.5V-77.5A62.5 62.5 0 0 1 145.8333333333333 -140H895.8333333333333A20.8333333333333 20.8333333333333 0 0 1 916.6666666666666 -119.1666666666666V571.9166666666667A62.0833333333333 62.0833333333333 0 0 1 898.375 616.0833333333334zM409.0416666666667 394.0416666666667L268.625 446.5416666666667A106.25 106.25 0 0 0 208.3333333333333 549.375A105.375 105.375 0 0 0 303.7083333333333 655A10.375 10.375 0 0 1 312.5 665.2916666666667V693.3333333333334A41.6666666666667 41.6666666666667 0 0 0 395.8333333333333 693.3333333333334V667.2916666666667A10.4166666666667 10.4166666666667 0 0 1 406.25 656.875H458.3333333333333A41.6666666666667 41.6666666666667 0 0 0 458.3333333333333 573.5416666666667H328.125C291.6666666666667 573.5416666666667 291.6666666666667 555.375 291.6666666666667 549.375A37.5 37.5 0 0 1 299.2916666666667 523.875L439.7083333333333 471.375A106.25 106.25 0 0 0 500 368.3333333333333A105.375 105.375 0 0 0 404.625 262.9166666666668A10.375 10.375 0 0 1 395.8333333333333 252.625V224.5833333333334A41.6666666666667 41.6666666666667 0 0 0 312.5 224.5833333333334V250.625A10.4166666666667 10.4166666666667 0 0 1 302.0833333333333 261.0416666666668H250A41.6666666666667 41.6666666666667 0 0 0 250 344.375H380.2083333333333C416.6666666666667 344.375 416.6666666666667 362.5416666666667 416.6666666666667 368.5416666666667A37.5 37.5 0 0 1 409.0416666666667 394.0416666666667zM770.8333333333333 245.4166666666668A31.25 31.25 0 0 0 770.8333333333333 182.9166666666668H562.5A31.25 31.25 0 0 0 562.5 245.4166666666668zM614.5833333333333 401.6666666666667A31.25 31.25 0 0 0 645.8333333333333 432.9166666666667H770.8333333333333A31.25 31.25 0 0 0 770.8333333333333 370.4166666666667H645.8333333333333A31.25 31.25 0 0 0 614.5833333333333 401.6666666666667zM770.8333333333333 57.9166666666667A31.25 31.25 0 0 0 770.8333333333333 -4.5833333333333H354.1666666666667A31.25 31.25 0 0 0 354.1666666666667 57.9166666666667z" />
    <glyph glyph-name="add-circle"
      unicode="&#xF102;"
      horiz-adv-x="1000" d="M500 -119.1666666666666A479.1666666666666 479.1666666666666 0 1 1 20.8333333333333 360A479.7083333333333 479.7083333333333 0 0 1 500 -119.1666666666666zM250 401.6666666666667H447.9166666666667A10.4166666666667 10.4166666666667 0 0 1 458.3333333333333 412.0833333333334V610A41.6666666666667 41.6666666666667 0 0 0 541.6666666666666 610V412.0833333333334A10.4166666666667 10.4166666666667 0 0 1 552.0833333333333 401.6666666666667H750A41.6666666666667 41.6666666666667 0 0 0 750 318.3333333333334H552.0833333333333A10.4166666666667 10.4166666666667 0 0 1 541.6666666666666 307.9166666666668V110A41.6666666666667 41.6666666666667 0 0 0 458.3333333333333 110V307.9166666666668A10.4166666666667 10.4166666666667 0 0 1 447.9166666666667 318.3333333333334H250A41.6666666666667 41.6666666666667 0 0 0 250 401.6666666666667z" />
    <glyph glyph-name="add-circle-1"
      unicode="&#x61;&#x64;&#x64;&#x2D;&#x63;&#x69;&#x72;&#x63;&#x6C;&#x65;"
      horiz-adv-x="1000" d="M500 -119.1666666666666A479.1666666666666 479.1666666666666 0 1 1 20.8333333333333 360A479.7083333333333 479.7083333333333 0 0 1 500 -119.1666666666666zM250 401.6666666666667H447.9166666666667A10.4166666666667 10.4166666666667 0 0 1 458.3333333333333 412.0833333333335V610A41.6666666666667 41.6666666666667 0 0 0 541.6666666666666 610V412.0833333333335A10.4166666666667 10.4166666666667 0 0 1 552.0833333333333 401.6666666666667H750A41.6666666666667 41.6666666666667 0 0 0 750 318.3333333333335H552.0833333333333A10.4166666666667 10.4166666666667 0 0 1 541.6666666666666 307.9166666666668V110A41.6666666666667 41.6666666666667 0 0 0 458.3333333333333 110V307.9166666666668A10.4166666666667 10.4166666666667 0 0 1 447.9166666666667 318.3333333333335H250A41.6666666666667 41.6666666666667 0 0 0 250 401.6666666666667z" />
    <glyph glyph-name="add-square"
      unicode="&#xF103;"
      horiz-adv-x="1000" d="M979.1666666666666 776.6666666666666A62.5 62.5 0 0 1 916.6666666666666 839.1666666666666H83.3333333333333A62.5 62.5 0 0 1 20.8333333333333 776.6666666666666V-56.6666666666666A62.5 62.5 0 0 1 83.3333333333333 -119.1666666666666H916.6666666666666A62.5 62.5 0 0 1 979.1666666666666 -56.6666666666666zM250 318.3333333333334A41.6666666666667 41.6666666666667 0 0 0 250 401.6666666666667H447.9166666666667A10.4166666666667 10.4166666666667 0 0 1 458.3333333333333 412.0833333333334V610A41.6666666666667 41.6666666666667 0 0 0 541.6666666666666 610V412.0833333333334A10.4166666666667 10.4166666666667 0 0 1 552.0833333333333 401.6666666666667H750A41.6666666666667 41.6666666666667 0 0 0 750 318.3333333333334H552.0833333333333A10.4166666666667 10.4166666666667 0 0 1 541.6666666666666 307.9166666666668V110A41.6666666666667 41.6666666666667 0 0 0 458.3333333333333 110V307.9166666666668A10.4166666666667 10.4166666666667 0 0 1 447.9166666666667 318.3333333333334z" />
    <glyph glyph-name="add-square-1"
      unicode="&#x61;&#x64;&#x64;&#x2D;&#x73;&#x71;&#x75;&#x61;&#x72;&#x65;"
      horiz-adv-x="1000" d="M979.1666666666666 776.6666666666666A62.5 62.5 0 0 1 916.6666666666666 839.1666666666666H83.3333333333333A62.5 62.5 0 0 1 20.8333333333333 776.6666666666666V-56.6666666666666A62.5 62.5 0 0 1 83.3333333333333 -119.1666666666666H916.6666666666666A62.5 62.5 0 0 1 979.1666666666666 -56.6666666666666zM250 318.3333333333335A41.6666666666667 41.6666666666667 0 0 0 250 401.6666666666667H447.9166666666667A10.4166666666667 10.4166666666667 0 0 1 458.3333333333333 412.0833333333335V610A41.6666666666667 41.6666666666667 0 0 0 541.6666666666666 610V412.0833333333335A10.4166666666667 10.4166666666667 0 0 1 552.0833333333333 401.6666666666667H750A41.6666666666667 41.6666666666667 0 0 0 750 318.3333333333335H552.0833333333333A10.4166666666667 10.4166666666667 0 0 1 541.6666666666666 307.9166666666668V110A41.6666666666667 41.6666666666667 0 0 0 458.3333333333333 110V307.9166666666668A10.4166666666667 10.4166666666667 0 0 1 447.9166666666667 318.3333333333335z" />
    <glyph glyph-name="agriculture-machine-tractor"
      unicode="&#xF104;"
      horiz-adv-x="1000" d="M739.5833333333333 287.0833333333334A166.6666666666667 166.6666666666667 0 1 1 906.25 120.4166666666668A166.6666666666667 166.6666666666667 0 0 1 739.5833333333333 287.0833333333334zM739.5833333333333 57.9166666666667A62.5 62.5 0 1 0 802.0833333333333 120.4166666666668A62.5 62.5 0 0 0 739.5833333333333 57.9166666666667zM993.2916666666666 284.3333333333334A302.0416666666666 302.0416666666666 0 0 1 868.9583333333333 393.3333333333334A20.8333333333333 20.8333333333333 0 0 0 857.5 407.7916666666667L808.3333333333333 637.7916666666667A20.8333333333333 20.8333333333333 0 0 0 812.9166666666665 655.7916666666667A41.25 41.25 0 0 1 822.9999999999999 682.9166666666667V703.75A62.5 62.5 0 0 1 760.4999999999999 766.25H385.5A62.5 62.5 0 0 1 323 703.75V682.9166666666667A41.3333333333333 41.3333333333333 0 0 1 332.4583333333333 656.5416666666667A20.8333333333333 20.8333333333333 0 0 0 336.625 638.2083333333334L288.9583333333333 448A20.8333333333333 20.8333333333333 0 0 0 272.2916666666667 432.5000000000001A681.7916666666665 681.7916666666665 0 0 1 59.7916666666667 362.4583333333335A114.6666666666667 114.6666666666667 0 0 1 0 261.9166666666668V78.5833333333335A72.9583333333333 72.9583333333333 0 0 1 41.1666666666667 12.9583333333335A10.4583333333333 10.4583333333333 0 0 1 55.875 24.7083333333335A143.9583333333333 143.9583333333333 0 0 0 52.0833333333333 57.7500000000001A145.8333333333334 145.8333333333334 0 0 0 343.75 57.7500000000001A144.0833333333333 144.0833333333333 0 0 0 341.1666666666667 30.4166666666669A20.8333333333333 20.8333333333333 0 0 1 361.6666666666667 5.6666666666669H447.9166666666667A73 73 0 0 1 520.8333333333333 78.5833333333335V120.2500000000001A218.75 218.75 0 0 0 923.375 239.1666666666668A41.6666666666667 41.6666666666667 0 1 1 993.2916666666669 284.4583333333334zM343.75 245.4166666666668H239.5833333333333A20.8333333333333 20.8333333333333 0 0 0 239.5833333333333 287.0833333333334H343.75A20.8333333333333 20.8333333333333 0 0 0 343.75 245.4166666666668zM759.5 430.125A20.8333333333333 20.8333333333333 0 0 0 743.125 422.5A305.375 305.375 0 0 1 690.5000000000001 418.3333333333334A10.4166666666667 10.4166666666667 0 0 0 678.5000000000001 430.0833333333334L687.2083333333334 490.8333333333334A31.2916666666667 31.2916666666667 0 1 1 625.2916666666667 499.6666666666667L611.625 403.8333333333333A20.8333333333333 20.8333333333333 0 0 0 600.6250000000001 388.2916666666667A304.1666666666667 304.1666666666667 0 0 1 463.7916666666668 243.2916666666668A14.5416666666667 14.5416666666667 0 0 0 450.5416666666668 234.7083333333334A17.7083333333333 17.7083333333333 0 0 0 432.9166666666668 250.625L419.6250000000001 383.4583333333334A20.8333333333333 20.8333333333333 0 0 0 428.9583333333335 402.9583333333334L468.1666666666668 428.6250000000001A20.8333333333333 20.8333333333333 0 0 0 492.4583333333335 427.6250000000001A32.0416666666667 32.0416666666667 0 0 1 527.7500000000001 427.6250000000001A31.2083333333333 31.2083333333333 0 0 1 536.4166666666669 470.9583333333334L494.7500000000002 533.4583333333334A31.25 31.25 0 0 1 439.6250000000001 504.7500000000001A20.8333333333333 20.8333333333333 0 0 0 431.7083333333335 479.7500000000001L395.4583333333336 456.0416666666667A10.2916666666667 10.2916666666667 0 0 0 383.75 456.2500000000001A10.4166666666667 10.4166666666667 0 0 0 379.5833333333334 467.25L419.125 625.5833333333334A20.8333333333333 20.8333333333333 0 0 0 439.3333333333333 641.375H705.4166666666666A20.8333333333333 20.8333333333333 0 0 0 725.7916666666666 624.7083333333334L763.7499999999999 447.5A20.8333333333333 20.8333333333333 0 0 0 759.5 430.125zM93.75 57.9166666666667A104.1666666666667 104.1666666666667 0 0 1 302.0833333333333 57.9166666666667A104.1666666666667 104.1666666666667 0 0 1 93.75 57.9166666666667" />
    <glyph glyph-name="agriculture-machine-tractor-1"
      unicode="&#x61;&#x67;&#x72;&#x69;&#x63;&#x75;&#x6C;&#x74;&#x75;&#x72;&#x65;&#x2D;&#x6D;&#x61;&#x63;&#x68;&#x69;&#x6E;&#x65;&#x2D;&#x74;&#x72;&#x61;&#x63;&#x74;&#x6F;&#x72;"
      horiz-adv-x="1000" d="M739.5833333333333 287.0833333333335A166.6666666666667 166.6666666666667 0 1 1 906.25 120.4166666666668A166.6666666666667 166.6666666666667 0 0 1 739.5833333333333 287.0833333333335zM739.5833333333333 57.9166666666667A62.5 62.5 0 1 0 802.0833333333333 120.4166666666668A62.5 62.5 0 0 0 739.5833333333333 57.9166666666667zM993.2916666666666 284.3333333333335A302.0416666666666 302.0416666666666 0 0 1 868.9583333333333 393.3333333333335A20.8333333333333 20.8333333333333 0 0 0 857.5 407.7916666666667L808.3333333333333 637.7916666666667A20.8333333333333 20.8333333333333 0 0 0 812.9166666666665 655.7916666666667A41.25 41.25 0 0 1 822.9999999999999 682.9166666666667V703.75A62.5 62.5 0 0 1 760.4999999999999 766.25H385.5A62.5 62.5 0 0 1 323 703.75V682.9166666666667A41.3333333333333 41.3333333333333 0 0 1 332.4583333333333 656.5416666666667A20.8333333333333 20.8333333333333 0 0 0 336.625 638.2083333333334L288.9583333333333 448A20.8333333333333 20.8333333333333 0 0 0 272.2916666666667 432.5000000000001A681.7916666666665 681.7916666666665 0 0 1 59.7916666666667 362.4583333333335A114.6666666666667 114.6666666666667 0 0 1 0 261.9166666666668V78.5833333333335A72.9583333333333 72.9583333333333 0 0 1 41.1666666666667 12.9583333333335A10.4583333333333 10.4583333333333 0 0 1 55.875 24.7083333333335A143.9583333333333 143.9583333333333 0 0 0 52.0833333333333 57.7500000000001A145.8333333333334 145.8333333333334 0 0 0 343.75 57.7500000000001A144.0833333333333 144.0833333333333 0 0 0 341.1666666666667 30.4166666666669A20.8333333333333 20.8333333333333 0 0 1 361.6666666666667 5.6666666666669H447.9166666666667A73 73 0 0 1 520.8333333333333 78.5833333333335V120.2500000000001A218.75 218.75 0 0 0 923.375 239.1666666666668A41.6666666666667 41.6666666666667 0 1 1 993.2916666666669 284.4583333333335zM343.75 245.4166666666668H239.5833333333333A20.8333333333333 20.8333333333333 0 0 0 239.5833333333333 287.0833333333335H343.75A20.8333333333333 20.8333333333333 0 0 0 343.75 245.4166666666668zM759.5 430.125A20.8333333333333 20.8333333333333 0 0 0 743.125 422.5A305.375 305.375 0 0 1 690.5000000000001 418.3333333333335A10.4166666666667 10.4166666666667 0 0 0 678.5000000000001 430.0833333333335L687.2083333333334 490.8333333333334A31.2916666666667 31.2916666666667 0 1 1 625.2916666666667 499.6666666666667L611.625 403.8333333333333A20.8333333333333 20.8333333333333 0 0 0 600.6250000000001 388.2916666666667A304.1666666666667 304.1666666666667 0 0 1 463.7916666666668 243.2916666666668A14.5416666666667 14.5416666666667 0 0 0 450.5416666666668 234.7083333333334A17.7083333333333 17.7083333333333 0 0 0 432.9166666666668 250.625L419.6250000000001 383.4583333333335A20.8333333333333 20.8333333333333 0 0 0 428.9583333333335 402.9583333333335L468.1666666666668 428.6250000000001A20.8333333333333 20.8333333333333 0 0 0 492.4583333333335 427.6250000000001A32.0416666666667 32.0416666666667 0 0 1 527.7500000000001 427.6250000000001A31.2083333333333 31.2083333333333 0 0 1 536.4166666666669 470.9583333333334L494.7500000000002 533.4583333333334A31.25 31.25 0 0 1 439.6250000000001 504.7500000000001A20.8333333333333 20.8333333333333 0 0 0 431.7083333333335 479.7500000000001L395.4583333333336 456.0416666666667A10.2916666666667 10.2916666666667 0 0 0 383.75 456.2500000000001A10.4166666666667 10.4166666666667 0 0 0 379.5833333333335 467.25L419.125 625.5833333333334A20.8333333333333 20.8333333333333 0 0 0 439.3333333333333 641.375H705.4166666666666A20.8333333333333 20.8333333333333 0 0 0 725.7916666666666 624.7083333333334L763.7499999999999 447.5A20.8333333333333 20.8333333333333 0 0 0 759.5 430.125zM93.75 57.9166666666667A104.1666666666667 104.1666666666667 0 0 1 302.0833333333333 57.9166666666667A104.1666666666667 104.1666666666667 0 0 1 93.75 57.9166666666667" />
    <glyph glyph-name="alarm-bell"
      unicode="&#xF105;"
      horiz-adv-x="1000" d="M875 130.8333333333334A62.5 62.5 0 0 0 812.5 193.3333333333334V395.9166666666667A331.5416666666667 331.5416666666667 0 0 1 541.6666666666666 731.9583333333334V818.3333333333334A41.6666666666667 41.6666666666667 0 0 1 458.3333333333333 818.3333333333334V731.9583333333334A331.5416666666667 331.5416666666667 0 0 1 187.5 395.9166666666667V193.3333333333334A62.5 62.5 0 0 0 125 130.8333333333334A41.6666666666667 41.6666666666667 0 0 1 125 47.5H875A41.6666666666667 41.6666666666667 0 0 1 875 130.8333333333334zM593.1666666666666 -15H406.8333333333333A10.4166666666667 10.4166666666667 0 0 1 396.5 -24.25A96.625 96.625 0 0 1 395.8333333333333 -35.8333333333333A104.1666666666667 104.1666666666667 0 1 1 604.1666666666666 -35.8333333333333A96.625 96.625 0 0 1 603.5 -24.25A10.3333333333333 10.3333333333333 0 0 1 593.1666666666666 -15z" />
    <glyph glyph-name="alarm-bell-1"
      unicode="&#x61;&#x6C;&#x61;&#x72;&#x6D;&#x2D;&#x62;&#x65;&#x6C;&#x6C;"
      horiz-adv-x="1000" d="M875 130.8333333333334A62.5 62.5 0 0 0 812.5 193.3333333333334V395.9166666666667A331.5416666666667 331.5416666666667 0 0 1 541.6666666666666 731.9583333333334V818.3333333333334A41.6666666666667 41.6666666666667 0 0 1 458.3333333333333 818.3333333333334V731.9583333333334A331.5416666666667 331.5416666666667 0 0 1 187.5 395.9166666666667V193.3333333333334A62.5 62.5 0 0 0 125 130.8333333333334A41.6666666666667 41.6666666666667 0 0 1 125 47.5H875A41.6666666666667 41.6666666666667 0 0 1 875 130.8333333333334zM593.1666666666666 -15H406.8333333333333A10.4166666666667 10.4166666666667 0 0 1 396.5 -24.25A96.625 96.625 0 0 1 395.8333333333333 -35.8333333333333A104.1666666666667 104.1666666666667 0 1 1 604.1666666666666 -35.8333333333333A96.625 96.625 0 0 1 603.5 -24.25A10.3333333333333 10.3333333333333 0 0 1 593.1666666666666 -15z" />
    <glyph glyph-name="alert-diamond"
      unicode="&#xF106;"
      horiz-adv-x="1000" d="M958.3333333333331 418.9166666666667L558.9166666666666 818.3333333333334A83.3333333333333 83.3333333333333 0 0 1 441.0833333333333 818.3333333333334L41.6666666666667 418.8750000000001A83.3333333333333 83.3333333333333 0 0 1 41.6666666666667 301.0416666666668H41.6666666666667L441.0833333333333 -98.3333333333333A83.3333333333333 83.3333333333333 0 0 1 558.9166666666666 -98.3333333333333L958.3333333333331 301.0416666666668A83.3333333333333 83.3333333333333 0 0 1 958.3333333333331 418.9166666666667zM461.1666666666666 592.625A41.6666666666667 41.6666666666667 0 0 0 544.5 592.625V342.625A41.6666666666667 41.6666666666667 0 0 0 461.1666666666666 342.625zM504.9583333333333 113.0416666666668H503.7916666666666A63.7083333333333 63.7083333333333 0 0 0 440.375 174.2916666666666A61.4583333333333 61.4583333333333 0 0 0 500.7083333333333 238.0416666666667H501.8749999999999A63.625 63.625 0 0 0 565.2916666666666 176.7916666666666A61.4583333333333 61.4583333333333 0 0 0 504.9583333333333 113.0416666666668z" />
    <glyph glyph-name="alert-diamond-1"
      unicode="&#x61;&#x6C;&#x65;&#x72;&#x74;&#x2D;&#x64;&#x69;&#x61;&#x6D;&#x6F;&#x6E;&#x64;"
      horiz-adv-x="1000" d="M958.3333333333331 418.9166666666667L558.9166666666666 818.3333333333334A83.3333333333333 83.3333333333333 0 0 1 441.0833333333333 818.3333333333334L41.6666666666667 418.8750000000001A83.3333333333333 83.3333333333333 0 0 1 41.6666666666667 301.0416666666668H41.6666666666667L441.0833333333333 -98.3333333333333A83.3333333333333 83.3333333333333 0 0 1 558.9166666666666 -98.3333333333333L958.3333333333331 301.0416666666668A83.3333333333333 83.3333333333333 0 0 1 958.3333333333331 418.9166666666667zM461.1666666666666 592.625A41.6666666666667 41.6666666666667 0 0 0 544.5 592.625V342.625A41.6666666666667 41.6666666666667 0 0 0 461.1666666666666 342.625zM504.9583333333333 113.0416666666668H503.7916666666666A63.7083333333333 63.7083333333333 0 0 0 440.375 174.2916666666666A61.4583333333333 61.4583333333333 0 0 0 500.7083333333333 238.0416666666667H501.8749999999999A63.625 63.625 0 0 0 565.2916666666666 176.7916666666666A61.4583333333333 61.4583333333333 0 0 0 504.9583333333333 113.0416666666668z" />
    <glyph glyph-name="alert-triangle"
      unicode="&#xF107;"
      horiz-adv-x="1000" d="M963.2916666666666 26.6666666666667L573.8333333333333 770.4166666666666H573.8333333333333A83.3333333333333 83.3333333333333 0 0 1 426.2083333333333 770.4166666666666L36.7083333333333 26.6666666666667A83.3333333333333 83.3333333333333 0 0 1 110.5416666666667 -95.3333333333333H889.4583333333334A83.3333333333333 83.3333333333333 0 0 1 963.2916666666666 26.6666666666667zM458.3333333333333 509.0416666666667A41.6666666666667 41.6666666666667 0 0 0 541.6666666666666 509.0416666666667V259.0416666666668A41.6666666666667 41.6666666666667 0 1 0 458.3333333333333 259.0416666666668zM502.0833333333333 29.4583333333334H500.9166666666666A63.6666666666667 63.6666666666667 0 0 0 437.5 90.7083333333334A61.5 61.5 0 0 0 497.8333333333333 154.4583333333334H499A63.625 63.625 0 0 0 562.5 93.3333333333335A61.4583333333333 61.4583333333333 0 0 0 502.0833333333333 29.4583333333334z" />
    <glyph glyph-name="alert-triangle-1"
      unicode="&#x61;&#x6C;&#x65;&#x72;&#x74;&#x2D;&#x74;&#x72;&#x69;&#x61;&#x6E;&#x67;&#x6C;&#x65;"
      horiz-adv-x="1000" d="M963.2916666666666 26.6666666666667L573.8333333333333 770.4166666666666H573.8333333333333A83.3333333333333 83.3333333333333 0 0 1 426.2083333333333 770.4166666666666L36.7083333333333 26.6666666666667A83.3333333333333 83.3333333333333 0 0 1 110.5416666666667 -95.3333333333333H889.4583333333334A83.3333333333333 83.3333333333333 0 0 1 963.2916666666666 26.6666666666667zM458.3333333333333 509.0416666666667A41.6666666666667 41.6666666666667 0 0 0 541.6666666666666 509.0416666666667V259.0416666666668A41.6666666666667 41.6666666666667 0 1 0 458.3333333333333 259.0416666666668zM502.0833333333333 29.4583333333334H500.9166666666666A63.6666666666667 63.6666666666667 0 0 0 437.5 90.7083333333334A61.5 61.5 0 0 0 497.8333333333333 154.4583333333334H499A63.625 63.625 0 0 0 562.5 93.3333333333335A61.4583333333333 61.4583333333333 0 0 0 502.0833333333333 29.4583333333334z" />
    <glyph glyph-name="analytics-bars-circle"
      unicode="&#xF108;"
      horiz-adv-x="1000" d="M145.8333333333333 31.9583333333334A41.6666666666667 41.6666666666667 0 0 1 178 100.0833333333334A417.0416666666667 417.0416666666667 0 0 0 83.3333333333333 362.2083333333334A41.6666666666667 41.6666666666667 0 0 1 41.6666666666667 403.6666666666667H41.6666666666667A41.6666666666667 41.6666666666667 0 0 1 0 361.7916666666667A500.9583333333333 500.9583333333333 0 0 1 113.4583333333333 47.1666666666666A41.6666666666667 41.6666666666667 0 0 1 145.8333333333333 31.9583333333334zM640.4166666666666 -28.0833333333333A420.8333333333333 420.8333333333333 0 0 0 361.625 -28.7916666666666A41.6666666666667 41.6666666666667 0 1 1 333.9583333333333 -107.4166666666666A502.0416666666666 502.0416666666666 0 0 1 668.4999999999999 -106.5416666666666A41.6666666666667 41.6666666666667 0 0 1 640.4166666666665 -28.0833333333333zM994.6666666666666 437.4583333333334A41.6666666666667 41.6666666666667 0 1 1 912.2499999999998 425.3333333333333A425 425 0 0 0 916.6666666666666 364.1666666666667A417.4166666666667 417.4166666666667 0 0 0 823.4999999999999 101.6666666666667A41.6666666666667 41.6666666666667 0 0 1 888.1666666666666 49.0833333333334A500.7916666666666 500.7916666666666 0 0 1 994.6666666666666 437.4166666666667zM820.8333333333333 630.2083333333334A41.6666666666667 41.6666666666667 0 0 1 884.9583333333334 683.4166666666667A500.7500000000001 500.7500000000001 0 0 1 597.7083333333334 854.7916666666666A41.6666666666667 41.6666666666667 0 0 1 581.5 773.0416666666667A417.25 417.25 0 0 0 820.8333333333333 630.2083333333334zM329.1666666666667 834.4166666666666A502.4166666666666 502.4166666666666 0 0 1 71.125 621.5416666666667A41.6666666666667 41.6666666666667 0 0 1 142.5833333333334 578.625A418.7083333333333 418.7083333333333 0 0 0 357.7083333333334 756.0833333333334A41.6666666666667 41.6666666666667 0 0 1 329.1666666666667 834.4166666666666zM229.1666666666667 176.6666666666668A41.6666666666667 41.6666666666667 0 0 1 270.8333333333333 135.0000000000001H750A41.6666666666667 41.6666666666667 0 0 1 750 218.3333333333335H270.8333333333333A41.6666666666667 41.6666666666667 0 0 1 229.1666666666667 176.6666666666668zM291.6666666666667 478.9166666666666H333.3333333333333A41.6666666666667 41.6666666666667 0 0 0 375 437.25V312.25A41.6666666666667 41.6666666666667 0 0 0 333.3333333333333 270.5833333333334H291.6666666666667A41.6666666666667 41.6666666666667 0 0 0 250 312.25V437.25A41.6666666666667 41.6666666666667 0 0 0 291.6666666666667 478.9166666666666zM479.1666666666666 562.25H520.8333333333333A41.6666666666667 41.6666666666667 0 0 0 562.5 520.5833333333333V312.25A41.6666666666667 41.6666666666667 0 0 0 520.8333333333333 270.5833333333334H479.1666666666666A41.6666666666667 41.6666666666667 0 0 0 437.5 312.25V520.5833333333333A41.6666666666667 41.6666666666667 0 0 0 479.1666666666666 562.25zM666.6666666666666 624.75H708.3333333333333A41.6666666666667 41.6666666666667 0 0 0 750 583.0833333333334V312.25A41.6666666666667 41.6666666666667 0 0 0 708.3333333333333 270.5833333333334H666.6666666666666A41.6666666666667 41.6666666666667 0 0 0 625 312.25V583.0833333333333A41.6666666666667 41.6666666666667 0 0 0 666.6666666666666 624.75z" />
    <glyph glyph-name="analytics-bars-circle-1"
      unicode="&#x61;&#x6E;&#x61;&#x6C;&#x79;&#x74;&#x69;&#x63;&#x73;&#x2D;&#x62;&#x61;&#x72;&#x73;&#x2D;&#x63;&#x69;&#x72;&#x63;&#x6C;&#x65;"
      horiz-adv-x="1000" d="M145.8333333333333 31.9583333333334A41.6666666666667 41.6666666666667 0 0 1 178 100.0833333333334A417.0416666666667 417.0416666666667 0 0 0 83.3333333333333 362.2083333333335A41.6666666666667 41.6666666666667 0 0 1 41.6666666666667 403.6666666666667H41.6666666666667A41.6666666666667 41.6666666666667 0 0 1 0 361.7916666666667A500.9583333333333 500.9583333333333 0 0 1 113.4583333333333 47.1666666666666A41.6666666666667 41.6666666666667 0 0 1 145.8333333333333 31.9583333333334zM640.4166666666666 -28.0833333333333A420.8333333333333 420.8333333333333 0 0 0 361.625 -28.7916666666666A41.6666666666667 41.6666666666667 0 1 1 333.9583333333333 -107.4166666666666A502.0416666666666 502.0416666666666 0 0 1 668.4999999999999 -106.5416666666666A41.6666666666667 41.6666666666667 0 0 1 640.4166666666665 -28.0833333333333zM994.6666666666666 437.4583333333335A41.6666666666667 41.6666666666667 0 1 1 912.2499999999998 425.3333333333333A425 425 0 0 0 916.6666666666666 364.1666666666667A417.4166666666667 417.4166666666667 0 0 0 823.4999999999999 101.6666666666667A41.6666666666667 41.6666666666667 0 0 1 888.1666666666666 49.0833333333334A500.7916666666666 500.7916666666666 0 0 1 994.6666666666666 437.4166666666667zM820.8333333333333 630.2083333333334A41.6666666666667 41.6666666666667 0 0 1 884.9583333333334 683.4166666666667A500.7500000000001 500.7500000000001 0 0 1 597.7083333333334 854.7916666666666A41.6666666666667 41.6666666666667 0 0 1 581.5 773.0416666666667A417.25 417.25 0 0 0 820.8333333333333 630.2083333333334zM329.1666666666667 834.4166666666666A502.4166666666666 502.4166666666666 0 0 1 71.125 621.5416666666667A41.6666666666667 41.6666666666667 0 0 1 142.5833333333334 578.625A418.7083333333333 418.7083333333333 0 0 0 357.7083333333335 756.0833333333334A41.6666666666667 41.6666666666667 0 0 1 329.1666666666667 834.4166666666666zM229.1666666666667 176.6666666666668A41.6666666666667 41.6666666666667 0 0 1 270.8333333333333 135.0000000000001H750A41.6666666666667 41.6666666666667 0 0 1 750 218.3333333333335H270.8333333333333A41.6666666666667 41.6666666666667 0 0 1 229.1666666666667 176.6666666666668zM291.6666666666667 478.9166666666666H333.3333333333333A41.6666666666667 41.6666666666667 0 0 0 375 437.25V312.25A41.6666666666667 41.6666666666667 0 0 0 333.3333333333333 270.5833333333335H291.6666666666667A41.6666666666667 41.6666666666667 0 0 0 250 312.25V437.25A41.6666666666667 41.6666666666667 0 0 0 291.6666666666667 478.9166666666666zM479.1666666666666 562.25H520.8333333333333A41.6666666666667 41.6666666666667 0 0 0 562.5 520.5833333333333V312.25A41.6666666666667 41.6666666666667 0 0 0 520.8333333333333 270.5833333333335H479.1666666666666A41.6666666666667 41.6666666666667 0 0 0 437.5 312.25V520.5833333333333A41.6666666666667 41.6666666666667 0 0 0 479.1666666666666 562.25zM666.6666666666666 624.75H708.3333333333333A41.6666666666667 41.6666666666667 0 0 0 750 583.0833333333334V312.25A41.6666666666667 41.6666666666667 0 0 0 708.3333333333333 270.5833333333335H666.6666666666666A41.6666666666667 41.6666666666667 0 0 0 625 312.25V583.0833333333333A41.6666666666667 41.6666666666667 0 0 0 666.6666666666666 624.75z" />
    <glyph glyph-name="analytics-bars"
      unicode="&#xF109;"
      horiz-adv-x="1000" d="M52.0833333333333 151.6666666666668H197.9166666666667A10.375 10.375 0 0 1 208.3333333333333 162.0833333333334V245.4166666666668A41.6666666666667 41.6666666666667 0 0 1 166.6666666666667 287.0833333333334H83.3333333333333A41.6666666666667 41.6666666666667 0 0 1 41.6666666666667 245.4166666666668V162.0833333333334A10.375 10.375 0 0 1 52.0833333333333 151.6666666666668zM333.3333333333333 495.4166666666667A41.6666666666667 41.6666666666667 0 0 1 291.6666666666667 453.75V162.0833333333334A10.375 10.375 0 0 1 302.0833333333333 151.6666666666668H447.9166666666667A10.375 10.375 0 0 1 458.3333333333333 162.0833333333334V453.75A41.6666666666667 41.6666666666667 0 0 1 416.6666666666667 495.4166666666667zM583.3333333333333 412.0833333333334A41.6666666666667 41.6666666666667 0 0 1 541.6666666666666 370.4166666666667V162.0833333333334A10.375 10.375 0 0 1 552.0833333333333 151.6666666666668H697.9166666666666A10.375 10.375 0 0 1 708.3333333333333 162.0833333333334V370.4166666666667A41.6666666666667 41.6666666666667 0 0 1 666.6666666666666 412.0833333333334zM802.0833333333333 151.6666666666668H947.9166666666666A10.375 10.375 0 0 1 958.3333333333331 162.0833333333334V662.0833333333334A41.6666666666667 41.6666666666667 0 0 1 916.6666666666666 703.75H833.3333333333333A41.6666666666667 41.6666666666667 0 0 1 791.6666666666666 662.0833333333334V162.0833333333334A10.375 10.375 0 0 1 802.0833333333333 151.6666666666668zM41.6666666666667 16.25H958.3333333333331A41.6666666666667 41.6666666666667 0 0 1 958.3333333333331 99.5833333333334H41.6666666666667A41.6666666666667 41.6666666666667 0 0 1 41.6666666666667 16.25z" />
    <glyph glyph-name="analytics-bars-1"
      unicode="&#x61;&#x6E;&#x61;&#x6C;&#x79;&#x74;&#x69;&#x63;&#x73;&#x2D;&#x62;&#x61;&#x72;&#x73;"
      horiz-adv-x="1000" d="M52.0833333333333 151.6666666666668H197.9166666666667A10.375 10.375 0 0 1 208.3333333333333 162.0833333333334V245.4166666666668A41.6666666666667 41.6666666666667 0 0 1 166.6666666666667 287.0833333333335H83.3333333333333A41.6666666666667 41.6666666666667 0 0 1 41.6666666666667 245.4166666666668V162.0833333333334A10.375 10.375 0 0 1 52.0833333333333 151.6666666666668zM333.3333333333333 495.4166666666667A41.6666666666667 41.6666666666667 0 0 1 291.6666666666667 453.75V162.0833333333334A10.375 10.375 0 0 1 302.0833333333333 151.6666666666668H447.9166666666667A10.375 10.375 0 0 1 458.3333333333333 162.0833333333334V453.75A41.6666666666667 41.6666666666667 0 0 1 416.6666666666667 495.4166666666667zM583.3333333333333 412.0833333333335A41.6666666666667 41.6666666666667 0 0 1 541.6666666666666 370.4166666666667V162.0833333333334A10.375 10.375 0 0 1 552.0833333333333 151.6666666666668H697.9166666666666A10.375 10.375 0 0 1 708.3333333333333 162.0833333333334V370.4166666666667A41.6666666666667 41.6666666666667 0 0 1 666.6666666666666 412.0833333333335zM802.0833333333333 151.6666666666668H947.9166666666666A10.375 10.375 0 0 1 958.3333333333331 162.0833333333334V662.0833333333334A41.6666666666667 41.6666666666667 0 0 1 916.6666666666666 703.75H833.3333333333333A41.6666666666667 41.6666666666667 0 0 1 791.6666666666666 662.0833333333334V162.0833333333334A10.375 10.375 0 0 1 802.0833333333333 151.6666666666668zM41.6666666666667 16.25H958.3333333333331A41.6666666666667 41.6666666666667 0 0 1 958.3333333333331 99.5833333333334H41.6666666666667A41.6666666666667 41.6666666666667 0 0 1 41.6666666666667 16.25z" />
    <glyph glyph-name="analytics-board-graph-line"
      unicode="&#xF10A;"
      horiz-adv-x="1000" d="M62.5 -15H937.5A62.5 62.5 0 0 1 1000 47.5V672.5A62.5 62.5 0 0 1 937.5 735H62.5A62.5 62.5 0 0 1 0 672.5V47.5A62.5 62.5 0 0 1 62.5 -15zM110.125 196.5000000000001L217.25 375.0416666666668A62.5 62.5 0 0 0 324.4583333333334 375.0416666666668L393.8333333333334 259.4583333333334A10.3333333333333 10.3333333333333 0 0 1 402.1666666666667 254.4583333333334A10.2083333333333 10.2083333333333 0 0 1 410.9583333333334 258.1666666666668L452.25 307.625A64.4166666666667 64.4166666666667 0 0 0 548.0833333333333 307.625L597.8333333333333 248.0416666666668L779.7499999999999 566.4166666666667A41.6666666666667 41.6666666666667 0 1 0 852.0833333333333 525.0833333333333L655.25 180.4166666666668A62.5 62.5 0 0 0 552.9166666666667 171.5416666666668L508.0000000000001 225.375A10.5 10.5 0 0 1 492.0000000000001 225.375L446.5833333333334 170.9166666666668A62.5 62.5 0 0 0 344.9583333333334 178.7916666666668L279.7500000000001 287.5416666666667A10.4166666666667 10.4166666666667 0 0 1 261.9166666666668 287.5416666666667L181.5416666666667 153.6250000000001A41.6666666666667 41.6666666666667 0 1 0 110.125 196.5000000000001z" />
    <glyph glyph-name="analytics-board-graph-line-1"
      unicode="&#x61;&#x6E;&#x61;&#x6C;&#x79;&#x74;&#x69;&#x63;&#x73;&#x2D;&#x62;&#x6F;&#x61;&#x72;&#x64;&#x2D;&#x67;&#x72;&#x61;&#x70;&#x68;&#x2D;&#x6C;&#x69;&#x6E;&#x65;"
      horiz-adv-x="1000" d="M62.5 -15H937.5A62.5 62.5 0 0 1 1000 47.5V672.5A62.5 62.5 0 0 1 937.5 735H62.5A62.5 62.5 0 0 1 0 672.5V47.5A62.5 62.5 0 0 1 62.5 -15zM110.125 196.5000000000001L217.25 375.0416666666668A62.5 62.5 0 0 0 324.4583333333335 375.0416666666668L393.8333333333335 259.4583333333335A10.3333333333333 10.3333333333333 0 0 1 402.1666666666667 254.4583333333334A10.2083333333333 10.2083333333333 0 0 1 410.9583333333335 258.1666666666668L452.25 307.625A64.4166666666667 64.4166666666667 0 0 0 548.0833333333333 307.625L597.8333333333333 248.0416666666668L779.7499999999999 566.4166666666667A41.6666666666667 41.6666666666667 0 1 0 852.0833333333333 525.0833333333333L655.25 180.4166666666668A62.5 62.5 0 0 0 552.9166666666667 171.5416666666668L508.0000000000001 225.375A10.5 10.5 0 0 1 492.0000000000001 225.375L446.5833333333335 170.9166666666668A62.5 62.5 0 0 0 344.9583333333335 178.7916666666668L279.7500000000001 287.5416666666667A10.4166666666667 10.4166666666667 0 0 1 261.9166666666668 287.5416666666667L181.5416666666667 153.6250000000001A41.6666666666667 41.6666666666667 0 1 0 110.125 196.5000000000001z" />
    <glyph glyph-name="analytics-pie-2"
      unicode="&#xF10B;"
      horiz-adv-x="1000" d="M958.3333333333331 422.5A20.8333333333333 20.8333333333333 0 0 1 979.1666666666666 443.3333333333334A417.1666666666667 417.1666666666667 0 0 1 562.5 860A20.8333333333333 20.8333333333333 0 0 1 541.6666666666666 839.1666666666666V463.125A40.7083333333333 40.7083333333333 0 0 1 582.2916666666666 422.4583333333333zM979.1666666666666 360H583.3333333333333A28.2083333333333 28.2083333333333 0 0 1 562.5 309.7083333333334L842.4166666666666 29.7916666666666A20.8333333333333 20.8333333333333 0 0 1 871.875 29.7916666666666A434.7083333333333 434.7083333333333 0 0 1 1000 339.1666666666668A20.8333333333333 20.8333333333333 0 0 1 979.1666666666666 360zM441.1666666666667 -140A430.0833333333333 430.0833333333333 0 0 1 746.8749999999999 -11.5A20.8333333333333 20.8333333333333 0 0 1 746.8749999999999 17.9583333333334L466.9583333333332 297.875A37.9166666666667 37.9166666666667 0 0 0 458.3333333333331 318.7083333333334V714.5416666666667A20.8333333333333 20.8333333333333 0 0 1 437.4999999999999 735.375A437.5 437.5 0 1 1 441.1666666666667 -140z" />
    <glyph glyph-name="analytics-pie-2-1"
      unicode="&#x61;&#x6E;&#x61;&#x6C;&#x79;&#x74;&#x69;&#x63;&#x73;&#x2D;&#x70;&#x69;&#x65;&#x2D;&#x32;"
      horiz-adv-x="1000" d="M958.3333333333331 422.5A20.8333333333333 20.8333333333333 0 0 1 979.1666666666666 443.3333333333335A417.1666666666667 417.1666666666667 0 0 1 562.5 860A20.8333333333333 20.8333333333333 0 0 1 541.6666666666666 839.1666666666666V463.125A40.7083333333333 40.7083333333333 0 0 1 582.2916666666666 422.4583333333333zM979.1666666666666 360H583.3333333333333A28.2083333333333 28.2083333333333 0 0 1 562.5 309.7083333333335L842.4166666666666 29.7916666666666A20.8333333333333 20.8333333333333 0 0 1 871.875 29.7916666666666A434.7083333333333 434.7083333333333 0 0 1 1000 339.1666666666668A20.8333333333333 20.8333333333333 0 0 1 979.1666666666666 360zM441.1666666666667 -140A430.0833333333333 430.0833333333333 0 0 1 746.8749999999999 -11.5A20.8333333333333 20.8333333333333 0 0 1 746.8749999999999 17.9583333333334L466.9583333333332 297.875A37.9166666666667 37.9166666666667 0 0 0 458.3333333333331 318.7083333333335V714.5416666666667A20.8333333333333 20.8333333333333 0 0 1 437.4999999999999 735.375A437.5 437.5 0 1 1 441.1666666666667 -140z" />
    <glyph glyph-name="app-window-settings"
      unicode="&#xF10C;"
      horiz-adv-x="1000" d="M677 151.625A62.5 62.5 0 0 1 802 151.625A62.5 62.5 0 0 1 677 151.625M849.9999999999999 318.3333333333334A18.9583333333333 18.9583333333333 0 0 0 827.7916666666665 331.2916666666668L810.2916666666666 389.1666666666667A73.9166666666667 73.9166666666667 0 0 1 668.625 389.1666666666667L650.9583333333334 331.2083333333334A19.0416666666667 19.0416666666667 0 0 0 628.75 318.25L570 332.0833333333334A74.2916666666667 74.2916666666667 0 0 1 499.1666666666666 209.0416666666668L540.375 164.6666666666668A19.25 19.25 0 0 0 540.375 138.6250000000001L499.25 94.2083333333335A74.2916666666667 74.2916666666667 0 0 1 570.0833333333334 -28.8333333333331L628.875 -15.2083333333331A19 19 0 0 0 651.0833333333333 -28.1249999999997L668.75 -86.1249999999997A73.9166666666667 73.9166666666667 0 0 1 810.4166666666666 -86.1249999999997L828.0833333333333 -28.1249999999997A18.875 18.875 0 0 0 850.2916666666666 -15.2083333333331L909.1249999999998 -28.8333333333331A74.2916666666667 74.2916666666667 0 0 1 979.9583333333331 94.2083333333335L938.7916666666666 138.6250000000001A19.25 19.25 0 0 0 938.7916666666666 164.6666666666668L979.8749999999998 209.0416666666668A74.25 74.25 0 0 1 909.0416666666666 332.0833333333334zM739.3333333333333 26.6666666666667A125 125 0 1 0 864.3333333333333 151.6666666666668A125 125 0 0 0 739.5 26.6666666666667zM875 858.6666666666666H125A125 125 0 0 1 0 733.6666666666666V129.5A125 125 0 0 1 125 4.5H354.1666666666667A41.6666666666667 41.6666666666667 0 0 1 395.8333333333333 46.1666666666667H395.8333333333333A41.6666666666667 41.6666666666667 0 0 1 354.1666666666667 87.8333333333334H125A41.6666666666667 41.6666666666667 0 0 0 83.3333333333333 129.5V639.9166666666667A10.4166666666667 10.4166666666667 0 0 0 93.75 650.3333333333334H906.25A10.4166666666667 10.4166666666667 0 0 0 916.6666666666666 639.9166666666667V462.8333333333334A41.6666666666667 41.6666666666667 0 0 1 958.3333333333331 421.1666666666667H958.3333333333331A41.6666666666667 41.6666666666667 0 0 1 1000 462.8333333333334V733.6666666666666A125 125 0 0 1 875 858.6666666666666zM181.0833333333333 733.6666666666666A40.25 40.25 0 0 0 110.5833333333333 733.6666666666666A40.375 40.375 0 0 0 104.1666666666667 754.5A40.7916666666667 40.7916666666667 0 0 0 108 771.5A41.6666666666667 41.6666666666667 0 0 0 145.8333333333333 796.1666666666666A41.0416666666667 41.0416666666667 0 0 0 181.0833333333333 775.3333333333334A40.375 40.375 0 0 0 187.5 754.5A40.375 40.375 0 0 0 181.0833333333333 733.6666666666666zM326.9166666666667 733.6666666666666A40.25 40.25 0 0 0 256.4166666666667 733.6666666666666A40.375 40.375 0 0 0 250 754.5A40.375 40.375 0 0 0 256.4166666666667 775.3333333333334A40.25 40.25 0 0 0 326.9166666666667 775.3333333333334A40.375 40.375 0 0 0 333.3333333333333 754.5A40.375 40.375 0 0 0 326.9166666666667 733.6666666666666zM472.75 733.6666666666666A40.25 40.25 0 0 0 402.25 733.6666666666666A40.375 40.375 0 0 0 395.8333333333333 754.5A40.375 40.375 0 0 0 402.25 775.3333333333334A40.25 40.25 0 0 0 472.75 775.3333333333334A40.375 40.375 0 0 0 479.1666666666666 754.5A40.375 40.375 0 0 0 472.75 733.6666666666666z" />
    <glyph glyph-name="app-window-settings-1"
      unicode="&#x61;&#x70;&#x70;&#x2D;&#x77;&#x69;&#x6E;&#x64;&#x6F;&#x77;&#x2D;&#x73;&#x65;&#x74;&#x74;&#x69;&#x6E;&#x67;&#x73;"
      horiz-adv-x="1000" d="M677 151.625A62.5 62.5 0 0 1 802 151.625A62.5 62.5 0 0 1 677 151.625M849.9999999999999 318.3333333333335A18.9583333333333 18.9583333333333 0 0 0 827.7916666666665 331.2916666666668L810.2916666666666 389.1666666666667A73.9166666666667 73.9166666666667 0 0 1 668.625 389.1666666666667L650.9583333333334 331.2083333333335A19.0416666666667 19.0416666666667 0 0 0 628.75 318.25L570 332.0833333333335A74.2916666666667 74.2916666666667 0 0 1 499.1666666666666 209.0416666666668L540.375 164.6666666666668A19.25 19.25 0 0 0 540.375 138.6250000000001L499.25 94.2083333333335A74.2916666666667 74.2916666666667 0 0 1 570.0833333333334 -28.8333333333331L628.875 -15.2083333333331A19 19 0 0 0 651.0833333333333 -28.1249999999997L668.75 -86.1249999999997A73.9166666666667 73.9166666666667 0 0 1 810.4166666666666 -86.1249999999997L828.0833333333333 -28.1249999999997A18.875 18.875 0 0 0 850.2916666666666 -15.2083333333331L909.1249999999998 -28.8333333333331A74.2916666666667 74.2916666666667 0 0 1 979.9583333333331 94.2083333333335L938.7916666666666 138.6250000000001A19.25 19.25 0 0 0 938.7916666666666 164.6666666666668L979.8749999999998 209.0416666666668A74.25 74.25 0 0 1 909.0416666666666 332.0833333333335zM739.3333333333333 26.6666666666667A125 125 0 1 0 864.3333333333333 151.6666666666668A125 125 0 0 0 739.5 26.6666666666667zM875 858.6666666666666H125A125 125 0 0 1 0 733.6666666666666V129.5A125 125 0 0 1 125 4.5H354.1666666666667A41.6666666666667 41.6666666666667 0 0 1 395.8333333333333 46.1666666666667H395.8333333333333A41.6666666666667 41.6666666666667 0 0 1 354.1666666666667 87.8333333333334H125A41.6666666666667 41.6666666666667 0 0 0 83.3333333333333 129.5V639.9166666666667A10.4166666666667 10.4166666666667 0 0 0 93.75 650.3333333333334H906.25A10.4166666666667 10.4166666666667 0 0 0 916.6666666666666 639.9166666666667V462.8333333333334A41.6666666666667 41.6666666666667 0 0 1 958.3333333333331 421.1666666666667H958.3333333333331A41.6666666666667 41.6666666666667 0 0 1 1000 462.8333333333334V733.6666666666666A125 125 0 0 1 875 858.6666666666666zM181.0833333333333 733.6666666666666A40.25 40.25 0 0 0 110.5833333333333 733.6666666666666A40.375 40.375 0 0 0 104.1666666666667 754.5A40.7916666666667 40.7916666666667 0 0 0 108 771.5A41.6666666666667 41.6666666666667 0 0 0 145.8333333333333 796.1666666666666A41.0416666666667 41.0416666666667 0 0 0 181.0833333333333 775.3333333333334A40.375 40.375 0 0 0 187.5 754.5A40.375 40.375 0 0 0 181.0833333333333 733.6666666666666zM326.9166666666667 733.6666666666666A40.25 40.25 0 0 0 256.4166666666667 733.6666666666666A40.375 40.375 0 0 0 250 754.5A40.375 40.375 0 0 0 256.4166666666667 775.3333333333334A40.25 40.25 0 0 0 326.9166666666667 775.3333333333334A40.375 40.375 0 0 0 333.3333333333333 754.5A40.375 40.375 0 0 0 326.9166666666667 733.6666666666666zM472.75 733.6666666666666A40.25 40.25 0 0 0 402.25 733.6666666666666A40.375 40.375 0 0 0 395.8333333333333 754.5A40.375 40.375 0 0 0 402.25 775.3333333333334A40.25 40.25 0 0 0 472.75 775.3333333333334A40.375 40.375 0 0 0 479.1666666666666 754.5A40.375 40.375 0 0 0 472.75 733.6666666666666z" />
    <glyph glyph-name="arrow-button-down-2"
      unicode="&#xF10D;"
      horiz-adv-x="1000" d="M977.8333333333331 735.6666666666666A83.3333333333333 83.3333333333333 0 0 1 905.2499999999998 778.0833333333334H94.75A83.3333333333333 83.3333333333333 0 0 1 23.4583333333333 651.6666666666667L428.7083333333333 -17.9166666666666A83.3333333333333 83.3333333333333 0 0 1 571.2916666666666 -17.9166666666666L976.5416666666666 651.6666666666667A83.3333333333333 83.3333333333333 0 0 1 977.8333333333331 735.6666666666666z" />
    <glyph glyph-name="arrow-button-down-2-1"
      unicode="&#x61;&#x72;&#x72;&#x6F;&#x77;&#x2D;&#x62;&#x75;&#x74;&#x74;&#x6F;&#x6E;&#x2D;&#x64;&#x6F;&#x77;&#x6E;&#x2D;&#x32;"
      horiz-adv-x="1000" d="M977.8333333333331 735.6666666666666A83.3333333333333 83.3333333333333 0 0 1 905.2499999999998 778.0833333333334H94.75A83.3333333333333 83.3333333333333 0 0 1 23.4583333333333 651.6666666666667L428.7083333333333 -17.9166666666666A83.3333333333333 83.3333333333333 0 0 1 571.2916666666666 -17.9166666666666L976.5416666666666 651.6666666666667A83.3333333333333 83.3333333333333 0 0 1 977.8333333333331 735.6666666666666z" />
    <glyph glyph-name="arrow-button-right-2"
      unicode="&#xF10E;"
      horiz-adv-x="1000" d="M877.4166666666666 431.2916666666667L208.9166666666667 836.5A83.3333333333333 83.3333333333333 0 0 1 82.4166666666667 765.2083333333334V-45.2083333333331A83.3333333333333 83.3333333333333 0 0 1 208.9583333333333 -116.4999999999998L877.4166666666666 288.7083333333335A83.3333333333333 83.3333333333333 0 0 1 877.4166666666666 431.2916666666669z" />
    <glyph glyph-name="arrow-button-right-2-1"
      unicode="&#x61;&#x72;&#x72;&#x6F;&#x77;&#x2D;&#x62;&#x75;&#x74;&#x74;&#x6F;&#x6E;&#x2D;&#x72;&#x69;&#x67;&#x68;&#x74;&#x2D;&#x32;"
      horiz-adv-x="1000" d="M877.4166666666666 431.2916666666667L208.9166666666667 836.5A83.3333333333333 83.3333333333333 0 0 1 82.4166666666667 765.2083333333334V-45.2083333333331A83.3333333333333 83.3333333333333 0 0 1 208.9583333333333 -116.4999999999998L877.4166666666666 288.7083333333335A83.3333333333333 83.3333333333333 0 0 1 877.4166666666666 431.2916666666669z" />
    <glyph glyph-name="arrow-button-up-2"
      unicode="&#xF10F;"
      horiz-adv-x="1000" d="M976.5416666666666 68.3333333333334L571.2916666666666 737.9166666666666A83.3333333333333 83.3333333333333 0 0 1 428.7083333333333 737.9166666666666L23.4583333333333 68.3333333333334A83.3333333333333 83.3333333333333 0 0 1 94.75 -58.125H905.2499999999998A83.3333333333333 83.3333333333333 0 0 1 976.5416666666666 68.3333333333334z" />
    <glyph glyph-name="arrow-button-up-2-1"
      unicode="&#x61;&#x72;&#x72;&#x6F;&#x77;&#x2D;&#x62;&#x75;&#x74;&#x74;&#x6F;&#x6E;&#x2D;&#x75;&#x70;&#x2D;&#x32;"
      horiz-adv-x="1000" d="M976.5416666666666 68.3333333333334L571.2916666666666 737.9166666666666A83.3333333333333 83.3333333333333 0 0 1 428.7083333333333 737.9166666666666L23.4583333333333 68.3333333333334A83.3333333333333 83.3333333333333 0 0 1 94.75 -58.125H905.2499999999998A83.3333333333333 83.3333333333333 0 0 1 976.5416666666666 68.3333333333334z" />
    <glyph glyph-name="arrow-corner-left"
      unicode="&#xF110;"
      horiz-adv-x="1000" d="M833.3333333333333 89.1666666666667H341.9583333333334A10.4166666666667 10.4166666666667 0 0 0 334.5833333333334 106.9583333333334L877.4999999999999 649.1666666666667A62.5 62.5 0 0 1 789.1666666666665 737.625L246.9583333333333 195.9583333333334A10.4166666666667 10.4166666666667 0 0 0 229.1666666666666 203.3333333333334V693.3333333333334A62.5 62.5 0 0 1 104.1666666666666 693.3333333333334V68.3333333333334A104.1666666666667 104.1666666666667 0 0 1 208.3333333333333 -35.8333333333333H833.3333333333333A62.5 62.5 0 0 1 833.3333333333333 89.1666666666667z" />
    <glyph glyph-name="arrow-corner-left-1"
      unicode="&#x61;&#x72;&#x72;&#x6F;&#x77;&#x2D;&#x63;&#x6F;&#x72;&#x6E;&#x65;&#x72;&#x2D;&#x6C;&#x65;&#x66;&#x74;"
      horiz-adv-x="1000" d="M833.3333333333333 89.1666666666667H341.9583333333335A10.4166666666667 10.4166666666667 0 0 0 334.5833333333335 106.9583333333334L877.4999999999999 649.1666666666667A62.5 62.5 0 0 1 789.1666666666665 737.625L246.9583333333333 195.9583333333334A10.4166666666667 10.4166666666667 0 0 0 229.1666666666666 203.3333333333334V693.3333333333334A62.5 62.5 0 0 1 104.1666666666666 693.3333333333334V68.3333333333334A104.1666666666667 104.1666666666667 0 0 1 208.3333333333333 -35.8333333333333H833.3333333333333A62.5 62.5 0 0 1 833.3333333333333 89.1666666666667z" />
    <glyph glyph-name="arrow-corner-right"
      unicode="&#xF111;"
      horiz-adv-x="1000" d="M895.8333333333333 693.3333333333334A62.5 62.5 0 0 1 770.8333333333333 693.3333333333334V203.3333333333334A10.4166666666667 10.4166666666667 0 0 0 753.0416666666666 196L210.8333333333333 737.625A62.5 62.5 0 0 1 122.5 649.1666666666667L665.3749999999999 106.8750000000001A10.4166666666667 10.4166666666667 0 0 0 658 89.0833333333334H166.6666666666667A62.5 62.5 0 0 1 166.6666666666667 -35.9166666666665H791.6666666666666A104.1666666666667 104.1666666666667 0 0 1 895.8333333333333 68.3333333333334z" />
    <glyph glyph-name="arrow-corner-right-1"
      unicode="&#x61;&#x72;&#x72;&#x6F;&#x77;&#x2D;&#x63;&#x6F;&#x72;&#x6E;&#x65;&#x72;&#x2D;&#x72;&#x69;&#x67;&#x68;&#x74;"
      horiz-adv-x="1000" d="M895.8333333333333 693.3333333333334A62.5 62.5 0 0 1 770.8333333333333 693.3333333333334V203.3333333333334A10.4166666666667 10.4166666666667 0 0 0 753.0416666666666 196L210.8333333333333 737.625A62.5 62.5 0 0 1 122.5 649.1666666666667L665.3749999999999 106.8750000000001A10.4166666666667 10.4166666666667 0 0 0 658 89.0833333333334H166.6666666666667A62.5 62.5 0 0 1 166.6666666666667 -35.9166666666665H791.6666666666666A104.1666666666667 104.1666666666667 0 0 1 895.8333333333333 68.3333333333334z" />
    <glyph glyph-name="arrow-down-1"
      unicode="&#xF112;"
      horiz-adv-x="1000" d="M500 47.5A95.8333333333333 95.8333333333333 0 0 0 427.9583333333333 80.0000000000001L19.1666666666667 544.6666666666667A76.9583333333333 76.9583333333333 0 0 0 134.7083333333334 646.2916666666667L492.1666666666667 239.9583333333334A10.4166666666667 10.4166666666667 0 0 1 507.8333333333333 239.9583333333334L865.2916666666667 646.2916666666667A76.9583333333333 76.9583333333333 0 1 0 980.8333333333331 544.6666666666667L572.1666666666666 80.1666666666666A96.25 96.25 0 0 0 500 47.5z" />
    <glyph glyph-name="arrow-down-1-1"
      unicode="&#x61;&#x72;&#x72;&#x6F;&#x77;&#x2D;&#x64;&#x6F;&#x77;&#x6E;&#x2D;&#x31;"
      horiz-adv-x="1000" d="M500 47.5A95.8333333333333 95.8333333333333 0 0 0 427.9583333333333 80.0000000000001L19.1666666666667 544.6666666666667A76.9583333333333 76.9583333333333 0 0 0 134.7083333333334 646.2916666666667L492.1666666666667 239.9583333333334A10.4166666666667 10.4166666666667 0 0 1 507.8333333333333 239.9583333333334L865.2916666666667 646.2916666666667A76.9583333333333 76.9583333333333 0 1 0 980.8333333333331 544.6666666666667L572.1666666666666 80.1666666666666A96.25 96.25 0 0 0 500 47.5z" />
    <glyph glyph-name="arrow-down"
      unicode="&#xF113;"
      horiz-adv-x="1000" d="M970.5 433.3333333333334A58.875 58.875 0 0 1 887.4166666666667 428.0416666666667L577.0833333333333 75.3750000000001A10.4583333333333 10.4583333333333 0 0 0 558.8333333333333 82.2916666666667V801.125A58.8333333333333 58.8333333333333 0 1 1 441.1666666666667 801.125V82.2916666666667A10.4583333333333 10.4583333333333 0 0 0 422.9166666666666 75.3750000000001L112.5 428.0416666666667A58.875 58.875 0 1 1 24.2083333333333 350.2500000000001L426.375 -106.6666666666666A98 98 0 0 1 573.625 -106.6666666666666L975.7916666666666 350.2916666666668A58.8333333333333 58.8333333333333 0 0 1 970.5 433.3333333333334z" />
    <glyph glyph-name="arrow-down-1"
      unicode="&#x61;&#x72;&#x72;&#x6F;&#x77;&#x2D;&#x64;&#x6F;&#x77;&#x6E;"
      horiz-adv-x="1000" d="M970.5 433.3333333333335A58.875 58.875 0 0 1 887.4166666666667 428.0416666666667L577.0833333333333 75.3750000000001A10.4583333333333 10.4583333333333 0 0 0 558.8333333333333 82.2916666666667V801.125A58.8333333333333 58.8333333333333 0 1 1 441.1666666666667 801.125V82.2916666666667A10.4583333333333 10.4583333333333 0 0 0 422.9166666666666 75.3750000000001L112.5 428.0416666666667A58.875 58.875 0 1 1 24.2083333333333 350.2500000000001L426.375 -106.6666666666666A98 98 0 0 1 573.625 -106.6666666666666L975.7916666666666 350.2916666666668A58.8333333333333 58.8333333333333 0 0 1 970.5 433.3333333333335z" />
    <glyph glyph-name="arrow-left-1"
      unicode="&#xF114;"
      horiz-adv-x="1000" d="M187.5 360A95.8333333333333 95.8333333333333 0 0 0 220 432.0416666666667L684.6666666666665 840.8333333333334A76.9583333333333 76.9583333333333 0 0 0 786.2916666666665 725.2916666666666L379.9583333333333 367.8333333333334A10.4166666666667 10.4166666666667 0 0 1 379.9583333333333 352.1666666666668L786.2916666666667 -5.2916666666666A76.9583333333333 76.9583333333333 0 1 0 684.6666666666667 -120.8333333333332L220.1666666666667 287.8333333333334A96.25 96.25 0 0 0 187.5 360z" />
    <glyph glyph-name="arrow-left-1-1"
      unicode="&#x61;&#x72;&#x72;&#x6F;&#x77;&#x2D;&#x6C;&#x65;&#x66;&#x74;&#x2D;&#x31;"
      horiz-adv-x="1000" d="M187.5 360A95.8333333333333 95.8333333333333 0 0 0 220 432.0416666666667L684.6666666666665 840.8333333333334A76.9583333333333 76.9583333333333 0 0 0 786.2916666666665 725.2916666666666L379.9583333333333 367.8333333333335A10.4166666666667 10.4166666666667 0 0 1 379.9583333333333 352.1666666666668L786.2916666666667 -5.2916666666666A76.9583333333333 76.9583333333333 0 1 0 684.6666666666667 -120.8333333333332L220.1666666666667 287.8333333333335A96.25 96.25 0 0 0 187.5 360z" />
    <glyph glyph-name="arrow-left"
      unicode="&#xF115;"
      horiz-adv-x="1000" d="M939.4999999999998 419.9583333333334H226.5416666666667A10.4583333333333 10.4583333333333 0 0 0 219.6666666666667 438.2083333333334L579.5416666666666 754.875A60 60 0 0 1 500.375 844.9583333333334L34.5 435.0000000000001A100 100 0 0 1 34.5 285.0000000000001L500.2916666666666 -124.875A60 60 0 0 1 579.4583333333333 -34.8333333333333L219.5833333333333 281.8333333333334A10.4583333333333 10.4583333333333 0 0 0 226.4583333333333 300.0833333333334H939.4999999999998A60 60 0 0 1 939.4999999999998 420.0416666666668z" />
    <glyph glyph-name="arrow-left-1"
      unicode="&#x61;&#x72;&#x72;&#x6F;&#x77;&#x2D;&#x6C;&#x65;&#x66;&#x74;"
      horiz-adv-x="1000" d="M939.4999999999998 419.9583333333335H226.5416666666667A10.4583333333333 10.4583333333333 0 0 0 219.6666666666667 438.2083333333335L579.5416666666666 754.875A60 60 0 0 1 500.375 844.9583333333334L34.5 435.0000000000001A100 100 0 0 1 34.5 285.0000000000001L500.2916666666666 -124.875A60 60 0 0 1 579.4583333333333 -34.8333333333333L219.5833333333333 281.8333333333335A10.4583333333333 10.4583333333333 0 0 0 226.4583333333333 300.0833333333335H939.4999999999998A60 60 0 0 1 939.4999999999998 420.0416666666668z" />
    <glyph glyph-name="arrow-rectangle-down"
      unicode="&#xF116;"
      horiz-adv-x="1000" d="M937.5 860H62.5A62.5 62.5 0 0 1 0 797.5V-77.5A62.5 62.5 0 0 1 62.5 -140H937.5A62.5 62.5 0 0 1 1000 -77.5V797.5A62.5 62.5 0 0 1 937.5 860zM786.8333333333333 427.2916666666667L551.5416666666666 192.0416666666668A73.0416666666667 73.0416666666667 0 0 0 448.5416666666667 192.0416666666668L213.1666666666666 427.2916666666667A52.0833333333333 52.0833333333333 0 0 0 286.8333333333333 500.9583333333333L492.625 295.1249999999999A10.5 10.5 0 0 1 507.3749999999999 295.1249999999999L713.1666666666666 500.9583333333333A52.0833333333333 52.0833333333333 0 0 0 786.8333333333333 427.2916666666667z" />
    <glyph glyph-name="arrow-rectangle-down-1"
      unicode="&#x61;&#x72;&#x72;&#x6F;&#x77;&#x2D;&#x72;&#x65;&#x63;&#x74;&#x61;&#x6E;&#x67;&#x6C;&#x65;&#x2D;&#x64;&#x6F;&#x77;&#x6E;"
      horiz-adv-x="1000" d="M937.5 860H62.5A62.5 62.5 0 0 1 0 797.5V-77.5A62.5 62.5 0 0 1 62.5 -140H937.5A62.5 62.5 0 0 1 1000 -77.5V797.5A62.5 62.5 0 0 1 937.5 860zM786.8333333333333 427.2916666666667L551.5416666666666 192.0416666666668A73.0416666666667 73.0416666666667 0 0 0 448.5416666666667 192.0416666666668L213.1666666666666 427.2916666666667A52.0833333333333 52.0833333333333 0 0 0 286.8333333333333 500.9583333333333L492.625 295.1249999999999A10.5 10.5 0 0 1 507.3749999999999 295.1249999999999L713.1666666666666 500.9583333333333A52.0833333333333 52.0833333333333 0 0 0 786.8333333333333 427.2916666666667z" />
    <glyph glyph-name="arrow-rectangle-left"
      unicode="&#xF117;"
      horiz-adv-x="1000" d="M937.5 860H62.5A62.5 62.5 0 0 1 0 797.5V-77.5A62.5 62.5 0 0 1 62.5 -140H937.5A62.5 62.5 0 0 1 1000 -77.5V797.5A62.5 62.5 0 0 1 937.5 860zM640.9583333333333 146.8333333333334A52.0833333333333 52.0833333333333 0 1 0 567.3333333333333 73.1666666666667L332.0416666666667 308.4583333333334A73 73 0 0 0 332.0416666666667 411.5416666666667L567.3333333333333 646.8333333333334A52.0833333333333 52.0833333333333 0 0 0 640.9583333333333 573.1666666666667L435.1666666666667 367.375A10.4166666666667 10.4166666666667 0 0 1 435.1666666666667 352.6250000000001z" />
    <glyph glyph-name="arrow-rectangle-left-1"
      unicode="&#x61;&#x72;&#x72;&#x6F;&#x77;&#x2D;&#x72;&#x65;&#x63;&#x74;&#x61;&#x6E;&#x67;&#x6C;&#x65;&#x2D;&#x6C;&#x65;&#x66;&#x74;"
      horiz-adv-x="1000" d="M937.5 860H62.5A62.5 62.5 0 0 1 0 797.5V-77.5A62.5 62.5 0 0 1 62.5 -140H937.5A62.5 62.5 0 0 1 1000 -77.5V797.5A62.5 62.5 0 0 1 937.5 860zM640.9583333333333 146.8333333333334A52.0833333333333 52.0833333333333 0 1 0 567.3333333333333 73.1666666666667L332.0416666666667 308.4583333333335A73 73 0 0 0 332.0416666666667 411.5416666666667L567.3333333333333 646.8333333333334A52.0833333333333 52.0833333333333 0 0 0 640.9583333333333 573.1666666666667L435.1666666666667 367.375A10.4166666666667 10.4166666666667 0 0 1 435.1666666666667 352.6250000000001z" />
    <glyph glyph-name="arrow-rectangle-right"
      unicode="&#xF118;"
      horiz-adv-x="1000" d="M937.5 860H62.5A62.5 62.5 0 0 1 0 797.5V-77.5A62.5 62.5 0 0 1 62.5 -140H937.5A62.5 62.5 0 0 1 1000 -77.5V797.5A62.5 62.5 0 0 1 937.5 860zM359.0416666666667 573.1666666666667A52.0833333333333 52.0833333333333 0 0 0 432.6666666666667 646.8333333333333L667.9583333333333 411.5416666666667A73 73 0 0 0 667.9583333333333 308.4583333333333L432.6666666666666 73.1666666666667A52.0833333333333 52.0833333333333 0 0 0 359.0416666666667 146.8333333333334L564.8333333333333 352.6250000000001A10.4166666666667 10.4166666666667 0 0 1 564.8333333333333 367.375z" />
    <glyph glyph-name="arrow-rectangle-right-1"
      unicode="&#x61;&#x72;&#x72;&#x6F;&#x77;&#x2D;&#x72;&#x65;&#x63;&#x74;&#x61;&#x6E;&#x67;&#x6C;&#x65;&#x2D;&#x72;&#x69;&#x67;&#x68;&#x74;"
      horiz-adv-x="1000" d="M937.5 860H62.5A62.5 62.5 0 0 1 0 797.5V-77.5A62.5 62.5 0 0 1 62.5 -140H937.5A62.5 62.5 0 0 1 1000 -77.5V797.5A62.5 62.5 0 0 1 937.5 860zM359.0416666666667 573.1666666666667A52.0833333333333 52.0833333333333 0 0 0 432.6666666666667 646.8333333333333L667.9583333333333 411.5416666666667A73 73 0 0 0 667.9583333333333 308.4583333333333L432.6666666666666 73.1666666666667A52.0833333333333 52.0833333333333 0 0 0 359.0416666666667 146.8333333333334L564.8333333333333 352.6250000000001A10.4166666666667 10.4166666666667 0 0 1 564.8333333333333 367.375z" />
    <glyph glyph-name="arrow-rectangle-up"
      unicode="&#xF119;"
      horiz-adv-x="1000" d="M937.5 860H62.5A62.5 62.5 0 0 1 0 797.5V-77.5A62.5 62.5 0 0 1 62.5 -140H937.5A62.5 62.5 0 0 1 1000 -77.5V797.5A62.5 62.5 0 0 1 937.5 860zM786.8333333333333 219A52.125 52.125 0 0 0 713.1666666666666 219L507.3749999999999 424.8333333333334A10.5 10.5 0 0 1 492.625 424.8333333333334L286.8333333333333 219A52.0833333333333 52.0833333333333 0 0 0 213.1666666666667 292.6666666666668L448.4583333333333 527.9166666666667A72.875 72.875 0 0 0 551.5833333333333 527.9166666666667L786.8333333333333 292.6666666666668A52.125 52.125 0 0 0 786.8333333333333 219z" />
    <glyph glyph-name="arrow-rectangle-up-1"
      unicode="&#x61;&#x72;&#x72;&#x6F;&#x77;&#x2D;&#x72;&#x65;&#x63;&#x74;&#x61;&#x6E;&#x67;&#x6C;&#x65;&#x2D;&#x75;&#x70;"
      horiz-adv-x="1000" d="M937.5 860H62.5A62.5 62.5 0 0 1 0 797.5V-77.5A62.5 62.5 0 0 1 62.5 -140H937.5A62.5 62.5 0 0 1 1000 -77.5V797.5A62.5 62.5 0 0 1 937.5 860zM786.8333333333333 219A52.125 52.125 0 0 0 713.1666666666666 219L507.3749999999999 424.8333333333335A10.5 10.5 0 0 1 492.625 424.8333333333335L286.8333333333333 219A52.0833333333333 52.0833333333333 0 0 0 213.1666666666667 292.6666666666668L448.4583333333333 527.9166666666667A72.875 72.875 0 0 0 551.5833333333333 527.9166666666667L786.8333333333333 292.6666666666668A52.125 52.125 0 0 0 786.8333333333333 219z" />
    <glyph glyph-name="arrow-right-1"
      unicode="&#xF11A;"
      horiz-adv-x="1000" d="M812.5 360A95.8333333333333 95.8333333333333 0 0 0 779.9999999999999 287.9583333333334L315.3333333333333 -120.8333333333332A76.9583333333333 76.9583333333333 0 0 0 213.7083333333333 -5.2916666666666L620.0416666666666 352.1666666666668A10.4166666666667 10.4166666666667 0 0 1 620.0416666666666 367.8333333333334L213.7083333333333 725.2916666666666A76.9583333333333 76.9583333333333 0 0 0 315.3333333333333 840.8333333333334L779.8333333333334 432.1666666666667A96.25 96.25 0 0 0 812.5 360z" />
    <glyph glyph-name="arrow-right-1-1"
      unicode="&#x61;&#x72;&#x72;&#x6F;&#x77;&#x2D;&#x72;&#x69;&#x67;&#x68;&#x74;&#x2D;&#x31;"
      horiz-adv-x="1000" d="M812.5 360A95.8333333333333 95.8333333333333 0 0 0 779.9999999999999 287.9583333333335L315.3333333333333 -120.8333333333332A76.9583333333333 76.9583333333333 0 0 0 213.7083333333333 -5.2916666666666L620.0416666666666 352.1666666666668A10.4166666666667 10.4166666666667 0 0 1 620.0416666666666 367.8333333333335L213.7083333333333 725.2916666666666A76.9583333333333 76.9583333333333 0 0 0 315.3333333333333 840.8333333333334L779.8333333333334 432.1666666666667A96.25 96.25 0 0 0 812.5 360z" />
    <glyph glyph-name="arrow-right"
      unicode="&#xF11B;"
      horiz-adv-x="1000" d="M999.4583333333331 360A100.4583333333333 100.4583333333333 0 0 1 965.5416666666666 435.0000000000001L499.7499999999999 844.9583333333334A60 60 0 0 1 420.5833333333333 754.875L780.4583333333334 438.2083333333334A10.4166666666667 10.4166666666667 0 0 0 773.5833333333334 420.0000000000001H60.5A60 60 0 0 1 60.5 300.0000000000001H773.4583333333333A10.4583333333333 10.4583333333333 0 0 0 780.3333333333333 281.7500000000001L420.4583333333332 -34.9166666666665A60 60 0 1 1 499.6249999999999 -124.9583333333332L965.5 285A100.375 100.375 0 0 1 999.4583333333331 360z" />
    <glyph glyph-name="arrow-right-1"
      unicode="&#x61;&#x72;&#x72;&#x6F;&#x77;&#x2D;&#x72;&#x69;&#x67;&#x68;&#x74;"
      horiz-adv-x="1000" d="M999.4583333333331 360A100.4583333333333 100.4583333333333 0 0 1 965.5416666666666 435.0000000000001L499.7499999999999 844.9583333333334A60 60 0 0 1 420.5833333333333 754.875L780.4583333333334 438.2083333333335A10.4166666666667 10.4166666666667 0 0 0 773.5833333333334 420.0000000000001H60.5A60 60 0 0 1 60.5 300.0000000000001H773.4583333333333A10.4583333333333 10.4583333333333 0 0 0 780.3333333333333 281.7500000000001L420.4583333333332 -34.9166666666665A60 60 0 1 1 499.6249999999999 -124.9583333333332L965.5 285A100.375 100.375 0 0 1 999.4583333333331 360z" />
    <glyph glyph-name="arrow-up-1"
      unicode="&#xF11C;"
      horiz-adv-x="1000" d="M500 672.5A95.8333333333333 95.8333333333333 0 0 0 572.0416666666666 640L980.8333333333331 175.4166666666668A76.9583333333333 76.9583333333333 0 1 0 865.2916666666666 73.7916666666667L507.8333333333333 480.0416666666667A10.4166666666667 10.4166666666667 0 0 1 492.1666666666667 480.0416666666667L134.7083333333334 73.7083333333335A76.9583333333333 76.9583333333333 0 1 0 19.1666666666667 175.3333333333335L427.8333333333333 639.8333333333334A96.25 96.25 0 0 0 500 672.5z" />
    <glyph glyph-name="arrow-up-1-1"
      unicode="&#x61;&#x72;&#x72;&#x6F;&#x77;&#x2D;&#x75;&#x70;&#x2D;&#x31;"
      horiz-adv-x="1000" d="M500 672.5A95.8333333333333 95.8333333333333 0 0 0 572.0416666666666 640L980.8333333333331 175.4166666666668A76.9583333333333 76.9583333333333 0 1 0 865.2916666666666 73.7916666666667L507.8333333333333 480.0416666666667A10.4166666666667 10.4166666666667 0 0 1 492.1666666666667 480.0416666666667L134.7083333333334 73.7083333333335A76.9583333333333 76.9583333333333 0 1 0 19.1666666666667 175.3333333333335L427.8333333333333 639.8333333333334A96.25 96.25 0 0 0 500 672.5z" />
    <glyph glyph-name="arrow-up"
      unicode="&#xF11D;"
      horiz-adv-x="1000" d="M975.8749999999998 369.7916666666667L573.6666666666666 826.6666666666666A110.0416666666667 110.0416666666667 0 0 1 500 860A110.2083333333333 110.2083333333333 0 0 1 426.3333333333333 826.6666666666666L24.125 369.7916666666667A58.875 58.875 0 1 1 112.5 292L422.9166666666667 644.75A10.4166666666667 10.4166666666667 0 0 0 441.125 637.8333333333333V-81.1249999999999A58.875 58.875 0 1 1 558.875 -81.1249999999999V637.8333333333334A10.4166666666667 10.4166666666667 0 0 0 577.125 644.7083333333334L887.5 292A58.875 58.875 0 1 1 975.8749999999998 369.7916666666667z" />
    <glyph glyph-name="arrow-up-1"
      unicode="&#x61;&#x72;&#x72;&#x6F;&#x77;&#x2D;&#x75;&#x70;"
      horiz-adv-x="1000" d="M975.8749999999998 369.7916666666667L573.6666666666666 826.6666666666666A110.0416666666667 110.0416666666667 0 0 1 500 860A110.2083333333333 110.2083333333333 0 0 1 426.3333333333333 826.6666666666666L24.125 369.7916666666667A58.875 58.875 0 1 1 112.5 292L422.9166666666667 644.75A10.4166666666667 10.4166666666667 0 0 0 441.125 637.8333333333333V-81.1249999999999A58.875 58.875 0 1 1 558.875 -81.1249999999999V637.8333333333334A10.4166666666667 10.4166666666667 0 0 0 577.125 644.7083333333334L887.5 292A58.875 58.875 0 1 1 975.8749999999998 369.7916666666667z" />
    <glyph glyph-name="attachment"
      unicode="&#xF11E;"
      horiz-adv-x="1000" d="M910.125 716.0416666666667A290.0416666666667 290.0416666666667 0 0 1 499.8749999999999 716.0416666666667L67.4583333333333 283.6666666666667A213.6666666666666 213.6666666666666 0 0 1 369.625 -18.4999999999999L720.8333333333334 332.7916666666667A137.2083333333334 137.2083333333334 0 1 1 526.9166666666666 526.6666666666667L310.7083333333333 310.6666666666668A41.6666666666667 41.6666666666667 0 1 1 369.625 251.6666666666668L585.8333333333334 467.9583333333333A53.9166666666667 53.9166666666667 0 0 0 662.0416666666666 391.7083333333333L310.7083333333333 40.4166666666666A130.3333333333333 130.3333333333333 0 0 0 126.375 224.75L558.7916666666666 657.125A206.75 206.75 0 1 0 851.2083333333333 364.7083333333333L526.9166666666666 40.4166666666666A41.6666666666667 41.6666666666667 0 1 1 585.8333333333334 -18.5000000000001L910.125 305.8333333333334A290 290 0 0 1 910.125 716.0833333333333z" />
    <glyph glyph-name="attachment-1"
      unicode="&#x61;&#x74;&#x74;&#x61;&#x63;&#x68;&#x6D;&#x65;&#x6E;&#x74;"
      horiz-adv-x="1000" d="M910.125 716.0416666666667A290.0416666666667 290.0416666666667 0 0 1 499.8749999999999 716.0416666666667L67.4583333333333 283.6666666666667A213.6666666666666 213.6666666666666 0 0 1 369.625 -18.4999999999999L720.8333333333334 332.7916666666667A137.2083333333334 137.2083333333334 0 1 1 526.9166666666666 526.6666666666667L310.7083333333333 310.6666666666668A41.6666666666667 41.6666666666667 0 1 1 369.625 251.6666666666668L585.8333333333334 467.9583333333333A53.9166666666667 53.9166666666667 0 0 0 662.0416666666666 391.7083333333333L310.7083333333333 40.4166666666666A130.3333333333333 130.3333333333333 0 0 0 126.375 224.75L558.7916666666666 657.125A206.75 206.75 0 1 0 851.2083333333333 364.7083333333333L526.9166666666666 40.4166666666666A41.6666666666667 41.6666666666667 0 1 1 585.8333333333334 -18.5000000000001L910.125 305.8333333333335A290 290 0 0 1 910.125 716.0833333333333z" />
    <glyph glyph-name="beach-sun-birds"
      unicode="&#xF11F;"
      horiz-adv-x="1000" d="M312.5 702.5A41.6666666666667 41.6666666666667 0 0 1 354.1666666666667 744.1666666666667V793.3333333333334A41.6666666666667 41.6666666666667 0 0 1 270.8333333333333 793.3333333333334V744.1666666666667A41.6666666666667 41.6666666666667 0 0 1 312.5 702.5zM127.6666666666667 649.6666666666667A41.6666666666667 41.6666666666667 0 1 1 186.625 708.5833333333334L151.7916666666667 743.3333333333334A41.6666666666667 41.6666666666667 0 0 1 92.8333333333333 684.5416666666666zM41.6666666666667 480.8333333333334H90.9166666666667A41.6666666666667 41.6666666666667 0 1 1 90.9166666666667 564.1666666666667H41.6666666666667A41.6666666666667 41.6666666666667 0 0 1 41.6666666666667 480.8333333333334zM127.6666666666667 395.2500000000001L92.875 360.4166666666667A41.6666666666667 41.6666666666667 0 1 1 151.7916666666667 301.6666666666667L186.625 336.5A41.6666666666667 41.6666666666667 0 0 1 127.6666666666667 395.4166666666667zM270.8333333333333 301V251.6666666666668A41.6666666666667 41.6666666666667 0 0 1 354.1666666666667 251.6666666666668V301A41.6666666666667 41.6666666666667 0 0 1 270.8333333333333 301zM441.0416666666667 395.2500000000001A41.6666666666667 41.6666666666667 0 0 1 441.0416666666667 336.3333333333334L475.875 301.5A41.6666666666667 41.6666666666667 0 0 1 534.7916666666666 360.4166666666667L500 395.2500000000001A41.6666666666667 41.6666666666667 0 0 1 441.0416666666667 395.2500000000001zM492.4166666666666 522.5A41.6666666666667 41.6666666666667 0 0 1 534.0833333333333 480.8333333333334H583.3333333333333A41.6666666666667 41.6666666666667 0 0 1 583.3333333333333 564.1666666666667H534.0833333333333A41.6666666666667 41.6666666666667 0 0 1 492.4166666666666 522.5zM470.4999999999999 637.4583333333334A41.6666666666667 41.6666666666667 0 0 1 500 649.6666666666667L534.875 684.5416666666666A41.6666666666667 41.6666666666667 0 0 1 475.8749999999999 743.3333333333334L441 708.4583333333334A41.6666666666667 41.6666666666667 0 0 1 470.4999999999999 637.3333333333334zM312.5 379.6666666666667A142.0416666666667 142.0416666666667 0 1 1 170.4583333333334 521.6666666666667A142.1666666666667 142.1666666666667 0 0 1 312.5 379.6666666666667zM743 385A21.5 21.5 0 0 0 765.4166666666666 393.3333333333333A34.4166666666667 34.4166666666667 0 0 0 792.875 366.2916666666667A41.6666666666667 41.6666666666667 0 0 1 873.7499999999999 366.2916666666667A34.4166666666667 34.4166666666667 0 0 0 901.2499999999998 393.3333333333334A21.5416666666667 21.5416666666667 0 0 0 923.6666666666666 385.0000000000001A41.6666666666667 41.6666666666667 0 1 1 993 431.2083333333335A103.375 103.375 0 0 1 886.9166666666666 475.2916666666667A116.6666666666666 116.6666666666666 0 0 1 844.4583333333334 459.0000000000001A20.8333333333333 20.8333333333333 0 0 0 822.1666666666667 459.0000000000001A116.6666666666666 116.6666666666666 0 0 1 779.75 475.2916666666667A103 103 0 0 1 673.6666666666667 431.2083333333335A41.6666666666667 41.6666666666667 0 1 1 743 385zM952.7916666666666 -29.2916666666666C884.9166666666666 -38.375 838.7500000000001 33.2083333333334 838.375 33.7500000000001A43.6666666666667 43.6666666666667 0 0 1 766.9166666666667 32.7916666666667A136.7916666666667 136.7916666666667 0 0 0 655.3750000000001 -30.3333333333333A113.5416666666667 113.5416666666667 0 0 0 558.0416666666667 29.6250000000001A43.5416666666667 43.5416666666667 0 0 1 486.6250000000001 36.2916666666667A175 175 0 0 0 360.5 -30.3749999999999A144.2083333333333 144.2083333333333 0 0 0 248.6666666666667 33.7500000000001A43.5 43.5 0 0 1 180.5 37.6666666666669C179.9166666666666 36.8333333333335 117.625 -40.4166666666664 47.1666666666667 -30.9583333333331A41.6666666666667 41.6666666666667 0 0 1 36.1666666666667 -113.5416666666664A171.375 171.375 0 0 1 59.0416666666667 -115.0416666666664A228.5833333333333 228.5833333333333 0 0 1 197.5416666666666 -61.083333333333A20.8333333333333 20.8333333333333 0 0 0 223.875 -61.4999999999998A209.875 209.875 0 0 1 360.5 -113.6666666666664A234.2916666666667 234.2916666666667 0 0 1 502.1666666666666 -63.6666666666664A20.8333333333333 20.8333333333333 0 0 0 528.6666666666666 -64.7916666666665A185.375 185.375 0 0 1 655.4999999999999 -113.5416666666664A208.3333333333334 208.3333333333334 0 0 1 789.7916666666665 -64.9999999999999A20.8333333333333 20.8333333333333 0 0 0 816.4583333333333 -64.9999999999999A187.5 187.5 0 0 1 963.8749999999998 -111.9166666666666A41.6666666666667 41.6666666666667 0 0 1 952.7916666666666 -29.3333333333334z" />
    <glyph glyph-name="beach-sun-birds-1"
      unicode="&#x62;&#x65;&#x61;&#x63;&#x68;&#x2D;&#x73;&#x75;&#x6E;&#x2D;&#x62;&#x69;&#x72;&#x64;&#x73;"
      horiz-adv-x="1000" d="M312.5 702.5A41.6666666666667 41.6666666666667 0 0 1 354.1666666666667 744.1666666666667V793.3333333333334A41.6666666666667 41.6666666666667 0 0 1 270.8333333333333 793.3333333333334V744.1666666666667A41.6666666666667 41.6666666666667 0 0 1 312.5 702.5zM127.6666666666667 649.6666666666667A41.6666666666667 41.6666666666667 0 1 1 186.625 708.5833333333334L151.7916666666667 743.3333333333334A41.6666666666667 41.6666666666667 0 0 1 92.8333333333333 684.5416666666666zM41.6666666666667 480.8333333333334H90.9166666666667A41.6666666666667 41.6666666666667 0 1 1 90.9166666666667 564.1666666666667H41.6666666666667A41.6666666666667 41.6666666666667 0 0 1 41.6666666666667 480.8333333333334zM127.6666666666667 395.2500000000001L92.875 360.4166666666667A41.6666666666667 41.6666666666667 0 1 1 151.7916666666667 301.6666666666667L186.625 336.5A41.6666666666667 41.6666666666667 0 0 1 127.6666666666667 395.4166666666667zM270.8333333333333 301V251.6666666666668A41.6666666666667 41.6666666666667 0 0 1 354.1666666666667 251.6666666666668V301A41.6666666666667 41.6666666666667 0 0 1 270.8333333333333 301zM441.0416666666667 395.2500000000001A41.6666666666667 41.6666666666667 0 0 1 441.0416666666667 336.3333333333335L475.875 301.5A41.6666666666667 41.6666666666667 0 0 1 534.7916666666666 360.4166666666667L500 395.2500000000001A41.6666666666667 41.6666666666667 0 0 1 441.0416666666667 395.2500000000001zM492.4166666666666 522.5A41.6666666666667 41.6666666666667 0 0 1 534.0833333333333 480.8333333333334H583.3333333333333A41.6666666666667 41.6666666666667 0 0 1 583.3333333333333 564.1666666666667H534.0833333333333A41.6666666666667 41.6666666666667 0 0 1 492.4166666666666 522.5zM470.4999999999999 637.4583333333334A41.6666666666667 41.6666666666667 0 0 1 500 649.6666666666667L534.875 684.5416666666666A41.6666666666667 41.6666666666667 0 0 1 475.8749999999999 743.3333333333334L441 708.4583333333334A41.6666666666667 41.6666666666667 0 0 1 470.4999999999999 637.3333333333334zM312.5 379.6666666666667A142.0416666666667 142.0416666666667 0 1 1 170.4583333333334 521.6666666666667A142.1666666666667 142.1666666666667 0 0 1 312.5 379.6666666666667zM743 385A21.5 21.5 0 0 0 765.4166666666666 393.3333333333333A34.4166666666667 34.4166666666667 0 0 0 792.875 366.2916666666667A41.6666666666667 41.6666666666667 0 0 1 873.7499999999999 366.2916666666667A34.4166666666667 34.4166666666667 0 0 0 901.2499999999998 393.3333333333335A21.5416666666667 21.5416666666667 0 0 0 923.6666666666666 385.0000000000001A41.6666666666667 41.6666666666667 0 1 1 993 431.2083333333335A103.375 103.375 0 0 1 886.9166666666666 475.2916666666667A116.6666666666666 116.6666666666666 0 0 1 844.4583333333334 459.0000000000001A20.8333333333333 20.8333333333333 0 0 0 822.1666666666667 459.0000000000001A116.6666666666666 116.6666666666666 0 0 1 779.75 475.2916666666667A103 103 0 0 1 673.6666666666667 431.2083333333335A41.6666666666667 41.6666666666667 0 1 1 743 385zM952.7916666666666 -29.2916666666666C884.9166666666666 -38.375 838.7500000000001 33.2083333333334 838.375 33.7500000000001A43.6666666666667 43.6666666666667 0 0 1 766.9166666666667 32.7916666666667A136.7916666666667 136.7916666666667 0 0 0 655.3750000000001 -30.3333333333333A113.5416666666667 113.5416666666667 0 0 0 558.0416666666667 29.6250000000001A43.5416666666667 43.5416666666667 0 0 1 486.6250000000001 36.2916666666667A175 175 0 0 0 360.5 -30.3749999999999A144.2083333333333 144.2083333333333 0 0 0 248.6666666666667 33.7500000000001A43.5 43.5 0 0 1 180.5 37.6666666666669C179.9166666666666 36.8333333333335 117.625 -40.4166666666664 47.1666666666667 -30.9583333333331A41.6666666666667 41.6666666666667 0 0 1 36.1666666666667 -113.5416666666664A171.375 171.375 0 0 1 59.0416666666667 -115.0416666666664A228.5833333333333 228.5833333333333 0 0 1 197.5416666666666 -61.083333333333A20.8333333333333 20.8333333333333 0 0 0 223.875 -61.4999999999998A209.875 209.875 0 0 1 360.5 -113.6666666666664A234.2916666666667 234.2916666666667 0 0 1 502.1666666666666 -63.6666666666664A20.8333333333333 20.8333333333333 0 0 0 528.6666666666666 -64.7916666666665A185.375 185.375 0 0 1 655.4999999999999 -113.5416666666664A208.3333333333334 208.3333333333334 0 0 1 789.7916666666665 -64.9999999999999A20.8333333333333 20.8333333333333 0 0 0 816.4583333333333 -64.9999999999999A187.5 187.5 0 0 1 963.8749999999998 -111.9166666666666A41.6666666666667 41.6666666666667 0 0 1 952.7916666666666 -29.3333333333334z" />
    <glyph glyph-name="bin-1"
      unicode="&#xF120;"
      horiz-adv-x="1000" d="M810.5 547.5H189.4583333333333A20.8333333333333 20.8333333333333 0 0 1 168.625 524.7916666666667L222.25 -64.2083333333334A83.3333333333333 83.3333333333333 0 0 1 305.25 -140H694.7083333333333A83.3333333333333 83.3333333333333 0 0 1 777.7083333333333 -64.2083333333334L831.2499999999999 524.7916666666667A20.8333333333333 20.8333333333333 0 0 1 825.8749999999999 540.7083333333333A20.8333333333333 20.8333333333333 0 0 1 810.5 547.5zM427.1666666666668 5.8333333333334A31.25 31.25 0 0 0 364.6666666666668 5.8333333333334V380.8333333333334A31.25 31.25 0 0 0 427.1666666666668 380.8333333333334zM635.5000000000001 5.8333333333334A31.25 31.25 0 0 0 573.0000000000001 5.8333333333334V380.8333333333334A31.25 31.25 0 0 0 635.5000000000001 380.8333333333334zM916.6666666666666 693.3333333333334H718.75A10.4166666666667 10.4166666666667 0 0 0 708.3333333333333 703.75V755.8333333333334A104.1666666666667 104.1666666666667 0 0 1 604.1666666666666 860H395.8333333333333A104.1666666666667 104.1666666666667 0 0 1 291.6666666666667 755.8333333333334V703.75A10.4166666666667 10.4166666666667 0 0 0 281.25 693.3333333333334H83.3333333333333A41.6666666666667 41.6666666666667 0 0 1 83.3333333333333 610H916.6666666666666A41.6666666666667 41.6666666666667 0 0 1 916.6666666666666 693.3333333333334zM375 703.75V755.8333333333334A20.8333333333333 20.8333333333333 0 0 0 395.8333333333333 776.6666666666666H604.1666666666666A20.8333333333333 20.8333333333333 0 0 0 625 755.8333333333334V703.75A10.4166666666667 10.4166666666667 0 0 0 614.5833333333333 693.3333333333334H385.4166666666667A10.4166666666667 10.4166666666667 0 0 0 375 703.75z" />
    <glyph glyph-name="bin-1-1"
      unicode="&#x62;&#x69;&#x6E;&#x2D;&#x31;"
      horiz-adv-x="1000" d="M810.5 547.5H189.4583333333333A20.8333333333333 20.8333333333333 0 0 1 168.625 524.7916666666667L222.25 -64.2083333333334A83.3333333333333 83.3333333333333 0 0 1 305.25 -140H694.7083333333333A83.3333333333333 83.3333333333333 0 0 1 777.7083333333333 -64.2083333333334L831.2499999999999 524.7916666666667A20.8333333333333 20.8333333333333 0 0 1 825.8749999999999 540.7083333333333A20.8333333333333 20.8333333333333 0 0 1 810.5 547.5zM427.1666666666668 5.8333333333334A31.25 31.25 0 0 0 364.6666666666668 5.8333333333334V380.8333333333335A31.25 31.25 0 0 0 427.1666666666668 380.8333333333335zM635.5000000000001 5.8333333333334A31.25 31.25 0 0 0 573.0000000000001 5.8333333333334V380.8333333333335A31.25 31.25 0 0 0 635.5000000000001 380.8333333333335zM916.6666666666666 693.3333333333334H718.75A10.4166666666667 10.4166666666667 0 0 0 708.3333333333333 703.75V755.8333333333334A104.1666666666667 104.1666666666667 0 0 1 604.1666666666666 860H395.8333333333333A104.1666666666667 104.1666666666667 0 0 1 291.6666666666667 755.8333333333334V703.75A10.4166666666667 10.4166666666667 0 0 0 281.25 693.3333333333334H83.3333333333333A41.6666666666667 41.6666666666667 0 0 1 83.3333333333333 610H916.6666666666666A41.6666666666667 41.6666666666667 0 0 1 916.6666666666666 693.3333333333334zM375 703.75V755.8333333333334A20.8333333333333 20.8333333333333 0 0 0 395.8333333333333 776.6666666666666H604.1666666666666A20.8333333333333 20.8333333333333 0 0 0 625 755.8333333333334V703.75A10.4166666666667 10.4166666666667 0 0 0 614.5833333333333 693.3333333333334H385.4166666666667A10.4166666666667 10.4166666666667 0 0 0 375 703.75z" />
    <glyph glyph-name="business-contract-handshake-sign"
      unicode="&#xF121;"
      horiz-adv-x="1000" d="M146.25 814.4166666666666V335.25A41.6666666666667 41.6666666666667 0 0 1 229.5833333333333 335.25V751.9166666666667A20.8333333333333 20.8333333333333 0 0 0 250.4166666666667 772.75H641.2083333333333A20.8333333333333 20.8333333333333 0 0 0 655.9166666666666 766.6666666666667L765.1249999999999 657.4583333333334A20.8333333333333 20.8333333333333 0 0 0 771.2499999999999 642.7083333333334V335.2500000000001A41.6666666666667 41.6666666666667 0 0 1 854.5833333333333 335.2500000000001V668.5833333333335A41.6666666666667 41.6666666666667 0 0 1 842.3749999999999 698.0416666666667L696.5416666666666 843.8750000000001A41.6666666666667 41.6666666666667 0 0 1 667.0833333333334 856.0833333333334H187.9166666666667A41.6666666666667 41.6666666666667 0 0 1 146.25 814.4166666666666zM694.7499999999999 -25.4999999999999A10.5416666666667 10.5416666666667 0 0 0 699.1666666666666 -32.2499999999999A72.9583333333333 72.9583333333333 0 0 1 770.8333333333333 -91.8333333333331H875A31.25 31.25 0 0 1 906.25 -60.5833333333331V231.0833333333335A31.25 31.25 0 0 1 875 262.3333333333335H770.8333333333333A72.375 72.375 0 0 1 735.375 253.0833333333335A10.4166666666667 10.4166666666667 0 0 0 726.5416666666666 252.4583333333335L607.5416666666667 298.0000000000001A102 102 0 0 1 528.7083333333334 293.5416666666669L466.7500000000001 263.5416666666668A10.3333333333333 10.3333333333333 0 0 0 457.0833333333334 263.7916666666669A91.6666666666667 91.6666666666667 0 0 1 377.1250000000001 268.6666666666669L296.3333333333334 234.2083333333335A10.4583333333333 10.4583333333333 0 0 0 284.3333333333334 237.0000000000003A72.7083333333333 72.7083333333333 0 0 1 229.1666666666667 262.3333333333334H125A31.25 31.25 0 0 1 93.75 231.0833333333334V-60.5833333333334A31.25 31.25 0 0 1 125 -91.8333333333334H229.1666666666667A72.9583333333333 72.9583333333333 0 0 1 292.2916666666667 -55.375A10.4583333333333 10.4583333333333 0 0 0 301.2916666666667 -50.1666666666666H314.6666666666667A10.625 10.625 0 0 0 321.125 -52.375L405.0833333333333 -118.4166666666667A59.5833333333333 59.5833333333333 0 0 1 485.2916666666666 -122.5833333333335L577.2499999999999 -47.1666666666669A10.8333333333333 10.8333333333333 0 0 0 581.8333333333333 -45.0000000000002L686.8749999999999 -24.1666666666669A10.5 10.5 0 0 0 694.7499999999999 -25.4999999999999zM580.8333333333333 36.4166666666667L449.5 -74.4999999999999S445.3333333333333 -70.7499999999999 348.4166666666667 5.6250000000002A31.125 31.125 0 0 1 329.0833333333333 12.3333333333336H312.5A10.4166666666667 10.4166666666667 0 0 0 302.0833333333333 22.7500000000003V161.8750000000001A10.375 10.375 0 0 0 308.4166666666667 171.4583333333335L400.9583333333334 210.8750000000001A5.9166666666667 5.9166666666667 0 0 0 407 209.8333333333334A5.8333333333333 5.8333333333333 0 0 0 408.7916666666667 203.9583333333334A81.4583333333333 81.4583333333333 0 0 1 518 108.1250000000001L520.3333333333333 109.1250000000001A10.5 10.5 0 0 0 531.9999999999999 106.4583333333335L581.9999999999999 51.5833333333335A10.6666666666667 10.6666666666667 0 0 0 584.6666666666665 43.8750000000002A10.5 10.5 0 0 0 580.8333333333333 36.4166666666667zM656.5833333333333 37.4583333333334A10.5416666666667 10.5416666666667 0 0 0 652.4166666666666 45.2083333333334A63.7916666666667 63.7916666666667 0 0 1 638.5416666666666 81.7083333333335L558.4583333333333 169.9166666666669A31.5416666666667 31.5416666666667 0 0 1 523.4166666666666 177.8750000000001L494.25 165.9166666666669A18.75 18.75 0 0 0 469.8333333333333 176.4166666666668C465.125 188.4583333333335 471.125 193.4583333333335 478.75 200.0000000000001L556.0833333333333 237.5000000000001A39.4583333333333 39.4583333333333 0 0 0 585.5 239.3750000000001L691.0833333333333 199.0000000000001A10.25 10.25 0 0 0 697.6666666666666 189.4166666666669V50.5416666666667A10.4166666666667 10.4166666666667 0 0 0 689.3333333333333 40.3333333333334L664.8333333333334 35.4583333333334A10.2916666666667 10.2916666666667 0 0 0 656.5833333333333 37.4583333333334zM479.1666666666666 595.6666666666667A31.25 31.25 0 0 1 479.1666666666666 658.1666666666666H354.1666666666667A31.25 31.25 0 0 1 354.1666666666667 595.6666666666667zM354.5833333333333 429.0000000000001H667.0833333333333A31.25 31.25 0 0 1 667.0833333333333 491.5000000000001H354.5833333333333A31.25 31.25 0 0 1 354.5833333333333 429.0000000000001z" />
    <glyph glyph-name="business-contract-handshake-sign-1"
      unicode="&#x62;&#x75;&#x73;&#x69;&#x6E;&#x65;&#x73;&#x73;&#x2D;&#x63;&#x6F;&#x6E;&#x74;&#x72;&#x61;&#x63;&#x74;&#x2D;&#x68;&#x61;&#x6E;&#x64;&#x73;&#x68;&#x61;&#x6B;&#x65;&#x2D;&#x73;&#x69;&#x67;&#x6E;"
      horiz-adv-x="1000" d="M146.25 814.4166666666666V335.25A41.6666666666667 41.6666666666667 0 0 1 229.5833333333333 335.25V751.9166666666667A20.8333333333333 20.8333333333333 0 0 0 250.4166666666667 772.75H641.2083333333333A20.8333333333333 20.8333333333333 0 0 0 655.9166666666666 766.6666666666667L765.1249999999999 657.4583333333334A20.8333333333333 20.8333333333333 0 0 0 771.2499999999999 642.7083333333334V335.2500000000001A41.6666666666667 41.6666666666667 0 0 1 854.5833333333333 335.2500000000001V668.5833333333335A41.6666666666667 41.6666666666667 0 0 1 842.3749999999999 698.0416666666667L696.5416666666666 843.8750000000001A41.6666666666667 41.6666666666667 0 0 1 667.0833333333334 856.0833333333334H187.9166666666667A41.6666666666667 41.6666666666667 0 0 1 146.25 814.4166666666666zM694.7499999999999 -25.4999999999999A10.5416666666667 10.5416666666667 0 0 0 699.1666666666666 -32.2499999999999A72.9583333333333 72.9583333333333 0 0 1 770.8333333333333 -91.8333333333331H875A31.25 31.25 0 0 1 906.25 -60.5833333333331V231.0833333333335A31.25 31.25 0 0 1 875 262.3333333333335H770.8333333333333A72.375 72.375 0 0 1 735.375 253.0833333333335A10.4166666666667 10.4166666666667 0 0 0 726.5416666666666 252.4583333333335L607.5416666666667 298.0000000000001A102 102 0 0 1 528.7083333333334 293.5416666666669L466.7500000000001 263.5416666666668A10.3333333333333 10.3333333333333 0 0 0 457.0833333333334 263.7916666666669A91.6666666666667 91.6666666666667 0 0 1 377.1250000000001 268.6666666666669L296.3333333333335 234.2083333333335A10.4583333333333 10.4583333333333 0 0 0 284.3333333333335 237.0000000000003A72.7083333333333 72.7083333333333 0 0 1 229.1666666666667 262.3333333333335H125A31.25 31.25 0 0 1 93.75 231.0833333333334V-60.5833333333334A31.25 31.25 0 0 1 125 -91.8333333333334H229.1666666666667A72.9583333333333 72.9583333333333 0 0 1 292.2916666666667 -55.375A10.4583333333333 10.4583333333333 0 0 0 301.2916666666667 -50.1666666666666H314.6666666666667A10.625 10.625 0 0 0 321.125 -52.375L405.0833333333333 -118.4166666666667A59.5833333333333 59.5833333333333 0 0 1 485.2916666666666 -122.5833333333335L577.2499999999999 -47.1666666666669A10.8333333333333 10.8333333333333 0 0 0 581.8333333333333 -45.0000000000002L686.8749999999999 -24.1666666666669A10.5 10.5 0 0 0 694.7499999999999 -25.4999999999999zM580.8333333333333 36.4166666666667L449.5 -74.4999999999999S445.3333333333333 -70.7499999999999 348.4166666666667 5.6250000000002A31.125 31.125 0 0 1 329.0833333333333 12.3333333333336H312.5A10.4166666666667 10.4166666666667 0 0 0 302.0833333333333 22.7500000000003V161.8750000000001A10.375 10.375 0 0 0 308.4166666666667 171.4583333333335L400.9583333333335 210.8750000000001A5.9166666666667 5.9166666666667 0 0 0 407 209.8333333333334A5.8333333333333 5.8333333333333 0 0 0 408.7916666666667 203.9583333333334A81.4583333333333 81.4583333333333 0 0 1 518 108.1250000000001L520.3333333333333 109.1250000000001A10.5 10.5 0 0 0 531.9999999999999 106.4583333333335L581.9999999999999 51.5833333333335A10.6666666666667 10.6666666666667 0 0 0 584.6666666666665 43.8750000000002A10.5 10.5 0 0 0 580.8333333333333 36.4166666666667zM656.5833333333333 37.4583333333334A10.5416666666667 10.5416666666667 0 0 0 652.4166666666666 45.2083333333334A63.7916666666667 63.7916666666667 0 0 1 638.5416666666666 81.7083333333335L558.4583333333333 169.9166666666669A31.5416666666667 31.5416666666667 0 0 1 523.4166666666666 177.8750000000001L494.25 165.9166666666669A18.75 18.75 0 0 0 469.8333333333333 176.4166666666668C465.125 188.4583333333335 471.125 193.4583333333335 478.75 200.0000000000001L556.0833333333333 237.5000000000001A39.4583333333333 39.4583333333333 0 0 0 585.5 239.3750000000001L691.0833333333333 199.0000000000001A10.25 10.25 0 0 0 697.6666666666666 189.4166666666669V50.5416666666667A10.4166666666667 10.4166666666667 0 0 0 689.3333333333333 40.3333333333334L664.8333333333334 35.4583333333334A10.2916666666667 10.2916666666667 0 0 0 656.5833333333333 37.4583333333334zM479.1666666666666 595.6666666666667A31.25 31.25 0 0 1 479.1666666666666 658.1666666666666H354.1666666666667A31.25 31.25 0 0 1 354.1666666666667 595.6666666666667zM354.5833333333333 429.0000000000001H667.0833333333333A31.25 31.25 0 0 1 667.0833333333333 491.5000000000001H354.5833333333333A31.25 31.25 0 0 1 354.5833333333333 429.0000000000001z" />
    <glyph glyph-name="button-next"
      unicode="&#xF122;"
      horiz-adv-x="1000" d="M500 860A500 500 0 1 1 1000 360A500.5416666666666 500.5416666666666 0 0 1 500 860zM291.6666666666667 500.75A41.6666666666667 41.6666666666667 0 0 0 361.2083333333333 531.7916666666667L517.5833333333334 391A41.6666666666667 41.6666666666667 0 0 0 517.5833333333334 329.0416666666667L361.25 188.375A41.6666666666667 41.6666666666667 0 0 0 291.6666666666667 219.3333333333334zM708.3333333333333 193.3333333333334A41.6666666666667 41.6666666666667 0 0 0 666.6666666666666 151.6666666666668H625A41.6666666666667 41.6666666666667 0 0 0 583.3333333333333 193.3333333333334V526.6666666666667A41.6666666666667 41.6666666666667 0 0 0 625 568.3333333333334H666.6666666666666A41.6666666666667 41.6666666666667 0 0 0 708.3333333333333 526.6666666666667z" />
    <glyph glyph-name="button-next-1"
      unicode="&#x62;&#x75;&#x74;&#x74;&#x6F;&#x6E;&#x2D;&#x6E;&#x65;&#x78;&#x74;"
      horiz-adv-x="1000" d="M500 860A500 500 0 1 1 1000 360A500.5416666666666 500.5416666666666 0 0 1 500 860zM291.6666666666667 500.75A41.6666666666667 41.6666666666667 0 0 0 361.2083333333333 531.7916666666667L517.5833333333334 391A41.6666666666667 41.6666666666667 0 0 0 517.5833333333334 329.0416666666667L361.25 188.375A41.6666666666667 41.6666666666667 0 0 0 291.6666666666667 219.3333333333334zM708.3333333333333 193.3333333333334A41.6666666666667 41.6666666666667 0 0 0 666.6666666666666 151.6666666666668H625A41.6666666666667 41.6666666666667 0 0 0 583.3333333333333 193.3333333333334V526.6666666666667A41.6666666666667 41.6666666666667 0 0 0 625 568.3333333333334H666.6666666666666A41.6666666666667 41.6666666666667 0 0 0 708.3333333333333 526.6666666666667z" />
    <glyph glyph-name="button-previous"
      unicode="&#xF123;"
      horiz-adv-x="1000" d="M500 860A500 500 0 1 1 1000 360A500.5416666666666 500.5416666666666 0 0 1 500 860zM708.3333333333333 219.2916666666666A41.6666666666667 41.6666666666667 0 0 0 638.7916666666666 188.2916666666666L482.4166666666666 329.0416666666667A41.6666666666667 41.6666666666667 0 0 0 482.4166666666666 391L638.75 531.75A41.6666666666667 41.6666666666667 0 0 0 708.3333333333333 500.75zM416.6666666666667 526.6666666666667V193.3333333333334A41.6666666666667 41.6666666666667 0 0 0 375 151.6666666666668H333.3333333333333A41.6666666666667 41.6666666666667 0 0 0 291.6666666666667 193.3333333333334V526.6666666666667A41.6666666666667 41.6666666666667 0 0 0 333.3333333333333 568.3333333333334H375A41.6666666666667 41.6666666666667 0 0 0 416.6666666666667 526.6666666666667z" />
    <glyph glyph-name="button-previous-1"
      unicode="&#x62;&#x75;&#x74;&#x74;&#x6F;&#x6E;&#x2D;&#x70;&#x72;&#x65;&#x76;&#x69;&#x6F;&#x75;&#x73;"
      horiz-adv-x="1000" d="M500 860A500 500 0 1 1 1000 360A500.5416666666666 500.5416666666666 0 0 1 500 860zM708.3333333333333 219.2916666666666A41.6666666666667 41.6666666666667 0 0 0 638.7916666666666 188.2916666666666L482.4166666666666 329.0416666666667A41.6666666666667 41.6666666666667 0 0 0 482.4166666666666 391L638.75 531.75A41.6666666666667 41.6666666666667 0 0 0 708.3333333333333 500.75zM416.6666666666667 526.6666666666667V193.3333333333334A41.6666666666667 41.6666666666667 0 0 0 375 151.6666666666668H333.3333333333333A41.6666666666667 41.6666666666667 0 0 0 291.6666666666667 193.3333333333334V526.6666666666667A41.6666666666667 41.6666666666667 0 0 0 333.3333333333333 568.3333333333334H375A41.6666666666667 41.6666666666667 0 0 0 416.6666666666667 526.6666666666667z" />
    <glyph glyph-name="calendar-3"
      unicode="&#xF124;"
      horiz-adv-x="1000" d="M312.5 422.5H270.8333333333333A41.6666666666667 41.6666666666667 0 1 1 270.8333333333333 339.1666666666668H312.5A41.6666666666667 41.6666666666667 0 0 1 312.5 422.5zM520.8333333333333 422.5H479.1666666666666A41.6666666666667 41.6666666666667 0 0 1 479.1666666666666 339.1666666666668H520.8333333333333A41.6666666666667 41.6666666666667 0 0 1 520.8333333333333 422.5zM729.1666666666666 422.5H687.5A41.6666666666667 41.6666666666667 0 0 1 687.5 339.1666666666668H729.1666666666666A41.6666666666667 41.6666666666667 0 0 1 729.1666666666666 422.5zM312.5 255.8333333333334H270.8333333333333A41.6666666666667 41.6666666666667 0 1 1 270.8333333333333 172.5H312.5A41.6666666666667 41.6666666666667 0 0 1 312.5 255.8333333333334zM520.8333333333333 255.8333333333334H479.1666666666666A41.6666666666667 41.6666666666667 0 1 1 479.1666666666666 172.5H520.8333333333333A41.6666666666667 41.6666666666667 0 0 1 520.8333333333333 255.8333333333334zM729.1666666666666 255.8333333333334H687.5A41.6666666666667 41.6666666666667 0 1 1 687.5 172.5H729.1666666666666A41.6666666666667 41.6666666666667 0 0 1 729.1666666666666 255.8333333333334zM312.5 89.1666666666667H270.8333333333333A41.6666666666667 41.6666666666667 0 0 1 270.8333333333333 5.8333333333334H312.5A41.6666666666667 41.6666666666667 0 0 1 312.5 89.1666666666667zM520.8333333333333 89.1666666666667H479.1666666666666A41.6666666666667 41.6666666666667 0 0 1 479.1666666666666 5.8333333333334H520.8333333333333A41.6666666666667 41.6666666666667 0 1 1 520.8333333333333 89.1666666666667zM729.1666666666666 89.1666666666667H687.5A41.6666666666667 41.6666666666667 0 0 1 687.5 5.8333333333334H729.1666666666666A41.6666666666667 41.6666666666667 0 0 1 729.1666666666666 89.1666666666667zM895.8333333333333 735H781.25A10.4166666666667 10.4166666666667 0 0 0 770.8333333333333 745.4166666666666V818.3333333333334A41.6666666666667 41.6666666666667 0 0 1 687.5 818.3333333333334V620.4166666666667A31.25 31.25 0 1 0 625 620.4166666666667V714.1666666666667A20.8333333333333 20.8333333333333 0 0 1 604.1666666666666 735H343.75A10.4166666666667 10.4166666666667 0 0 0 333.3333333333333 745.375V818.3333333333334A41.6666666666667 41.6666666666667 0 1 1 250 818.3333333333334V620.4166666666667A31.25 31.25 0 1 0 187.5 620.4166666666667V714.1666666666667A20.8333333333333 20.8333333333333 0 0 1 166.6666666666667 735H104.1666666666667A83.3333333333333 83.3333333333333 0 0 1 20.8333333333333 651.6666666666667V-56.6666666666666A83.3333333333333 83.3333333333333 0 0 1 104.1666666666667 -140H895.8333333333333A83.3333333333333 83.3333333333333 0 0 1 979.1666666666666 -56.6666666666666V651.6666666666667A83.3333333333333 83.3333333333333 0 0 1 895.8333333333333 735zM895.8333333333333 -35.8333333333333A20.8333333333333 20.8333333333333 0 0 0 875 -56.6666666666666H125A20.8333333333333 20.8333333333333 0 0 0 104.1666666666667 -35.8333333333333V464.1666666666667A20.8333333333333 20.8333333333333 0 0 0 125 485H875A20.8333333333333 20.8333333333333 0 0 0 895.8333333333333 464.1666666666667z" />
    <glyph glyph-name="calendar-3-1"
      unicode="&#x63;&#x61;&#x6C;&#x65;&#x6E;&#x64;&#x61;&#x72;&#x2D;&#x33;"
      horiz-adv-x="1000" d="M312.5 422.5H270.8333333333333A41.6666666666667 41.6666666666667 0 1 1 270.8333333333333 339.1666666666668H312.5A41.6666666666667 41.6666666666667 0 0 1 312.5 422.5zM520.8333333333333 422.5H479.1666666666666A41.6666666666667 41.6666666666667 0 0 1 479.1666666666666 339.1666666666668H520.8333333333333A41.6666666666667 41.6666666666667 0 0 1 520.8333333333333 422.5zM729.1666666666666 422.5H687.5A41.6666666666667 41.6666666666667 0 0 1 687.5 339.1666666666668H729.1666666666666A41.6666666666667 41.6666666666667 0 0 1 729.1666666666666 422.5zM312.5 255.8333333333334H270.8333333333333A41.6666666666667 41.6666666666667 0 1 1 270.8333333333333 172.5H312.5A41.6666666666667 41.6666666666667 0 0 1 312.5 255.8333333333334zM520.8333333333333 255.8333333333334H479.1666666666666A41.6666666666667 41.6666666666667 0 1 1 479.1666666666666 172.5H520.8333333333333A41.6666666666667 41.6666666666667 0 0 1 520.8333333333333 255.8333333333334zM729.1666666666666 255.8333333333334H687.5A41.6666666666667 41.6666666666667 0 1 1 687.5 172.5H729.1666666666666A41.6666666666667 41.6666666666667 0 0 1 729.1666666666666 255.8333333333334zM312.5 89.1666666666667H270.8333333333333A41.6666666666667 41.6666666666667 0 0 1 270.8333333333333 5.8333333333334H312.5A41.6666666666667 41.6666666666667 0 0 1 312.5 89.1666666666667zM520.8333333333333 89.1666666666667H479.1666666666666A41.6666666666667 41.6666666666667 0 0 1 479.1666666666666 5.8333333333334H520.8333333333333A41.6666666666667 41.6666666666667 0 1 1 520.8333333333333 89.1666666666667zM729.1666666666666 89.1666666666667H687.5A41.6666666666667 41.6666666666667 0 0 1 687.5 5.8333333333334H729.1666666666666A41.6666666666667 41.6666666666667 0 0 1 729.1666666666666 89.1666666666667zM895.8333333333333 735H781.25A10.4166666666667 10.4166666666667 0 0 0 770.8333333333333 745.4166666666666V818.3333333333334A41.6666666666667 41.6666666666667 0 0 1 687.5 818.3333333333334V620.4166666666667A31.25 31.25 0 1 0 625 620.4166666666667V714.1666666666667A20.8333333333333 20.8333333333333 0 0 1 604.1666666666666 735H343.75A10.4166666666667 10.4166666666667 0 0 0 333.3333333333333 745.375V818.3333333333334A41.6666666666667 41.6666666666667 0 1 1 250 818.3333333333334V620.4166666666667A31.25 31.25 0 1 0 187.5 620.4166666666667V714.1666666666667A20.8333333333333 20.8333333333333 0 0 1 166.6666666666667 735H104.1666666666667A83.3333333333333 83.3333333333333 0 0 1 20.8333333333333 651.6666666666667V-56.6666666666666A83.3333333333333 83.3333333333333 0 0 1 104.1666666666667 -140H895.8333333333333A83.3333333333333 83.3333333333333 0 0 1 979.1666666666666 -56.6666666666666V651.6666666666667A83.3333333333333 83.3333333333333 0 0 1 895.8333333333333 735zM895.8333333333333 -35.8333333333333A20.8333333333333 20.8333333333333 0 0 0 875 -56.6666666666666H125A20.8333333333333 20.8333333333333 0 0 0 104.1666666666667 -35.8333333333333V464.1666666666667A20.8333333333333 20.8333333333333 0 0 0 125 485H875A20.8333333333333 20.8333333333333 0 0 0 895.8333333333333 464.1666666666667z" />
    </font>
</defs>
</svg>
