<?xml version="1.0" encoding="utf-8"?>
<!-- Generator: Adobe Illustrator 22.1.0, SVG Export Plug-In . SVG Version: 6.00 Build 0)  -->
<svg version="1.1" id="Regular" xmlns="http://www.w3.org/2000/svg" xmlns:xlink="http://www.w3.org/1999/xlink" x="0px" y="0px"
	 viewBox="0 0 24 24" style="enable-background:new 0 0 24 24;" xml:space="preserve">
<title>agriculture-machine-tractor</title>
<g>
	<path d="M17.499,21.007c-1.654,0-3-1.346-3-3s1.346-3,3-3s3,1.346,3,3S19.153,21.007,17.499,21.007z M17.499,16.507
		c-0.827,0-1.5,0.673-1.5,1.5s0.673,1.5,1.5,1.5s1.5-0.673,1.5-1.5S18.326,16.507,17.499,16.507z"/>
	<path d="M4.125,21.007c-0.044,0-0.088-0.004-0.13-0.011c-0.513-0.06-0.923-0.47-0.983-0.983C3.004,19.97,3,19.926,3,19.882
		s0.004-0.088,0.011-0.131c0.06-0.513,0.47-0.922,0.983-0.982c0.042-0.008,0.086-0.011,0.13-0.011s0.088,0.004,0.13,0.011
		c0.513,0.06,0.923,0.469,0.983,0.982c0.008,0.043,0.011,0.087,0.011,0.131s-0.004,0.088-0.011,0.131
		c-0.06,0.513-0.47,0.922-0.983,0.983C4.213,21.003,4.169,21.007,4.125,21.007z"/>
	<path d="M17.499,24.007c-2.15,0-4.119-1.144-5.194-3H8.094c-0.498,1.756-2.12,3-3.969,3C1.85,24.007,0,22.156,0,19.882
		c0-1.239,0.544-2.386,1.5-3.175V12.39c0-1.001,0.672-1.891,1.635-2.164l3.311-1.07l1.749-4.713C7.933,4.325,7.75,4.062,7.75,3.757
		v-2c0-0.965,0.785-1.75,1.75-1.75H18c0.965,0,1.75,0.785,1.75,1.75v2c0,0.304-0.182,0.567-0.443,0.684l2.029,5.412
		c0.435,0.201,0.851,0.433,1.238,0.691c0.419,0.279,0.818,0.596,1.186,0.941c0.146,0.137,0.23,0.323,0.237,0.523
		c0.006,0.2-0.066,0.391-0.203,0.537c-0.141,0.15-0.341,0.237-0.547,0.237l0,0c-0.191,0-0.374-0.072-0.513-0.203
		c-0.307-0.288-0.641-0.553-0.991-0.786c-1.264-0.843-2.727-1.288-4.23-1.288c-0.506,0-1.018,0.051-1.52,0.151
		c-2.006,0.401-3.735,1.56-4.869,3.262l-0.499,0.753c-0.139,0.21-0.373,0.336-0.625,0.336H7c-0.198,0-0.392-0.081-0.532-0.221
		c-0.14-0.14-0.219-0.334-0.218-0.533l0.018-3.464l-2.697,0.871C3.23,11.758,3,12.056,3,12.39v3.524
		c0.365-0.104,0.742-0.157,1.125-0.157c2.148,0,3.918,1.65,4.108,3.75h3.457c-0.127-0.489-0.191-0.992-0.191-1.5
		c0-3.308,2.692-6,6-6s6,2.692,6,6S20.808,24.007,17.499,24.007z M17.499,13.507c-2.481,0-4.5,2.019-4.5,4.5s2.019,4.5,4.5,4.5
		s4.5-2.019,4.5-4.5S19.98,13.507,17.499,13.507z M4.125,17.257c-1.447,0-2.625,1.177-2.625,2.625s1.178,2.625,2.625,2.625
		s2.625-1.177,2.625-2.625S5.572,17.257,4.125,17.257z M9.597,13.507l0.278-0.419c1.701-2.553,4.554-4.076,7.632-4.076
		c0.673,0,1.341,0.074,1.994,0.219L17.73,4.507H9.771L7.772,9.893l-0.018,3.614H9.597z M18.25,3.007v-1.25
		c0-0.138-0.112-0.25-0.25-0.25H9.5c-0.138,0-0.25,0.112-0.25,0.25v1.25H18.25z"/>
</g>
</svg>
