<?xml version="1.0" encoding="utf-8"?>
<!-- Generator: Adobe Illustrator 22.1.0, SVG Export Plug-In . SVG Version: 6.00 Build 0)  -->
<svg version="1.1" id="Layer_1" xmlns="http://www.w3.org/2000/svg" xmlns:xlink="http://www.w3.org/1999/xlink" x="0px" y="0px"
	 viewBox="0 0 24 24" style="enable-background:new 0 0 24 24;" xml:space="preserve">
<title>analytics-bars-3d</title>
<g>
	<path d="M4.5,24.008c-0.76,0-1.498-0.224-2.134-0.647c-0.545-0.365-0.868-0.972-0.866-1.626V11.252c0-1.262,1.318-2.25,3-2.25
		s3,0.988,3,2.25v10.485c0.002,0.652-0.321,1.259-0.865,1.623C5.998,23.785,5.26,24.008,4.5,24.008z M3,21.737
		c0,0.152,0.074,0.293,0.2,0.377c0.387,0.258,0.837,0.394,1.301,0.394c0.464,0,0.914-0.137,1.302-0.395
		C5.926,22.03,6,21.89,6,21.739v-8.527c-0.448,0.189-0.962,0.291-1.5,0.291S3.448,13.401,3,13.212V21.737z M4.5,10.502
		c-0.845,0-1.5,0.403-1.5,0.75s0.655,0.75,1.5,0.75S6,11.599,6,11.252S5.345,10.502,4.5,10.502z"/>
	<path d="M12,24.008c-0.76,0-1.498-0.224-2.134-0.647C9.322,22.997,8.998,22.389,9,21.735V6.752c0-1.262,1.318-2.25,3-2.25
		c1.682,0,3,0.988,3,2.25v14.985c0.001,0.652-0.322,1.26-0.865,1.623C13.499,23.785,12.76,24.008,12,24.008z M10.5,21.737
		c0,0.152,0.074,0.293,0.2,0.377c0.387,0.258,0.837,0.394,1.301,0.394c0.464,0,0.914-0.137,1.302-0.395
		c0.124-0.083,0.198-0.223,0.198-0.374V8.712c-0.448,0.189-0.962,0.291-1.5,0.291c-0.538,0-1.052-0.101-1.5-0.29V21.737z M12,6.002
		c-0.845,0-1.5,0.403-1.5,0.75s0.655,0.75,1.5,0.75s1.5-0.403,1.5-0.75S12.845,6.002,12,6.002z"/>
	<path d="M19.5,24.008c-0.76,0-1.498-0.224-2.134-0.647c-0.544-0.364-0.868-0.972-0.866-1.626V2.252c0-1.262,1.318-2.25,3-2.25
		s3,0.988,3,2.25v19.485c0.001,0.652-0.322,1.26-0.865,1.623C20.999,23.785,20.26,24.008,19.5,24.008z M18,21.737
		c0,0.153,0.074,0.293,0.199,0.377c0.387,0.258,0.837,0.394,1.3,0.394c0.464,0,0.914-0.137,1.303-0.395
		C20.926,22.03,21,21.89,21,21.739V4.212c-0.448,0.189-0.962,0.291-1.5,0.291S18.448,4.401,18,4.212V21.737z M19.5,1.502
		c-0.845,0-1.5,0.403-1.5,0.75s0.655,0.75,1.5,0.75S21,2.599,21,2.252S20.345,1.502,19.5,1.502z"/>
</g>
</svg>
