<?xml version="1.0" encoding="utf-8"?>
<!-- Generator: Adobe Illustrator 22.1.0, SVG Export Plug-In . SVG Version: 6.00 Build 0)  -->
<svg version="1.1" id="Layer_1" xmlns="http://www.w3.org/2000/svg" xmlns:xlink="http://www.w3.org/1999/xlink" x="0px" y="0px"
	 viewBox="0 0 24 24" style="enable-background:new 0 0 24 24;" xml:space="preserve">
<title>business-deal-cash-exchange</title>
<g>
	<path d="M0.752,12c-0.414,0-0.75-0.336-0.75-0.75c0-2.296,1.484-4.255,3.543-4.965c-0.997-0.587-1.668-1.672-1.668-2.91
		C1.877,1.514,3.391,0,5.252,0s3.375,1.514,3.375,3.375c0,1.238-0.671,2.323-1.669,2.911C7.787,6.571,8.541,7.061,9.14,7.722
		c0.135,0.148,0.203,0.34,0.194,0.54c-0.01,0.2-0.097,0.385-0.245,0.519C8.951,8.907,8.772,8.976,8.585,8.976
		c-0.211,0-0.414-0.09-0.556-0.246c-0.709-0.782-1.722-1.23-2.778-1.23C3.47,7.5,1.929,8.788,1.578,10.5h5.705
		c0.414,0,0.75,0.336,0.75,0.75S7.697,12,7.283,12H0.752z M5.252,1.5c-1.034,0-1.875,0.841-1.875,1.875S4.218,5.25,5.252,5.25
		s1.875-0.841,1.875-1.875S6.286,1.5,5.252,1.5z"/>
	<path d="M18.76,18.752c-1.056,0-2.065-0.5-2.699-1.337c-0.121-0.159-0.173-0.357-0.145-0.555c0.027-0.198,0.13-0.375,0.29-0.495
		c0.131-0.099,0.287-0.152,0.452-0.152c0.233,0,0.457,0.111,0.598,0.297c0.352,0.465,0.914,0.742,1.502,0.742
		c0.118,0,0.237-0.011,0.353-0.034c0.49-0.096,0.915-0.377,1.195-0.794c0.28-0.417,0.382-0.916,0.286-1.407
		c-0.171-0.879-0.946-1.516-1.841-1.516c-0.12,0-0.241,0.012-0.36,0.035c-0.048,0.01-0.097,0.014-0.145,0.014
		c-0.356,0-0.666-0.255-0.735-0.606c-0.079-0.407,0.187-0.802,0.592-0.88C18.321,12.022,18.542,12,18.76,12
		c0.668,0,1.318,0.199,1.878,0.577c0.748,0.504,1.255,1.269,1.428,2.153c0.357,1.827-0.84,3.604-2.667,3.961
		C19.189,18.731,18.975,18.752,18.76,18.752L18.76,18.752z"/>
	<path d="M14.252,24c-0.2,0-0.389-0.078-0.53-0.22s-0.22-0.33-0.22-0.531c0.001-2.894,2.357-5.248,5.25-5.248
		c2.894,0.001,5.248,2.355,5.25,5.248c0,0.201-0.078,0.389-0.22,0.531S23.452,24,23.252,24H14.252z M22.426,22.5
		c-0.353-1.71-1.892-2.997-3.672-2.998l-0.001-0.375v0.375c-1.781,0-3.321,1.287-3.674,2.998H22.426z"/>
	<path d="M12.752,17.25c-0.414,0-0.75-0.336-0.75-0.75v-0.353c-0.674-0.154-1.282-0.543-1.705-1.099
		c-0.25-0.329-0.186-0.801,0.143-1.051c0.132-0.1,0.289-0.153,0.454-0.153c0.233,0,0.457,0.111,0.597,0.296
		c0.28,0.369,0.708,0.581,1.174,0.581l0.057-0.001c0.774,0,1.342-0.421,1.342-0.797c0-0.376-0.562-0.796-1.313-0.796
		c-1.551,0-2.812-1.031-2.812-2.298c0-1.052,0.849-1.943,2.062-2.213V8.25c0-0.414,0.336-0.75,0.75-0.75s0.75,0.336,0.75,0.75v0.355
		c0.675,0.154,1.283,0.542,1.705,1.097c0.25,0.329,0.186,0.801-0.143,1.051c-0.132,0.1-0.289,0.153-0.454,0.153
		c-0.237,0-0.454-0.108-0.597-0.296c-0.28-0.369-0.708-0.58-1.172-0.58l-0.059,0.001c-0.774,0-1.342,0.422-1.342,0.798
		c0,0.377,0.561,0.798,1.312,0.798c1.551,0,2.813,1.03,2.813,2.296c0,1.052-0.85,1.943-2.063,2.212V16.5
		C13.502,16.914,13.166,17.25,12.752,17.25z"/>
	<path d="M7.502,23.25c-0.2,0-0.389-0.078-0.53-0.22l-2.25-2.25c-0.07-0.07-0.125-0.153-0.163-0.245
		c-0.003-0.007-0.006-0.016-0.009-0.024c-0.031-0.081-0.048-0.171-0.048-0.262c0-0.089,0.016-0.176,0.048-0.261
		c0.004-0.011,0.008-0.022,0.012-0.032c0.035-0.085,0.09-0.167,0.16-0.238l2.25-2.25c0.142-0.142,0.33-0.22,0.53-0.22
		s0.389,0.078,0.53,0.22c0.292,0.292,0.292,0.768,0,1.061l-0.97,0.97h3.439c0.414,0,0.75,0.336,0.75,0.75S10.916,21,10.502,21H7.062
		l0.97,0.97c0.292,0.292,0.292,0.768,0,1.061C7.891,23.172,7.702,23.25,7.502,23.25z"/>
	<path d="M16.502,6.75c-0.2,0-0.389-0.078-0.53-0.22C15.83,6.389,15.752,6.2,15.752,6s0.078-0.389,0.22-0.53l0.97-0.97h-3.439
		c-0.414,0-0.75-0.336-0.75-0.75S13.088,3,13.502,3h3.439l-0.97-0.97c-0.142-0.141-0.22-0.33-0.22-0.53s0.078-0.389,0.22-0.53
		s0.33-0.22,0.53-0.22s0.389,0.078,0.53,0.22l2.25,2.25c0.07,0.07,0.125,0.152,0.163,0.245c0.003,0.008,0.007,0.017,0.01,0.026
		c0.031,0.081,0.047,0.17,0.047,0.259c0,0.087-0.016,0.174-0.047,0.258c-0.002,0.006-0.004,0.011-0.006,0.016
		c-0.042,0.104-0.098,0.186-0.168,0.257L17.032,6.53C16.891,6.672,16.702,6.75,16.502,6.75z"/>
</g>
</svg>
