<?xml version="1.0" encoding="utf-8"?>
<!-- Generator: Adobe Illustrator 22.1.0, SVG Export Plug-In . SVG Version: 6.00 Build 0)  -->
<svg version="1.1" id="Layer_1" xmlns="http://www.w3.org/2000/svg" xmlns:xlink="http://www.w3.org/1999/xlink" x="0px" y="0px"
	 viewBox="0 0 24 24" style="enable-background:new 0 0 24 24;" xml:space="preserve">
<title>business-contract-handshake-sign</title>
<g>
	<path d="M2.25,24C1.009,24,0,22.991,0,21.75v-18C0,1.682,1.682,0,3.75,0c0,0,13.508,0,13.511,0
		c1.645,0.011,2.984,1.354,2.989,2.998V4.5c0,0.414-0.336,0.75-0.75,0.75h-3.75v4.5c0,0.414-0.336,0.75-0.75,0.75
		s-0.75-0.336-0.75-0.75V3c0.002-0.536,0.143-1.049,0.407-1.5H3.75C2.509,1.5,1.5,2.509,1.5,3.75v18c0,0.414,0.336,0.75,0.75,0.75
		h1.435c0.414,0,0.75,0.336,0.75,0.75S4.099,24,3.685,24H2.25z M18.75,3.75V3c-0.002-0.824-0.676-1.497-1.501-1.5
		c-0.824,0.003-1.496,0.677-1.499,1.502V3.75H18.75z"/>
	<path d="M3.75,5.25C3.336,5.25,3,4.914,3,4.5s0.336-0.75,0.75-0.75h6.75c0.414,0,0.75,0.336,0.75,0.75s-0.336,0.75-0.75,0.75H3.75z
		"/>
	<path d="M3.75,8.25C3.336,8.25,3,7.914,3,7.5s0.336-0.75,0.75-0.75h6.75c0.414,0,0.75,0.336,0.75,0.75s-0.336,0.75-0.75,0.75H3.75z
		"/>
	<path d="M3.75,11.25C3.336,11.25,3,10.914,3,10.5s0.336-0.75,0.75-0.75h3.359c0.414,0,0.75,0.336,0.75,0.75s-0.336,0.75-0.75,0.75
		H3.75z"/>
	<path d="M13.47,23.964c-0.421,0-0.829-0.172-1.125-0.473l-2.798-2.135H8.614c-0.355,0.468-0.913,0.752-1.503,0.752
		c-0.034,0-0.068-0.001-0.102-0.003l-0.259,0.001C6.336,22.106,6,21.77,6,21.356s0.336-0.75,0.75-0.75h0.3l0.044,0.376v-0.375
		c0.219,0,0.395-0.158,0.407-0.367L7.5,14.927c-0.011-0.164-0.19-0.323-0.391-0.323c-0.006,0-0.032,0.001-0.038,0.001l-0.32,0
		C6.336,14.606,6,14.27,6,13.856s0.336-0.75,0.75-0.75h0.3c0.013-0.001,0.047-0.002,0.08-0.002c0.5,0,0.979,0.208,1.33,0.569
		l3.011-1.277c0.315-0.126,0.636-0.188,0.962-0.188c0.483,0,0.949,0.136,1.356,0.396l2.115-1.056
		c0.376-0.194,0.806-0.298,1.238-0.298c0.327,0,0.648,0.058,0.954,0.172l4.387,1.729c0.135-0.031,0.272-0.046,0.408-0.046
		c0.032,0,0.065,0.001,0.098,0.003l0.259-0.001c0.414,0,0.751,0.336,0.751,0.75s-0.336,0.75-0.75,0.75h-0.3l-0.037-0.001
		c-0.03,0-0.061,0.004-0.093,0.011c-0.043,0.023-0.088,0.041-0.135,0.055c-0.11,0.067-0.179,0.178-0.186,0.301l0.001,5.313
		c0.011,0.167,0.186,0.323,0.389,0.323c0.006,0,0.034-0.001,0.041-0.001l0.32,0c0.414,0,0.75,0.336,0.75,0.75s-0.336,0.75-0.75,0.75
		h-0.3c-0.012,0.001-0.046,0.002-0.079,0.002c-0.925,0-1.703-0.683-1.848-1.588l-3.718,0.744L14.477,23.6
		C14.193,23.835,13.835,23.964,13.47,23.964z M9.8,19.856c0.163,0,0.325,0.055,0.455,0.154l3.049,2.326
		c0.038,0.029,0.073,0.062,0.105,0.098c0.022,0.025,0.048,0.029,0.061,0.029c0.019,0,0.036-0.006,0.051-0.019l2.91-2.403
		c0.034-0.035,0.073-0.066,0.114-0.094l1.237-1.021c0.035-0.029,0.043-0.076,0.021-0.115l-1.964-2.184l-0.369,0.156
		c-0.267,0.111-0.548,0.167-0.835,0.167c-0.303,0-0.608-0.065-0.884-0.188c-0.54-0.242-0.969-0.698-1.178-1.252
		c-0.228-0.585-0.2-1.225,0.063-1.782c-0.067-0.014-0.136-0.021-0.206-0.021c-0.133,0-0.263,0.025-0.388,0.075l-3.044,1.291
		L9,19.856H9.8z M18.946,17.839c0.013,0.015,0.025,0.029,0.036,0.044c0.336,0.433,0.415,0.982,0.257,1.465L21,18.995l0-4.068
		c0.014-0.245,0.069-0.475,0.161-0.686l-3.602-1.419c-0.127-0.048-0.269-0.073-0.414-0.073c-0.195,0-0.389,0.047-0.562,0.136
		l-2.268,1.132c-0.334,0.178-0.485,0.591-0.342,0.957c0.071,0.188,0.212,0.339,0.389,0.418c0.084,0.037,0.178,0.057,0.272,0.057
		c0.089,0,0.175-0.017,0.256-0.051l2.255-0.952c0.093-0.039,0.191-0.059,0.292-0.059c0.302,0,0.573,0.18,0.691,0.458
		c0.078,0.184,0.079,0.388,0.004,0.574c-0.075,0.186-0.219,0.331-0.403,0.409l-0.429,0.181L18.946,17.839z"/>
</g>
</svg>
