<?xml version="1.0" encoding="utf-8"?>
<!-- Generator: Adobe Illustrator 22.1.0, SVG Export Plug-In . SVG Version: 6.00 Build 0)  -->
<svg version="1.1" id="Regular" xmlns="http://www.w3.org/2000/svg" xmlns:xlink="http://www.w3.org/1999/xlink" x="0px" y="0px"
	 viewBox="0 0 24 24" style="enable-background:new 0 0 24 24;" xml:space="preserve">
<title>cat-fish-toy</title>
<g>
	<path d="M5.991,23.983c-0.105,0-0.207-0.021-0.303-0.064c-0.243-0.108-0.411-0.338-0.442-0.6c-0.133-1.164-0.663-2.26-1.493-3.088
		c-0.827-0.828-1.923-1.357-3.084-1.49c-0.263-0.03-0.493-0.199-0.6-0.44c-0.107-0.242-0.079-0.525,0.075-0.741
		c0.128-0.18,0.273-0.35,0.43-0.507c0.053-0.057,0.129-0.133,0.207-0.206c0.836-0.779,1.918-1.208,3.048-1.208
		c0.06,0,0.12,0.001,0.18,0.003c0.855,0.03,1.668,0.298,2.37,0.78l0.433-0.433l-2.652-2.652c-0.292-0.292-0.292-0.768,0-1.061
		c0.141-0.142,0.33-0.22,0.53-0.22s0.389,0.078,0.53,0.22l2.652,2.652l1.061-1.061L5.22,10.155C5.078,10.014,5,9.825,5,9.625
		s0.078-0.389,0.22-0.53c0.141-0.142,0.33-0.22,0.53-0.22s0.389,0.078,0.53,0.22l3.712,3.712l1.061-1.061L8.402,9.094
		c-0.142-0.141-0.22-0.33-0.22-0.53s0.078-0.389,0.22-0.53c0.141-0.142,0.33-0.22,0.53-0.22s0.389,0.078,0.53,0.22l2.652,2.652
		l1.091-1.092c-0.452-0.563-0.807-1.189-1.058-1.865c-0.034-0.091-0.064-0.183-0.09-0.275c-0.274-0.963-0.157-1.976,0.33-2.851
		c0.487-0.875,1.286-1.508,2.249-1.783l4.696-1.342C19.4,1.459,19.469,1.45,19.539,1.45c0.164,0,0.325,0.055,0.456,0.154
		c0.187,0.144,0.297,0.37,0.294,0.605l-0.032,2.547l3.31,1.534c0.21,0.098,0.362,0.283,0.415,0.509c0.053,0.226,0,0.459-0.145,0.64
		l-2.62,3.275c-0.715,0.896-1.783,1.409-2.93,1.409c-0.079,0-0.158-0.002-0.237-0.007c-1.373-0.087-2.703-0.604-3.782-1.464
		l-1.094,1.093l2.122,2.122c0.292,0.292,0.292,0.768,0,1.061c-0.142,0.142-0.33,0.22-0.53,0.22s-0.389-0.078-0.53-0.22l-2.122-2.122
		l-1.061,1.061l3.182,3.182c0.292,0.292,0.292,0.768,0,1.061c-0.142,0.142-0.33,0.22-0.53,0.22s-0.389-0.078-0.53-0.22l-3.182-3.182
		l-1.06,1.061l2.121,2.121c0.142,0.142,0.22,0.33,0.22,0.53s-0.078,0.389-0.22,0.53c-0.141,0.142-0.33,0.22-0.53,0.22
		c-0.2,0-0.389-0.078-0.53-0.22l-2.121-2.121l-0.412,0.412c0.609,0.818,0.922,1.813,0.886,2.837c-0.042,1.201-0.55,2.314-1.43,3.134
		c-0.138,0.138-0.31,0.283-0.488,0.411C6.3,23.934,6.149,23.983,5.991,23.983z M2.28,17.58c0.952,0.332,1.818,0.873,2.534,1.589
		c0.718,0.716,1.26,1.582,1.592,2.536c0.269-0.438,0.422-0.939,0.44-1.46c0.026-0.729-0.212-1.432-0.672-1.996
		c-0.136-0.031-0.261-0.1-0.363-0.201c-0.092-0.092-0.157-0.204-0.191-0.325c-0.487-0.36-1.06-0.56-1.667-0.582
		c-0.039-0.001-0.077-0.002-0.115-0.002C3.284,17.139,2.747,17.293,2.28,17.58z M15.048,4.263c-0.578,0.165-1.058,0.545-1.35,1.07
		c-0.292,0.525-0.362,1.133-0.198,1.711c0.016,0.056,0.034,0.111,0.054,0.165c0.72,1.941,2.522,3.28,4.59,3.411
		c0.049,0.003,0.097,0.005,0.145,0.005c0.676,0,1.333-0.316,1.756-0.846l2.023-2.529l-2.882-1.336
		c-0.267-0.124-0.438-0.395-0.435-0.69l0.025-2.026L15.048,4.263z"/>
	<path d="M16.885,8.098c-0.259,0-0.513-0.094-0.716-0.263c-0.009-0.007-0.018-0.014-0.023-0.019c-0.02-0.015-0.04-0.032-0.057-0.05
		c-0.002-0.002-0.012-0.013-0.015-0.015c-0.388-0.402-0.417-1.034-0.066-1.474c0.016-0.023,0.034-0.045,0.052-0.066
		c0.006-0.007,0.029-0.031,0.035-0.037c0.209-0.208,0.491-0.325,0.791-0.325c0.302,0,0.584,0.117,0.797,0.331
		c0.002,0.002,0.02,0.02,0.026,0.027c0.411,0.425,0.404,1.132-0.027,1.563c-0.004,0.004-0.022,0.021-0.026,0.025
		c-0.203,0.194-0.479,0.304-0.769,0.304H16.885z"/>
</g>
</svg>
