<?xml version="1.0" encoding="utf-8"?>
<!-- Generator: Adobe Illustrator 22.1.0, SVG Export Plug-In . SVG Version: 6.00 Build 0)  -->
<svg version="1.1" id="Layer_1" xmlns="http://www.w3.org/2000/svg" xmlns:xlink="http://www.w3.org/1999/xlink" x="0px" y="0px"
	 viewBox="0 0 24 24" style="enable-background:new 0 0 24 24;" xml:space="preserve">
<title>color-drop-pick</title>
<g>
	<path d="M12,23.741c-4.963,0-9-4.037-9-9c0-2.123,0.663-4.151,1.919-5.863l5.876-8.006c0.006-0.008,0.012-0.015,0.018-0.023
		c0.091-0.118,0.188-0.212,0.297-0.292c0.26-0.193,0.567-0.295,0.889-0.295c0.074,0,0.149,0.005,0.224,0.017
		c0.396,0.059,0.746,0.269,0.984,0.59l5.874,8.009C20.337,10.59,21,12.617,21,14.741c0,0.239-0.011,0.487-0.034,0.758
		c0,0.018-0.003,0.046-0.005,0.061c-0.16,1.78-0.845,3.46-1.979,4.854c-0.026,0.038-0.055,0.074-0.088,0.106
		C17.175,22.567,14.663,23.741,12,23.741z M6.129,9.766C5.063,11.218,4.5,12.939,4.5,14.741c0,4.135,3.365,7.5,7.5,7.5
		c1.638,0,3.201-0.527,4.494-1.5H12.75c-0.414,0-0.75-0.336-0.75-0.75s0.336-0.75,0.75-0.75h5.243c0.67-0.89,1.133-1.917,1.354-3
		H12.75c-0.414,0-0.75-0.336-0.75-0.75s0.336-0.75,0.75-0.75h6.75c0-1.037-0.185-2.045-0.55-3h-6.2c-0.414,0-0.75-0.336-0.75-0.75
		s0.336-0.75,0.75-0.75h5.444c-0.104-0.165-0.211-0.323-0.323-0.475L16.02,7.241h-3.27c-0.414,0-0.75-0.336-0.75-0.75
		s0.336-0.75,0.75-0.75h2.17l-2.917-3.978L6.129,9.766z"/>
</g>
</svg>
