<?xml version="1.0" encoding="utf-8"?>
<!-- Generator: Adobe Illustrator 22.1.0, SVG Export Plug-In . SVG Version: 6.00 Build 0)  -->
<svg version="1.1" id="Regular" xmlns="http://www.w3.org/2000/svg" xmlns:xlink="http://www.w3.org/1999/xlink" x="0px" y="0px"
	 viewBox="0 0 24 24" style="enable-background:new 0 0 24 24;" xml:space="preserve">
<title>gardening-hand-sprinkler</title>
<g>
	<path d="M9.75,24C9.336,24,9,23.664,9,23.25v-2.327c-1.732-0.35-3-1.874-3-3.673V10.5H4.5V15c0,2.806-3.423,3.691-3.568,3.728
		c-0.059,0.015-0.12,0.022-0.182,0.022c-0.167,0-0.33-0.056-0.462-0.159C0.105,18.448,0,18.233,0,18V8.25
		c0.065-2.117,1.53-3.953,3.563-4.476c0.004-0.001,7.329-1.629,7.329-1.629C11.936,0.741,13.612,0,15.75,0h2
		c0.798,0,1.75,0.39,1.75,2.25v7.5c0,1.86-0.952,2.25-1.75,2.25h-2c-0.811,0-1.565-0.111-2.25-0.33v5.58
		c0,1.799-1.268,3.323-3,3.673v2.327C10.5,23.664,10.164,24,9.75,24z M7.5,17.25c0,1.241,1.009,2.25,2.25,2.25S12,18.491,12,17.25
		v-6.31c-0.194-0.136-0.376-0.284-0.543-0.44H7.5V17.25z M3,5.635C2.106,6.208,1.533,7.192,1.5,8.273l0,8.632
		C2.204,16.55,3,15.939,3,15V5.635z M17.75,10.5c0.129,0,0.25,0,0.25-0.75v-7.5c0-0.75-0.121-0.75-0.25-0.75H16.5v9H17.75z
		 M13.169,9.92c0.519,0.284,1.133,0.466,1.831,0.541V1.54c-1.027,0.112-2.263,0.498-3.017,1.612
		c-0.023,0.047-0.051,0.091-0.084,0.133C11.468,3.986,11.25,4.9,11.25,6c0,1.371,0.337,2.446,1.002,3.194
		c0.038,0.034,0.071,0.07,0.1,0.108c0.208,0.214,0.448,0.402,0.714,0.559C13.101,9.878,13.135,9.897,13.169,9.92z M10.371,9
		C9.959,8.142,9.75,7.136,9.75,6c0-0.764,0.098-1.477,0.293-2.13L4.5,5.102V9H10.371z"/>
	<path d="M21.75,3c-0.286,0-0.543-0.159-0.671-0.415c-0.185-0.37-0.034-0.821,0.335-1.006l1.5-0.75
		c0.105-0.052,0.22-0.079,0.335-0.079c0.286,0,0.543,0.159,0.671,0.415c0.185,0.37,0.034,0.821-0.335,1.006l-1.5,0.75
		C21.981,2.973,21.865,3,21.75,3z"/>
	<path d="M21.75,6C21.336,6,21,5.664,21,5.25s0.336-0.75,0.75-0.75h1.5C23.664,4.5,24,4.836,24,5.25S23.664,6,23.25,6H21.75z"/>
	<path d="M23.25,9.75c-0.115,0-0.231-0.027-0.334-0.079l-1.501-0.75c-0.37-0.185-0.52-0.636-0.335-1.006
		C21.207,7.659,21.464,7.5,21.75,7.5c0.115,0,0.231,0.027,0.334,0.079l1.501,0.75c0.37,0.185,0.52,0.636,0.335,1.006
		C23.793,9.591,23.536,9.75,23.25,9.75z"/>
</g>
</svg>
