<?xml version="1.0" encoding="utf-8"?>
<!-- Generator: Adobe Illustrator 22.1.0, SVG Export Plug-In . SVG Version: 6.00 Build 0)  -->
<svg version="1.1" id="Layer_1" xmlns="http://www.w3.org/2000/svg" xmlns:xlink="http://www.w3.org/1999/xlink" x="0px" y="0px"
	 viewBox="0 0 24 24" style="enable-background:new 0 0 24 24;" xml:space="preserve">
<title>hardware-drill-carbide</title>
<g>
	<path d="M3,24.011c-0.827,0-1.5-0.673-1.5-1.5v-18c0-0.17,0.058-0.336,0.164-0.469l3-3.75C4.804,0.118,5.017,0.018,5.25,0.018
		s0.446,0.1,0.586,0.274l3,3.75C8.942,4.175,9,4.341,9,4.511v18c0,0.827-0.673,1.5-1.5,1.5H3z M3,22.511h4.5v-9.439l-4.5,4.5V22.511
		z M3,15.45l4.5-4.5V7.821l-4.5,4.5V15.45z M3,10.2l4.5-4.5V4.774L5.25,1.961L3,4.774V10.2z"/>
	<path d="M12,24.011c-0.827,0-1.5-0.673-1.5-1.5V6.761c0-0.161,0.053-0.321,0.15-0.45l2.25-3c0.137-0.183,0.361-0.292,0.6-0.292
		s0.463,0.109,0.6,0.292l2.25,3C16.447,6.44,16.5,6.6,16.5,6.761v15.75c0,0.827-0.673,1.5-1.5,1.5H12z M12,22.511h3v-7.189l-3,3
		V22.511z M12,16.2l3-3v-3.129l-3,3V16.2z M12,10.95l3-3V7.011l-1.5-2l-1.5,2V10.95z"/>
	<path d="M19.5,24.011c-0.827,0-1.5-0.673-1.5-1.5v-13.5c0-0.148,0.043-0.292,0.126-0.416l1.5-2.25
		c0.135-0.203,0.368-0.324,0.624-0.324s0.489,0.121,0.624,0.324l1.5,2.25C22.457,8.719,22.5,8.862,22.5,9.011v13.5
		c0,0.827-0.673,1.5-1.5,1.5H19.5z M19.5,22.511H21v-4.939l-1.5,1.5V22.511z M19.5,16.95l1.5-1.5v-3.129l-1.5,1.5V16.95z M19.5,11.7
		l1.5-1.5V9.238l-0.75-1.125L19.5,9.238V11.7z"/>
</g>
</svg>
