<?xml version="1.0" encoding="utf-8"?>
<!-- Generator: Adobe Illustrator 22.1.0, SVG Export Plug-In . SVG Version: 6.00 Build 0)  -->
<svg version="1.1" id="Layer_1" xmlns="http://www.w3.org/2000/svg" xmlns:xlink="http://www.w3.org/1999/xlink" x="0px" y="0px"
	 viewBox="0 0 24 24" style="enable-background:new 0 0 24 24;" xml:space="preserve">
<title>mobile-shopping-shop-basket</title>
<g>
	<path d="M14.855,23.999c-0.622-0.002-1.185-0.393-1.402-0.974l-1.307-3.487c-0.094-0.251-0.142-0.514-0.143-0.782
		c-0.002-0.601,0.23-1.167,0.654-1.593c0.315-0.317,0.719-0.533,1.154-0.62l1.329-3.323c0.115-0.287,0.388-0.472,0.697-0.472
		c0.096,0,0.189,0.018,0.279,0.054c0.186,0.074,0.332,0.217,0.41,0.401c0.079,0.184,0.082,0.388,0.007,0.574l-1.089,2.721h5.111
		l-1.089-2.722c-0.074-0.186-0.072-0.39,0.007-0.574c0.079-0.184,0.225-0.327,0.411-0.401c0.089-0.036,0.183-0.054,0.278-0.054
		c0.308,0,0.582,0.185,0.696,0.472l1.329,3.323c0.118,0.023,0.233,0.056,0.346,0.098c1.162,0.435,1.753,1.734,1.318,2.896
		l-1.307,3.487c-0.217,0.58-0.78,0.971-1.399,0.974c0,0-0.001,0-0.002,0H14.855z M14.249,17.999
		C14.05,18,13.862,18.079,13.721,18.22c-0.141,0.142-0.219,0.331-0.218,0.531c0,0.089,0.016,0.177,0.048,0.261l1.307,3.487l6.285,0
		l1.305-3.487c0.07-0.188,0.063-0.391-0.02-0.573c-0.083-0.183-0.232-0.322-0.42-0.392c-0.083-0.031-0.171-0.047-0.261-0.047H14.249
		z"/>
	<path d="M6.749,23.999c-2.068,0-3.75-1.682-3.75-3.75V9.721c-1.562-0.23-2.821-1.504-2.996-3.094
		C-0.008,6.515,0.005,6.4,0.042,6.294l1.826-5.156c0.25-0.684,0.903-1.141,1.625-1.141c0.034,0,0.069,0.001,0.103,0.003
		l12.351-0.001c0.011-0.001,0.044-0.002,0.077-0.002c0.71,0,1.354,0.456,1.603,1.134l1.829,5.162
		c0.037,0.106,0.051,0.221,0.039,0.332c-0.175,1.59-1.434,2.864-2.996,3.094v0.779c0,0.414-0.336,0.75-0.75,0.75
		s-0.75-0.336-0.75-0.75V9.721c-0.883-0.131-1.692-0.599-2.249-1.295C12.086,9.26,11.074,9.76,9.994,9.76
		c-0.081,0-0.163-0.003-0.244-0.009C9.668,9.757,9.587,9.76,9.506,9.76c-1.08,0-2.092-0.5-2.757-1.334
		C6.191,9.122,5.382,9.59,4.499,9.721v8.278h5.25c0.414,0,0.75,0.336,0.75,0.75s-0.336,0.75-0.75,0.75h-5.25v0.75
		c0,1.241,1.009,2.25,2.25,2.25h4.5c0.414,0,0.75,0.336,0.75,0.75s-0.336,0.75-0.75,0.75H6.749z M1.519,6.619
		C1.699,7.561,2.535,8.26,3.5,8.26c0.06,0,0.121-0.003,0.182-0.008c0.011-0.001,0.059-0.003,0.068-0.003
		c0.011,0,0.059,0.002,0.069,0.003C3.878,8.258,3.938,8.26,3.998,8.26c1.001,0,1.876-0.774,2.002-1.766V1.499l-2.448,0l-0.04-0.001
		c-0.111,0-0.197,0.056-0.231,0.149L1.519,6.619z M9.749,8.249c0.022,0,0.044,0.001,0.066,0.003C9.878,8.258,9.938,8.26,9.998,8.26
		c1.001,0,1.876-0.774,2.002-1.766V1.499l-4.5,0v4.995C7.625,7.486,8.501,8.26,9.503,8.26c0.059,0,0.119-0.003,0.18-0.008
		C9.705,8.25,9.727,8.249,9.749,8.249z M15.82,8.252c0.058,0.005,0.118,0.008,0.178,0.008c0.965,0,1.802-0.699,1.982-1.641
		L16.216,1.64c-0.031-0.086-0.113-0.142-0.211-0.142c-0.007,0-0.029,0.001-0.035,0.001l-2.47,0v4.996
		C13.625,7.486,14.5,8.26,15.501,8.26c0.06,0,0.12-0.003,0.181-0.008c0.011-0.001,0.059-0.003,0.067-0.003s0.019,0,0.03,0.001
		C15.791,8.25,15.808,8.251,15.82,8.252z"/>
	<path d="M16.499,21.749c-0.414,0-0.75-0.336-0.75-0.75v-1.5c0-0.414,0.336-0.75,0.75-0.75s0.75,0.336,0.75,0.75v1.5
		C17.249,21.413,16.913,21.749,16.499,21.749z"/>
	<path d="M19.499,21.749c-0.414,0-0.75-0.336-0.75-0.75v-1.5c0-0.414,0.336-0.75,0.75-0.75s0.75,0.336,0.75,0.75v1.5
		C20.249,21.413,19.913,21.749,19.499,21.749z"/>
</g>
</svg>
