<?xml version="1.0" encoding="utf-8"?>
<!-- Generator: Adobe Illustrator 22.1.0, SVG Export Plug-In . SVG Version: 6.00 Build 0)  -->
<svg version="1.1" id="Layer_1" xmlns="http://www.w3.org/2000/svg" xmlns:xlink="http://www.w3.org/1999/xlink" x="0px" y="0px"
	 viewBox="0 0 24 24" style="enable-background:new 0 0 24 24;" xml:space="preserve">
<title>monetization-idea</title>
<g>
	<path d="M17.25,21.75c-0.414,0-0.75-0.336-0.75-0.75h-0.75C15.337,21,15,20.664,15,20.25s0.336-0.75,0.75-0.75h2.031
		c0.245,0,0.461-0.146,0.551-0.372c0.121-0.303-0.027-0.648-0.33-0.769l-2.064-0.825c-0.797-0.32-1.312-1.082-1.313-1.939
		c0-0.558,0.217-1.083,0.612-1.479c0.344-0.344,0.786-0.554,1.262-0.603V13.5c0-0.414,0.336-0.75,0.75-0.75S18,13.086,18,13.5h0.75
		c0.414,0,0.75,0.336,0.75,0.75S19.164,15,18.75,15h-2.033c-0.326,0-0.591,0.266-0.591,0.593c0,0.243,0.146,0.458,0.371,0.549
		l2.063,0.825c1.071,0.428,1.594,1.648,1.166,2.719C19.433,20.416,18.77,20.91,18,20.989V21C18,21.414,17.664,21.75,17.25,21.75z"/>
	<path d="M17.25,24c-3.722,0-6.75-3.028-6.75-6.75s3.028-6.75,6.75-6.75S24,13.528,24,17.25S20.972,24,17.25,24z M17.25,12
		C14.355,12,12,14.355,12,17.25s2.355,5.25,5.25,5.25c2.895,0,5.25-2.355,5.25-5.25S20.145,12,17.25,12z"/>
	<path d="M4.501,24c-0.262,0-0.509-0.14-0.643-0.364c-0.103-0.172-0.133-0.373-0.084-0.568s0.17-0.358,0.342-0.461l2.701-1.621
		c-2.967-0.172-5.594-2.105-6.62-4.919c-0.142-0.388,0.059-0.82,0.447-0.961c0.084-0.03,0.17-0.045,0.257-0.045
		c0.314,0,0.597,0.198,0.705,0.493c0.763,2.093,2.656,3.589,4.835,3.888l-1.083-1.805c-0.103-0.172-0.133-0.373-0.084-0.568
		s0.17-0.358,0.342-0.461C5.73,16.537,5.864,16.5,6,16.5c0.262,0,0.509,0.14,0.644,0.364l2.25,3.75
		c0.103,0.172,0.133,0.373,0.084,0.568s-0.17,0.358-0.342,0.461l-3.75,2.25C4.77,23.963,4.637,24,4.501,24z"/>
	<path d="M23.1,8.939c-0.314,0-0.597-0.198-0.705-0.493c-0.763-2.091-2.655-3.587-4.835-3.887l1.083,1.805
		c0.103,0.172,0.133,0.373,0.084,0.568c-0.049,0.194-0.17,0.358-0.342,0.461C18.27,7.463,18.136,7.5,18.001,7.5
		c-0.262,0-0.509-0.14-0.643-0.364l-2.25-3.75c-0.103-0.172-0.133-0.373-0.084-0.568c0.049-0.194,0.17-0.358,0.342-0.461l3.75-2.25
		C19.231,0.037,19.364,0,19.5,0c0.262,0,0.509,0.139,0.644,0.364c0.103,0.172,0.133,0.374,0.084,0.568
		c-0.049,0.194-0.17,0.358-0.342,0.461l-2.709,1.625c2.972,0.169,5.602,2.1,6.627,4.914c0.069,0.188,0.06,0.392-0.025,0.574
		s-0.235,0.319-0.423,0.388C23.275,8.924,23.188,8.939,23.1,8.939z"/>
	<path d="M6,10.5c-0.414,0-0.75-0.336-0.75-0.75V8.394C3.855,7.59,2.998,6.116,3,4.491C3.001,3.289,3.471,2.16,4.322,1.311
		C5.171,0.463,6.3-0.004,7.5-0.004c1.207,0.001,2.337,0.471,3.186,1.321C11.534,2.168,12.001,3.299,12,4.5
		c0,1.621-0.857,3.092-2.25,3.893V9.75c0,0.414-0.336,0.75-0.75,0.75H6z M8.25,9V7.933c0-0.298,0.177-0.568,0.45-0.688
		C9.793,6.769,10.5,5.692,10.5,4.5c0.001-0.802-0.31-1.556-0.876-2.123c-0.566-0.567-1.319-0.88-2.12-0.881L7.5,1.121v0.375
		c-0.8,0-1.553,0.311-2.119,0.876C4.814,2.939,4.501,3.692,4.5,4.493C4.499,5.687,5.205,6.768,6.3,7.245
		c0.273,0.12,0.45,0.389,0.45,0.688V9H8.25z"/>
	<path d="M6,12.75c-0.414,0-0.75-0.336-0.75-0.75S5.587,11.25,6,11.25h3c0.414,0,0.75,0.336,0.75,0.75S9.414,12.75,9,12.75H6z"/>
</g>
</svg>
