<?xml version="1.0" encoding="utf-8"?>
<!-- Generator: Adobe Illustrator 22.1.0, SVG Export Plug-In . SVG Version: 6.00 Build 0)  -->
<svg version="1.1" id="Layer_1" xmlns="http://www.w3.org/2000/svg" xmlns:xlink="http://www.w3.org/1999/xlink" x="0px" y="0px"
	 viewBox="0 0 24 24" style="enable-background:new 0 0 24 24;" xml:space="preserve">
<title>money-wallet-open</title>
<g>
	<path d="M14.455,22.884c-0.257,0-0.512-0.035-0.759-0.105L4.655,20.32c-1.852-0.575-3.114-2.248-3.153-4.165l0-11.468
		C1.482,3.824,1.79,2.982,2.37,2.321c0.029-0.039,0.062-0.075,0.098-0.107C3.11,1.539,3.973,1.153,4.899,1.125l13.85,0
		c2.068,0,3.75,1.682,3.75,3.75v8.953c-0.009,1.027-0.415,1.984-1.144,2.7c-0.719,0.707-1.671,1.096-2.679,1.096H17.25v2.233
		c0.059,0.732-0.166,1.445-0.635,2.012c-0.477,0.576-1.15,0.932-1.896,1.002C14.631,22.88,14.543,22.884,14.455,22.884z
		 M3.265,3.634C3.084,3.949,2.993,4.303,3.001,4.671l0,11.469c0.026,1.259,0.859,2.363,2.073,2.74l9.022,2.453
		c0.12,0.034,0.24,0.051,0.36,0.051c0.041,0,0.082-0.002,0.123-0.006c0.346-0.032,0.658-0.198,0.88-0.466
		c0.222-0.268,0.326-0.606,0.294-0.952c-0.002-0.021-0.003-0.045-0.003-0.07V9.38c-0.027-1.265-0.861-2.388-2.076-2.787L3.265,3.634
		z M18.64,16.125c0.637,0,1.228-0.237,1.665-0.666c0.443-0.435,0.689-1.016,0.695-1.637v-3.697h-3.75v6H18.64z M21,8.625v-3.75
		c0-1.241-1.009-2.25-2.25-2.25H5.199l8.913,2.534c1.589,0.521,2.754,1.86,3.058,3.466H21z"/>
	<circle cx="12.375" cy="13.5" r="1.125"/>
</g>
</svg>
