<?xml version="1.0" encoding="utf-8"?>
<!-- Generator: Adobe Illustrator 22.1.0, SVG Export Plug-In . SVG Version: 6.00 Build 0)  -->
<svg version="1.1" id="Layer_1" xmlns="http://www.w3.org/2000/svg" xmlns:xlink="http://www.w3.org/1999/xlink" x="0px" y="0px"
	 viewBox="0 0 24 24" style="enable-background:new 0 0 24 24;" xml:space="preserve">
<title>office-outdoors</title>
<g>
	<path d="M3.75,10.5C3.336,10.5,3,10.164,3,9.75S3.336,9,3.75,9h4.5C8.664,9,9,9.337,9,9.75S8.664,10.5,8.25,10.5H3.75z"/>
	<path d="M3.75,15C3.336,15,3,14.664,3,14.25s0.336-0.75,0.75-0.75h4.5C8.664,13.5,9,13.837,9,14.25S8.664,15,8.25,15H3.75z"/>
	<path d="M0.75,24C0.336,24,0,23.664,0,23.25V6.958c0.045-0.966,0.816-1.709,1.755-1.709c0.026,0,0.052,0.001,0.078,0.002l1.167,0
		V3.5c0.042-0.711,0.605-1.251,1.282-1.251c0.024,0,0.049,0.001,0.073,0.002l0.877-0.001L5.25,0.904
		C5.255,0.495,5.592,0.163,6,0.163c0.423,0.005,0.755,0.346,0.75,0.759L6.733,2.25l0.955,0C7.69,2.25,7.71,2.249,7.73,2.249
		c0.669,0,1.226,0.529,1.268,1.204C8.999,3.461,9,3.492,9,3.5v1.75l1.2,0c0.009-0.001,0.036-0.001,0.063-0.001
		c0.929,0,1.692,0.735,1.736,1.674L12,15.75c0,0.414-0.336,0.75-0.75,0.75s-0.75-0.336-0.75-0.75V6.958
		c-0.005-0.103-0.125-0.209-0.255-0.209C10.239,6.749,1.8,6.75,1.8,6.75S1.763,6.749,1.763,6.749c-0.144,0-0.257,0.105-0.264,0.245
		L1.5,22.5h5.348v-2.413H5.641c-0.414,0-0.75-0.336-0.75-0.75s0.336-0.75,0.75-0.75h9.783c0.414,0,0.75,0.336,0.75,0.75
		s-0.336,0.75-0.75,0.75h-1.207V22.5h4.533v-5.315C16.621,16.824,15,14.939,15,12.75c0-2.481,2.019-4.5,4.5-4.5s4.5,2.019,4.5,4.5
		c0,2.188-1.621,4.073-3.75,4.435V22.5h3c0.414,0,0.75,0.336,0.75,0.75S23.664,24,23.25,24H0.75z M12.717,22.5v-2.413H8.348V22.5
		H12.717z M19.5,9.75c-1.654,0-3,1.346-3,3c0,1.387,0.942,2.569,2.25,2.904V13.5c0-0.414,0.336-0.75,0.75-0.75s0.75,0.336,0.75,0.75
		v2.154c1.308-0.335,2.25-1.517,2.25-2.904C22.5,11.096,21.154,9.75,19.5,9.75z M7.5,5.25V3.749L4.499,3.75L4.5,5.25H7.5z"/>
</g>
</svg>
