<?xml version="1.0" encoding="utf-8"?>
<!-- Generator: Adobe Illustrator 22.1.0, SVG Export Plug-In . SVG Version: 6.00 Build 0)  -->
<svg version="1.1" id="Layer_1" xmlns="http://www.w3.org/2000/svg" xmlns:xlink="http://www.w3.org/1999/xlink" x="0px" y="0px"
	 viewBox="0 0 24 24" style="enable-background:new 0 0 24 24;" xml:space="preserve">
<title>people-man-1</title>
<g>
	<path d="M12,12c-3.308,0-6-2.692-6-6c0-1.051,0.278-2.087,0.805-2.997c0.002-0.004,0.009-0.015,0.009-0.017
		C7.889,1.144,9.876,0,12,0c3.308,0,6,2.692,6,6S15.308,12,12,12z M7.731,4.587C7.578,5.044,7.5,5.518,7.5,6
		c0,2.481,2.019,4.5,4.5,4.5c2.365,0,4.31-1.834,4.487-4.154c-0.886,0.268-1.803,0.404-2.733,0.404
		C11.578,6.75,9.414,5.967,7.731,4.587z M13.774,5.251c0.865,0,1.731-0.146,2.566-0.435C15.812,2.877,14.035,1.5,12,1.5
		c-1.39,0-2.693,0.642-3.545,1.732c1.449,1.286,3.36,2.018,5.293,2.018h0.003C13.758,5.25,13.767,5.25,13.774,5.251z"/>
	<path d="M21.75,24C21.336,24,21,23.664,21,23.25c0-3.257-1.718-6.197-4.522-7.804C16.253,17.719,14.331,19.5,12,19.5
		s-4.253-1.781-4.478-4.054C4.718,17.053,3,19.992,3,23.25C3,23.664,2.664,24,2.25,24S1.5,23.664,1.5,23.25
		c0-4.238,2.53-8.039,6.445-9.685c0.011-0.005,0.035-0.015,0.061-0.024C9.262,13.019,10.613,12.75,12,12.75
		c1.384,0,2.731,0.268,4.005,0.795c0.022,0.008,0.043,0.017,0.065,0.027c3.901,1.639,6.43,5.44,6.43,9.678
		C22.5,23.664,22.164,24,21.75,24z M9,15c0,1.654,1.346,3,3,3c1.654,0,3-1.346,3-3v-0.233c-0.966-0.343-1.973-0.517-3-0.517
		s-2.035,0.174-3,0.517V15z"/>
</g>
</svg>
