<?xml version="1.0" encoding="utf-8"?>
<!-- Generator: Adobe Illustrator 22.1.0, SVG Export Plug-In . SVG Version: 6.00 Build 0)  -->
<svg version="1.1" id="Layer_1" xmlns="http://www.w3.org/2000/svg" xmlns:xlink="http://www.w3.org/1999/xlink" x="0px" y="0px"
	 viewBox="0 0 24 24" style="enable-background:new 0 0 24 24;" xml:space="preserve">
<title>task-finger-show</title>
<g>
	<path d="M20.673,24.01c-0.134,0-0.266-0.036-0.381-0.104l-2.961-1.753c-0.019-0.011-0.036-0.023-0.053-0.035
		c-0.738-0.526-1.131-1.441-1.006-2.338v-1.457l-0.887-0.887c-0.391-0.391-0.607-0.912-0.608-1.467c0-0.555,0.215-1.077,0.606-1.469
		c0.098-0.098,0.205-0.186,0.318-0.261c0.246-0.164,0.525-0.271,0.821-0.316V4.511h-4.5c-0.414,0-0.75-0.336-0.75-0.75
		c0-1.241-1.009-2.25-2.25-2.25s-2.25,1.009-2.25,2.25c0,0.414-0.336,0.75-0.75,0.75h-4.5v9.749c0,0.414-0.336,0.75-0.75,0.75
		s-0.75-0.336-0.75-0.75V4.511c0-0.827,0.673-1.5,1.5-1.5h3.825c0.35-1.732,1.875-3,3.675-3c1.8,0,3.324,1.268,3.675,3h3.825
		c0.827,0,1.5,0.673,1.5,1.5v4.551l3.909,3.459c0.043,0.038,0.081,0.08,0.114,0.126c0.639,0.895,0.978,1.951,0.978,3.052v2.181
		c0,0.43,0.168,0.835,0.472,1.14l0.286,0.286c0.292,0.292,0.292,0.768,0,1.061c-0.142,0.142-0.33,0.22-0.53,0.22
		s-0.389-0.078-0.53-0.22l-0.286-0.286c-0.588-0.588-0.912-1.37-0.912-2.2v-2.181c0-0.759-0.225-1.489-0.652-2.113l-2.848-2.521
		v3.192c0.11,0.073,0.208,0.153,0.297,0.242l1.56,1.561c0.142,0.142,0.22,0.33,0.22,0.53c0,0.201-0.078,0.389-0.22,0.531
		c-0.141,0.141-0.33,0.219-0.53,0.219s-0.389-0.078-0.53-0.22l-1.56-1.561c-0.108-0.108-0.254-0.168-0.409-0.168
		c-0.114,0-0.224,0.033-0.318,0.096c-0.031,0.021-0.06,0.044-0.087,0.072c-0.108,0.109-0.168,0.253-0.168,0.407
		c0,0.154,0.06,0.298,0.169,0.407l1.107,1.107c0.14,0.14,0.22,0.333,0.22,0.53v1.824c0,0.041-0.003,0.082-0.01,0.123
		c-0.059,0.349,0.084,0.708,0.365,0.921l2.929,1.734c0.356,0.211,0.474,0.672,0.263,1.028C21.184,23.869,20.937,24.01,20.673,24.01z
		"/>
	<path d="M8.563,24.01c-0.171,0-0.339-0.06-0.473-0.168c-0.321-0.262-0.37-0.735-0.109-1.056l2.426-2.982
		c0.176-0.218,0.147-0.534-0.067-0.719c-0.081-0.07-0.185-0.108-0.293-0.108c-0.132,0-0.256,0.057-0.342,0.156l-0.014,0.018
		c-0.026,0.032-0.059,0.067-0.095,0.098l-0.838,0.717c-0.136,0.116-0.309,0.18-0.488,0.18c-0.109,0-0.215-0.023-0.314-0.069
		c-0.265-0.122-0.436-0.389-0.436-0.681V13.51c0-0.414-0.336-0.75-0.75-0.75s-0.75,0.337-0.75,0.75v3.75
		c0,0.414-0.336,0.75-0.75,0.75H4.032c-1.396,0.016-2.525,1.171-2.511,2.575v2.674c0,0.414-0.336,0.75-0.75,0.75
		s-0.75-0.336-0.75-0.75v-2.667C0,18.369,1.795,16.536,4.023,16.51h0.498v-3c0-1.241,1.009-2.25,2.25-2.25s2.25,1.009,2.25,2.25
		v4.259c0.306-0.189,0.66-0.292,1.027-0.292c0.467,0,0.918,0.167,1.271,0.472c0.831,0.717,0.943,1.947,0.253,2.8l-2.428,2.984
		C9.002,23.909,8.79,24.01,8.563,24.01z"/>
	<path d="M9.021,4.886c-0.62,0-1.125-0.505-1.125-1.125C7.895,3.462,8.012,3.18,8.223,2.967c0.212-0.213,0.494-0.33,0.794-0.331
		c0.624,0,1.129,0.505,1.129,1.125S9.642,4.886,9.021,4.886z"/>
</g>
</svg>
