<?xml version="1.0" encoding="utf-8"?>
<!-- Generator: Adobe Illustrator 22.1.0, SVG Export Plug-In . SVG Version: 6.00 Build 0)  -->
<svg version="1.1" id="Regular" xmlns="http://www.w3.org/2000/svg" xmlns:xlink="http://www.w3.org/1999/xlink" x="0px" y="0px"
	 viewBox="0 0 24 24" style="enable-background:new 0 0 24 24;" xml:space="preserve">
<title>wild-bird-eggs</title>
<g>
	<path d="M1.882,17.695c-0.285,0-0.55-0.166-0.675-0.422c-0.678-1.393-1.073-2.883-1.174-4.429
		c-0.001-0.008-0.002-0.041-0.002-0.049c0-0.394,0.308-0.723,0.701-0.748c0.008-0.001,0.038-0.001,0.046-0.001
		c0.396,0,0.726,0.308,0.751,0.701c0.088,1.351,0.433,2.653,1.026,3.871c0.05,0.104,0.076,0.214,0.076,0.328
		c0,0.289-0.162,0.548-0.422,0.674C2.108,17.669,1.995,17.695,1.882,17.695z"/>
	<path d="M9.422,1.819c-0.168,0-0.334-0.058-0.466-0.162C8.776,1.513,8.672,1.299,8.672,1.069c0-0.353,0.238-0.654,0.579-0.733
		c0.903-0.211,1.827-0.318,2.746-0.318c0.608,0,1.224,0.047,1.83,0.139c0.409,0.062,0.69,0.446,0.628,0.855
		c-0.055,0.363-0.373,0.637-0.74,0.637c-0.038,0-0.076-0.003-0.115-0.009c-0.527-0.08-1.064-0.121-1.594-0.121
		c-0.807,0-1.619,0.094-2.413,0.28C9.537,1.812,9.479,1.819,9.422,1.819z"/>
	<path d="M1.835,7.949c-0.112,0-0.22-0.024-0.321-0.072c-0.26-0.123-0.429-0.389-0.429-0.677c0-0.112,0.024-0.22,0.073-0.322
		c0.664-1.401,1.58-2.643,2.722-3.691c0.139-0.127,0.319-0.197,0.507-0.197c0.21,0,0.411,0.089,0.553,0.243
		C5.067,3.37,5.137,3.55,5.137,3.738c0,0.21-0.089,0.411-0.243,0.553c-0.999,0.917-1.8,2.003-2.381,3.228
		C2.39,7.78,2.123,7.949,1.835,7.949z"/>
	<path d="M9.526,23.748c-0.055,0-0.11-0.006-0.163-0.018c-1.513-0.339-2.925-0.96-4.198-1.846c-0.201-0.14-0.322-0.37-0.321-0.616
		c0-0.153,0.047-0.301,0.135-0.428c0.14-0.201,0.37-0.321,0.616-0.321c0.154,0,0.302,0.047,0.429,0.135
		c1.112,0.774,2.346,1.317,3.667,1.612c0.345,0.077,0.586,0.378,0.586,0.731c0,0.056-0.006,0.111-0.018,0.165
		C10.181,23.507,9.88,23.748,9.526,23.748z"/>
	<path d="M21.755,7.167c-0.267,0-0.516-0.143-0.649-0.375c-0.676-1.176-1.559-2.197-2.626-3.034
		c-0.325-0.255-0.382-0.727-0.127-1.053c0.143-0.183,0.358-0.287,0.591-0.287c0.167,0,0.331,0.057,0.462,0.16
		c0.001,0.001,0.005,0.004,0.005,0.004c1.217,0.955,2.225,2.118,2.996,3.458c0.065,0.114,0.1,0.243,0.1,0.374
		c0,0.34-0.229,0.639-0.557,0.727C21.886,7.158,21.821,7.167,21.755,7.167z"/>
	<path d="M22.433,16.988c-0.096,0-0.19-0.018-0.28-0.054c-0.285-0.115-0.469-0.388-0.469-0.696c0-0.096,0.018-0.191,0.054-0.281
		c0.506-1.25,0.762-2.567,0.763-3.915v-0.128c0-0.414,0.336-0.75,0.75-0.75S24,11.501,24,11.914v0.107
		c0,1.563-0.294,3.069-0.872,4.498C23.013,16.804,22.74,16.988,22.433,16.988z"/>
	<path d="M15.221,23.555c-0.37,0-0.689-0.276-0.742-0.642c-0.053-0.365,0.173-0.721,0.527-0.827c1.259-0.376,2.42-0.978,3.452-1.788
		l0.096-0.077c0.134-0.108,0.301-0.167,0.471-0.167c0.228,0,0.441,0.102,0.584,0.28c0.259,0.323,0.208,0.795-0.114,1.055
		c0,0-0.054,0.043-0.057,0.045c-1.193,0.948-2.538,1.651-3.998,2.089c-0.07,0.021-0.142,0.032-0.215,0.032H15.221z"/>
	<path d="M9.954,18.712c-2.598-0.041-4.663-2.106-4.704-4.701c0-2.353,1.904-8.144,4.777-8.144c0.618,0,1.221,0.263,1.799,0.782
		c0.875-1.41,1.848-2.125,2.898-2.125c2.873,0,4.776,5.787,4.776,8.132c0.002,0.609-0.111,1.206-0.336,1.773
		c-0.724,1.824-2.463,3.003-4.429,3.003c-0.425,0-0.854-0.061-1.277-0.181c-0.9,0.931-2.137,1.461-3.431,1.461L9.954,18.712z
		 M10.027,7.367c-0.504,0-1.338,0.636-2.168,2.423c-0.653,1.405-1.109,3.135-1.109,4.209c0.028,1.771,1.444,3.185,3.225,3.213
		l0.052,0c1.777,0,3.246-1.446,3.276-3.223c-0.001-1.375-0.762-3.98-1.855-5.533c-0.052-0.052-0.095-0.111-0.13-0.176
		C10.861,7.682,10.415,7.367,10.027,7.367z M14.372,15.909c0.121,0.014,0.244,0.021,0.366,0.021c1.346,0,2.536-0.807,3.032-2.055
		c0.155-0.388,0.232-0.797,0.23-1.217c0-1.062-0.446-2.777-1.084-4.171c-0.707-1.543-1.526-2.464-2.192-2.464
		c-0.55,0-1.244,0.689-1.876,1.855c1.211,1.865,1.955,4.591,1.955,6.12C14.793,14.662,14.645,15.312,14.372,15.909z"/>
</g>
</svg>
