<svg xmlns="http://www.w3.org/2000/svg" viewBox="0 0 24 24"><title>business-contract-handshake-sign</title><path d="M3.51,1.094v11.5a1,1,0,0,0,2,0v-10a.5.5,0,0,1,.5-.5h9.379a.5.5,0,0,1,.353.146l2.621,2.621a.5.5,0,0,1,.147.354v7.379a1,1,0,0,0,2,0v-8a1,1,0,0,0-.293-.707l-3.5-3.5A1,1,0,0,0,16.01.094H4.51A1,1,0,0,0,3.51,1.094Z"/><path d="M16.674,21.252a.253.253,0,0,1,.106.162,1.751,1.751,0,0,0,1.72,1.43H21a.75.75,0,0,0,.75-.75v-7a.75.75,0,0,0-.75-.75H18.5a1.737,1.737,0,0,0-.851.222.25.25,0,0,1-.212.015l-2.856-1.093a2.448,2.448,0,0,0-1.892.107l-1.487.72a.248.248,0,0,1-.232-.006,2.2,2.2,0,0,0-1.919-.117l-1.939.827a.251.251,0,0,1-.288-.067A1.745,1.745,0,0,0,5.5,14.344H3a.75.75,0,0,0-.75.75v7a.75.75,0,0,0,.75.75H5.5a1.751,1.751,0,0,0,1.515-.875.251.251,0,0,1,.216-.125h.321a.255.255,0,0,1,.155.053l2.015,1.585a1.43,1.43,0,0,0,1.925.1l2.207-1.81a.26.26,0,0,1,.11-.052l2.521-.5A.252.252,0,0,1,16.674,21.252ZM13.94,19.766l-3.152,2.662s-.1-.09-2.426-1.923a.747.747,0,0,0-.464-.161H7.5a.25.25,0,0,1-.25-.25V16.755a.249.249,0,0,1,.152-.23l2.221-.946a.142.142,0,0,1,.145.025.14.14,0,0,1,.043.141,1.955,1.955,0,0,0,2.621,2.3l.056-.024a.252.252,0,0,1,.28.064l1.2,1.317a.256.256,0,0,1,.064.185A.252.252,0,0,1,13.94,19.766Zm1.818-.025a.253.253,0,0,1-.1-.186,1.531,1.531,0,0,0-.333-.876l-1.922-2.117a.757.757,0,0,0-.841-.191l-.7.287a.45.45,0,0,1-.586-.252c-.113-.289.031-.409.214-.566l1.856-.9a.947.947,0,0,1,.706-.045l2.534.969a.246.246,0,0,1,.158.23v3.333a.25.25,0,0,1-.2.245l-.588.117A.247.247,0,0,1,15.758,19.741Z"/><path d="M11.5,6.344a.75.75,0,0,0,0-1.5h-3a.75.75,0,0,0,0,1.5Z"/><path d="M8.51,10.344h7.5a.75.75,0,0,0,0-1.5H8.51a.75.75,0,0,0,0,1.5Z"/></svg>