<svg xmlns="http://www.w3.org/2000/svg" viewBox="0 0 24 24"><title>color-drop-pick</title><path d="M18,6.372a.248.248,0,0,0-.044-.141c-.5-.722-1.008-1.414-1.509-2.057A.25.25,0,0,0,16,4.328V22.736a.253.253,0,0,0,.115.211.25.25,0,0,0,.24.016,9.224,9.224,0,0,0,1.542-.905.249.249,0,0,0,.1-.2Z"/><path d="M14.5,1.927a.249.249,0,0,0-.063-.166c-.486-.55-.912-1.009-1.22-1.333a1.474,1.474,0,0,0-.345-.266A.25.25,0,0,0,12.5.381V23.619a.25.25,0,0,0,.267.25,10.754,10.754,0,0,0,1.537-.218.249.249,0,0,0,.2-.244Z"/><path d="M11,.515a.126.126,0,0,0-.217-.087C8.839,2.468,2.5,9.539,2.5,14.906a8.946,8.946,0,0,0,8.221,8.927A.251.251,0,0,0,11,23.584Z"/><path d="M19.5,19.806a.25.25,0,0,0,.456.142A8.8,8.8,0,0,0,21.5,14.906,12.273,12.273,0,0,0,19.973,9.6a.25.25,0,0,0-.473.112Z"/></svg>