<svg xmlns="http://www.w3.org/2000/svg" viewBox="0 0 24 24"><title>construction-pipe-1</title><rect y="16.5" width="4" height="7" rx="1" ry="1"/><rect x="20" y="0.5" width="4" height="7" rx="1" ry="1"/><path d="M13.5,15.5h-4A.5.5,0,0,0,9,16a1.5,1.5,0,0,1-1.5,1.5H6a.5.5,0,0,0-.5.5v4a.5.5,0,0,0,.5.5H7.5A6.508,6.508,0,0,0,14,16,.5.5,0,0,0,13.5,15.5Z"/><path d="M18,1.5H15.5A6.508,6.508,0,0,0,9,8a.5.5,0,0,0,.5.5h4A.5.5,0,0,0,14,8a1.5,1.5,0,0,1,1.5-1.5H18a.5.5,0,0,0,.5-.5V2A.5.5,0,0,0,18,1.5Z"/><rect x="8" y="10" width="7" height="4" rx="1" ry="1"/></svg>