<svg id="Bold" xmlns="http://www.w3.org/2000/svg" viewBox="0 0 24 24"><title>gardening-hand-sprinkler</title><path d="M10.5,10h-4a.5.5,0,0,0-.5.5v7.75A1.5,1.5,0,0,0,7.125,19.7a.5.5,0,0,1,.375.484V23a1,1,0,0,0,2,0V20.187a.5.5,0,0,1,.375-.484A1.5,1.5,0,0,0,11,18.25V10.5A.5.5,0,0,0,10.5,10Z"/><path d="M15,0a3.768,3.768,0,0,0-2.891,1.266.994.994,0,0,1-.54.315L4.895,3.011A.5.5,0,0,0,4.5,3.5v5A.5.5,0,0,0,5,9h6.043a1,1,0,0,1,.815.418A3.755,3.755,0,0,0,15,11a.5.5,0,0,0,.5-.5V.5A.5.5,0,0,0,15,0Z"/><path d="M18,0H17a.5.5,0,0,0-.5.5v10a.5.5,0,0,0,.5.5h1a1.5,1.5,0,0,0,1.5-1.5v-8A1.5,1.5,0,0,0,18,0Z"/><path d="M21.5,6.5h1.484a1,1,0,0,0,0-2H21.5a1,1,0,0,0,0,2Z"/><path d="M22.055,3.332l1.5-1A1,1,0,1,0,22.445.668l-1.5,1a1,1,0,0,0,1.11,1.664Z"/><path d="M23.555,8.668l-1.5-1a1,1,0,0,0-1.11,1.664l1.5,1a1,1,0,1,0,1.11-1.664Z"/><path d="M3,3.5a3,3,0,0,0-3,3V17a.5.5,0,0,0,.5.5,3,3,0,0,0,3-3V4A.5.5,0,0,0,3,3.5Z"/></svg>