<svg xmlns="http://www.w3.org/2000/svg" viewBox="0 0 24 24"><title>money-wallet-open</title><path d="M24,3.805a3.5,3.5,0,0,0-3.5-3.5H3.5A3.487,3.487,0,0,0,1.007,1.351.477.477,0,0,0,.869,1.5,3.483,3.483,0,0,0,0,3.805v13a4.51,4.51,0,0,0,3.306,4.174L14.465,23.6a3.352,3.352,0,0,0,.771.092,2.725,2.725,0,0,0,1.716-.582A2.86,2.86,0,0,0,18,20.805v-2.5h0V11.112a4.262,4.262,0,0,0-3.119-4.1L4.056,4.027a.749.749,0,1,1,.4-1.445s3.149.87,3.5.966a.237.237,0,0,0,.065.009l12.478,0a.75.75,0,1,1,0,1.5H15.265a.25.25,0,0,0-.067.491l.086.023a5.725,5.725,0,0,1,2.9,1.893.254.254,0,0,0,.2.093H20.5a.75.75,0,0,1,0,1.5H19.462a.252.252,0,0,0-.2.1.248.248,0,0,0-.035.224,5.608,5.608,0,0,1,.281,1.73v6.943a.25.25,0,0,0,.25.25H20.5a3.5,3.5,0,0,0,3.5-3.5Zm-8.5,11.5a2,2,0,1,1-2-2A2,2,0,0,1,15.5,15.305Z"/></svg>