<svg xmlns="http://www.w3.org/2000/svg" viewBox="0 0 24 24"><title>office-outdoors</title><path d="M23.75,22.934a.979.979,0,0,0-.979-.98H20.082a.25.25,0,0,1-.25-.25V16.749a.25.25,0,0,1,.25-.25h1.153a2.627,2.627,0,0,0,2.515-2.663,2.51,2.51,0,0,0-1.214-2.146.252.252,0,0,1-.121-.215V10.72A4.638,4.638,0,0,0,17.9,5.98a4.637,4.637,0,0,0-4.517,4.74,4.807,4.807,0,0,0,.151,1.2.251.251,0,0,1-.075.248,2.854,2.854,0,0,0-.966,2.113,2.458,2.458,0,0,0,1.182,2.07.736.736,0,0,0,.441.148h.256a.25.25,0,0,1,.24.181A4.714,4.714,0,0,0,17.7,19.809a.25.25,0,0,1,.177.239V21.7a.25.25,0,0,1-.25.25H11.271a.25.25,0,0,1-.25-.25V6.777A1.47,1.47,0,0,0,9.552,5.309H8.333a.25.25,0,0,1-.25-.25V3.35A.98.98,0,0,0,7.1,2.371h-.23a.249.249,0,0,1-.25-.253l.014-1.04A.98.98,0,0,0,5.671.086H5.658a.979.979,0,0,0-.979.967L4.666,2.124a.251.251,0,0,1-.25.247H4.167a.979.979,0,0,0-.979.979V5.059a.25.25,0,0,1-.25.25H1.719A1.47,1.47,0,0,0,.25,6.777V23.423a.49.49,0,0,0,.49.49H22.771A.979.979,0,0,0,23.75,22.934Zm-6.9-6.042a.25.25,0,0,1,.2-.393h.573a.25.25,0,0,1,.25.25v.588a.25.25,0,0,1-.4.2A2.831,2.831,0,0,1,16.846,16.892ZM8.328,14.774a.734.734,0,0,1-.734.734H3.677a.735.735,0,0,1,0-1.469H7.594A.735.735,0,0,1,8.328,14.774Zm0,4.732a.735.735,0,0,1-.734.735H3.677a.735.735,0,0,1,0-1.469H7.594A.734.734,0,0,1,8.328,19.506Zm-.734-8.894H3.677a.735.735,0,0,1,0-1.469H7.594a.735.735,0,0,1,0,1.469Z"/></svg>