<svg xmlns="http://www.w3.org/2000/svg" viewBox="0 0 24 24"><title>people-man-1</title><path d="M7.47,16.1a13.971,13.971,0,0,0-5.788,2.431,2.413,2.413,0,0,0-.947,1.936V23.51a.489.489,0,0,0,.489.49H22.776a.489.489,0,0,0,.489-.49V20.467a2.413,2.413,0,0,0-.947-1.936A13.971,13.971,0,0,0,16.53,16.1a.483.483,0,0,0-.469.171C15.948,16.406,14.869,19.1,12,19.1c-2.782,0-3.975-2.728-4.06-2.83A.493.493,0,0,0,7.47,16.1Z"/><path d="M14.53,15.184a6.864,6.864,0,0,0,4.327-6.368V6.857a6.857,6.857,0,0,0-13.714,0V8.816a6.846,6.846,0,0,0,9.387,6.368ZM7.1,8.816V7.1a.245.245,0,0,1,.245-.245h.735c1.259,0,3.809.31,5.7-1.752a.243.243,0,0,1,.18-.08.248.248,0,0,1,.181.08,5.18,5.18,0,0,0,2.6,1.544.214.214,0,0,1,.161.205V8.816a4.9,4.9,0,1,1-9.8,0Z"/><circle cx="13.959" cy="9.061" r="0.98"/><circle cx="10.041" cy="9.061" r="0.98"/><path d="M12.08,12.607a2.933,2.933,0,0,0,.846-.123,2.293,2.293,0,0,0,.427-.177.626.626,0,0,0-.3-1.177H11.1a.626.626,0,0,0-.3,1.178,2.309,2.309,0,0,0,.426.176,2.945,2.945,0,0,0,.849.124Z"/></svg>