<svg xmlns="http://www.w3.org/2000/svg" viewBox="0 0 24 24"><title>products-briefcase</title><path d="M21.5,5.5H17.75a.25.25,0,0,1-.25-.25V5a4,4,0,0,0-4-4h-3a4,4,0,0,0-4,4v.25a.25.25,0,0,1-.25.25H2.5A2.5,2.5,0,0,0,0,8v4.5A1.5,1.5,0,0,0,1.5,14H9.7a.252.252,0,0,0,.2-.1,2.486,2.486,0,0,1,4.188,0,.252.252,0,0,0,.2.1h8.2A1.5,1.5,0,0,0,24,12.5V8A2.5,2.5,0,0,0,21.5,5.5ZM10.5,3h3a2,2,0,0,1,1.98,1.714A.25.25,0,0,1,15.232,5H8.768a.25.25,0,0,1-.248-.286A2,2,0,0,1,10.5,3Z"/><path d="M12,19.25A3.035,3.035,0,0,1,9.25,16c0-.079,0-.157.007-.235a.25.25,0,0,0-.25-.265H2a.5.5,0,0,0-.5.429c-.061.425-.135.857-.208,1.288-.344,2.012-.668,3.913.25,5A2.473,2.473,0,0,0,3.541,23H20.459a2.473,2.473,0,0,0,1.994-.781c.919-1.089.594-2.99.25-5-.073-.431-.147-.863-.208-1.288A.5.5,0,0,0,22,15.5H14.993a.251.251,0,0,0-.25.265c0,.078.007.156.007.235A3.035,3.035,0,0,1,12,19.25Z"/><ellipse cx="12" cy="16" rx="1.25" ry="1.75"/></svg>