<svg id="Bold" xmlns="http://www.w3.org/2000/svg" viewBox="0 0 24 24"><title>recycling-refresh</title><path d="M5.407,11.887a.75.75,0,0,0-.656-.387H4.315a.5.5,0,0,1-.5-.565A8.25,8.25,0,0,1,18.471,6.882a1,1,0,0,0,1.568-1.241,10.25,10.25,0,0,0-18.245,5.4.5.5,0,0,1-.5.454H.75a.75.75,0,0,0-.636,1.147l2,3.2a.751.751,0,0,0,1.273,0l2-3.2A.75.75,0,0,0,5.407,11.887Z"/><path d="M23.886,11.353l-2-3.2a.781.781,0,0,0-1.273,0l-2,3.2a.75.75,0,0,0,.636,1.147h.436a.5.5,0,0,1,.5.565A8.25,8.25,0,0,1,5.529,17.118a1,1,0,0,0-1.568,1.241,10.25,10.25,0,0,0,18.245-5.405.5.5,0,0,1,.5-.454h.547a.75.75,0,0,0,.636-1.147Z"/><path d="M13.374,11.117a6.905,6.905,0,0,0-2.062,3.153.5.5,0,0,0,.272.636,2.116,2.116,0,0,0,.756.17A3.237,3.237,0,0,0,14.915,13.5a7.3,7.3,0,0,0-.1-6.786.5.5,0,0,0-.776-.071A6.537,6.537,0,0,1,11.7,8.117,6.944,6.944,0,0,0,9.6,9.347,2.739,2.739,0,0,0,8.59,11.72,2.176,2.176,0,0,0,9.309,13a.5.5,0,0,1,.129.545,17.245,17.245,0,0,0-.879,3.328.5.5,0,0,0,.991.139c.334-2.2,1.421-5.418,3.243-6.708a.5.5,0,0,1,.581.814Z"/></svg>