<svg xmlns="http://www.w3.org/2000/svg" viewBox="0 0 24 24"><title>task-finger-show</title><path d="M4.5,17.171a.251.251,0,0,0,.123-.216V6a1,1,0,0,1,.4-.8.249.249,0,0,0,.1-.2V3.354a.25.25,0,0,0-.318-.241A3,3,0,0,0,2.625,6l.006,12.3a.25.25,0,0,0,.45.149A4.879,4.879,0,0,1,4.5,17.171Z"/><path d="M19.193,3.113a.25.25,0,0,0-.318.241V5a.249.249,0,0,0,.1.2,1,1,0,0,1,.4.8V19a1,1,0,0,1-1,1h-1.5a.249.249,0,0,0-.25.248,2.651,2.651,0,0,1-.406,1.371.249.249,0,0,0,.213.381h1.943a3,3,0,0,0,3-3V6A3,3,0,0,0,19.193,3.113Z"/><path d="M6.625,5.749a.25.25,0,0,0,.25.25h10.25a.25.25,0,0,0,.25-.25v-3a.25.25,0,0,0-.25-.25H14.864a.25.25,0,0,1-.249-.227,2.5,2.5,0,0,0-4.98,0,.249.249,0,0,1-.249.227H6.875a.25.25,0,0,0-.25.25Zm6.25-3.5a.75.75,0,1,1-.75-.75A.75.75,0,0,1,12.875,2.249Z"/><path d="M14.674,19.257a1.25,1.25,0,0,0-1.76.163l-.879.735a.25.25,0,0,1-.41-.191V13.5a1.5,1.5,0,0,0-3,0v4.25a.25.25,0,0,1-.25.25H6.958a3.333,3.333,0,0,0-3.333,3.333v2.417a.25.25,0,0,0,.25.25H12.24a.251.251,0,0,0,.192-.09l2.4-2.892A1.25,1.25,0,0,0,14.674,19.257Z"/></svg>