<svg xmlns="http://www.w3.org/2000/svg" viewBox="0 0 24 24"><title>task-list-text-1</title><path d="M20.5,2h-5a.241.241,0,0,1-.208-.121,3.827,3.827,0,0,0-6.588,0A.241.241,0,0,1,8.5,2h-5A1.5,1.5,0,0,0,2,3.5v19A1.5,1.5,0,0,0,3.5,24h17A1.5,1.5,0,0,0,22,22.5V3.5A1.5,1.5,0,0,0,20.5,2ZM19,16.26a2.5,2.5,0,0,1-.6,1.626l-1.919,2.24a2.5,2.5,0,0,1-1.9.873H5.5a.5.5,0,0,1-.5-.5V5.5A.5.5,0,0,1,5.5,5h13a.5.5,0,0,1,.5.5Z"/><path d="M16,8.249H8a.75.75,0,0,0,0,1.5h8a.75.75,0,0,0,0-1.5Z"/><path d="M16,11.749H8a.75.75,0,0,0,0,1.5h8a.75.75,0,0,0,0-1.5Z"/><path d="M12.5,15.249H8a.75.75,0,1,0,0,1.5h4.5a.75.75,0,1,0,0-1.5Z"/></svg>