<svg id="Bold" xmlns="http://www.w3.org/2000/svg" viewBox="0 0 24 24"><title>weather-cloud-heavy-rain</title><path d="M19,16a5,5,0,0,0,3.094-8.926.252.252,0,0,1-.1-.193A7,7,0,0,0,8.338,4.84a.249.249,0,0,1-.22.173A5.5,5.5,0,0,0,8.5,16ZM8.5,7a3.487,3.487,0,0,1,.448.029A1,1,0,0,0,10.064,6.2,5,5,0,0,1,20,7c0,.146-.007.289-.02.433a1,1,0,0,0,.5.959A3,3,0,0,1,19,14H8.5a3.5,3.5,0,0,1,0-7Z"/><path d="M6.28,17.72a.749.749,0,0,0-1.06,0l-5,5a.75.75,0,1,0,1.06,1.06l5-5A.749.749,0,0,0,6.28,17.72Z"/><path d="M10.28,17.72a.749.749,0,0,0-1.06,0L5.47,21.47a.75.75,0,1,0,1.06,1.06l3.75-3.75A.749.749,0,0,0,10.28,17.72Z"/><path d="M14.28,17.72a.749.749,0,0,0-1.06,0l-5,5a.75.75,0,1,0,1.06,1.06l5-5A.749.749,0,0,0,14.28,17.72Z"/><path d="M21.22,17.72l-5,5a.75.75,0,1,0,1.06,1.06l5-5a.75.75,0,0,0-1.06-1.06Z"/><path d="M18.28,17.72a.749.749,0,0,0-1.06,0l-3.75,3.75a.75.75,0,1,0,1.06,1.06l3.75-3.75A.749.749,0,0,0,18.28,17.72Z"/></svg>