<svg xmlns="http://www.w3.org/2000/svg" viewBox="0 0 24 24"><title>accounting-document</title><path d="M21.561,5.854,16.146.439A1.511,1.511,0,0,0,15.086,0H3.5A1.5,1.5,0,0,0,2,1.5v21A1.5,1.5,0,0,0,3.5,24h18a.5.5,0,0,0,.5-.5V6.914A1.49,1.49,0,0,0,21.561,5.854ZM9.817,11.183l-3.37-1.26A2.55,2.55,0,0,1,5,7.455,2.529,2.529,0,0,1,7.289,4.92.249.249,0,0,0,7.5,4.673V4a1,1,0,0,1,2,0v.625a.25.25,0,0,0,.25.25H11a1,1,0,0,1,0,2H7.875C7,6.875,7,7.311,7,7.455a.9.9,0,0,0,.183.612l3.37,1.26A2.55,2.55,0,0,1,12,11.8,2.529,2.529,0,0,1,9.711,14.33a.249.249,0,0,0-.211.247v.673a1,1,0,0,1-2,0v-.625a.25.25,0,0,0-.25-.25H6a1,1,0,0,1,0-2H9.125c.875,0,.875-.436.875-.58A.9.9,0,0,0,9.817,11.183ZM18.5,14.75a.75.75,0,0,1,0,1.5h-5a.75.75,0,0,1,0-1.5ZM14.75,11a.75.75,0,0,1,.75-.75h3a.75.75,0,0,1,0,1.5h-3A.75.75,0,0,1,14.75,11Zm3.75,8.25a.75.75,0,0,1,0,1.5H8.5a.75.75,0,0,1,0-1.5Z"/></svg>