<svg id="Bold" xmlns="http://www.w3.org/2000/svg" viewBox="0 0 24 24"><title>agriculture-machine-tractor</title><path d="M17.75,13.75a4,4,0,1,0,4,4A4,4,0,0,0,17.75,13.75Zm0,5.5a1.5,1.5,0,1,1,1.5-1.5A1.5,1.5,0,0,1,17.75,19.25Z"/><path d="M23.839,13.816A7.249,7.249,0,0,0,20.855,11.2a.5.5,0,0,1-.275-.347L19.4,5.333a.5.5,0,0,1,.11-.432.99.99,0,0,0,.242-.651v-.5a1.5,1.5,0,0,0-1.5-1.5h-9a1.5,1.5,0,0,0-1.5,1.5v.5a.992.992,0,0,0,.227.633.5.5,0,0,1,.1.44L6.935,9.888a.5.5,0,0,1-.4.372,16.363,16.363,0,0,0-5.1,1.681A2.752,2.752,0,0,0,0,14.354v4.4a1.751,1.751,0,0,0,.988,1.575.251.251,0,0,0,.353-.282,3.455,3.455,0,0,1-.091-.793,3.5,3.5,0,0,1,7,0,3.458,3.458,0,0,1-.062.656.5.5,0,0,0,.492.594h2.07a1.752,1.752,0,0,0,1.75-1.75v-1A5.25,5.25,0,0,1,22.161,14.9a1,1,0,1,0,1.678-1.087ZM8.25,14.75H5.75a.5.5,0,0,1,0-1h2.5a.5.5,0,0,1,0,1Zm9.978-4.433a.5.5,0,0,1-.393.183,7.329,7.329,0,0,0-1.263.1.25.25,0,0,1-.288-.282l.209-1.458a.751.751,0,1,0-1.486-.212l-.328,2.3a.5.5,0,0,1-.264.373,7.3,7.3,0,0,0-3.284,3.48.349.349,0,0,1-.318.206.425.425,0,0,1-.423-.382l-.319-3.188a.5.5,0,0,1,.224-.468l.941-.616a.5.5,0,0,1,.583.024.769.769,0,0,0,.847,0,.749.749,0,0,0,.208-1.04l-1-1.5a.75.75,0,0,0-1.323.689.5.5,0,0,1-.19.6l-.87.569A.247.247,0,0,1,9.21,9.69a.25.25,0,0,1-.1-.264l.949-3.8a.5.5,0,0,1,.485-.379H16.93a.5.5,0,0,1,.489.4L18.33,9.9A.5.5,0,0,1,18.228,10.317Z"/><circle cx="4.75" cy="19.25" r="2.5"/></svg>