<svg xmlns="http://www.w3.org/2000/svg" viewBox="0 0 24 24"><title>analytics-bars-circle</title><path d="M3.5,19.873a1,1,0,0,0,.772-1.635A10.009,10.009,0,0,1,2,11.947a1,1,0,0,0-1-.995H1A1,1,0,0,0,0,11.957a12.023,12.023,0,0,0,2.723,7.551A1,1,0,0,0,3.5,19.873Z"/><path d="M15.37,21.314a10.1,10.1,0,0,1-6.691.017,1,1,0,1,0-.664,1.887,12.049,12.049,0,0,0,8.029-.021,1,1,0,0,0-.674-1.883Z"/><path d="M23.872,10.141a1,1,0,1,0-1.978.291A10.2,10.2,0,0,1,22,11.9a10.018,10.018,0,0,1-2.236,6.3,1,1,0,0,0,1.552,1.262,12.019,12.019,0,0,0,2.556-9.32Z"/><path d="M19.7,5.515a1,1,0,0,0,1.539-1.277A12.018,12.018,0,0,0,14.345.125a1,1,0,0,0-.389,1.962A10.014,10.014,0,0,1,19.7,5.515Z"/><path d="M7.9.614A12.058,12.058,0,0,0,1.707,5.723a1,1,0,0,0,1.715,1.03A10.049,10.049,0,0,1,8.585,2.494,1,1,0,0,0,7.9.614Z"/><path d="M5.5,16.4a1,1,0,0,0,1,1H18a1,1,0,0,0,0-2H6.5A1,1,0,0,0,5.5,16.4Z"/><rect x="6" y="9.146" width="3" height="5" rx="1" ry="1"/><rect x="10.5" y="7.146" width="3" height="7" rx="1" ry="1"/><rect x="15" y="5.646" width="3" height="8.5" rx="1" ry="1"/></svg>