<svg xmlns="http://www.w3.org/2000/svg" viewBox="0 0 24 24"><title>analytics-board-graph-line</title><path d="M1.5,21h21A1.5,1.5,0,0,0,24,19.5V4.5A1.5,1.5,0,0,0,22.5,3H1.5A1.5,1.5,0,0,0,0,4.5v15A1.5,1.5,0,0,0,1.5,21Zm1.143-5.076,2.571-4.285a1.5,1.5,0,0,1,2.573,0l1.665,2.774a.248.248,0,0,0,.2.12.245.245,0,0,0,.211-.089l.991-1.187a1.546,1.546,0,0,1,2.3,0l1.194,1.43,4.366-7.641a1,1,0,1,1,1.736.992L15.726,16.31a1.5,1.5,0,0,1-2.456.213l-1.078-1.292a.252.252,0,0,0-.384,0l-1.09,1.307a1.5,1.5,0,0,1-2.439-.189l-1.565-2.61a.25.25,0,0,0-.428,0L4.357,16.953a1,1,0,1,1-1.714-1.029Z"/></svg>