<svg id="Bold" xmlns="http://www.w3.org/2000/svg" viewBox="0 0 24 24"><title>beach-sun-birds</title><path d="M7.5,3.78a1,1,0,0,0,1-1V1.6a1,1,0,0,0-2,0V2.78A1,1,0,0,0,7.5,3.78Z"/><path d="M3.064,5.048A1,1,0,1,0,4.479,3.634L3.643,2.8A1,1,0,0,0,2.228,4.211Z"/><path d="M1,9.1H2.182a1,1,0,1,0,0-2H1a1,1,0,0,0,0,2Z"/><path d="M3.064,11.154l-.835.836A1,1,0,1,0,3.643,13.4l.836-.836a1,1,0,0,0-1.415-1.414Z"/><path d="M6.5,13.416V14.6a1,1,0,0,0,2,0V13.416a1,1,0,0,0-2,0Z"/><path d="M10.585,11.154a1,1,0,0,0,0,1.414l.836.836a1,1,0,0,0,1.414-1.414L12,11.154A1,1,0,0,0,10.585,11.154Z"/><path d="M11.818,8.1a1,1,0,0,0,1,1H14a1,1,0,0,0,0-2H12.818A1,1,0,0,0,11.818,8.1Z"/><path d="M11.292,5.341A1,1,0,0,0,12,5.048l.837-.837A1,1,0,0,0,11.421,2.8l-.837.837a1,1,0,0,0,.708,1.707Z"/><path d="M7.5,11.528A3.409,3.409,0,1,0,4.091,8.12,3.412,3.412,0,0,0,7.5,11.528Z"/><path d="M17.832,11.4a.516.516,0,0,1,.538-.2.826.826,0,0,1,.659.649,1,1,0,0,0,1.941,0,.826.826,0,0,1,.66-.649.517.517,0,0,1,.538.2,1,1,0,1,0,1.664-1.109,2.481,2.481,0,0,0-2.546-1.058,2.8,2.8,0,0,0-1.019.391.5.5,0,0,1-.535,0,2.8,2.8,0,0,0-1.018-.391,2.472,2.472,0,0,0-2.546,1.058A1,1,0,1,0,17.832,11.4Z"/><path d="M22.867,21.343c-1.629.218-2.737-1.5-2.746-1.513a1.048,1.048,0,0,0-1.715.023,3.283,3.283,0,0,1-2.677,1.515,2.725,2.725,0,0,1-2.336-1.439,1.045,1.045,0,0,0-1.714-.16,4.2,4.2,0,0,1-3.027,1.6A3.461,3.461,0,0,1,5.968,19.83a1.044,1.044,0,0,0-1.636-.094c-.014.02-1.509,1.874-3.2,1.647a1,1,0,0,0-.264,1.982,4.113,4.113,0,0,0,.549.036,5.486,5.486,0,0,0,3.324-1.295.5.5,0,0,1,.632.01,5.037,5.037,0,0,0,3.279,1.252,5.623,5.623,0,0,0,3.4-1.2.5.5,0,0,1,.636.027,4.449,4.449,0,0,0,3.044,1.17A5,5,0,0,0,18.955,22.2a.5.5,0,0,1,.64,0,4.5,4.5,0,0,0,3.538,1.126,1,1,0,0,0-.266-1.982Z"/></svg>