<svg xmlns="http://www.w3.org/2000/svg" viewBox="0 0 24 24"><title>construction-cone</title><path d="M16.011,9.364A.5.5,0,0,0,15.53,9H8.457a.5.5,0,0,0-.482.364l-1.412,5A.5.5,0,0,0,7.044,15h9.9a.5.5,0,0,0,.481-.636Z"/><path d="M23,22H19.972a.5.5,0,0,1-.481-.364l-.928-3.272A.5.5,0,0,0,18.082,18H5.913a.5.5,0,0,0-.481.364l-.925,3.272A.5.5,0,0,1,4.026,22H1a1,1,0,0,0,0,2H23a1,1,0,0,0,0-2Z"/><path d="M14.4,6a.5.5,0,0,0,.481-.636L13.725,1.305A1.8,1.8,0,0,0,12,0a1.828,1.828,0,0,0-1.753,1.326L9.106,5.364A.5.5,0,0,0,9.587,6Z"/></svg>