<svg xmlns="http://www.w3.org/2000/svg" viewBox="0 0 24 24"><title>currency-euro-circle</title><path d="M12,0A12,12,0,1,0,24,12,12,12,0,0,0,12,0Zm2,8.387a1.25,1.25,0,1,1,0,2.5H9.628a.25.25,0,0,0-.249.226c-.027.28-.042.574-.042.887,0,.121,0,.239.007.354a.25.25,0,0,0,.25.241H12.77a1.25,1.25,0,0,1,0,2.5H10.49a.25.25,0,0,0-.2.4c.967,1.223,2.717,1.75,5.475,1.75a1.25,1.25,0,0,1,0,2.5c-1.839,0-6.792-.019-8.4-4.49a.251.251,0,0,0-.236-.165H6.27a1.25,1.25,0,0,1,0-2.5H6.6a.252.252,0,0,0,.25-.269c-.008-.105-.015-.212-.015-.326,0-.3.016-.573.038-.843a.25.25,0,0,0-.249-.27H6.313a1.25,1.25,0,1,1,0-2.5h1a.249.249,0,0,0,.228-.148C9.332,4.252,14,4.25,15.769,4.25a1.25,1.25,0,0,1,0,2.5c-2.3,0-3.893.365-4.922,1.192A.25.25,0,0,0,11,8.387Z"/></svg>