<svg id="Bold" xmlns="http://www.w3.org/2000/svg" viewBox="0 0 24 24"><title>hardware-drill-carbide</title><path d="M15.346,13.571a.249.249,0,0,0-.273.054l-3.5,3.5a.249.249,0,0,0-.073.177v2.879a.25.25,0,0,0,.427.176l3.5-3.5a.248.248,0,0,0,.073-.176V13.8A.25.25,0,0,0,15.346,13.571Z"/><path d="M15.346,8.571a.249.249,0,0,0-.273.054l-3.5,3.5a.249.249,0,0,0-.073.177v2.879a.25.25,0,0,0,.427.176l3.5-3.5a.248.248,0,0,0,.073-.176V8.8A.25.25,0,0,0,15.346,8.571Z"/><path d="M15.346,18.571a.249.249,0,0,0-.273.054l-3.5,3.5a.249.249,0,0,0-.073.177v.689a1,1,0,0,0,1,1h2a1,1,0,0,0,1-1V18.8A.25.25,0,0,0,15.346,18.571Z"/><path d="M14.358,3.478a1.043,1.043,0,0,0-1.715,0l-1,1.665a1,1,0,0,0-.143.516v4.523a.25.25,0,0,0,.427.176l3.5-3.5a.248.248,0,0,0,.073-.176V5.658a.983.983,0,0,0-.143-.514Z"/><path d="M21.346,10.571a.249.249,0,0,0-.273.054l-1.5,1.5a.249.249,0,0,0-.073.177v2.379a.25.25,0,0,0,.427.176l1.5-1.5a.248.248,0,0,0,.073-.176V10.8A.25.25,0,0,0,21.346,10.571Z"/><path d="M21.346,15.071a.249.249,0,0,0-.273.054l-1.5,1.5a.249.249,0,0,0-.073.177v2.379a.25.25,0,0,0,.427.176l1.5-1.5a.248.248,0,0,0,.073-.176V15.3A.25.25,0,0,0,21.346,15.071Z"/><path d="M21.464,7.556l-.5-1.25a.5.5,0,0,0-.928,0l-.5,1.25a.491.491,0,0,0-.036.185v2.44a.25.25,0,0,0,.427.176l1.5-1.5a.248.248,0,0,0,.073-.176v-.94A.491.491,0,0,0,21.464,7.556Z"/><path d="M21.346,19.571a.249.249,0,0,0-.273.054l-1.5,1.5a.249.249,0,0,0-.073.177v2.189a.5.5,0,0,0,.5.5h1a.5.5,0,0,0,.5-.5V19.8A.25.25,0,0,0,21.346,19.571Z"/><path d="M7.346,11.424a.253.253,0,0,0-.273.054l-4.5,4.5a.251.251,0,0,0-.073.177v2.672A.25.25,0,0,0,2.927,19l4.5-4.5a.251.251,0,0,0,.073-.177V11.655A.251.251,0,0,0,7.346,11.424Z"/><path d="M7.346,5.924a.253.253,0,0,0-.273.054l-4.5,4.5a.251.251,0,0,0-.073.177v2.672a.25.25,0,0,0,.427.177L7.427,9A.251.251,0,0,0,7.5,8.827V6.155A.251.251,0,0,0,7.346,5.924Z"/><path d="M7.346,16.924a.253.253,0,0,0-.273.054l-4.5,4.5a.251.251,0,0,0-.073.177v1.336a1,1,0,0,0,1,1h3a1,1,0,0,0,1-1V17.155A.251.251,0,0,0,7.346,16.924Z"/><path d="M5.781.366a1.031,1.031,0,0,0-1.562,0l-1.5,1.875a1,1,0,0,0-.219.624V7.827A.25.25,0,0,0,2.927,8l4.5-4.5A.251.251,0,0,0,7.5,3.327V2.866a1,1,0,0,0-.219-.624Z"/></svg>