<svg xmlns="http://www.w3.org/2000/svg" viewBox="0 0 24 24"><title>mobile-shopping-shop-basket</title><path d="M20.947,4.276,19.224.83A1.491,1.491,0,0,0,17.882,0H6.118A1.492,1.492,0,0,0,4.776.829L3.053,4.276A.512.512,0,0,0,3,4.5v1A3.538,3.538,0,0,0,5.151,8.741a3.158,3.158,0,0,0,3.082-.369.249.249,0,0,1,.328.039,4.678,4.678,0,0,0,3.445,1.581,4.669,4.669,0,0,0,3.433-1.581.249.249,0,0,1,.328-.039,3.152,3.152,0,0,0,3.082.369A3.538,3.538,0,0,0,21,5.5v-1A.512.512,0,0,0,20.947,4.276Z"/><path d="M10.987,11.539a.746.746,0,0,0-.949.474L9.6,13.329a.25.25,0,0,1-.237.171H9.13a.5.5,0,0,0-.46.7l1.072,3a.5.5,0,0,0,.459.3h3.578a.5.5,0,0,0,.47-.329l1.091-3a.5.5,0,0,0-.47-.671h-.232a.25.25,0,0,1-.237-.171l-.439-1.316a.75.75,0,0,0-1.424.474l.228.684a.25.25,0,0,1-.237.329H11.471a.25.25,0,0,1-.237-.329l.228-.684A.749.749,0,0,0,10.987,11.539Z"/><path d="M18,10a1,1,0,0,0-1,1v7.5a.5.5,0,0,1-.5.5h-9a.5.5,0,0,1-.5-.5V11a1,1,0,0,0-2,0V21.5A2.5,2.5,0,0,0,7.5,24h9A2.5,2.5,0,0,0,19,21.5V11A1,1,0,0,0,18,10ZM13,21.5a1,1,0,1,1-1-1A1,1,0,0,1,13,21.5Z"/></svg>