<svg xmlns="http://www.w3.org/2000/svg" viewBox="0 0 24 24"><title>monetization-idea</title><path d="M13.786,5.686A.5.5,0,0,0,14.25,6h.034a.5.5,0,0,0,.451-.378l.223-.891a.25.25,0,0,1,.127-.161.247.247,0,0,1,.2-.011A8.459,8.459,0,0,1,20.75,12.5a1,1,0,0,0,2,0,10.45,10.45,0,0,0-7.022-9.911.25.25,0,0,1-.16-.3l.167-.671a.5.5,0,0,0-.785-.52l-2,1.5a.5.5,0,0,0-.164.585Z"/><path d="M7.805,22.234a.251.251,0,0,1,.151.286l-.194.872a.5.5,0,0,0,.2.514.5.5,0,0,0,.549.023l2.5-1.5a.5.5,0,0,0,.19-.653l-1.5-3a.508.508,0,0,0-.509-.272.5.5,0,0,0-.426.388l-.254,1.142a.25.25,0,0,1-.35.172A8.522,8.522,0,0,1,3.25,12.5a1,1,0,0,0-2,0A10.526,10.526,0,0,0,7.805,22.234Z"/><path d="M16.54,11.775a1,1,0,0,0-1,1v.317a.25.25,0,0,1-.2.244,2.61,2.61,0,0,0-.411,4.973l2.475.99a.61.61,0,0,1-.226,1.177H14.74a1,1,0,0,0,0,2h.55a.249.249,0,0,1,.25.25v.25a1,1,0,0,0,2,0v-.317a.249.249,0,0,1,.2-.244,2.61,2.61,0,0,0,.412-4.974l-2.475-.989a.61.61,0,0,1,.226-1.177h2.441a1,1,0,0,0,0-2H17.79a.25.25,0,0,1-.25-.25v-.25A1,1,0,0,0,16.54,11.775Z"/><path d="M3.652,7.5a.248.248,0,0,1,.1.2V8.25A.75.75,0,0,0,4.5,9H8a.75.75,0,0,0,.75-.75V7.7a.248.248,0,0,1,.1-.2A4.129,4.129,0,0,0,10.5,4.25,4.361,4.361,0,0,0,6.25,0,4.361,4.361,0,0,0,2,4.25,4.129,4.129,0,0,0,3.652,7.5Z"/><path d="M6.167,12.667a.75.75,0,0,0,.75-.75V11.75a.25.25,0,0,1,.25-.25H7.5a.75.75,0,0,0,0-1.5H5a.75.75,0,0,0,0,1.5h.167a.25.25,0,0,1,.25.25v.167A.75.75,0,0,0,6.167,12.667Z"/></svg>