<svg xmlns="http://www.w3.org/2000/svg" viewBox="0 0 24 24"><title>office-file-xls-1</title><path d="M18,19V10a1,1,0,0,0-1-1H1a1,1,0,0,0-1,1v9a1,1,0,0,0,1,1H17A1,1,0,0,0,18,19ZM6.059,17.219a.624.624,0,0,1-.28.838.618.618,0,0,1-.279.066.625.625,0,0,1-.559-.346s-.861-1.71-.881-1.762a.065.065,0,0,0-.121,0c-.028.054-.88,1.759-.88,1.759a.625.625,0,0,1-.559.346.618.618,0,0,1-.279-.066.624.624,0,0,1-.28-.838L3.246,14.61a.252.252,0,0,0,0-.224l-1.3-2.609a.625.625,0,0,1,1.118-.558s.846,1.69.875,1.75a.072.072,0,0,0,.132,0l.875-1.75a.625.625,0,0,1,1.118.558L4.754,14.386a.252.252,0,0,0,0,.224Zm4.441.9h-2A1.626,1.626,0,0,1,6.875,16.5v-5a.625.625,0,1,1,1.25,0v5a.375.375,0,0,0,.375.375h2a.625.625,0,0,1,0,1.25Zm2.927-4.758,1.84,1.227a1.927,1.927,0,0,1-1.07,3.531H12.5a.625.625,0,0,1,0-1.25h1.7a.678.678,0,0,0,.376-1.242L12.733,14.4a1.927,1.927,0,0,1,1.07-3.531h1.7a.625.625,0,0,1,0,1.25H13.8a.678.678,0,0,0-.376,1.242Z"/><path d="M23.707,5.705,18.293.291A1,1,0,0,0,17.586,0H6A2,2,0,0,0,4,2v5.75A.25.25,0,0,0,4.25,8h1.5A.25.25,0,0,0,6,7.748V2.5A.5.5,0,0,1,6.5,2H16.75a.25.25,0,0,1,.25.25V5a2,2,0,0,0,2,2h2.75a.25.25,0,0,1,.25.25V21.5a.5.5,0,0,1-.5.5H6.249A.249.249,0,0,1,6,21.749v-.5A.251.251,0,0,0,5.749,21H4.25a.25.25,0,0,0-.25.25V22a2,2,0,0,0,2,2H22a2,2,0,0,0,2-2V6.412A1,1,0,0,0,23.707,5.705Z"/></svg>