<svg xmlns="http://www.w3.org/2000/svg" viewBox="0 0 24 24"><title>people-woman-6</title><path d="M22.25,8a3.983,3.983,0,0,0-1.265-2.9.25.25,0,0,0-.382.048,4.006,4.006,0,0,1-1.018,1.094.249.249,0,0,0-.1.265A7.9,7.9,0,0,1,19.75,8.5v2a7.952,7.952,0,0,1-1.735,4.963.256.256,0,0,0-.053.185.251.251,0,0,0,.094.167,6.846,6.846,0,0,0,4.113,1.43h.1c1.174-.027,1.364-.393,1.426-.515a.5.5,0,0,0,.016-.425A23.336,23.336,0,0,1,22.25,8Z"/><path d="M22.284,20.491h0a14.249,14.249,0,0,0-5.908-2.481.5.5,0,0,0-.552.279,4.557,4.557,0,0,1-4.073,2.785,4.557,4.557,0,0,1-4.073-2.785.5.5,0,0,0-.551-.279,14.267,14.267,0,0,0-5.91,2.481A2.467,2.467,0,0,0,.25,22.468V23.5a.5.5,0,0,0,.5.5h22a.5.5,0,0,0,.5-.5V22.468A2.467,2.467,0,0,0,22.284,20.491Z"/><path d="M18.961,5.042a.25.25,0,0,0,.4.069A2.965,2.965,0,0,0,20.25,3a3,3,0,0,0-3-3,2.965,2.965,0,0,0-2.111.888.25.25,0,0,0,.069.4A8.046,8.046,0,0,1,18.961,5.042Z"/><path d="M18.75,10.5v-2a7,7,0,0,0-14,0v2a7,7,0,0,0,14,0Zm-7.5,4.976a5.153,5.153,0,0,1-4.5-5.2V9.549a.251.251,0,0,1,.243-.25c.24-.006.492-.021.757-.047a6.675,6.675,0,0,0,3.843-1.561.238.238,0,0,1,.314,0A6.7,6.7,0,0,0,15.75,9.257c.265.026.517.039.756.045a.25.25,0,0,1,.244.25V10.5A5.006,5.006,0,0,1,11.25,15.476Z"/><circle cx="13.75" cy="10.75" r="1"/><circle cx="9.75" cy="10.75" r="1"/><path d="M10.208,13.342a.639.639,0,0,0,.312.719,2.355,2.355,0,0,0,.438.182,3.017,3.017,0,0,0,.869.127,2.977,2.977,0,0,0,.866-.125,2.375,2.375,0,0,0,.441-.183.64.64,0,0,0-.307-1.2h-2A.64.64,0,0,0,10.208,13.342Z"/></svg>