<svg xmlns="http://www.w3.org/2000/svg" viewBox="0 0 24 24"><title>performance-increase-2</title><path d="M13.177,5.909a.25.25,0,0,1-.354,0L10.914,4A2,2,0,0,0,8.086,4L4.293,7.793A1,1,0,1,0,5.707,9.207L9.323,5.591a.25.25,0,0,1,.354,0L11.586,7.5a2,2,0,0,0,2.828,0l4.013-4.013a.25.25,0,0,1,.353,0l1.366,1.367A.5.5,0,0,0,20.5,5a.489.489,0,0,0,.191-.038A.5.5,0,0,0,21,4.5V.5a.5.5,0,0,0-.5-.5h-4a.5.5,0,0,0-.354.854l.867.866a.25.25,0,0,1,0,.353Z"/><path d="M3.167,11.5c-.369,0-.667.224-.667.5v8a.5.5,0,0,0,.5.5H6a.5.5,0,0,0,.5-.5V12c0-.276-.3-.5-.667-.5Z"/><path d="M13.833,14.5H11.167c-.369,0-.667.224-.667.5v5a.5.5,0,0,0,.5.5h3a.5.5,0,0,0,.5-.5V15C14.5,14.724,14.2,14.5,13.833,14.5Z"/><path d="M18,7.965V20.036a.483.483,0,0,0,.5.464h3a.483.483,0,0,0,.5-.464V7.965c0-.257-.3-.465-.667-.465H18.667C18.3,7.5,18,7.708,18,7.965Z"/><path d="M23,22H1a1,1,0,0,0,0,2H23a1,1,0,0,0,0-2Z"/></svg>