<svg id="Bold" xmlns="http://www.w3.org/2000/svg" viewBox="0 0 24 24"><title>pollution-faucet-water</title><path d="M.5,13.014H5.9a.5.5,0,0,1,.464.313,1.5,1.5,0,0,0,1.386.937h1a1.5,1.5,0,0,0,1.5-1.5v-6.5a1.5,1.5,0,0,0-1.5-1.5h-1A1.5,1.5,0,0,0,6.364,5.7a.5.5,0,0,1-.464.312H5.5a.5.5,0,0,1-.5-.5v-1a.5.5,0,0,1,.5-.5H6a1,1,0,0,0,0-2H2a1,1,0,0,0,0,2h.5a.5.5,0,0,1,.5.5v1a.5.5,0,0,1-.5.5H.5a.5.5,0,0,0-.5.5v6A.5.5,0,0,0,.5,13.014Z"/><path d="M17.97,5.044a.748.748,0,0,0,1.06,0l1-1a.75.75,0,0,0-1.06-1.06.666.666,0,0,1-.94,0,.75.75,0,0,0-1.06,1.06Z"/><path d="M19.97,8.544l1,1a.748.748,0,0,0,1.06,0l1-1a.75.75,0,1,0-1.06-1.06.666.666,0,0,1-.94,0,.75.75,0,1,0-1.06,1.06Z"/><path d="M12.205,11.535a5,5,0,0,1,4.545,4.979v.642a.371.371,0,0,0,.655.239,2.637,2.637,0,0,1,3.838-.023.5.5,0,0,0,.885-.4,10.494,10.494,0,0,0-9.853-8.945.5.5,0,0,0-.525.5v2.511A.5.5,0,0,0,12.205,11.535Z"/><path d="M23,19.986a3.745,3.745,0,0,1-2.9-1.646,1.056,1.056,0,0,0-1.546.023,3.72,3.72,0,0,1-2.884,1.623,3.743,3.743,0,0,1-2.9-1.646,1.055,1.055,0,0,0-1.547.024,3.72,3.72,0,0,1-2.884,1.622,3.745,3.745,0,0,1-2.9-1.646,1.055,1.055,0,0,0-1.547.024A3.718,3.718,0,0,1,1,19.986a1,1,0,0,0,0,2,5.126,5.126,0,0,0,3.346-1.243.5.5,0,0,1,.639,0,5.126,5.126,0,0,0,6.694,0,.5.5,0,0,1,.639,0,5.128,5.128,0,0,0,6.694,0,.5.5,0,0,1,.64,0A5.126,5.126,0,0,0,23,21.986a1,1,0,0,0,0-2Z"/></svg>