<svg xmlns="http://www.w3.org/2000/svg" viewBox="0 0 24 24"><title>professions-man-construction-2</title><path d="M24,21.269A2.959,2.959,0,0,0,22.836,18.9a15.684,15.684,0,0,0-7.588-2.816.25.25,0,0,1-.081-.47A7,7,0,0,0,19,9.375v-1a.25.25,0,0,1,.25-.25h.25a.75.75,0,0,0,0-1.5h-.32a.25.25,0,0,1-.248-.215A7,7,0,0,0,15.792,1.5a.251.251,0,0,0-.377.145L14.224,6.07a.75.75,0,0,1-.724.555.732.732,0,0,1-.2-.026.749.749,0,0,1-.529-.919L14.084.819a.242.242,0,0,0-.113-.282A4.554,4.554,0,0,0,12,.125a4.563,4.563,0,0,0-1.972.412.243.243,0,0,0-.112.282L11.224,5.68a.75.75,0,1,1-1.448.39L8.585,1.646A.251.251,0,0,0,8.208,1.5,7,7,0,0,0,5.068,6.41a.25.25,0,0,1-.248.215H4.5a.75.75,0,0,0,0,1.5h.25a.25.25,0,0,1,.25.25v1a7,7,0,0,0,3.833,6.234.25.25,0,0,1-.081.47A15.694,15.694,0,0,0,1.163,18.9,2.961,2.961,0,0,0,0,21.269v1.606a1,1,0,0,0,2,0V21.269a.98.98,0,0,1,.376-.785,10.609,10.609,0,0,1,2.276-1.292.254.254,0,0,1,.236.022A.25.25,0,0,1,5,19.423v4.2a.25.25,0,0,0,.25.25H11a.25.25,0,0,0,.25-.25V20.672a.252.252,0,0,0-.067-.171L9.249,18.434a.25.25,0,0,1,.155-.419,24.139,24.139,0,0,1,5.192,0,.25.25,0,0,1,.155.419L12.817,20.5a.252.252,0,0,0-.067.171v2.953a.25.25,0,0,0,.25.25h5.75a.25.25,0,0,0,.25-.25v-4.2a.248.248,0,0,1,.112-.208.251.251,0,0,1,.236-.022,10.572,10.572,0,0,1,2.275,1.292.978.978,0,0,1,.377.785v1.606a1,1,0,0,0,2,0ZM7,9.375v-1a.25.25,0,0,1,.25-.25h9.5a.25.25,0,0,1,.25.25v1a5,5,0,0,1-10,0Z"/><circle cx="14" cy="9.625" r="1"/><circle cx="10" cy="9.625" r="1"/><path d="M12.082,13.244a2.976,2.976,0,0,0,.863-.125,2.3,2.3,0,0,0,.436-.181.639.639,0,0,0-.3-1.2h-2a.639.639,0,0,0-.3,1.2,2.31,2.31,0,0,0,.435.18,2.99,2.99,0,0,0,.867.126Z"/></svg>