<svg xmlns="http://www.w3.org/2000/svg" viewBox="0 0 24 24"><title>smart-house-water</title><path d="M23.772,6.882,15.416.15a.652.652,0,0,0-.832,0L6.228,6.882a.628.628,0,0,0-.189.7.643.643,0,0,0,.6.416H8.5a.5.5,0,0,1,.5.5v5.866A.639.639,0,0,0,9.643,15H20.357A.638.638,0,0,0,21,14.366V8.5a.5.5,0,0,1,.5-.5h1.857a.643.643,0,0,0,.6-.416A.628.628,0,0,0,23.772,6.882ZM12,13.5a.75.75,0,1,1,.75-.75A.75.75,0,0,1,12,13.5Zm7-5a.5.5,0,0,1-.5.5h-4A1.5,1.5,0,0,0,13,10.479a.509.509,0,0,1-.5.521h-1a.507.507,0,0,1-.5-.522,3.552,3.552,0,0,1,3.263-3.472.249.249,0,0,0,.237-.249V5.75a.25.25,0,0,0-.25-.25H13a.5.5,0,0,1,0-1h4a.5.5,0,0,1,0,1H15.75a.25.25,0,0,0-.25.25v1a.25.25,0,0,0,.25.25H18.5a.5.5,0,0,1,.5.5Z"/><path d="M2.414,14.057a1.281,1.281,0,0,1,1.672,0,.75.75,0,1,0,1-1.114,2.819,2.819,0,0,0-3.68,0,.75.75,0,1,0,1,1.114Z"/><path d="M6.219,10.793a4.871,4.871,0,0,0-5.938,0,.75.75,0,1,0,.938,1.17,3.3,3.3,0,0,1,4.062,0,.75.75,0,1,0,.938-1.17Z"/><path d="M4.75,15.25h-3A1.752,1.752,0,0,0,0,17v5.25A1.752,1.752,0,0,0,1.75,24h3A1.752,1.752,0,0,0,6.5,22.25V17A1.752,1.752,0,0,0,4.75,15.25Zm.25,7a.25.25,0,0,1-.25.25h-3a.25.25,0,0,1-.25-.25V17a.25.25,0,0,1,.25-.25h3A.25.25,0,0,1,5,17Z"/></svg>