<svg xmlns="http://www.w3.org/2000/svg" viewBox="0 0 24 24"><title>style-one-pin-warning</title><path d="M12,0A9.5,9.5,0,0,0,8,18.119a2.509,2.509,0,0,1,1.218,1.222l1.872,4.076a1,1,0,0,0,1.817,0l1.876-4.079A2.5,2.5,0,0,1,16,18.118,9.5,9.5,0,0,0,12,0Zm5.863,13.552a.948.948,0,0,1-.807.448H6.944a.948.948,0,0,1-.807-.448.923.923,0,0,1-.031-.914L11.162,3a.95.95,0,0,1,1.676,0l5.056,9.635A.923.923,0,0,1,17.863,13.552Z"/><circle cx="12" cy="11.75" r="1.25"/><path d="M12,10a1,1,0,0,0,1-1V6a1,1,0,0,0-2,0V9A1,1,0,0,0,12,10Z"/></svg>