<svg id="Bold" xmlns="http://www.w3.org/2000/svg" viewBox="0 0 24 24"><title>temperature-snowflake</title><path d="M24,12a1,1,0,0,0-1-1h-.9a.25.25,0,0,1-.2-.406l.376-.469a1,1,0,0,0-1.562-1.25l-1.4,1.75a1,1,0,0,1-.781.375A.539.539,0,0,1,18,10.461V9.5a1,1,0,0,0-.485-.857.425.425,0,0,1-.082-.666l1.158-1.158a1,1,0,0,1,.818-.287l2.227.247a.832.832,0,0,0,.112.007,1,1,0,0,0,.108-1.994l-.6-.067A.25.25,0,0,1,21.11,4.3l.636-.636A1,1,0,1,0,20.332,2.25l-.636.636a.25.25,0,0,1-.26.059.247.247,0,0,1-.165-.208l-.067-.6a1,1,0,1,0-1.987.22l.247,2.227a1,1,0,0,1-.286.817L15.556,7.026a.5.5,0,0,1-.611.075l-1.54-.924a.836.836,0,0,1-.4-.716,1,1,0,0,1,.375-.781l1.75-1.4a1,1,0,0,0-1.25-1.562l-.469.376A.25.25,0,0,1,13,1.9V1a1,1,0,0,0-2,0v.9a.25.25,0,0,1-.406.2l-.469-.376a1,1,0,1,0-1.25,1.562l1.75,1.4A1,1,0,0,1,11,5.461a.836.836,0,0,1-.4.716l-1.59.954a.426.426,0,0,1-.52-.064L6.822,5.4a1,1,0,0,1-.286-.817L6.783,2.36A1,1,0,1,0,4.8,2.14l-.067.6a.247.247,0,0,1-.165.208.25.25,0,0,1-.26-.059L3.668,2.25A1,1,0,0,0,2.254,3.664L2.89,4.3a.25.25,0,0,1-.149.425l-.6.067a1,1,0,0,0,.108,1.994.832.832,0,0,0,.112-.007l2.227-.247a1,1,0,0,1,.818.287L6.567,7.977a.425.425,0,0,1-.082.666A1,1,0,0,0,6,9.5v.961A.539.539,0,0,1,5.461,11a1,1,0,0,1-.781-.375l-1.4-1.75a1,1,0,1,0-1.562,1.25l.376.469A.25.25,0,0,1,1.9,11H1a1,1,0,0,0,0,2h.9a.25.25,0,0,1,.2.406l-.376.469a1,1,0,0,0,1.562,1.25l1.4-1.75A1,1,0,0,1,5.461,13,.539.539,0,0,1,6,13.539V14.5a1,1,0,0,0,.485.857.425.425,0,0,1,.082.666L5.409,17.181a1,1,0,0,1-.818.287l-2.227-.247a1,1,0,1,0-.22,1.987l.6.067a.25.25,0,0,1,.149.425l-.636.636A1,1,0,1,0,3.668,21.75l.636-.636a.25.25,0,0,1,.26-.059.247.247,0,0,1,.165.208l.067.6a1,1,0,0,0,.992.89,1.051,1.051,0,0,0,.112-.006,1,1,0,0,0,.883-1.1l-.247-2.227a1,1,0,0,1,.286-.817l1.622-1.622a.5.5,0,0,1,.611-.075l1.54.924a.836.836,0,0,1,.4.716,1,1,0,0,1-.375.781l-1.75,1.4a1,1,0,1,0,1.25,1.562l.469-.376a.25.25,0,0,1,.406.2V23a1,1,0,0,0,2,0v-.9a.25.25,0,0,1,.406-.2l.469.376a1,1,0,0,0,1.25-1.562l-1.75-1.4A1,1,0,0,1,13,18.539a.836.836,0,0,1,.4-.716l1.54-.924a.5.5,0,0,1,.611.075L17.178,18.6a1,1,0,0,1,.286.817l-.247,2.227a1,1,0,0,0,.883,1.1,1.065,1.065,0,0,0,.112.006,1,1,0,0,0,.992-.89l.067-.6a.247.247,0,0,1,.165-.208.25.25,0,0,1,.26.059l.636.636a1,1,0,1,0,1.414-1.414L21.11,19.7a.25.25,0,0,1,.149-.425l.6-.067a1,1,0,1,0-.22-1.987l-2.227.247a1,1,0,0,1-.818-.287l-1.158-1.158a.425.425,0,0,1,.082-.666A1,1,0,0,0,18,14.5v-.961A.539.539,0,0,1,18.539,13a1,1,0,0,1,.781.375l1.4,1.75a1,1,0,0,0,1.562-1.25l-.376-.469A.25.25,0,0,1,22.1,13H23A1,1,0,0,0,24,12Zm-8,1.651a.5.5,0,0,1-.243.428l-3.5,2.1a.5.5,0,0,1-.514,0l-3.5-2.1A.5.5,0,0,1,8,13.651v-3.3a.5.5,0,0,1,.243-.428l3.5-2.1a.5.5,0,0,1,.514,0l3.5,2.1a.5.5,0,0,1,.243.428Z"/></svg>