<svg id="Bold" xmlns="http://www.w3.org/2000/svg" viewBox="0 0 24 24"><title>water-protection-faucet</title><path d="M21.983,18.623h0a1,1,0,0,0-.876.518c-1.141,2.078-1.141,2.652-1.141,2.841a2.018,2.018,0,1,0,4.035,0c0-.189,0-.764-1.142-2.841A1,1,0,0,0,21.983,18.623Z"/><path d="M15.5,7a.5.5,0,0,0-.5.5v5a.5.5,0,0,0,.5.5h2A1.5,1.5,0,0,1,19,14.5V16a1,1,0,0,0,1,1h3a1,1,0,0,0,1-1V14.5C24,7.73,18.056,7,15.5,7Z"/><rect y="7" width="4" height="6" rx="0.5" ry="0.5"/><path d="M11.757,4.1a.343.343,0,0,1-.257-.333V3.75a.5.5,0,0,1,.5-.5h4.75a1,1,0,0,0,0-2h-5A.25.25,0,0,1,11.5,1a1,1,0,0,0-1-1h-2a1,1,0,0,0-1,1,.25.25,0,0,1-.25.25h-5a1,1,0,0,0,0,2H7a.5.5,0,0,1,.5.5.363.363,0,0,1-.27.35A3.007,3.007,0,0,0,5,7v6a3,3,0,0,0,3,3h3a3,3,0,0,0,3-3V7A3.006,3.006,0,0,0,11.757,4.1Z"/></svg>