<svg id="Bold" xmlns="http://www.w3.org/2000/svg" viewBox="0 0 24 24"><title>water-protection-tower</title><path d="M19.25,16.25H4.75a1,1,0,0,0,0,2h.5a.5.5,0,0,1,.5.5V23A1,1,0,0,0,7.2,23.9l4.579-2.29a.5.5,0,0,1,.448,0L16.8,23.9A1,1,0,0,0,18.25,23V18.75a.5.5,0,0,1,.5-.5h.5a1,1,0,0,0,0-2ZM9.317,20.6l-1.2.6a.25.25,0,0,1-.362-.224v-1.2a.25.25,0,0,1,.362-.224l1.205.6a.251.251,0,0,1,0,.448Zm3.75-1.875-.843.421a.5.5,0,0,1-.448,0l-.842-.421a.25.25,0,0,1,.111-.474h1.91a.25.25,0,0,1,.112.474Zm3.183,2.253a.25.25,0,0,1-.362.224l-1.2-.6a.251.251,0,0,1,0-.448l1.205-.6a.25.25,0,0,1,.362.224Z"/><path d="M17.5,12.25H6.5a.5.5,0,0,0-.5.5A2.25,2.25,0,0,0,8.25,15h7.5A2.25,2.25,0,0,0,18,12.75.5.5,0,0,0,17.5,12.25Z"/><rect x="6" y="8.25" width="12" height="2.5" rx="0.5" ry="0.5"/><path d="M5.5,5a.5.5,0,0,1,.5.5v.75a.5.5,0,0,0,.5.5h11a.5.5,0,0,0,.5-.5V5.5a.5.5,0,0,1,.5-.5.5.5,0,0,0,.262-.926l-6.5-4a.5.5,0,0,0-.524,0l-6.5,4A.5.5,0,0,0,5.5,5Z"/></svg>