<svg xmlns="http://www.w3.org/2000/svg" viewBox="0 0 24 24"><title>water-fountain-drop</title><path d="M18.407,16.868A8.755,8.755,0,0,0,16.75,20.5a2.5,2.5,0,0,0,5,0,8.754,8.754,0,0,0-1.657-3.63A1.036,1.036,0,0,0,18.407,16.868Z"/><path d="M21.75,9H9.992a.251.251,0,0,1-.25-.234,3.9,3.9,0,0,0-.217-1.057.5.5,0,0,0-.67-.293L3.714,9.641h0a2,2,0,0,1-.8.166.165.165,0,0,0-.165.165V23a1,1,0,0,0,1,1h5a1,1,0,0,0,1-1V16.9a.5.5,0,0,1,.138-.345,13.178,13.178,0,0,1,6.042-3.884.25.25,0,0,1,.32.24V13a1,1,0,0,0,1,1h4.5a1,1,0,0,0,1-1V10A1,1,0,0,0,21.75,9Z"/><path d="M3.316,8.723h0L15.462,3.467A1.811,1.811,0,0,0,14,.152L1.867,5.4a1.024,1.024,0,0,0-.53,1.354L1.972,8.2a1.029,1.029,0,0,0,.94.611A1.009,1.009,0,0,0,3.316,8.723Z"/></svg>