<svg id="Bold" xmlns="http://www.w3.org/2000/svg" viewBox="0 0 24 24"><title>weather-cloud-wind-4</title><path d="M22.513,9.943a.252.252,0,0,1-.071-.218A4.6,4.6,0,0,0,22.5,9a4.491,4.491,0,0,0-3.517-4.393.248.248,0,0,1-.171-.136,7,7,0,0,0-12.988.916.251.251,0,0,1-.205.173A6.509,6.509,0,0,0,0,12a6.594,6.594,0,0,0,.058.872.253.253,0,0,0,.109.174.249.249,0,0,0,.2.035A2.481,2.481,0,0,1,1,13h.809A.248.248,0,0,0,2,12.912a.245.245,0,0,0,.057-.2A4.5,4.5,0,0,1,6.581,7.5h0a1,1,0,0,0,.986-.834,5,5,0,0,1,9.647-.831,1,1,0,0,0,.9.667,2.5,2.5,0,0,1,2.232,3.365,1,1,0,0,0,.366,1.169A3,3,0,0,1,19,16.5H14.961a.25.25,0,0,0-.182.079,4.51,4.51,0,0,1-2.228,1.3.25.25,0,0,0-.158.369c.027.046.052.092.078.139a.217.217,0,0,0,.193.116H19a5,5,0,0,0,3.513-8.557Z"/><path d="M8.5,17.5H1a1,1,0,0,0,0,2H8.5a1,1,0,0,1,0,2,1,1,0,0,0,0,2,3,3,0,0,0,0-6Z"/><path d="M1,16.5H11.5a3,3,0,0,0,0-6,1,1,0,0,0,0,2,1,1,0,0,1,0,2H1a1,1,0,0,0,0,2Z"/></svg>