<svg id="Bold" xmlns="http://www.w3.org/2000/svg" viewBox="0 0 24 24"><title>wild-bird-eggs</title><path d="M15.329,14.71a5.2,5.2,0,0,1-.251,1.524A3.522,3.522,0,0,0,18.5,12.716c0-1.949-1.58-6.471-3.529-6.471-.764,0-1.469.7-2.046,1.658A12.788,12.788,0,0,1,15.329,14.71Z"/><path d="M10.039,18.5a3.79,3.79,0,0,0,3.79-3.79c0-2.093-1.7-6.947-3.79-6.947S6.25,12.617,6.25,14.71A3.789,3.789,0,0,0,10.039,18.5Z"/><path d="M9.817,2.2a10.193,10.193,0,0,1,4.367,0A.98.98,0,0,0,14.608.288a12.144,12.144,0,0,0-5.214,0A.98.98,0,1,0,9.817,2.2Z"/><path d="M2.176,6.915a.98.98,0,0,0,1.352-.3A10.136,10.136,0,0,1,6.616,3.525.979.979,0,1,0,5.563,1.874,12.082,12.082,0,0,0,1.875,5.562.981.981,0,0,0,2.176,6.915Z"/><path d="M2.2,14.183a10.129,10.129,0,0,1,0-4.367A.979.979,0,1,0,.289,9.391a12.081,12.081,0,0,0,0,5.215A.98.98,0,0,0,2.2,14.183Z"/><path d="M6.614,20.471a10.122,10.122,0,0,1-3.087-3.088.98.98,0,0,0-1.652,1.054,12.1,12.1,0,0,0,3.688,3.687.979.979,0,1,0,1.051-1.653Z"/><path d="M14.183,21.8a10.172,10.172,0,0,1-4.366,0,.98.98,0,1,0-.425,1.913,12.1,12.1,0,0,0,5.215,0,.98.98,0,0,0-.424-1.913Z"/><path d="M21.825,17.085a.981.981,0,0,0-1.353.3,10.133,10.133,0,0,1-3.088,3.088.98.98,0,0,0-.3,1.352,1.014,1.014,0,0,0,1.353.3,12.071,12.071,0,0,0,3.687-3.687A.979.979,0,0,0,21.825,17.085Z"/><path d="M23.712,9.393a.98.98,0,1,0-1.913.423,10.13,10.13,0,0,1,0,4.367.979.979,0,0,0,.744,1.169.989.989,0,0,0,1.168-.744A12.081,12.081,0,0,0,23.712,9.393Z"/><path d="M17.385,3.526a10.138,10.138,0,0,1,3.088,3.089.979.979,0,1,0,1.652-1.052,12.072,12.072,0,0,0-3.687-3.688.979.979,0,1,0-1.053,1.651Z"/></svg>