<svg id="Bold" xmlns="http://www.w3.org/2000/svg" viewBox="0 0 24 24"><title>wind-velocity-measure</title><path d="M22.732,5.863,8.487.215A2.005,2.005,0,0,0,6.625.421a1.983,1.983,0,0,0-.871,1.637.25.25,0,0,1-.117.2L2.383,4.3A.25.25,0,0,1,2,4.092V1A1,1,0,0,0,0,1V23a1,1,0,0,0,2,0V11.647a.25.25,0,0,1,.351-.229L5.6,12.859a.249.249,0,0,1,.149.228v.341a2,2,0,0,0,2.742,1.857l14.244-5.7a2,2,0,0,0,0-3.72ZM10.25,3.432a.25.25,0,0,1,.342-.232l1.5.594a.251.251,0,0,1,.158.232v7.435a.25.25,0,0,1-.157.232l-1.5.6a.25.25,0,0,1-.343-.232Zm6.842,2.341a.251.251,0,0,1,.158.233V9.462a.25.25,0,0,1-.157.232l-1.5.6a.251.251,0,0,1-.233-.026.249.249,0,0,1-.11-.207V5.412a.252.252,0,0,1,.109-.207.254.254,0,0,1,.233-.026ZM8.119,1.146Zm-5.97,8A.249.249,0,0,1,2,8.913V7.046a.247.247,0,0,1,.117-.211L5.368,4.791A.25.25,0,0,1,5.751,5v5.351a.249.249,0,0,1-.351.229Z"/></svg>